<svg xmlns="http://www.w3.org/2000/svg" xmlns:xlink="http://www.w3.org/1999/xlink" preserveAspectRatio="xMidYMid" width="17.094" height="17.12" viewBox="0 0 17.094 17.12">
  <defs>
    <style>
      .cls-1 {
        fill: #59d556;
        fill-rule: evenodd;
      }
    </style>
  </defs>
  <path d="M17.083,10.494 L17.083,17.114 L13.425,17.114 L13.425,10.937 C13.425,9.386 12.896,8.327 11.571,8.327 C10.560,8.327 9.959,9.041 9.694,9.731 C9.598,9.978 9.573,10.321 9.573,10.667 L9.573,17.114 L5.913,17.114 C5.913,17.114 5.962,6.653 5.913,5.569 L9.572,5.569 L9.572,7.205 C9.565,7.218 9.555,7.231 9.548,7.243 L9.572,7.243 L9.572,7.205 C10.059,6.420 10.927,5.298 12.870,5.298 C15.278,5.298 17.083,6.948 17.083,10.494 ZM2.085,0.004 C0.833,0.004 0.014,0.865 0.014,1.998 C0.014,3.106 0.809,3.994 2.036,3.994 L2.061,3.994 C3.337,3.994 4.131,3.107 4.131,1.998 C4.107,0.865 3.337,0.004 2.085,0.004 ZM0.231,17.114 L3.890,17.114 L3.890,5.569 L0.231,5.569 L0.231,17.114 Z" class="cls-1"/>
</svg>
