<svg xmlns="http://www.w3.org/2000/svg" xmlns:xlink="http://www.w3.org/1999/xlink" preserveAspectRatio="xMidYMid" width="44" height="44" viewBox="0 0 44 44">
  <defs>
    <style>
      .cls-1 {
        fill: #159e31;
        fill-rule: evenodd;
      }
    </style>
  </defs>
  <path d="M37.546,6.446 C33.392,2.291 27.870,-0.000 21.995,-0.000 C16.121,-0.000 10.599,2.291 6.445,6.446 C2.290,10.602 0.000,16.125 0.000,22.000 C0.000,27.876 2.290,33.398 6.445,37.554 C10.599,41.710 16.121,44.000 21.995,44.000 C25.408,44.000 28.522,43.366 30.993,42.180 C33.337,41.049 35.039,39.428 35.790,37.626 C36.686,35.463 36.179,33.208 34.405,31.434 L34.342,31.371 C34.369,31.334 34.405,31.307 34.432,31.280 C35.700,29.949 35.700,28.202 34.414,26.916 L31.282,23.784 C30.667,23.150 29.925,22.806 29.137,22.806 C28.350,22.806 27.598,23.141 26.965,23.774 L25.336,25.404 C25.254,25.359 25.182,25.322 25.100,25.286 C24.901,25.186 24.720,25.096 24.566,24.997 C22.910,23.947 21.407,22.570 19.968,20.805 C19.334,20.009 18.900,19.329 18.574,18.659 C18.981,18.279 19.361,17.889 19.733,17.510 C19.886,17.346 20.049,17.192 20.212,17.030 C21.543,15.699 21.543,13.979 20.212,12.648 L18.664,11.099 C18.483,10.918 18.312,10.747 18.140,10.565 C17.796,10.212 17.443,9.850 17.062,9.497 C16.447,8.890 15.714,8.574 14.935,8.574 C14.157,8.574 13.415,8.890 12.781,9.497 C12.772,9.506 12.772,9.506 12.763,9.515 L10.817,11.461 C10.038,12.240 9.586,13.200 9.495,14.304 C9.359,16.025 9.857,17.618 10.246,18.659 C11.179,21.176 12.573,23.512 14.646,26.011 C17.162,29.016 20.194,31.398 23.661,33.073 C24.992,33.706 26.775,34.448 28.784,34.584 C28.911,34.593 29.038,34.593 29.164,34.593 C30.567,34.593 31.753,34.086 32.676,33.081 C32.685,33.073 32.704,33.054 32.713,33.045 C32.740,33.009 32.776,32.973 32.812,32.936 L32.866,32.991 C34.025,34.150 34.342,35.472 33.781,36.820 C32.740,39.292 28.694,41.827 21.995,41.827 C11.061,41.827 2.172,32.936 2.172,22.000 C2.172,11.063 11.061,2.173 21.995,2.173 C32.930,2.173 41.819,11.063 41.819,22.000 C41.819,23.801 41.574,25.576 41.104,27.287 C40.941,27.866 41.284,28.464 41.864,28.627 C42.443,28.790 43.041,28.446 43.203,27.866 C43.728,25.965 44.000,23.992 44.000,22.000 C43.991,16.125 41.701,10.602 37.546,6.446 ZM31.065,31.606 C30.549,32.158 29.970,32.402 29.164,32.402 C29.083,32.402 29.001,32.402 28.920,32.393 C27.291,32.285 25.752,31.642 24.602,31.090 C21.425,29.550 18.637,27.368 16.320,24.598 C14.410,22.299 13.134,20.171 12.283,17.889 C11.776,16.513 11.586,15.464 11.659,14.468 C11.713,13.879 11.930,13.399 12.356,12.983 L14.302,11.045 C14.455,10.900 14.691,10.728 14.944,10.728 C15.198,10.728 15.415,10.891 15.551,11.036 C15.560,11.045 15.569,11.054 15.578,11.063 C15.922,11.380 16.248,11.715 16.592,12.069 C16.773,12.250 16.954,12.439 17.135,12.620 L18.683,14.169 C19.162,14.649 19.162,15.002 18.683,15.481 C18.520,15.644 18.357,15.807 18.194,15.970 C17.714,16.450 17.271,16.912 16.782,17.346 C16.764,17.355 16.755,17.374 16.736,17.392 C16.058,18.071 16.293,18.777 16.365,19.012 C16.374,19.039 16.383,19.057 16.392,19.085 C16.809,20.090 17.388,21.031 18.275,22.154 L18.284,22.163 C19.877,24.127 21.552,25.648 23.408,26.826 C23.652,26.979 23.896,27.106 24.132,27.224 C24.331,27.323 24.512,27.413 24.666,27.513 C24.693,27.531 24.729,27.550 24.765,27.568 C25.001,27.685 25.236,27.740 25.471,27.740 C25.870,27.740 26.241,27.577 26.558,27.251 L28.504,25.304 C28.657,25.151 28.884,24.969 29.137,24.969 C29.373,24.969 29.590,25.142 29.726,25.286 C29.735,25.295 29.735,25.295 29.744,25.304 L32.876,28.437 C33.319,28.880 33.319,29.288 32.857,29.768 L32.848,29.777 C32.640,30.003 32.414,30.220 32.170,30.455 C31.807,30.809 31.427,31.180 31.065,31.606 Z" class="cls-1"/>
</svg>
