<svg xmlns="http://www.w3.org/2000/svg" xmlns:xlink="http://www.w3.org/1999/xlink" preserveAspectRatio="xMidYMid" width="62" height="52" viewBox="0 0 62 52">
  <defs>
    <style>
      .cls-1 {
        fill: #159e31;
        fill-rule: evenodd;
      }
    </style>
  </defs>
  <path d="M6.782,29.221 C6.626,29.327 6.450,29.377 6.276,29.377 C5.983,29.377 5.695,29.234 5.519,28.969 C4.449,27.354 3.883,25.476 3.883,23.542 C3.883,21.136 4.761,18.821 6.357,17.024 C6.693,16.646 7.268,16.615 7.642,16.955 C8.016,17.296 8.046,17.879 7.710,18.257 C6.415,19.715 5.703,21.592 5.703,23.542 C5.703,25.109 6.162,26.631 7.030,27.941 C7.310,28.364 7.199,28.937 6.782,29.221 ZM12.658,15.676 C12.065,15.743 11.480,15.878 10.920,16.079 C10.820,16.115 10.717,16.132 10.616,16.132 C10.242,16.132 9.891,15.896 9.759,15.518 C9.591,15.038 9.839,14.511 10.313,14.341 C11.004,14.093 11.726,13.926 12.458,13.844 C12.958,13.788 13.407,14.152 13.462,14.659 C13.517,15.165 13.157,15.621 12.658,15.676 ZM59.234,33.732 C57.531,35.626 55.236,36.836 52.744,37.159 C52.626,37.216 52.494,37.248 52.354,37.248 L49.442,37.248 C48.940,37.248 48.532,36.835 48.532,36.326 C48.532,35.817 48.940,35.404 49.442,35.404 L52.059,35.404 C52.124,35.381 52.193,35.366 52.264,35.359 C54.423,35.141 56.421,34.123 57.889,32.490 C59.366,30.847 60.180,28.717 60.180,26.492 C60.180,22.565 57.696,19.144 53.998,17.980 C53.631,17.864 53.375,17.527 53.359,17.138 C53.095,10.768 47.964,5.778 41.677,5.778 C40.512,5.778 39.356,5.954 38.242,6.300 C37.924,6.398 37.577,6.313 37.339,6.077 C34.588,3.348 30.957,1.845 27.117,1.845 C24.143,1.845 21.281,2.746 18.842,4.450 C16.460,6.115 14.632,8.429 13.556,11.143 C13.425,11.472 13.120,11.696 12.770,11.719 C6.630,12.118 1.820,17.311 1.820,23.542 C1.820,26.551 2.934,29.421 4.957,31.622 C6.969,33.812 9.693,35.143 12.627,35.369 C13.128,35.408 13.503,35.851 13.465,36.358 C13.427,36.866 12.990,37.246 12.489,37.208 C9.098,36.946 5.950,35.409 3.625,32.879 C1.287,30.335 0.000,27.019 0.000,23.542 C0.000,16.535 5.265,10.663 12.087,9.928 C13.318,7.104 15.287,4.694 17.809,2.932 C20.553,1.015 23.772,0.001 27.117,0.001 C31.258,0.001 35.182,1.555 38.226,4.387 C39.351,4.087 40.510,3.935 41.677,3.935 C45.189,3.935 48.516,5.294 51.044,7.761 C53.412,10.073 54.852,13.130 55.137,16.428 C57.012,17.149 58.683,18.420 59.890,20.055 C61.270,21.925 62.000,24.151 62.000,26.492 C62.000,29.177 61.018,31.748 59.234,33.732 ZM33.911,7.999 C33.726,7.999 33.540,7.943 33.379,7.825 C31.550,6.486 29.384,5.778 27.117,5.778 C26.615,5.778 26.207,5.366 26.207,4.857 C26.207,4.347 26.615,3.935 27.117,3.935 C29.769,3.935 32.303,4.763 34.444,6.330 C34.852,6.628 34.943,7.204 34.649,7.617 C34.471,7.867 34.193,7.999 33.911,7.999 ZM43.620,9.931 C43.553,9.931 43.486,9.923 43.418,9.908 C42.851,9.778 42.266,9.712 41.677,9.712 C41.175,9.712 40.767,9.299 40.767,8.790 C40.767,8.281 41.175,7.868 41.677,7.868 C42.400,7.868 43.121,7.949 43.820,8.109 C44.310,8.222 44.617,8.716 44.506,9.212 C44.411,9.640 44.035,9.931 43.620,9.931 ZM46.466,10.177 C46.783,9.782 47.356,9.722 47.746,10.043 C49.887,11.803 51.182,14.421 51.298,17.226 C51.342,18.272 51.904,19.204 52.802,19.719 C53.239,19.970 53.393,20.533 53.145,20.976 C52.977,21.275 52.669,21.443 52.352,21.443 C52.200,21.443 52.046,21.405 51.904,21.323 C50.456,20.492 49.550,18.989 49.480,17.303 C49.386,15.026 48.336,12.902 46.600,11.474 C46.209,11.153 46.150,10.573 46.466,10.177 ZM20.323,30.487 L41.677,30.487 C44.320,30.487 46.470,32.665 46.470,35.343 L46.470,47.144 C46.470,49.821 44.320,51.999 41.677,51.999 L20.323,51.999 C17.680,51.999 15.530,49.821 15.530,47.144 L15.530,35.343 C15.530,32.665 17.680,30.487 20.323,30.487 ZM17.350,47.144 C17.350,48.804 18.684,50.155 20.323,50.155 L41.677,50.155 C43.316,50.155 44.650,48.804 44.650,47.144 L44.650,35.343 C44.650,33.682 43.316,32.331 41.677,32.331 L20.323,32.331 C18.684,32.331 17.350,33.682 17.350,35.343 L17.350,47.144 ZM25.503,35.674 C25.859,35.314 26.435,35.314 26.790,35.674 C27.146,36.034 27.146,36.618 26.790,36.978 L22.580,41.243 L26.790,45.508 C27.146,45.868 27.146,46.452 26.790,46.812 C26.613,46.992 26.380,47.082 26.147,47.082 C25.914,47.082 25.681,46.992 25.503,46.812 L20.650,41.895 C20.295,41.535 20.295,40.951 20.650,40.591 L25.503,35.674 ZM28.088,42.288 C28.328,42.288 28.562,42.386 28.731,42.558 C28.901,42.729 28.998,42.968 28.998,43.210 C28.998,43.452 28.901,43.690 28.731,43.861 C28.562,44.033 28.327,44.132 28.088,44.132 C27.849,44.132 27.614,44.033 27.445,43.861 C27.275,43.690 27.178,43.452 27.178,43.210 C27.178,42.968 27.275,42.729 27.445,42.558 C27.614,42.386 27.849,42.288 28.088,42.288 ZM31.000,42.288 C31.239,42.288 31.474,42.386 31.643,42.558 C31.813,42.729 31.910,42.966 31.910,43.210 C31.910,43.452 31.813,43.690 31.643,43.861 C31.474,44.033 31.239,44.132 31.000,44.132 C30.761,44.132 30.526,44.033 30.357,43.861 C30.187,43.690 30.090,43.452 30.090,43.210 C30.090,42.968 30.187,42.729 30.357,42.558 C30.526,42.386 30.761,42.288 31.000,42.288 ZM33.912,42.288 C34.151,42.288 34.386,42.386 34.555,42.558 C34.725,42.729 34.822,42.968 34.822,43.210 C34.822,43.452 34.725,43.690 34.555,43.861 C34.386,44.033 34.151,44.132 33.912,44.132 C33.673,44.132 33.438,44.033 33.269,43.861 C33.099,43.690 33.002,43.452 33.002,43.210 C33.002,42.968 33.099,42.729 33.269,42.558 C33.438,42.386 33.673,42.288 33.912,42.288 ZM35.210,35.674 C35.565,35.314 36.141,35.314 36.497,35.674 L41.350,40.591 C41.705,40.951 41.705,41.535 41.350,41.895 L36.497,46.812 C36.319,46.992 36.086,47.082 35.853,47.082 C35.620,47.082 35.387,46.992 35.210,46.812 C34.854,46.452 34.854,45.868 35.210,45.508 L39.420,41.243 L35.210,36.978 C34.854,36.618 34.854,36.034 35.210,35.674 Z" class="cls-1"/>
</svg>
