<svg xmlns="http://www.w3.org/2000/svg" xmlns:xlink="http://www.w3.org/1999/xlink" preserveAspectRatio="xMidYMid" width="58" height="57" viewBox="0 0 58 57">
  <defs>
    <style>
      .cls-1 {
        fill: #159e31;
        fill-rule: evenodd;
      }
    </style>
  </defs>
  <path d="M58.000,28.996 C57.999,34.824 56.283,40.416 53.002,45.243 C52.118,46.543 50.641,47.319 49.049,47.319 L47.405,47.319 C46.903,47.319 46.497,46.913 46.497,46.412 C46.497,45.910 46.903,45.504 47.405,45.504 L49.049,45.504 C50.038,45.504 50.954,45.025 51.500,44.223 C52.371,42.941 53.123,41.601 53.756,40.215 L51.026,39.085 C50.563,38.893 50.343,38.362 50.535,37.899 C50.726,37.436 51.258,37.216 51.721,37.408 L54.454,38.539 C55.492,35.786 56.071,32.877 56.168,29.892 L53.217,29.892 C52.715,29.892 52.309,29.485 52.309,28.984 C52.309,28.482 52.715,28.076 53.217,28.076 L56.167,28.076 C56.164,27.986 56.162,27.896 56.159,27.805 C56.036,24.922 55.448,22.100 54.436,19.436 L51.721,20.560 C51.607,20.607 51.490,20.629 51.374,20.629 C51.018,20.629 50.680,20.418 50.535,20.068 C50.343,19.605 50.563,19.074 51.026,18.883 L53.735,17.761 C52.517,15.107 50.866,12.637 48.823,10.455 L46.766,12.510 C46.589,12.688 46.356,12.776 46.124,12.776 C45.892,12.776 45.659,12.687 45.482,12.510 C45.127,12.156 45.127,11.581 45.482,11.227 L47.539,9.171 C45.359,7.127 42.889,5.473 40.231,4.255 L39.107,6.969 C38.962,7.318 38.623,7.529 38.267,7.529 C38.151,7.529 38.034,7.507 37.920,7.460 C37.457,7.268 37.237,6.737 37.428,6.274 L38.556,3.554 C36.071,2.612 33.449,2.039 30.763,1.870 C30.478,1.851 30.193,1.839 29.908,1.830 L29.908,4.779 C29.908,5.280 29.502,5.687 29.000,5.687 C28.498,5.687 28.092,5.280 28.092,4.779 L28.092,1.829 C25.093,1.924 22.180,2.503 19.435,3.532 L20.572,6.274 C20.763,6.737 20.543,7.268 20.080,7.460 C19.966,7.507 19.849,7.529 19.733,7.529 C19.377,7.529 19.039,7.318 18.894,6.969 L17.757,4.227 C15.102,5.435 12.632,7.082 10.431,9.141 L12.518,11.227 C12.873,11.581 12.873,12.156 12.518,12.510 C12.341,12.688 12.108,12.776 11.876,12.776 C11.643,12.776 11.411,12.688 11.234,12.510 L9.147,10.425 C7.118,12.589 5.473,15.046 4.243,17.752 L6.974,18.883 C7.437,19.075 7.657,19.606 7.465,20.069 C7.320,20.418 6.982,20.629 6.626,20.629 C6.510,20.629 6.392,20.607 6.279,20.560 L3.546,19.428 C2.504,22.195 1.930,25.094 1.833,28.076 L4.783,28.076 C5.284,28.076 5.691,28.483 5.691,28.984 C5.691,29.485 5.284,29.892 4.783,29.892 L1.832,29.892 C1.930,32.872 2.512,35.786 3.549,38.539 L6.279,37.408 C6.742,37.217 7.273,37.437 7.465,37.900 C7.657,38.363 7.437,38.894 6.974,39.086 L4.245,40.215 C4.878,41.603 5.631,42.944 6.500,44.223 C7.045,45.025 7.961,45.504 8.951,45.504 L10.595,45.504 C11.096,45.504 11.503,45.910 11.503,46.412 C11.503,46.913 11.096,47.319 10.595,47.319 L8.951,47.319 C7.359,47.319 5.881,46.543 4.998,45.243 C1.728,40.433 -0.000,34.811 -0.000,28.984 C-0.000,24.910 0.829,20.970 2.464,17.274 C3.916,13.992 5.936,11.050 8.472,8.512 C8.480,8.504 8.486,8.496 8.494,8.488 C8.500,8.482 8.507,8.477 8.513,8.471 C8.723,8.261 8.936,8.054 9.153,7.849 C12.008,5.171 15.309,3.129 18.964,1.781 C22.173,0.599 25.528,0.004 28.961,0.000 C28.974,0.000 28.987,-0.001 29.000,-0.001 C29.013,-0.001 29.025,-0.000 29.037,0.000 C29.648,0.001 30.262,0.019 30.878,0.057 C34.029,0.256 37.100,0.977 39.981,2.166 C40.020,2.177 40.059,2.189 40.098,2.205 C40.139,2.222 40.177,2.243 40.215,2.265 C43.550,3.677 46.627,5.721 49.276,8.321 C49.359,8.363 49.437,8.419 49.506,8.488 C49.575,8.557 49.630,8.635 49.673,8.718 C49.679,8.724 49.686,8.731 49.692,8.737 C52.272,11.373 54.301,14.428 55.708,17.734 C55.741,17.783 55.769,17.836 55.792,17.892 C55.814,17.943 55.829,17.995 55.840,18.048 C57.101,21.109 57.831,24.379 57.973,27.729 C57.991,28.145 57.999,28.561 58.000,28.975 C58.000,28.978 58.000,28.981 58.000,28.984 C58.000,28.988 58.000,28.992 58.000,28.996 ZM29.000,33.765 C26.363,33.765 24.217,31.620 24.217,28.984 C24.217,26.452 26.197,24.375 28.690,24.215 L42.513,14.210 C42.875,13.948 43.373,13.988 43.688,14.304 C44.004,14.619 44.043,15.116 43.782,15.478 L33.772,29.294 C33.612,31.786 31.533,33.765 29.000,33.765 ZM29.000,26.019 C27.364,26.019 26.033,27.349 26.033,28.984 C26.033,30.619 27.364,31.949 29.000,31.949 C30.636,31.949 31.967,30.619 31.967,28.984 C31.967,27.349 30.636,26.019 29.000,26.019 ZM31.118,24.699 C32.056,25.165 32.821,25.929 33.287,26.867 L38.981,19.008 L31.118,24.699 ZM18.344,35.822 L39.655,35.822 C42.293,35.822 44.438,37.967 44.438,40.603 L44.438,52.221 C44.438,54.857 42.293,57.001 39.655,57.001 L18.344,57.001 C15.707,57.001 13.562,54.857 13.562,52.221 L13.562,40.603 C13.562,37.967 15.707,35.822 18.344,35.822 ZM15.378,52.221 C15.378,53.856 16.709,55.186 18.344,55.186 L39.655,55.186 C41.291,55.186 42.622,53.856 42.622,52.221 L42.622,40.603 C42.622,38.968 41.291,37.637 39.655,37.637 L18.344,37.637 C16.709,37.637 15.378,38.968 15.378,40.603 L15.378,52.221 ZM23.514,40.929 C23.869,40.575 24.444,40.575 24.799,40.929 C25.153,41.283 25.153,41.858 24.799,42.212 L20.597,46.412 L24.799,50.611 C25.153,50.965 25.153,51.540 24.799,51.894 C24.621,52.072 24.389,52.160 24.156,52.160 C23.924,52.160 23.692,52.072 23.514,51.894 L18.671,47.054 C18.316,46.699 18.316,46.124 18.671,45.770 L23.514,40.929 ZM26.094,47.440 C26.332,47.440 26.567,47.537 26.736,47.707 C26.905,47.875 27.002,48.110 27.002,48.348 C27.002,48.587 26.905,48.821 26.736,48.989 C26.567,49.159 26.332,49.256 26.094,49.256 C25.855,49.256 25.620,49.159 25.452,48.989 C25.283,48.821 25.186,48.587 25.186,48.348 C25.186,48.110 25.283,47.875 25.452,47.707 C25.620,47.537 25.855,47.440 26.094,47.440 ZM29.000,47.440 C29.238,47.440 29.473,47.537 29.642,47.707 C29.811,47.875 29.908,48.110 29.908,48.348 C29.908,48.587 29.811,48.821 29.642,48.989 C29.473,49.159 29.238,49.256 29.000,49.256 C28.761,49.256 28.527,49.159 28.358,48.989 C28.189,48.821 28.092,48.587 28.092,48.348 C28.092,48.110 28.189,47.875 28.358,47.707 C28.527,47.537 28.761,47.440 29.000,47.440 ZM31.906,47.440 C32.144,47.440 32.379,47.537 32.548,47.707 C32.717,47.875 32.814,48.108 32.814,48.348 C32.814,48.587 32.717,48.821 32.548,48.989 C32.379,49.159 32.144,49.256 31.906,49.256 C31.667,49.256 31.432,49.159 31.264,48.989 C31.095,48.821 30.998,48.587 30.998,48.348 C30.998,48.110 31.095,47.875 31.264,47.707 C31.432,47.537 31.667,47.440 31.906,47.440 ZM33.201,40.929 C33.556,40.575 34.131,40.575 34.485,40.929 L39.329,45.770 C39.684,46.124 39.684,46.699 39.329,47.054 L34.485,51.894 C34.308,52.072 34.076,52.160 33.843,52.160 C33.611,52.160 33.378,52.072 33.201,51.894 C32.847,51.540 32.847,50.965 33.201,50.611 L37.403,46.412 L33.201,42.212 C32.847,41.858 32.847,41.283 33.201,40.929 Z" class="cls-1"/>
</svg>
