<svg xmlns="http://www.w3.org/2000/svg" xmlns:xlink="http://www.w3.org/1999/xlink" preserveAspectRatio="xMidYMid" width="47" height="56" viewBox="0 0 47 56">
  <defs>
    <style>
      .cls-1 {
        fill: #159e31;
        fill-rule: evenodd;
      }
    </style>
  </defs>
  <path d="M41.460,40.494 C37.655,47.164 31.992,51.313 24.087,55.844 C23.906,55.948 23.703,56.000 23.500,56.000 C23.297,56.000 23.094,55.948 22.912,55.844 C15.008,51.313 9.345,47.164 5.540,40.494 C1.709,33.776 0.000,24.705 0.000,11.083 C0.000,10.439 0.526,9.917 1.175,9.917 C4.842,9.917 7.626,7.785 10.573,5.530 C13.959,2.938 17.796,0.000 23.500,0.000 C29.204,0.000 33.042,2.938 36.427,5.530 C39.374,7.785 42.158,9.917 45.825,9.917 C46.474,9.917 47.000,10.439 47.000,11.083 C47.000,24.705 45.291,33.776 41.460,40.494 ZM34.992,7.377 C31.753,4.897 28.404,2.333 23.500,2.333 C18.596,2.333 15.247,4.898 12.008,7.377 C9.161,9.557 6.225,11.804 2.354,12.191 C2.540,38.209 9.327,45.278 23.500,53.484 C37.673,45.278 44.461,38.209 44.646,12.191 C40.775,11.804 37.839,9.557 34.992,7.377 ZM24.109,50.413 C24.103,50.416 24.097,50.419 24.091,50.422 C24.063,50.438 24.034,50.452 24.005,50.466 C23.986,50.475 23.967,50.485 23.948,50.493 C23.922,50.504 23.894,50.512 23.867,50.521 C23.845,50.528 23.823,50.537 23.800,50.543 C23.775,50.549 23.750,50.553 23.725,50.558 C23.700,50.563 23.675,50.569 23.650,50.572 C23.615,50.577 23.579,50.578 23.543,50.579 C23.529,50.579 23.515,50.582 23.501,50.582 C23.501,50.582 23.501,50.582 23.500,50.582 C23.500,50.582 23.499,50.582 23.499,50.582 C23.485,50.582 23.471,50.579 23.458,50.579 C23.421,50.578 23.386,50.577 23.350,50.572 C23.325,50.569 23.300,50.563 23.275,50.558 C23.250,50.553 23.225,50.549 23.200,50.543 C23.178,50.536 23.155,50.528 23.132,50.520 C23.105,50.512 23.079,50.503 23.052,50.493 C23.033,50.485 23.014,50.475 22.995,50.466 C22.966,50.452 22.937,50.438 22.909,50.422 C22.903,50.418 22.897,50.416 22.891,50.413 C19.625,48.446 15.474,45.719 12.346,42.056 C11.926,41.564 11.987,40.828 12.482,40.411 C12.977,39.995 13.718,40.055 14.138,40.547 C16.861,43.734 20.493,46.206 23.500,48.047 C26.508,46.206 30.139,43.734 32.862,40.547 C36.134,36.715 38.208,31.448 39.202,24.444 C39.293,23.806 39.886,23.362 40.530,23.452 C41.172,23.542 41.620,24.132 41.529,24.770 C40.471,32.223 38.222,37.877 34.655,42.056 C31.526,45.719 27.375,48.446 24.109,50.413 ZM40.639,22.473 C39.992,22.415 39.516,21.847 39.574,21.205 C39.588,21.061 39.600,20.916 39.613,20.772 C39.667,20.130 40.237,19.653 40.883,19.708 C41.529,19.762 42.009,20.327 41.954,20.969 C41.942,21.118 41.929,21.267 41.915,21.417 C41.860,22.022 41.347,22.478 40.746,22.478 C40.711,22.478 40.675,22.476 40.639,22.473 ZM21.546,34.791 C21.536,34.802 21.526,34.812 21.515,34.823 L21.466,34.869 C21.459,34.876 21.452,34.883 21.445,34.890 L21.395,34.935 C21.389,34.941 21.382,34.947 21.376,34.953 L21.325,34.997 C21.315,35.005 21.305,35.014 21.295,35.023 L21.265,35.047 C21.252,35.058 21.238,35.070 21.224,35.080 L21.172,35.121 C21.166,35.126 21.160,35.131 21.153,35.136 L21.100,35.176 C21.091,35.183 21.082,35.189 21.073,35.196 L21.019,35.234 C21.010,35.240 21.001,35.247 20.991,35.253 L20.936,35.290 C20.930,35.294 20.924,35.298 20.918,35.302 L20.863,35.337 C20.854,35.342 20.845,35.348 20.837,35.353 L20.781,35.387 C20.772,35.392 20.763,35.397 20.754,35.403 L20.697,35.435 C20.689,35.440 20.680,35.444 20.671,35.449 L20.641,35.465 C20.623,35.475 20.605,35.485 20.586,35.494 L20.529,35.523 C20.521,35.527 20.513,35.531 20.505,35.535 L20.447,35.562 C20.437,35.567 20.427,35.572 20.417,35.576 L20.387,35.589 C20.368,35.598 20.350,35.606 20.330,35.614 L20.271,35.638 C20.265,35.641 20.258,35.644 20.251,35.646 L20.191,35.669 C20.182,35.673 20.173,35.676 20.164,35.680 L20.103,35.702 C20.093,35.706 20.082,35.710 20.071,35.713 L20.041,35.723 C20.022,35.730 20.003,35.736 19.983,35.742 L19.922,35.760 C19.914,35.763 19.905,35.766 19.897,35.768 L19.835,35.785 C19.827,35.787 19.819,35.789 19.811,35.791 L19.749,35.807 C19.739,35.810 19.729,35.812 19.719,35.814 L19.657,35.829 C19.649,35.830 19.641,35.832 19.633,35.834 L19.571,35.846 C19.559,35.849 19.548,35.851 19.536,35.853 L19.506,35.858 C19.487,35.862 19.468,35.866 19.448,35.869 L19.386,35.878 C19.376,35.880 19.366,35.881 19.356,35.882 L19.293,35.890 C19.284,35.891 19.275,35.893 19.267,35.893 L19.237,35.896 C19.217,35.899 19.198,35.901 19.178,35.903 L19.115,35.908 C19.103,35.909 19.091,35.910 19.078,35.910 L19.049,35.912 C19.029,35.914 19.009,35.915 18.990,35.915 L18.926,35.917 C18.919,35.918 18.913,35.918 18.907,35.918 L18.843,35.919 C18.837,35.919 18.832,35.919 18.826,35.919 C18.820,35.919 18.815,35.919 18.809,35.919 L18.746,35.918 C18.739,35.918 18.733,35.918 18.727,35.917 L18.663,35.915 C18.644,35.915 18.624,35.914 18.604,35.912 L18.575,35.910 C18.563,35.910 18.551,35.909 18.539,35.908 L18.475,35.903 C18.455,35.901 18.435,35.899 18.416,35.896 L18.386,35.893 C18.377,35.892 18.368,35.891 18.359,35.890 L18.296,35.882 C18.286,35.881 18.277,35.880 18.268,35.878 L18.205,35.868 C18.186,35.866 18.167,35.862 18.149,35.859 L18.118,35.853 C18.106,35.851 18.095,35.849 18.083,35.846 L18.020,35.834 C18.011,35.832 18.002,35.830 17.994,35.828 L17.932,35.814 C17.923,35.812 17.915,35.810 17.906,35.807 L17.844,35.792 C17.836,35.789 17.827,35.787 17.818,35.785 L17.757,35.768 C17.748,35.766 17.739,35.763 17.731,35.760 L17.669,35.742 C17.649,35.736 17.628,35.729 17.609,35.722 L17.579,35.712 C17.569,35.709 17.559,35.705 17.550,35.702 L17.489,35.680 C17.480,35.676 17.470,35.673 17.462,35.669 L17.402,35.646 C17.396,35.644 17.391,35.642 17.385,35.640 L17.326,35.615 C17.304,35.607 17.283,35.598 17.262,35.587 L17.232,35.574 C17.224,35.570 17.215,35.567 17.207,35.563 L17.149,35.535 C17.138,35.530 17.128,35.525 17.118,35.520 L17.060,35.490 C17.054,35.487 17.048,35.484 17.042,35.481 L16.984,35.451 C16.973,35.445 16.962,35.439 16.951,35.432 L16.895,35.400 C16.887,35.396 16.880,35.391 16.872,35.387 L16.816,35.353 C16.809,35.349 16.801,35.344 16.794,35.339 L16.739,35.304 C16.730,35.299 16.721,35.293 16.712,35.287 L16.658,35.251 C16.650,35.245 16.642,35.240 16.633,35.234 L16.580,35.196 C16.572,35.191 16.565,35.185 16.557,35.180 L16.504,35.140 C16.494,35.132 16.484,35.125 16.475,35.118 L16.423,35.076 C16.417,35.071 16.411,35.067 16.405,35.062 L16.354,35.020 C16.346,35.013 16.338,35.006 16.330,35.000 L16.280,34.955 C16.271,34.948 16.262,34.940 16.253,34.932 L16.204,34.886 C16.197,34.879 16.189,34.873 16.182,34.866 L16.134,34.818 L10.516,29.241 C9.027,27.763 9.027,25.357 10.516,23.878 C11.235,23.164 12.194,22.770 13.217,22.770 C14.239,22.770 15.198,23.164 15.917,23.878 L18.826,26.766 L31.083,14.596 C31.803,13.881 32.762,13.488 33.784,13.488 C34.806,13.488 35.765,13.881 36.485,14.595 C37.974,16.073 37.974,18.479 36.486,19.958 L21.546,34.791 ZM34.823,16.246 C34.547,15.972 34.179,15.821 33.784,15.821 C33.390,15.821 33.021,15.972 32.745,16.245 L19.657,29.241 C19.436,29.460 19.137,29.583 18.826,29.583 C18.514,29.583 18.215,29.460 17.995,29.241 L14.256,25.528 C13.980,25.254 13.611,25.104 13.217,25.104 C12.822,25.104 12.453,25.254 12.177,25.528 C11.605,26.097 11.605,27.022 12.177,27.591 L17.843,33.213 L18.046,33.365 L18.267,33.477 L18.382,33.518 C18.382,33.518 18.383,33.518 18.383,33.518 L18.585,33.565 C18.588,33.566 18.591,33.566 18.594,33.567 L18.695,33.579 C18.698,33.580 18.700,33.580 18.702,33.580 L18.761,33.583 C18.763,33.583 18.766,33.583 18.768,33.584 L18.789,33.584 L18.826,33.585 L18.884,33.583 C18.887,33.583 18.889,33.583 18.892,33.583 L18.949,33.580 C18.951,33.580 18.954,33.579 18.956,33.579 L19.058,33.567 C19.061,33.566 19.063,33.566 19.066,33.565 L19.268,33.518 C19.270,33.518 19.271,33.517 19.273,33.517 L19.404,33.469 C19.404,33.469 19.405,33.469 19.406,33.468 L19.604,33.366 L19.744,33.268 C19.745,33.267 19.747,33.266 19.748,33.265 L19.857,33.168 C19.859,33.166 19.862,33.163 19.865,33.160 L34.823,18.308 C35.396,17.740 35.396,16.814 34.823,16.246 ZM23.500,7.000 C20.200,7.000 17.610,8.958 14.611,11.225 C13.970,11.710 13.307,12.211 12.626,12.699 C12.418,12.849 12.178,12.920 11.940,12.920 C11.575,12.920 11.215,12.752 10.986,12.436 C10.606,11.914 10.724,11.185 11.251,10.808 C11.907,10.337 12.558,9.845 13.187,9.369 C16.386,6.951 19.407,4.666 23.500,4.666 C24.149,4.666 24.675,5.189 24.675,5.833 C24.675,6.477 24.149,7.000 23.500,7.000 ZM9.125,14.901 C8.960,14.986 8.793,15.071 8.625,15.153 C8.459,15.235 8.281,15.273 8.107,15.273 C7.674,15.273 7.257,15.034 7.052,14.622 C6.766,14.044 7.005,13.344 7.587,13.060 C7.736,12.987 7.884,12.912 8.030,12.836 C8.604,12.535 9.315,12.754 9.617,13.324 C9.919,13.894 9.699,14.600 9.125,14.901 Z" class="cls-1"/>
</svg>
