<svg xmlns="http://www.w3.org/2000/svg" xmlns:xlink="http://www.w3.org/1999/xlink" preserveAspectRatio="xMidYMid" width="53" height="53" viewBox="0 0 53 53">
  <defs>
    <style>
      .cls-1 {
        fill: #159e31;
        fill-rule: evenodd;
      }
    </style>
  </defs>
  <path d="M52.015,53.000 L35.216,53.000 C34.672,53.000 34.231,52.563 34.231,52.023 L34.231,28.798 C34.231,28.259 34.672,27.821 35.216,27.821 L52.015,27.821 C52.559,27.821 53.000,28.259 53.000,28.798 L53.000,52.023 C53.000,52.563 52.559,53.000 52.015,53.000 ZM51.029,29.775 L36.202,29.775 L36.202,51.046 L51.029,51.046 L51.029,29.775 ZM39.208,39.233 L48.023,39.233 C48.567,39.233 49.008,39.670 49.008,40.210 C49.008,40.749 48.567,41.187 48.023,41.187 L39.208,41.187 C38.663,41.187 38.222,40.749 38.222,40.210 C38.222,39.670 38.663,39.233 39.208,39.233 ZM39.208,42.908 L48.023,42.908 C48.567,42.908 49.008,43.346 49.008,43.885 C49.008,44.425 48.567,44.862 48.023,44.862 L39.208,44.862 C38.663,44.862 38.222,44.425 38.222,43.885 C38.222,43.346 38.663,42.908 39.208,42.908 ZM39.208,46.583 L48.023,46.583 C48.567,46.583 49.008,47.020 49.008,47.560 C49.008,48.100 48.567,48.537 48.023,48.537 L39.208,48.537 C38.663,48.537 38.222,48.100 38.222,47.560 C38.222,47.020 38.663,46.583 39.208,46.583 ZM43.615,37.717 C41.667,37.717 40.082,36.146 40.082,34.214 C40.082,32.284 41.667,30.712 43.615,30.712 C45.564,30.712 47.149,32.284 47.149,34.214 C47.149,36.146 45.564,37.717 43.615,37.717 ZM43.615,32.666 C42.754,32.666 42.053,33.361 42.053,34.215 C42.053,35.068 42.754,35.763 43.615,35.763 C44.477,35.763 45.178,35.068 45.178,34.215 C45.178,33.361 44.477,32.666 43.615,32.666 ZM52.015,25.747 L35.216,25.747 C34.672,25.747 34.231,25.309 34.231,24.770 L34.231,14.853 C34.231,14.313 34.672,13.876 35.216,13.876 L52.015,13.876 C52.559,13.876 53.000,14.313 53.000,14.853 L53.000,24.770 C53.000,25.309 52.559,25.747 52.015,25.747 ZM51.029,15.830 L36.202,15.830 L36.202,23.793 L51.029,23.793 L51.029,15.830 ZM40.207,16.723 C41.944,16.723 43.358,18.124 43.358,19.846 C43.358,21.568 41.944,22.969 40.207,22.969 C38.469,22.969 37.055,21.568 37.055,19.846 C37.055,18.124 38.469,16.723 40.207,16.723 ZM40.207,21.016 C40.857,21.016 41.387,20.491 41.387,19.846 C41.387,19.201 40.857,18.677 40.207,18.677 C39.556,18.677 39.027,19.201 39.027,19.846 C39.027,20.491 39.556,21.016 40.207,21.016 ZM45.883,17.405 L48.542,17.405 C49.086,17.405 49.527,17.843 49.527,18.382 C49.527,18.922 49.086,19.359 48.542,19.359 L45.883,19.359 C45.339,19.359 44.898,18.922 44.898,18.382 C44.898,17.843 45.339,17.405 45.883,17.405 ZM45.883,20.263 L48.542,20.263 C49.086,20.263 49.527,20.701 49.527,21.240 C49.527,21.780 49.086,22.217 48.542,22.217 L45.883,22.217 C45.339,22.217 44.898,21.780 44.898,21.240 C44.898,20.701 45.339,20.263 45.883,20.263 ZM52.015,11.871 L35.216,11.871 C34.672,11.871 34.231,11.433 34.231,10.894 L34.231,0.977 C34.231,0.437 34.672,-0.000 35.216,-0.000 L52.015,-0.000 C52.559,-0.000 53.000,0.437 53.000,0.977 L53.000,10.894 C53.000,11.433 52.559,11.871 52.015,11.871 ZM51.029,1.954 L36.202,1.954 L36.202,9.917 L51.029,9.917 L51.029,1.954 ZM43.615,2.433 C45.564,2.433 47.149,4.004 47.149,5.936 C47.149,7.866 45.564,9.438 43.615,9.438 C41.667,9.438 40.082,7.866 40.082,5.936 C40.082,4.004 41.667,2.433 43.615,2.433 ZM43.615,7.484 C44.477,7.484 45.178,6.789 45.178,5.936 C45.178,5.082 44.477,4.387 43.615,4.387 C42.754,4.387 42.053,5.082 42.053,5.936 C42.053,6.789 42.754,7.484 43.615,7.484 ZM30.870,40.789 L0.986,40.789 C0.441,40.789 -0.000,40.352 -0.000,39.812 L-0.000,0.977 C-0.000,0.437 0.441,-0.000 0.986,-0.000 L30.870,-0.000 C31.415,-0.000 31.856,0.437 31.856,0.977 L31.856,39.812 C31.856,40.352 31.415,40.789 30.870,40.789 ZM1.971,38.836 L29.885,38.836 L29.885,13.866 L1.971,13.866 L1.971,38.836 ZM29.885,1.954 L1.971,1.954 L1.971,11.912 L29.885,11.912 L29.885,1.954 ZM6.635,3.394 C8.583,3.394 10.168,4.966 10.168,6.897 C10.168,8.827 8.583,10.399 6.635,10.399 C4.687,10.399 3.102,8.828 3.102,6.897 C3.102,4.966 4.687,3.394 6.635,3.394 ZM6.635,8.445 C7.496,8.445 8.197,7.750 8.197,6.897 C8.197,6.043 7.496,5.348 6.635,5.348 C5.773,5.348 5.073,6.043 5.073,6.897 C5.073,7.750 5.774,8.445 6.635,8.445 ZM27.262,36.610 L23.635,36.610 C23.091,36.610 22.650,36.173 22.650,35.633 C22.650,35.094 23.091,34.656 23.635,34.656 L27.262,34.656 C27.806,34.656 28.247,35.094 28.247,35.633 C28.247,36.173 27.806,36.610 27.262,36.610 ZM27.262,30.508 L4.594,30.508 C4.050,30.508 3.609,30.071 3.609,29.531 C3.609,28.991 4.050,28.554 4.594,28.554 L27.262,28.554 C27.806,28.554 28.247,28.992 28.247,29.531 C28.247,30.071 27.806,30.508 27.262,30.508 ZM27.262,26.347 L4.594,26.347 C4.050,26.347 3.609,25.910 3.609,25.370 C3.609,24.831 4.050,24.394 4.594,24.394 L27.262,24.394 C27.806,24.394 28.247,24.831 28.247,25.370 C28.247,25.910 27.806,26.347 27.262,26.347 ZM27.262,22.187 L4.594,22.187 C4.050,22.187 3.609,21.749 3.609,21.210 C3.609,20.671 4.050,20.233 4.594,20.233 L27.262,20.233 C27.806,20.233 28.247,20.671 28.247,21.210 C28.247,21.749 27.806,22.187 27.262,22.187 ZM20.977,18.026 L10.879,18.026 C10.335,18.026 9.893,17.589 9.893,17.049 C9.893,16.510 10.335,16.073 10.879,16.073 L20.977,16.073 C21.521,16.073 21.963,16.510 21.963,17.049 C21.963,17.589 21.521,18.026 20.977,18.026 ZM7.749,43.559 C7.912,43.451 8.103,43.393 8.298,43.393 L29.968,43.393 C30.343,43.393 30.685,43.604 30.851,43.937 C32.182,46.604 32.182,49.789 30.851,52.456 C30.685,52.789 30.343,53.000 29.968,53.000 L8.298,53.000 C8.103,53.000 7.911,52.942 7.749,52.834 L1.991,49.008 C1.718,48.827 1.554,48.522 1.554,48.197 C1.554,47.871 1.718,47.567 1.991,47.385 L7.749,43.559 ZM26.977,51.046 L29.329,51.046 C30.063,49.225 30.063,47.168 29.329,45.347 L26.977,45.347 C27.553,47.198 27.553,49.195 26.977,51.046 ZM24.886,51.046 C25.130,50.442 25.293,49.813 25.375,49.173 L10.032,49.173 C9.974,49.805 9.858,50.432 9.686,51.046 L24.886,51.046 ZM10.032,47.220 L25.375,47.220 C25.293,46.581 25.130,45.951 24.886,45.347 L9.686,45.347 C9.858,45.961 9.974,46.588 10.032,47.220 ZM6.877,49.903 L7.791,50.510 C8.212,48.999 8.212,47.394 7.791,45.883 L6.877,46.491 C7.094,47.029 7.207,47.606 7.207,48.196 C7.207,48.787 7.094,49.364 6.877,49.903 ZM5.173,48.770 C5.214,48.583 5.236,48.391 5.235,48.196 C5.235,48.002 5.214,47.810 5.173,47.623 L4.310,48.197 L5.173,48.770 Z" class="cls-1"/>
</svg>
