<svg xmlns="http://www.w3.org/2000/svg" xmlns:xlink="http://www.w3.org/1999/xlink" preserveAspectRatio="xMidYMid" width="58" height="53" viewBox="0 0 58 53">
  <defs>
    <style>
      .cls-1 {
        fill: #159e31;
        fill-rule: evenodd;
      }
    </style>
  </defs>
  <path d="M57.149,38.348 C56.679,38.348 56.297,37.964 56.297,37.489 L56.297,2.690 C56.297,2.153 55.865,1.717 55.333,1.717 L2.667,1.717 C2.135,1.717 1.703,2.153 1.703,2.690 L1.703,37.489 C1.703,38.026 2.135,38.462 2.667,38.462 L30.816,38.462 C31.286,38.462 31.667,38.847 31.667,39.321 C31.667,39.795 31.286,40.180 30.816,40.180 L22.378,40.180 L21.048,44.873 L30.816,44.873 C31.286,44.873 31.667,45.258 31.667,45.732 C31.667,46.206 31.286,46.590 30.816,46.590 L19.923,46.590 C19.922,46.590 19.921,46.590 19.920,46.590 C19.919,46.590 19.918,46.590 19.917,46.590 L15.380,46.590 C14.910,46.590 14.528,46.206 14.528,45.732 C14.528,45.258 14.910,44.873 15.380,44.873 L19.278,44.873 L20.607,40.180 L2.667,40.180 C1.197,40.180 0.000,38.973 0.000,37.489 L0.000,2.690 C0.000,1.206 1.197,-0.000 2.667,-0.000 L55.333,-0.000 C56.803,-0.000 58.000,1.206 58.000,2.690 L58.000,37.489 C58.000,37.964 57.619,38.348 57.149,38.348 ZM9.932,31.022 C8.961,31.022 8.172,30.226 8.172,29.247 L8.172,17.342 C8.172,16.364 8.961,15.568 9.932,15.568 L23.552,15.568 C24.522,15.568 25.311,16.364 25.311,17.342 L25.311,29.247 C25.311,30.226 24.522,31.022 23.552,31.022 L9.932,31.022 ZM22.208,29.305 L16.742,24.440 L11.275,29.305 L22.208,29.305 ZM9.875,18.329 L9.875,28.261 L15.455,23.295 L9.875,18.329 ZM11.275,17.285 L16.742,22.150 L22.208,17.285 L11.275,17.285 ZM23.609,18.329 L18.028,23.295 L23.609,28.261 L23.609,18.329 ZM30.816,36.516 L4.483,36.516 C4.013,36.516 3.632,36.132 3.632,35.658 L3.632,4.521 C3.632,4.047 4.013,3.663 4.483,3.663 L53.517,3.663 C53.987,3.663 54.368,4.047 54.368,4.521 L54.368,16.426 C54.368,16.901 53.987,17.285 53.517,17.285 C53.047,17.285 52.665,16.901 52.665,16.426 L52.665,12.706 L5.335,12.706 L5.335,34.799 L30.816,34.799 C31.286,34.799 31.667,35.184 31.667,35.658 C31.667,36.132 31.286,36.516 30.816,36.516 ZM52.665,10.989 L52.665,5.380 L5.335,5.380 L5.335,10.989 L52.665,10.989 ZM8.115,7.326 C8.339,7.326 8.559,7.417 8.717,7.577 C8.876,7.737 8.967,7.959 8.967,8.184 C8.967,8.410 8.876,8.632 8.717,8.791 C8.559,8.951 8.339,9.043 8.115,9.043 C7.892,9.043 7.672,8.951 7.514,8.791 C7.355,8.632 7.264,8.410 7.264,8.184 C7.264,7.959 7.355,7.737 7.514,7.577 C7.672,7.417 7.892,7.326 8.115,7.326 ZM10.840,7.326 C11.064,7.326 11.283,7.417 11.441,7.577 C11.600,7.737 11.691,7.958 11.691,8.184 C11.691,8.410 11.600,8.632 11.441,8.791 C11.283,8.951 11.063,9.043 10.840,9.043 C10.616,9.043 10.396,8.951 10.238,8.791 C10.079,8.632 9.988,8.410 9.988,8.184 C9.988,7.958 10.079,7.737 10.238,7.577 C10.396,7.417 10.615,7.326 10.840,7.326 ZM13.564,7.326 C13.788,7.326 14.007,7.417 14.165,7.577 C14.324,7.737 14.415,7.959 14.415,8.184 C14.415,8.410 14.324,8.632 14.165,8.791 C14.007,8.951 13.788,9.043 13.564,9.043 C13.340,9.043 13.120,8.951 12.962,8.791 C12.803,8.632 12.712,8.410 12.712,8.184 C12.712,7.959 12.803,7.737 12.962,7.577 C13.120,7.417 13.340,7.326 13.564,7.326 ZM17.196,7.326 L44.436,7.326 C44.907,7.326 45.288,7.710 45.288,8.184 C45.288,8.658 44.907,9.043 44.436,9.043 L17.196,9.043 C16.726,9.043 16.344,8.658 16.344,8.184 C16.344,7.710 16.726,7.326 17.196,7.326 ZM48.068,7.326 L49.885,7.326 C50.355,7.326 50.736,7.710 50.736,8.184 C50.736,8.658 50.355,9.043 49.885,9.043 L48.068,9.043 C47.598,9.043 47.217,8.658 47.217,8.184 C47.217,7.710 47.598,7.326 48.068,7.326 ZM29.000,15.568 L49.885,15.568 C50.355,15.568 50.736,15.952 50.736,16.426 C50.736,16.901 50.355,17.285 49.885,17.285 L29.000,17.285 C28.530,17.285 28.149,16.901 28.149,16.426 C28.149,15.952 28.530,15.568 29.000,15.568 ZM29.000,20.147 L30.816,20.147 C31.286,20.147 31.667,20.531 31.667,21.005 C31.667,21.479 31.286,21.864 30.816,21.864 L29.000,21.864 C28.530,21.864 28.149,21.479 28.149,21.005 C28.149,20.531 28.530,20.147 29.000,20.147 ZM29.000,29.305 L30.816,29.305 C31.286,29.305 31.667,29.689 31.667,30.163 C31.667,30.637 31.286,31.022 30.816,31.022 L29.000,31.022 C28.530,31.022 28.149,30.637 28.149,30.163 C28.149,29.689 28.530,29.305 29.000,29.305 ZM29.000,24.726 L30.816,24.726 C31.286,24.726 31.667,25.110 31.667,25.584 C31.667,26.058 31.286,26.443 30.816,26.443 L29.000,26.443 C28.530,26.443 28.149,26.058 28.149,25.584 C28.149,25.110 28.530,24.726 29.000,24.726 ZM36.264,19.231 L51.701,19.231 C53.171,19.231 54.368,20.438 54.368,21.921 L54.368,50.311 C54.368,51.794 53.171,53.001 51.701,53.001 L36.264,53.001 C34.793,53.001 33.597,51.794 33.597,50.311 L33.597,21.921 C33.597,20.438 34.793,19.231 36.264,19.231 ZM35.299,50.311 C35.299,50.847 35.732,51.284 36.264,51.284 L51.701,51.284 C52.233,51.284 52.665,50.847 52.665,50.311 L52.665,49.338 L35.299,49.338 L35.299,50.311 ZM35.299,47.620 L52.665,47.620 L52.665,30.106 L35.299,30.106 L35.299,47.620 ZM35.299,28.389 L52.665,28.389 L52.665,24.611 L35.299,24.611 L35.299,28.389 ZM35.299,22.894 L52.665,22.894 L52.665,21.921 C52.665,21.385 52.233,20.948 51.701,20.948 L36.264,20.948 C35.732,20.948 35.299,21.385 35.299,21.921 L35.299,22.894 ZM50.793,27.358 L49.885,27.358 C49.414,27.358 49.033,26.974 49.033,26.500 C49.033,26.026 49.414,25.641 49.885,25.641 L50.793,25.641 C51.263,25.641 51.644,26.026 51.644,26.500 C51.644,26.974 51.263,27.358 50.793,27.358 ZM47.160,27.358 L37.172,27.358 C36.702,27.358 36.321,26.974 36.321,26.500 C36.321,26.026 36.702,25.641 37.172,25.641 L47.160,25.641 C47.631,25.641 48.012,26.026 48.012,26.500 C48.012,26.974 47.631,27.358 47.160,27.358 ZM49.885,45.674 L38.080,45.674 C37.610,45.674 37.229,45.290 37.229,44.816 C37.229,44.342 37.610,43.957 38.080,43.957 L49.885,43.957 C50.355,43.957 50.736,44.342 50.736,44.816 C50.736,45.290 50.355,45.674 49.885,45.674 ZM48.977,42.011 L38.988,42.011 C38.018,42.011 37.229,41.215 37.229,40.237 L37.229,33.826 C37.229,32.848 38.018,32.052 38.988,32.052 L48.977,32.052 C49.947,32.052 50.736,32.848 50.736,33.826 L50.736,40.237 C50.736,41.215 49.947,42.011 48.977,42.011 ZM47.480,40.294 L43.982,38.049 L40.485,40.294 L47.480,40.294 ZM38.932,34.808 L38.932,39.256 L42.397,37.032 L38.932,34.808 ZM40.485,33.769 L43.982,36.014 L47.480,33.769 L40.485,33.769 ZM49.033,34.808 L45.568,37.032 L49.033,39.256 L49.033,34.808 Z" class="cls-1"/>
</svg>
