<svg xmlns="http://www.w3.org/2000/svg" xmlns:xlink="http://www.w3.org/1999/xlink" preserveAspectRatio="xMidYMid" width="56" height="57" viewBox="0 0 56 57">
  <defs>
    <style>
      .cls-1 {
        fill: #159e31;
        fill-rule: evenodd;
      }
    </style>
  </defs>
  <path d="M55.108,47.880 L31.897,47.880 L32.517,51.840 L34.658,51.840 C36.461,51.840 37.928,53.320 37.928,55.140 L37.928,56.100 C37.928,56.597 37.529,57.000 37.036,57.000 L32.280,57.000 L23.720,57.000 L18.964,57.000 C18.472,57.000 18.072,56.597 18.072,56.100 L18.072,55.140 C18.072,53.320 19.539,51.840 21.342,51.840 L23.483,51.840 L24.103,47.880 L0.892,47.880 C0.399,47.880 0.000,47.477 0.000,46.980 L0.000,39.780 L0.000,0.900 C0.000,0.403 0.399,0.000 0.892,0.000 L55.108,0.000 C55.601,0.000 56.000,0.403 56.000,0.900 L56.000,39.780 L56.000,46.980 C56.000,47.477 55.601,47.880 55.108,47.880 ZM21.342,53.640 C20.522,53.640 19.856,54.313 19.856,55.140 L19.856,55.200 L23.720,55.200 L32.280,55.200 L36.144,55.200 L36.144,55.140 C36.144,54.313 35.478,53.640 34.658,53.640 L31.755,53.640 C31.755,53.640 31.754,53.640 31.754,53.640 C31.753,53.640 31.752,53.640 31.751,53.640 L24.249,53.640 C24.248,53.640 24.247,53.640 24.246,53.640 C24.246,53.640 24.245,53.640 24.245,53.640 L21.342,53.640 ZM30.711,51.840 L30.092,47.880 L25.909,47.880 L25.289,51.840 L30.711,51.840 ZM54.217,1.800 L1.783,1.800 L1.783,38.880 L54.217,38.880 L54.217,1.800 ZM54.217,40.680 L1.783,40.680 L1.783,46.080 L25.146,46.080 L30.853,46.080 L54.217,46.080 L54.217,40.680 ZM34.658,41.760 L44.170,41.760 C44.662,41.760 45.062,42.163 45.062,42.660 C45.062,43.157 44.662,43.560 44.170,43.560 L34.658,43.560 C34.166,43.560 33.766,43.157 33.766,42.660 C33.766,42.163 34.166,41.760 34.658,41.760 ZM47.974,41.760 L51.304,41.760 C51.796,41.760 52.195,42.163 52.195,42.660 C52.195,43.157 51.796,43.560 51.304,43.560 L47.974,43.560 C47.482,43.560 47.083,43.157 47.083,42.660 C47.083,42.163 47.482,41.760 47.974,41.760 ZM29.427,43.560 L26.573,43.560 C26.081,43.560 25.682,43.157 25.682,42.660 C25.682,42.163 26.081,41.760 26.573,41.760 L29.427,41.760 C29.919,41.760 30.318,42.163 30.318,42.660 C30.318,43.157 29.919,43.560 29.427,43.560 ZM13.316,21.192 L13.316,5.220 C13.316,4.723 13.716,4.320 14.208,4.320 C14.700,4.320 15.100,4.723 15.100,5.220 L15.100,21.192 C17.792,21.625 19.856,23.983 19.856,26.820 C19.856,29.657 17.792,32.015 15.100,32.448 L15.100,34.980 C15.100,35.477 14.701,35.880 14.208,35.880 C13.716,35.880 13.316,35.477 13.316,34.980 L13.316,32.448 C10.625,32.015 8.560,29.657 8.560,26.820 C8.560,23.983 10.625,21.625 13.316,21.192 ZM14.208,30.720 C16.339,30.720 18.072,28.970 18.072,26.820 C18.072,24.670 16.339,22.920 14.208,22.920 C12.077,22.920 10.344,24.670 10.344,26.820 C10.344,28.970 12.077,30.720 14.208,30.720 ZM27.108,7.752 L27.108,5.220 C27.108,4.723 27.507,4.320 28.000,4.320 C28.492,4.320 28.892,4.723 28.892,5.220 L28.892,7.752 C31.584,8.185 33.648,10.543 33.648,13.380 C33.648,16.217 31.584,18.575 28.892,19.008 L28.892,34.980 C28.892,35.477 28.492,35.880 28.000,35.880 C27.508,35.880 27.108,35.477 27.108,34.980 L27.108,19.008 C24.416,18.575 22.352,16.217 22.352,13.380 C22.352,10.543 24.416,8.185 27.108,7.752 ZM28.000,17.280 C30.131,17.280 31.864,15.530 31.864,13.380 C31.864,11.230 30.131,9.480 28.000,9.480 C25.869,9.480 24.136,11.230 24.136,13.380 C24.136,15.530 25.869,17.280 28.000,17.280 ZM40.900,18.792 L40.900,5.220 C40.900,4.723 41.299,4.320 41.792,4.320 C42.284,4.320 42.684,4.723 42.684,5.220 L42.684,18.792 C45.375,19.225 47.439,21.583 47.439,24.420 C47.439,27.257 45.375,29.615 42.684,30.048 L42.684,34.980 C42.684,35.477 42.284,35.880 41.792,35.880 C41.300,35.880 40.900,35.477 40.900,34.980 L40.900,30.048 C38.208,29.615 36.144,27.257 36.144,24.420 C36.144,21.583 38.208,19.225 40.900,18.792 ZM41.792,28.320 C43.923,28.320 45.656,26.571 45.656,24.420 C45.656,22.269 43.923,20.520 41.792,20.520 C39.661,20.520 37.928,22.269 37.928,24.420 C37.928,26.571 39.661,28.320 41.792,28.320 Z" class="cls-1"/>
</svg>
