<svg xmlns="http://www.w3.org/2000/svg" xmlns:xlink="http://www.w3.org/1999/xlink" preserveAspectRatio="xMidYMid" width="52" height="52" viewBox="0 0 52 52">
  <defs>
    <style>
      .cls-1 {
        fill: #159e31;
        fill-rule: evenodd;
      }
    </style>
  </defs>
  <path d="M48.645,41.936 L48.645,46.129 C48.645,48.155 47.202,49.848 45.290,50.238 L45.290,52.000 L43.613,52.000 L43.613,48.645 L44.452,48.645 C45.839,48.645 46.968,47.516 46.968,46.129 L46.968,28.097 C46.968,26.940 46.028,26.000 44.871,26.000 C43.714,26.000 42.774,26.940 42.774,28.097 L42.774,28.516 L41.097,28.516 L41.097,28.097 L41.097,26.419 C41.097,25.263 40.157,24.323 39.000,24.323 C37.843,24.323 36.903,25.263 36.903,26.419 L36.903,27.677 L35.226,27.677 L35.226,26.419 L35.226,25.581 C35.226,24.424 34.286,23.484 33.129,23.484 C31.972,23.484 31.032,24.424 31.032,25.581 L31.032,27.677 L29.355,27.677 L29.355,25.581 L29.355,15.516 C29.355,14.360 28.415,13.419 27.258,13.419 C26.101,13.419 25.161,14.360 25.161,15.516 L25.161,38.131 L18.676,31.646 C17.883,30.854 16.503,30.854 15.711,31.646 C15.315,32.043 15.097,32.569 15.097,33.129 C15.097,33.689 15.315,34.215 15.711,34.612 L25.161,44.062 L25.161,52.000 L23.484,52.000 L23.484,44.756 L20.663,41.936 L-0.000,41.936 L-0.000,-0.000 L52.000,-0.000 L52.000,41.936 L48.645,41.936 ZM31.032,22.446 C31.633,22.043 32.353,21.806 33.129,21.806 C34.525,21.806 35.733,22.577 36.386,23.708 C37.065,23.053 37.984,22.645 39.000,22.645 C40.635,22.645 42.016,23.695 42.539,25.152 C42.856,24.901 43.207,24.701 43.594,24.561 C43.604,24.479 43.613,24.398 43.613,24.323 C43.613,22.935 42.484,21.806 41.097,21.806 L33.129,21.806 L31.032,21.806 L31.032,22.446 ZM27.258,11.742 C29.339,11.742 31.032,13.435 31.032,15.516 L31.032,16.774 L41.097,16.774 C42.484,16.774 43.613,15.645 43.613,14.258 C43.613,12.871 42.484,11.742 41.097,11.742 L27.258,11.742 L13.398,11.742 C13.930,12.445 14.258,13.310 14.258,14.258 C14.258,15.206 13.930,16.071 13.398,16.774 L23.484,16.774 L23.484,15.516 C23.484,13.435 25.177,11.742 27.258,11.742 ZM13.398,26.839 L23.484,26.839 L23.484,21.806 L13.398,21.806 C13.930,22.509 14.258,23.375 14.258,24.323 C14.258,25.270 13.930,26.136 13.398,26.839 ZM23.484,34.082 L23.484,31.874 L21.286,31.884 L23.484,34.082 ZM14.526,35.798 C14.381,35.654 14.260,35.493 14.142,35.331 C14.007,35.913 13.747,36.442 13.398,36.903 L15.631,36.903 L14.526,35.798 ZM13.648,31.871 L13.398,31.871 C13.458,31.951 13.522,32.025 13.576,32.109 C13.599,32.029 13.621,31.949 13.648,31.871 ZM50.323,1.677 L1.677,1.677 L1.677,6.710 L50.323,6.710 L50.323,1.677 ZM50.323,8.387 L1.677,8.387 L1.677,40.258 L18.986,40.258 L17.308,38.581 L10.065,38.581 C7.752,38.581 5.871,36.699 5.871,34.387 C5.871,32.075 7.752,30.194 10.065,30.194 L14.850,30.194 C15.516,29.660 16.327,29.355 17.194,29.355 C18.070,29.355 18.891,29.668 19.561,30.214 L23.484,30.197 L23.484,28.516 L10.065,28.516 C7.752,28.516 5.871,26.635 5.871,24.323 C5.871,22.010 7.752,20.129 10.065,20.129 L23.484,20.129 L23.484,18.452 L10.065,18.452 C7.752,18.452 5.871,16.570 5.871,14.258 C5.871,11.946 7.752,10.064 10.065,10.064 L41.097,10.064 C43.409,10.064 45.290,11.946 45.290,14.258 C45.290,16.570 43.409,18.452 41.097,18.452 L31.032,18.452 L31.032,20.129 L41.097,20.129 C43.409,20.129 45.290,22.010 45.290,24.323 C45.290,24.336 45.287,24.351 45.287,24.365 C47.171,24.575 48.645,26.158 48.645,28.097 L48.645,40.258 L50.323,40.258 L50.323,8.387 ZM12.581,34.387 C12.581,33.000 11.452,31.871 10.065,31.871 C8.677,31.871 7.548,33.000 7.548,34.387 C7.548,35.774 8.677,36.903 10.065,36.903 C11.452,36.903 12.581,35.774 12.581,34.387 ZM12.581,24.323 C12.581,22.935 11.452,21.806 10.065,21.806 C8.677,21.806 7.548,22.935 7.548,24.323 C7.548,25.710 8.677,26.839 10.065,26.839 C11.452,26.839 12.581,25.710 12.581,24.323 ZM12.581,14.258 C12.581,12.871 11.452,11.742 10.065,11.742 C8.677,11.742 7.548,12.871 7.548,14.258 C7.548,15.645 8.677,16.774 10.065,16.774 C11.452,16.774 12.581,15.645 12.581,14.258 ZM5.032,5.032 L3.355,5.032 L3.355,3.355 L5.032,3.355 L5.032,5.032 ZM8.387,5.032 L6.710,5.032 L6.710,3.355 L8.387,3.355 L8.387,5.032 ZM11.742,5.032 L10.065,5.032 L10.065,3.355 L11.742,3.355 L11.742,5.032 Z" class="cls-1"/>
</svg>
