<svg xmlns="http://www.w3.org/2000/svg" xmlns:xlink="http://www.w3.org/1999/xlink" preserveAspectRatio="xMidYMid" width="54" height="54" viewBox="0 0 54 54">
  <defs>
    <style>
      .cls-1 {
        fill: #159e31;
        fill-rule: evenodd;
      }
    </style>
  </defs>
  <path d="M50.516,38.323 L48.774,38.323 L48.774,36.581 L50.516,36.581 L50.516,38.323 ZM50.516,34.839 L48.774,34.839 L48.774,33.097 L50.516,33.097 L50.516,34.839 ZM50.516,31.355 L48.774,31.355 L48.774,29.613 L50.516,29.613 L50.516,31.355 ZM50.516,27.871 L48.774,27.871 L48.774,26.129 L50.516,26.129 L50.516,27.871 ZM50.516,24.387 L48.774,24.387 L48.774,22.645 L50.516,22.645 L50.516,24.387 ZM48.774,15.677 L50.516,15.677 L50.516,17.419 L48.774,17.419 L48.774,15.677 ZM50.516,20.903 L48.774,20.903 L48.774,19.161 L50.516,19.161 L50.516,20.903 ZM3.484,15.677 L5.226,15.677 L5.226,17.419 L3.484,17.419 L3.484,15.677 ZM3.484,19.161 L5.226,19.161 L5.226,20.903 L3.484,20.903 L3.484,19.161 ZM3.484,22.645 L5.226,22.645 L5.226,24.387 L3.484,24.387 L3.484,22.645 ZM3.484,26.129 L5.226,26.129 L5.226,27.871 L3.484,27.871 L3.484,26.129 ZM3.484,29.613 L5.226,29.613 L5.226,31.355 L3.484,31.355 L3.484,29.613 ZM5.226,38.323 L3.484,38.323 L3.484,36.581 L5.226,36.581 L5.226,38.323 ZM3.484,33.097 L5.226,33.097 L5.226,34.839 L3.484,34.839 L3.484,33.097 ZM46.161,15.677 C44.536,15.677 43.026,15.180 41.772,14.330 L37.812,18.290 L40.935,18.290 L40.935,20.032 L36.993,20.032 C38.376,22.009 39.194,24.410 39.194,27.000 C39.194,29.984 38.113,32.717 36.326,34.839 L39.194,34.839 L39.194,36.581 L36.941,36.581 L40.810,40.449 C42.212,39.134 44.092,38.323 46.161,38.323 C50.484,38.323 54.000,41.839 54.000,46.161 C54.000,50.484 50.484,54.000 46.161,54.000 C41.839,54.000 38.323,50.484 38.323,46.161 C38.323,44.536 38.820,43.026 39.670,41.772 L35.710,37.812 L35.710,40.936 L33.968,40.936 L33.968,36.993 C31.991,38.376 29.590,39.193 27.000,39.193 C24.016,39.193 21.283,38.113 19.161,36.326 L19.161,39.193 L17.419,39.193 L17.419,36.941 L13.551,40.810 C14.866,42.212 15.677,44.092 15.677,46.161 C15.677,50.484 12.161,54.000 7.839,54.000 C3.516,54.000 -0.000,50.484 -0.000,46.161 C-0.000,41.839 3.516,38.323 7.839,38.323 C9.464,38.323 10.974,38.820 12.228,39.670 L16.188,35.710 L13.065,35.710 L13.065,33.968 L17.007,33.968 C15.624,31.991 14.806,29.590 14.806,27.000 C14.806,24.016 15.887,21.283 17.674,19.161 L14.806,19.161 L14.806,17.419 L17.059,17.419 L13.190,13.551 C11.788,14.866 9.908,15.677 7.839,15.677 C3.516,15.677 -0.000,12.161 -0.000,7.839 C-0.000,3.516 3.516,0.000 7.839,0.000 C12.161,0.000 15.677,3.516 15.677,7.839 C15.677,9.464 15.180,10.974 14.330,12.228 L18.290,16.188 L18.290,13.064 L20.032,13.064 L20.032,17.007 C22.009,15.624 24.410,14.807 27.000,14.807 C29.984,14.807 32.717,15.887 34.839,17.674 L34.839,14.807 L36.581,14.807 L36.581,17.059 L40.450,13.190 C39.134,11.788 38.323,9.908 38.323,7.839 C38.323,3.516 41.839,0.000 46.161,0.000 C50.484,0.000 54.000,3.516 54.000,7.839 C54.000,12.161 50.484,15.677 46.161,15.677 ZM44.419,43.548 C44.419,44.509 45.201,45.290 46.161,45.290 C47.122,45.290 47.903,44.509 47.903,43.548 C47.903,42.588 47.122,41.806 46.161,41.806 C45.201,41.806 44.419,42.588 44.419,43.548 ZM50.516,48.774 L50.516,50.420 C51.592,49.319 52.258,47.818 52.258,46.161 C52.258,42.860 49.619,40.164 46.340,40.069 C48.179,40.163 49.645,41.687 49.645,43.548 C49.645,44.621 49.148,45.570 48.383,46.210 C49.595,46.436 50.516,47.497 50.516,48.774 ZM43.548,51.661 C44.342,52.040 45.226,52.258 46.161,52.258 C47.097,52.258 47.981,52.040 48.774,51.661 L48.774,48.774 C48.774,48.293 48.384,47.903 47.903,47.903 L44.419,47.903 C43.939,47.903 43.548,48.293 43.548,48.774 L43.548,51.661 ZM41.806,50.420 L41.806,48.774 C41.806,47.497 42.728,46.436 43.939,46.210 C43.175,45.570 42.677,44.621 42.677,43.548 C42.677,41.687 44.144,40.163 45.982,40.069 C42.704,40.164 40.064,42.860 40.064,46.161 C40.064,47.817 40.731,49.319 41.806,50.420 ZM5.226,51.661 C6.019,52.040 6.903,52.258 7.839,52.258 C8.774,52.258 9.658,52.040 10.452,51.661 L10.452,48.774 C10.452,48.293 10.061,47.903 9.581,47.903 L6.097,47.903 C5.616,47.903 5.226,48.293 5.226,48.774 L5.226,51.661 ZM1.742,46.161 C1.742,47.818 2.408,49.319 3.484,50.420 L3.484,48.774 C3.484,47.497 4.405,46.436 5.617,46.210 C4.852,45.570 4.355,44.621 4.355,43.548 C4.355,41.687 5.821,40.163 7.660,40.069 C4.381,40.164 1.742,42.860 1.742,46.161 ZM6.097,43.548 C6.097,44.509 6.878,45.290 7.839,45.290 C8.799,45.290 9.581,44.509 9.581,43.548 C9.581,42.588 8.799,41.806 7.839,41.806 C6.878,41.806 6.097,42.588 6.097,43.548 ZM8.018,40.069 C9.856,40.163 11.323,41.687 11.323,43.548 C11.323,44.621 10.825,45.570 10.061,46.210 C11.272,46.436 12.194,47.497 12.194,48.774 L12.194,50.420 C13.269,49.319 13.935,47.818 13.935,46.161 C13.935,42.860 11.296,40.164 8.018,40.069 ZM5.226,13.339 C6.019,13.717 6.903,13.935 7.839,13.935 C8.774,13.935 9.658,13.717 10.452,13.339 L10.452,10.452 C10.452,9.971 10.061,9.581 9.581,9.581 L6.097,9.581 C5.616,9.581 5.226,9.971 5.226,10.452 L5.226,13.339 ZM1.742,7.839 C1.742,9.495 2.408,10.997 3.484,12.097 L3.484,10.452 C3.484,9.175 4.405,8.113 5.617,7.887 C4.852,7.247 4.355,6.299 4.355,5.226 C4.355,3.364 5.821,1.840 7.660,1.747 C4.381,1.842 1.742,4.538 1.742,7.839 ZM6.097,5.226 C6.097,6.186 6.878,6.968 7.839,6.968 C8.799,6.968 9.581,6.186 9.581,5.226 C9.581,4.265 8.799,3.484 7.839,3.484 C6.878,3.484 6.097,4.265 6.097,5.226 ZM8.018,1.747 C9.856,1.840 11.323,3.364 11.323,5.226 C11.323,6.299 10.825,7.247 10.061,7.887 C11.272,8.113 12.194,9.175 12.194,10.452 L12.194,12.097 C13.269,10.997 13.935,9.495 13.935,7.839 C13.935,4.538 11.296,1.842 8.018,1.747 ZM27.000,16.548 C23.513,16.548 20.428,18.271 18.528,20.903 L20.680,20.903 L21.208,22.663 L35.834,23.576 L34.723,31.355 L33.808,31.355 C33.905,31.628 33.968,31.919 33.968,32.226 C33.968,33.666 32.795,34.839 31.355,34.839 C29.914,34.839 28.742,33.666 28.742,32.226 C28.742,31.919 28.805,31.628 28.903,31.355 L25.969,31.355 C26.066,31.628 26.129,31.919 26.129,32.226 C26.129,33.666 24.957,34.839 23.516,34.839 C22.076,34.839 20.903,33.666 20.903,32.226 C20.903,31.492 21.209,30.830 21.698,30.356 L19.384,22.645 L17.511,22.645 C16.899,23.972 16.548,25.444 16.548,27.000 C16.548,32.763 21.237,37.452 27.000,37.452 C32.763,37.452 37.452,32.763 37.452,27.000 C37.452,21.237 32.763,16.548 27.000,16.548 ZM23.293,29.613 L33.213,29.613 L33.843,25.197 L21.742,24.441 L23.293,29.613 ZM22.645,32.226 C22.645,32.707 23.035,33.097 23.516,33.097 C23.997,33.097 24.387,32.707 24.387,32.226 C24.387,31.745 23.997,31.355 23.516,31.355 C23.035,31.355 22.645,31.745 22.645,32.226 ZM30.484,32.226 C30.484,32.707 30.874,33.097 31.355,33.097 C31.836,33.097 32.226,32.707 32.226,32.226 C32.226,31.745 31.836,31.355 31.355,31.355 C30.874,31.355 30.484,31.745 30.484,32.226 ZM43.548,13.339 C44.342,13.717 45.226,13.935 46.161,13.935 C47.097,13.935 47.981,13.717 48.774,13.339 L48.774,10.452 C48.774,9.971 48.384,9.581 47.903,9.581 L44.419,9.581 C43.939,9.581 43.548,9.971 43.548,10.452 L43.548,13.339 ZM40.064,7.839 C40.064,9.494 40.731,10.997 41.806,12.097 L41.806,10.452 C41.806,9.175 42.728,8.113 43.939,7.887 C43.175,7.247 42.677,6.299 42.677,5.226 C42.677,3.364 44.144,1.840 45.982,1.747 C42.704,1.842 40.064,4.538 40.064,7.839 ZM44.419,5.226 C44.419,6.186 45.201,6.968 46.161,6.968 C47.122,6.968 47.903,6.186 47.903,5.226 C47.903,4.265 47.122,3.484 46.161,3.484 C45.201,3.484 44.419,4.265 44.419,5.226 ZM46.340,1.747 C48.179,1.840 49.645,3.364 49.645,5.226 C49.645,6.299 49.148,7.247 48.383,7.887 C49.595,8.113 50.516,9.175 50.516,10.452 L50.516,12.097 C51.592,10.997 52.258,9.495 52.258,7.839 C52.258,4.538 49.619,1.842 46.340,1.747 ZM36.581,3.484 L38.323,3.484 L38.323,5.226 L36.581,5.226 L36.581,3.484 ZM33.097,3.484 L34.839,3.484 L34.839,5.226 L33.097,5.226 L33.097,3.484 ZM29.613,3.484 L31.355,3.484 L31.355,5.226 L29.613,5.226 L29.613,3.484 ZM26.129,3.484 L27.871,3.484 L27.871,5.226 L26.129,5.226 L26.129,3.484 ZM22.645,3.484 L24.387,3.484 L24.387,5.226 L22.645,5.226 L22.645,3.484 ZM19.161,3.484 L20.903,3.484 L20.903,5.226 L19.161,5.226 L19.161,3.484 ZM15.677,3.484 L17.419,3.484 L17.419,5.226 L15.677,5.226 L15.677,3.484 ZM17.419,50.516 L15.677,50.516 L15.677,48.774 L17.419,48.774 L17.419,50.516 ZM20.903,50.516 L19.161,50.516 L19.161,48.774 L20.903,48.774 L20.903,50.516 ZM24.387,50.516 L22.645,50.516 L22.645,48.774 L24.387,48.774 L24.387,50.516 ZM27.871,50.516 L26.129,50.516 L26.129,48.774 L27.871,48.774 L27.871,50.516 ZM31.355,50.516 L29.613,50.516 L29.613,48.774 L31.355,48.774 L31.355,50.516 ZM34.839,50.516 L33.097,50.516 L33.097,48.774 L34.839,48.774 L34.839,50.516 ZM38.323,50.516 L36.581,50.516 L36.581,48.774 L38.323,48.774 L38.323,50.516 Z" class="cls-1"/>
</svg>
