<svg xmlns="http://www.w3.org/2000/svg" xmlns:xlink="http://www.w3.org/1999/xlink" preserveAspectRatio="xMidYMid" width="53" height="53" viewBox="0 0 53 53">
  <defs>
    <style>
      .cls-1 {
        fill: #159e31;
        fill-rule: evenodd;
      }
    </style>
  </defs>
  <path d="M45.306,15.387 C44.077,15.387 42.919,15.090 41.887,14.575 L41.887,22.916 L43.658,18.490 L45.246,19.124 L44.046,22.122 C45.387,21.874 46.600,21.164 47.470,20.076 C48.280,19.065 48.726,17.794 48.726,16.497 L48.726,16.242 L50.436,16.242 L50.436,16.497 C50.436,18.181 49.857,19.831 48.804,21.144 C47.592,22.659 45.869,23.617 43.976,23.865 L45.245,27.038 L43.657,27.672 L41.887,23.246 L41.887,38.425 C42.919,37.910 44.077,37.613 45.306,37.613 C49.549,37.613 53.000,41.064 53.000,45.306 C53.000,49.549 49.549,53.000 45.306,53.000 C41.064,53.000 37.613,49.549 37.613,45.306 C37.613,42.328 39.317,39.746 41.798,38.468 L11.203,38.468 C13.683,39.746 15.387,42.328 15.387,45.306 C15.387,49.549 11.936,53.000 7.694,53.000 C3.451,53.000 -0.000,49.549 -0.000,45.306 C-0.000,41.064 3.451,37.613 7.694,37.613 C8.923,37.613 10.081,37.910 11.113,38.425 L11.113,30.084 L9.342,34.510 L7.754,33.876 L8.954,30.878 C7.613,31.126 6.400,31.836 5.530,32.924 C4.720,33.935 4.274,35.206 4.274,36.502 L4.274,36.758 L2.564,36.758 L2.564,36.502 C2.564,34.819 3.143,33.169 4.196,31.856 C5.408,30.341 7.131,29.383 9.024,29.135 L7.755,25.962 L9.343,25.328 L11.113,29.754 L11.113,14.575 C10.081,15.091 8.923,15.387 7.694,15.387 C3.451,15.387 -0.000,11.936 -0.000,7.693 C-0.000,3.451 3.451,-0.000 7.694,-0.000 C11.936,-0.000 15.387,3.451 15.387,7.693 C15.387,10.672 13.683,13.254 11.203,14.532 L41.797,14.532 C39.317,13.254 37.613,10.672 37.613,7.693 C37.613,3.451 41.064,-0.000 45.306,-0.000 C49.549,-0.000 53.000,3.451 53.000,7.693 C53.000,11.936 49.549,15.387 45.306,15.387 ZM5.129,50.705 C5.908,51.076 6.775,51.290 7.694,51.290 C8.612,51.290 9.479,51.076 10.258,50.705 L10.258,49.581 C10.258,48.167 9.107,47.016 7.694,47.016 C6.280,47.016 5.129,48.167 5.129,49.581 L5.129,50.705 ZM9.403,43.597 C9.403,42.654 8.636,41.887 7.694,41.887 C6.751,41.887 5.984,42.654 5.984,43.597 C5.984,44.540 6.751,45.306 7.694,45.306 C8.636,45.306 9.403,44.540 9.403,43.597 ZM5.129,13.092 C5.908,13.463 6.775,13.677 7.694,13.677 C8.612,13.677 9.479,13.463 10.258,13.092 L10.258,11.968 C10.258,10.554 9.107,9.403 7.694,9.403 C6.280,9.403 5.129,10.554 5.129,11.968 L5.129,13.092 ZM9.403,5.984 C9.403,5.041 8.636,4.274 7.694,4.274 C6.751,4.274 5.984,5.041 5.984,5.984 C5.984,6.927 6.751,7.693 7.694,7.693 C8.636,7.693 9.403,6.927 9.403,5.984 ZM11.959,11.882 C13.020,10.802 13.677,9.324 13.677,7.693 C13.677,4.395 10.992,1.710 7.694,1.710 C4.395,1.710 1.710,4.395 1.710,7.693 C1.710,9.324 2.367,10.802 3.428,11.882 C3.457,10.445 4.191,9.178 5.305,8.424 C4.671,7.804 4.274,6.940 4.274,5.984 C4.274,4.098 5.808,2.565 7.694,2.565 C9.579,2.565 11.113,4.098 11.113,5.984 C11.113,6.940 10.716,7.804 10.082,8.424 C11.196,9.177 11.930,10.445 11.959,11.882 ZM7.694,39.323 C4.395,39.323 1.710,42.008 1.710,45.306 C1.710,46.937 2.367,48.415 3.428,49.495 C3.457,48.058 4.191,46.791 5.305,46.037 C4.671,45.417 4.274,44.553 4.274,43.597 C4.274,41.711 5.808,40.177 7.694,40.177 C9.579,40.177 11.113,41.711 11.113,43.597 C11.113,44.553 10.716,45.417 10.082,46.037 C11.196,46.790 11.930,48.058 11.959,49.495 C13.020,48.415 13.677,46.937 13.677,45.306 C13.677,42.008 10.992,39.323 7.694,39.323 ZM40.177,16.242 L12.823,16.242 L12.823,21.371 L40.177,21.371 L40.177,16.242 ZM40.177,23.081 L12.823,23.081 L12.823,36.758 L40.177,36.758 L40.177,23.081 ZM42.742,13.092 C43.521,13.463 44.388,13.677 45.306,13.677 C46.225,13.677 47.092,13.463 47.871,13.092 L47.871,11.968 C47.871,10.554 46.720,9.403 45.306,9.403 C43.893,9.403 42.742,10.554 42.742,11.968 L42.742,13.092 ZM47.016,5.984 C47.016,5.041 46.249,4.274 45.306,4.274 C44.364,4.274 43.597,5.041 43.597,5.984 C43.597,6.927 44.364,7.693 45.306,7.693 C46.249,7.693 47.016,6.927 47.016,5.984 ZM42.742,50.705 C43.521,51.076 44.388,51.290 45.306,51.290 C46.225,51.290 47.092,51.076 47.871,50.705 L47.871,49.581 C47.871,48.167 46.720,47.016 45.306,47.016 C43.893,47.016 42.742,48.167 42.742,49.581 L42.742,50.705 ZM47.016,43.597 C47.016,42.654 46.249,41.887 45.306,41.887 C44.364,41.887 43.597,42.654 43.597,43.597 C43.597,44.540 44.364,45.306 45.306,45.306 C46.249,45.306 47.016,44.540 47.016,43.597 ZM39.323,45.306 C39.323,46.937 39.980,48.415 41.041,49.495 C41.069,48.058 41.803,46.791 42.918,46.037 C42.284,45.417 41.887,44.553 41.887,43.597 C41.887,41.711 43.421,40.177 45.306,40.177 C47.192,40.177 48.726,41.711 48.726,43.597 C48.726,44.553 48.329,45.417 47.695,46.037 C48.809,46.790 49.543,48.058 49.572,49.495 C50.633,48.415 51.290,46.937 51.290,45.306 C51.290,42.008 48.605,39.323 45.306,39.323 C42.008,39.323 39.323,42.008 39.323,45.306 ZM45.306,1.710 C42.008,1.710 39.323,4.395 39.323,7.693 C39.323,9.324 39.980,10.802 41.041,11.882 C41.069,10.445 41.803,9.178 42.918,8.424 C42.284,7.804 41.887,6.940 41.887,5.984 C41.887,4.098 43.421,2.565 45.306,2.565 C47.192,2.565 48.726,4.098 48.726,5.984 C48.726,6.940 48.329,7.804 47.695,8.424 C48.809,9.177 49.543,10.445 49.572,11.882 C50.633,10.802 51.290,9.324 51.290,7.693 C51.290,4.395 48.605,1.710 45.306,1.710 ZM28.210,35.048 L14.532,35.048 L14.532,24.790 L28.210,24.790 L28.210,35.048 ZM26.500,26.500 L16.242,26.500 L16.242,33.339 L26.500,33.339 L26.500,26.500 ZM38.468,26.500 L29.919,26.500 L29.919,24.790 L38.468,24.790 L38.468,26.500 ZM38.468,29.919 L29.919,29.919 L29.919,28.210 L38.468,28.210 L38.468,29.919 ZM38.468,33.339 L29.919,33.339 L29.919,31.629 L38.468,31.629 L38.468,33.339 ZM16.242,19.661 L14.532,19.661 L14.532,17.952 L16.242,17.952 L16.242,19.661 ZM19.661,19.661 L17.952,19.661 L17.952,17.952 L19.661,17.952 L19.661,19.661 ZM23.081,19.661 L21.371,19.661 L21.371,17.952 L23.081,17.952 L23.081,19.661 ZM18.489,9.342 L19.124,7.754 L22.121,8.954 C21.874,7.613 21.163,6.400 20.075,5.530 C19.065,4.720 17.793,4.274 16.497,4.274 L16.242,4.274 L16.242,2.565 L16.497,2.565 C18.181,2.565 19.831,3.143 21.144,4.196 C22.659,5.408 23.617,7.131 23.865,9.024 L27.038,7.755 L27.672,9.343 L23.081,11.179 L18.489,9.342 ZM34.511,43.658 L33.876,45.246 L30.878,44.046 C31.126,45.387 31.837,46.600 32.925,47.470 C33.935,48.280 35.207,48.726 36.502,48.726 L36.758,48.726 L36.758,50.435 L36.502,50.435 C34.819,50.435 33.169,49.857 31.856,48.804 C30.341,47.592 29.383,45.869 29.135,43.976 L25.962,45.245 L25.328,43.657 L29.919,41.821 L34.511,43.658 Z" class="cls-1"/>
</svg>
