<svg xmlns="http://www.w3.org/2000/svg" xmlns:xlink="http://www.w3.org/1999/xlink">
    <symbol id="m-service" viewBox="0 0 34 34">
        <path d="M28.540,29.483 C28.259,29.743 27.821,29.726 27.562,29.445 C27.302,29.165 27.319,28.727 27.600,28.467 C30.788,25.519 32.616,21.340 32.616,17.000 C32.616,8.389 25.611,1.384 17.000,1.384 C8.389,1.384 1.384,8.389 1.384,17.000 C1.384,25.611 8.389,32.616 17.000,32.616 C17.382,32.616 17.692,32.926 17.692,33.308 C17.692,33.690 17.382,34.000 17.000,34.000 C7.626,34.000 0.000,26.374 0.000,17.000 C0.000,7.626 7.626,0.000 17.000,0.000 C26.374,0.000 34.000,7.626 34.000,17.000 C34.000,21.724 32.010,26.274 28.540,29.483 ZM9.000,22.047 L9.000,12.673 C9.000,11.595 9.875,10.720 10.953,10.720 L12.892,10.720 C12.902,9.218 14.127,8.000 15.629,8.000 L18.368,8.000 C19.873,8.000 21.098,9.218 21.108,10.720 L23.047,10.720 C24.122,10.720 25.000,11.595 25.000,12.673 L25.000,22.047 C25.000,23.125 24.125,24.000 23.047,24.000 L10.953,24.000 C9.875,24.000 9.000,23.125 9.000,22.047 ZM22.156,22.668 L23.044,22.668 C23.387,22.668 23.664,22.390 23.664,22.047 L23.668,22.047 L23.668,12.673 C23.668,12.330 23.390,12.052 23.047,12.052 L22.156,12.052 L22.156,22.668 ZM18.368,9.332 L15.629,9.332 C14.861,9.332 14.234,9.953 14.225,10.717 L19.772,10.717 C19.762,9.953 19.136,9.332 18.368,9.332 ZM13.176,22.668 L20.824,22.668 L20.824,12.052 L13.176,12.052 L13.176,22.668 ZM11.844,12.052 L10.953,12.052 C10.610,12.052 10.332,12.330 10.332,12.673 L10.332,22.047 C10.332,22.390 10.610,22.668 10.953,22.668 L11.844,22.668 L11.844,12.052 Z"/>
    </symbol>
    <symbol id="m-design" viewBox="0 0 34 34">
        <path d="M28.540,29.484 C28.259,29.743 27.821,29.725 27.562,29.445 C27.302,29.165 27.319,28.727 27.600,28.467 C30.788,25.519 32.616,21.340 32.616,17.000 C32.616,8.389 25.611,1.384 17.000,1.384 C8.389,1.384 1.384,8.389 1.384,17.000 C1.384,25.611 8.389,32.616 17.000,32.616 C17.382,32.616 17.692,32.926 17.692,33.308 C17.692,33.690 17.382,34.000 17.000,34.000 C7.626,34.000 0.000,26.374 0.000,17.000 C0.000,7.626 7.626,-0.000 17.000,-0.000 C26.374,-0.000 34.000,7.626 34.000,17.000 C34.000,21.724 32.010,26.274 28.540,29.484 ZM13.124,25.387 C13.124,25.023 13.246,24.690 13.444,24.420 C13.246,24.150 13.124,23.817 13.124,23.453 C13.124,22.927 13.372,22.464 13.750,22.170 L13.750,21.441 C11.426,20.057 9.999,17.525 9.999,14.741 C9.999,10.472 13.364,6.999 17.500,6.999 C21.636,6.999 25.001,10.472 25.001,14.741 C25.001,17.525 23.574,20.056 21.250,21.440 L21.250,22.169 C21.628,22.464 21.875,22.927 21.875,23.452 C21.875,23.816 21.754,24.149 21.555,24.420 C21.753,24.690 21.875,25.023 21.875,25.387 C21.875,26.277 21.175,27.000 20.313,27.000 L14.687,27.000 C13.825,27.000 13.124,26.277 13.124,25.387 ZM23.751,14.741 C23.751,11.184 20.947,8.289 17.500,8.289 C14.053,8.289 11.249,11.184 11.249,14.741 C11.249,17.172 12.556,19.372 14.660,20.483 L15.000,20.663 L15.000,21.838 L16.875,21.838 L16.875,17.230 C15.799,16.942 15.000,15.940 15.000,14.741 C15.000,13.318 16.121,12.160 17.500,12.160 C18.879,12.160 20.000,13.318 20.000,14.741 C20.000,15.940 19.201,16.942 18.125,17.230 L18.125,21.838 L20.000,21.838 L20.000,20.663 L20.340,20.482 C22.444,19.372 23.751,17.172 23.751,14.741 ZM14.375,23.452 C14.375,23.629 14.515,23.774 14.687,23.774 L20.313,23.774 C20.485,23.774 20.625,23.629 20.625,23.452 C20.625,23.274 20.485,23.129 20.313,23.129 L14.687,23.129 C14.515,23.129 14.375,23.274 14.375,23.452 ZM17.500,16.032 C18.190,16.032 18.750,15.453 18.750,14.741 C18.750,14.030 18.190,13.451 17.500,13.451 C16.810,13.451 16.250,14.030 16.250,14.741 C16.250,15.453 16.811,16.032 17.500,16.032 ZM20.313,25.710 C20.485,25.710 20.626,25.565 20.625,25.387 C20.625,25.210 20.485,25.065 20.313,25.065 L14.687,25.065 C14.515,25.065 14.375,25.210 14.375,25.387 C14.375,25.565 14.515,25.710 14.687,25.710 L20.313,25.710 Z"/>
    </symbol>
    <symbol id="m-b24" viewBox="0 0 34 34">
        <path d="M17,0 C26.374,0 34,7.626 34,17 C34,21.724 32.01,26.274 28.54,29.484 C28.259,29.743 27.821,29.726 27.562,29.445 C27.302,29.165 27.319,28.727 27.6,28.468 C30.788,25.52 32.616,21.34 32.616,17 C32.616,8.389 25.611,1.384 17,1.384 C8.389,1.384 1.384,8.389 1.384,17 C1.384,25.611 8.389,32.616 17,32.616 C17.382,32.616 17.692,32.926 17.692,33.308 C17.692,33.69 17.382,34 17,34 C7.626,34 0,26.374 0,17 C0,7.626 7.626,0 17,0 L17,0 Z"></path>
        <path d="M27.2514092,11 C27.9639396,11.3418868 28.6700796,11.6773832 29.178117,12.3196191 C29.8145255,13.1073884 30.1002252,14.1215822 29.9685958,15.1257086 C29.8369665,16.1298351 29.299514,17.0361232 28.4815626,17.6332427 C27.6549449,18.2414712 26.6116301,18.4762872 25.6041353,18.2808575 C24.5966405,18.0854278 23.7167855,17.4775631 23.1775246,16.6043872 C22.6366159,15.7465122 22.4739733,14.703348 22.7280496,13.7215247 C22.9821259,12.7397015 23.6303661,11.9063776 24.5195101,11.4185717 C24.7911024,11.2652019 25.0786707,11.1373938 25.3630439,11.0031952 L27.2546044,11.0031952 L27.2514092,11 Z M29.2388259,14.6457273 C29.2081522,13.0391706 27.9122181,11.7446483 26.3056289,11.7157256 C24.6984018,11.7465031 23.4043445,13.0447985 23.3788224,14.6521177 C23.4078993,16.2588289 24.7052486,17.5533518 26.3120193,17.5789243 C27.9173279,17.5465559 29.2099588,16.2511027 29.2388259,14.6457273 L29.2388259,14.6457273 Z M7.97794092,22.109723 C6.87240047,22.109723 5.77005521,22.0905518 4.66770996,22.1193086 C4.06062127,22.1352846 3.93281313,21.8636923 4.02866924,21.3300933 C4.35458001,19.4768752 5.35148354,18.0582048 6.82447241,16.9430787 C7.41878029,16.4957502 8.01947857,16.0548121 8.59142002,15.581922 C9.21128952,15.0706894 9.44773459,14.3933063 9.1953135,13.856512 C8.89815957,13.2270569 8.3070469,13.1855193 7.69995821,13.1695433 C6.91393811,13.1471768 6.17904128,13.3356939 5.47609648,13.6584094 C5.04154879,13.856512 4.84344616,13.7446799 4.68688118,13.2973514 C4.22677186,11.9873179 4.22996707,11.9393899 5.5815382,11.5431846 C6.79891078,11.1853218 8.02906418,10.9968048 9.31034083,11.2364451 C11.9304078,11.7317016 12.2083905,14.2143748 11.3137335,15.7480726 C10.834453,16.5692399 10.0803849,17.1092293 9.35507369,17.6811708 C8.72242337,18.1828178 8.02586898,18.6173654 7.53061241,19.2723822 C7.38682825,19.457704 7.12801676,19.6526114 7.27180092,19.9146181 C7.39321866,20.1446728 7.67759178,20.0520119 7.89167042,20.0520119 C8.99721088,20.0615975 10.0995561,20.0775735 11.2019014,20.0520119 C11.7898188,20.0360359 12.0326543,20.2788713 11.9815311,20.8508128 C11.9751407,20.9434737 11.9815311,21.0329394 11.9815311,21.1224051 C11.9815311,22.1065278 11.9783359,22.109723 11.0165796,22.1129182 L7.97794092,22.1129182 L7.97794092,22.109723 Z M18.7553628,14.4412343 C18.7553628,15.2719873 18.7681436,16.1059354 18.7489724,16.9366883 C18.7361915,17.4159689 18.9023421,17.6268523 19.4071843,17.6332427 C20.2698893,17.6492187 20.7172178,18.5055333 20.3178173,19.3043342 C20.1580572,19.6238546 19.8513176,19.5631457 19.6052869,19.5343889 C18.9023421,19.4513136 18.6595066,19.7644436 18.7521676,20.4226555 C18.7617532,20.4897548 18.7521676,20.5600493 18.7521676,20.6271485 C18.7521676,22.1193086 18.3176199,22.4420242 16.8030933,22.1001374 C16.4803778,22.0298429 16.4292545,21.8221547 16.4260593,21.560148 C16.4228641,21.1128195 16.4004977,20.6591006 16.4260593,20.2117721 C16.4548161,19.7229059 16.2758847,19.5248033 15.7678474,19.5375841 C14.7357966,19.5631457 13.7005506,19.5631457 12.6684998,19.5375841 C12.310637,19.5248033 11.7994045,19.7484675 11.6396443,19.301139 C11.4607129,18.8058825 11.4415417,18.2307458 11.8121853,17.7578557 C12.4480308,16.9430787 13.0902667,16.131497 13.7325027,15.3231105 C14.7230158,14.0705907 15.7103337,12.8180709 16.704042,11.5687462 C17.0299528,11.1661506 18.0332467,10.9584624 18.4933561,11.172541 C18.7809244,11.3099348 18.7489724,11.5719414 18.7489724,11.8115817 C18.7553628,12.6902627 18.7489724,13.5657485 18.7489724,14.4412343 L18.7553628,14.4412343 L18.7553628,14.4412343 Z M16.4132785,15.1441791 L16.2694943,15.1026415 C15.9052411,15.581922 15.5218167,16.0516169 15.1767347,16.5468735 C14.9658513,16.8504178 14.4737899,17.166743 14.6335501,17.4734826 C14.8188719,17.8313454 15.3684469,17.5885099 15.7582618,17.6172667 C16.0873677,17.6460235 16.4132785,17.6108763 16.4132785,17.150767 L16.4132785,15.1473743 L16.4132785,15.1441791 Z M25.8646908,13.9331969 L25.8646908,13.8660977 C25.9605469,13.5210157 25.6218554,12.945879 26.2577009,12.8947558 C26.935084,12.8436325 26.6922486,13.4379404 26.730591,13.7894128 C26.7753239,14.2111796 27.0501114,14.2111796 27.3536557,14.2175701 C27.6603953,14.2207653 27.9607444,14.2399365 27.938378,14.671289 C27.9160116,15.0579086 27.625248,15.048323 27.3536557,15.064299 C27.2418236,15.0706894 27.1299915,15.064299 27.0149641,15.064299 C25.8646908,15.0706894 25.8646908,15.0706894 25.8646908,13.9331969 L25.8646908,13.9331969 Z"></path>
    </symbol>
</svg>