<svg xmlns="http://www.w3.org/2000/svg" xmlns:xlink="http://www.w3.org/1999/xlink">
    <symbol id="m-service" viewBox="0 0 18 16" width="19px" height="19px">
        <path d="M15.060,2.670 L15.060,2.285 C15.060,1.025 14.024,0.000 12.751,0.000 L5.249,0.000 C3.976,0.000 2.940,1.025 2.940,2.285 L2.940,2.670 C1.299,2.790 -0.000,4.146 -0.000,5.801 L-0.000,12.858 C-0.000,14.590 1.424,16.000 3.174,16.000 L14.826,16.000 C16.576,16.000 18.000,14.590 18.000,12.858 L18.000,5.801 C18.000,4.146 16.701,2.789 15.060,2.670 ZM4.095,2.285 C4.095,1.655 4.612,1.143 5.249,1.143 L12.751,1.143 C13.388,1.143 13.906,1.655 13.906,2.285 L13.906,2.577 L4.095,2.577 L4.095,2.285 ZM3.174,3.801 L14.826,3.801 C15.940,3.801 16.846,4.698 16.846,5.801 L16.846,7.861 L11.156,7.861 C11.113,7.861 11.072,7.867 11.032,7.875 C10.992,7.867 10.950,7.861 10.908,7.861 C10.589,7.861 10.330,8.117 10.330,8.433 C10.330,9.159 9.734,9.750 9.000,9.750 C8.266,9.750 7.670,9.159 7.670,8.433 C7.670,8.117 7.411,7.861 7.093,7.861 C7.050,7.861 7.008,7.867 6.968,7.875 C6.928,7.867 6.887,7.861 6.844,7.861 L1.154,7.861 L1.154,5.801 C1.154,4.698 2.060,3.801 3.174,3.801 ZM14.826,14.857 L3.174,14.857 C2.060,14.857 1.154,13.960 1.154,12.858 L1.154,9.004 L6.586,9.004 C6.847,10.085 7.829,10.892 9.000,10.892 C10.171,10.892 11.153,10.085 11.414,9.004 L16.846,9.004 L16.846,12.858 C16.846,13.960 15.940,14.857 14.826,14.857 Z"></path>
    </symbol>
    <symbol id="m-bitrix" viewBox="0 0 59.05 59.09" width="21px" height="21px">
        <path d="M59,27.42V26.54a18.88,18.88,0,0,0-1-5.41A30.48,30.48,0,0,0,49,7.35,28.08,28.08,0,0,0,38.86,1.61,35.88,35.88,0,0,0,32.44.19c-0.36,0-.72-0.07-1.08-0.1l-0.53,0L30.68,0,30.53,0H28.29l-0.46,0c-0.37,0-.74.08-1.12,0.13l-2.63.43-0.73.12a2.58,2.58,0,0,0-.4.11,1.62,1.62,0,0,0-1.07,1.54l0.05,7.76Q22,19.89,22,29.63a7.55,7.55,0,1,0,9.54-7.21c0-.68,0-1.36,0-2a10,10,0,0,1,1.08.32A9.13,9.13,0,0,1,39,28.24a8.9,8.9,0,0,1-2.77,8.28,9.89,9.89,0,0,1-5.61,2.7,8.51,8.51,0,0,1-5.09-.84,9.64,9.64,0,0,1-4.66-4.67q-0.13-.26-0.24-0.55a8.16,8.16,0,0,1-.5-3V17.81c0-2.24,0-4.46,0-6.65V11.11h0c0-.11,0-0.21,0-0.32v-1c0-1,0-2-.05-3L20,5c0-.23,0-0.46,0-0.71V3.87a1.5,1.5,0,0,0-2-1.41l-0.16.05a3.85,3.85,0,0,0-.46.18L16.88,3l-0.63.31A1.82,1.82,0,0,0,15.18,5q0,3.11,0,6.21l0,2.14c0,1.8,0,3.6,0,5.39,0,0.29,0,.59,0,0.88v10.6c0,0.12,0,.24,0,0.36A14.39,14.39,0,0,0,30.7,44.09a14.58,14.58,0,0,0,12.72-10,14.12,14.12,0,0,0-3.66-14.6,14,14,0,0,0-7.94-4l-0.24,0v-1l1-.87a15.71,15.71,0,0,1,6.05,2.58A17.51,17.51,0,0,1,45.1,24,15.79,15.79,0,0,1,46,28.36a16,16,0,0,1-3.49,11.5A16.27,16.27,0,0,1,34,45.61a15.75,15.75,0,0,1-6.51.47,16.36,16.36,0,0,1-8.06-3.47,17.44,17.44,0,0,1-5.73-8.2,6.73,6.73,0,0,1-.31-2V7.95a1.65,1.65,0,0,0-.81-1.16,2.4,2.4,0,0,0-1.79,0,1.9,1.9,0,0,0-.47.33l-0.61.63a48.05,48.05,0,0,0-3.91,4.35A28.43,28.43,0,0,0,.64,23.63a28.8,28.8,0,0,0-.59,4.59l0,0.13a1.49,1.49,0,0,0,0,.28v2.19s0,0.09,0,.13l0,0.58c0,0.41.07,0.82,0.11,1.24a29.14,29.14,0,0,0,3.92,12,29.38,29.38,0,0,0,9.8,10.11,29.86,29.86,0,0,0,10.46,4.06,12,12,0,0,0,2.08.2h5.93a20.27,20.27,0,0,0,6.79-1.34,30.54,30.54,0,0,0,11.48-7.14,29,29,0,0,0,6.2-9.24,27.46,27.46,0,0,0,2-6.57A24,24,0,0,0,59,31.4C59.06,30.07,59,28.75,59,27.42Zm-3,3.94a21.44,21.44,0,0,1-.19,3,24.56,24.56,0,0,1-1.78,5.86,26,26,0,0,1-5.56,8.29,27.21,27.21,0,0,1-10.37,6.43,17.37,17.37,0,0,1-5.8,1.17H30.61c-1.39,0-2.77,0-4.16,0a8.88,8.88,0,0,1-1.56-.15,26.86,26.86,0,0,1-9.41-3.65,26.43,26.43,0,0,1-8.81-9.09A26.17,26.17,0,0,1,3.15,32.46c0-.4-0.07-0.79-0.11-1.19l0-.52v-2a2.39,2.39,0,0,0,0-.36,25.82,25.82,0,0,1,.53-4.18A25.1,25.1,0,0,1,8.2,13.9c0.58-.76,2.24-2.35,2.24-2.35V32.79a9.49,9.49,0,0,0,.44,2.58A20.39,20.39,0,0,0,17.58,45a19.33,19.33,0,0,0,9.52,4.1,18.78,18.78,0,0,0,7.74-.56A19.2,19.2,0,0,0,44.92,41.7,18.93,18.93,0,0,0,49,28.1a18.72,18.72,0,0,0-1.13-5.18,20.41,20.41,0,0,0-7.46-9.3,19.57,19.57,0,0,0-8.84-3.38,2.72,2.72,0,0,0-2.21.44,2.71,2.71,0,0,0-.8,2.11c0,0.66,0,10.24,0,10.24a1.93,1.93,0,0,0,1.69,2.15l0.33,0.09A4.55,4.55,0,0,1,32,33.54a4.67,4.67,0,0,1-3.88.5A4.55,4.55,0,0,1,25,29.62q0-9.75-.12-19.5l0-6.6,2.29-.37c0.32,0,.64-0.08,1-0.11l2.08,0h0l0.36,0,0.58,0c0.31,0,.61,0,0.92.08a33,33,0,0,1,6.24,1.41,24.89,24.89,0,0,1,9.33,5.55A27.47,27.47,0,0,1,55.1,22,15.82,15.82,0,0,1,56,26.58v0.89C56,28.76,56.06,30.06,56,31.36Z"></path>
    </symbol>
    <symbol id="m-b24" viewBox="0 0 24 12" width="24px" height="12px">
        <path d="M20.500,7.000 C18.570,7.000 17.000,5.430 17.000,3.500 C17.000,1.570 18.570,-0.000 20.500,-0.000 C22.430,-0.000 24.000,1.570 24.000,3.500 C24.000,5.430 22.430,7.000 20.500,7.000 ZM20.500,0.745 C18.981,0.745 17.745,1.981 17.745,3.500 C17.745,5.019 18.981,6.255 20.500,6.255 C22.019,6.255 23.255,5.019 23.255,3.500 C23.255,1.981 22.019,0.745 20.500,0.745 ZM22.324,3.968 L20.463,3.968 C20.304,3.968 20.175,3.839 20.175,3.680 L20.175,1.501 C20.175,1.341 20.304,1.212 20.463,1.212 C20.622,1.212 20.751,1.341 20.751,1.501 L20.751,3.392 L22.324,3.392 C22.483,3.392 22.612,3.521 22.612,3.680 C22.612,3.839 22.483,3.968 22.324,3.968 ZM14.661,12.000 L12.660,12.000 L12.660,9.798 L8.257,9.798 L8.257,7.959 L12.928,1.001 L14.661,1.001 L14.661,7.952 L16.000,7.952 L16.000,9.798 L14.661,9.798 L14.661,12.000 ZM12.660,4.201 L10.188,7.945 L12.660,7.945 L12.660,4.201 ZM0.705,9.907 C1.093,9.248 1.868,8.372 3.023,7.279 C3.953,6.395 4.523,5.794 4.735,5.483 C5.017,5.049 5.158,4.621 5.158,4.194 C5.158,3.731 5.031,3.369 4.784,3.115 C4.538,2.862 4.199,2.739 3.763,2.739 C3.333,2.739 2.988,2.876 2.734,3.137 C2.480,3.405 2.340,3.839 2.297,4.455 L0.240,4.245 C0.360,3.086 0.740,2.261 1.388,1.754 C2.037,1.254 2.840,1.001 3.812,1.001 C4.869,1.001 5.707,1.291 6.313,1.877 C6.919,2.456 7.222,3.180 7.222,4.049 C7.222,4.542 7.137,5.012 6.961,5.454 C6.785,5.903 6.510,6.374 6.137,6.859 C5.883,7.185 5.432,7.648 4.784,8.256 C4.136,8.864 3.720,9.263 3.551,9.473 C3.375,9.668 3.234,9.864 3.129,10.052 L7.229,10.052 L7.229,12.000 L0.001,12.000 C0.078,11.268 0.311,10.566 0.705,9.907 Z"></path>
    </symbol>
    <symbol id="m-audit" viewBox="0 0 12 17" width="12px" height="17px">
        <path d="M0.000,-0.000 L0.000,17.000 L12.000,17.000 L12.000,-0.000 L0.000,-0.000 ZM3.905,15.283 L1.619,15.283 L1.619,12.859 L3.905,12.859 L3.905,15.283 ZM3.905,11.883 L1.619,11.883 L1.619,9.459 L3.905,9.459 L3.905,11.883 ZM3.905,8.483 L1.619,8.483 L1.619,6.059 L3.905,6.059 L3.905,8.483 ZM7.143,15.283 L4.857,15.283 L4.857,12.859 L7.143,12.859 L7.143,15.283 ZM7.143,11.883 L4.857,11.883 L4.857,9.459 L7.143,9.459 L7.143,11.883 ZM7.143,8.483 L4.857,8.483 L4.857,6.059 L7.143,6.059 L7.143,8.483 ZM10.381,15.283 L8.095,15.283 L8.095,12.859 L10.381,12.859 L10.381,15.283 ZM10.381,11.883 L8.095,11.883 L8.095,9.459 L10.381,9.459 L10.381,11.883 ZM10.381,8.483 L8.095,8.483 L8.095,6.059 L10.381,6.059 L10.381,8.483 ZM10.381,5.083 L1.619,5.083 L1.619,1.717 L10.381,1.717 L10.381,5.083 Z"></path>
    </symbol>
    <symbol id="m-shop" viewBox="0 0 17 17" width="17px" height="17px">
        <path d="M8.946,12.549 L8.946,14.873 L0.793,14.873 L0.793,1.825 L8.946,1.825 L8.946,4.324 L9.733,4.324 L9.733,1.153 C9.733,0.521 9.223,0.006 8.602,0.006 L1.138,0.006 C0.516,0.006 0.008,0.521 0.008,1.153 L0.008,15.847 C0.008,16.479 0.516,16.995 1.138,16.995 L8.602,16.995 C9.223,16.995 9.732,16.479 9.732,15.847 L9.732,12.549 L8.946,12.549 ZM3.675,0.834 L6.064,0.834 C6.139,0.834 6.200,0.895 6.200,0.972 C6.200,1.047 6.139,1.110 6.064,1.110 L3.675,1.110 C3.600,1.110 3.539,1.047 3.539,0.972 C3.539,0.895 3.600,0.834 3.675,0.834 ZM4.869,16.422 C4.558,16.422 4.304,16.165 4.304,15.847 C4.304,15.531 4.558,15.274 4.869,15.274 C5.182,15.274 5.436,15.531 5.436,15.847 C5.435,16.165 5.182,16.422 4.869,16.422 ZM12.641,11.847 L4.553,11.847 L3.064,5.065 L12.165,5.065 L11.918,6.037 L4.258,6.037 L5.320,10.877 L11.873,10.877 L13.519,3.312 L16.992,3.312 L16.992,4.283 L14.287,4.283 L12.641,11.847 ZM7.233,13.137 C7.233,13.637 6.833,14.043 6.341,14.043 C5.847,14.043 5.447,13.637 5.447,13.137 C5.447,12.637 5.847,12.231 6.341,12.231 C6.834,12.232 7.233,12.637 7.233,13.137 ZM11.903,13.137 C11.903,13.637 11.503,14.043 11.009,14.043 C10.517,14.043 10.117,13.637 10.117,13.137 C10.117,12.637 10.517,12.231 11.009,12.231 C11.503,12.232 11.903,12.637 11.903,13.137 Z" class="cccls-1"></path>
    </symbol>
    <symbol id="m-design" viewBox="0 0 15 20" width="15px" height="20px">
        <path d="M7.500,-0.001 C3.364,-0.001 -0.001,3.472 -0.001,7.742 C-0.001,10.525 1.426,13.057 3.749,14.441 L3.749,15.170 C3.372,15.465 3.124,15.927 3.124,16.452 C3.124,16.817 3.246,17.150 3.444,17.420 C3.246,17.690 3.124,18.023 3.124,18.388 C3.124,19.277 3.825,20.001 4.687,20.001 L10.313,20.001 C11.175,20.001 11.875,19.277 11.875,18.388 C11.875,18.023 11.753,17.690 11.555,17.420 C11.754,17.149 11.875,16.817 11.875,16.452 C11.875,15.927 11.628,15.464 11.250,15.169 L11.250,14.440 C13.574,13.056 15.001,10.525 15.001,7.741 C15.001,3.472 11.636,-0.001 7.500,-0.001 ZM10.313,18.710 L4.687,18.710 C4.515,18.710 4.375,18.565 4.375,18.387 C4.375,18.210 4.515,18.065 4.687,18.065 L10.313,18.065 C10.485,18.065 10.625,18.210 10.625,18.387 C10.626,18.565 10.485,18.710 10.313,18.710 ZM10.313,16.774 L4.687,16.774 C4.515,16.774 4.375,16.629 4.375,16.452 C4.375,16.274 4.515,16.129 4.687,16.129 L10.313,16.129 C10.485,16.129 10.625,16.274 10.625,16.452 C10.625,16.629 10.485,16.774 10.313,16.774 ZM10.340,13.483 L10.000,13.663 L10.000,14.839 L8.125,14.839 L8.125,10.231 C9.201,9.942 10.000,8.940 10.000,7.741 C10.000,6.318 8.879,5.161 7.500,5.161 C6.121,5.161 5.000,6.318 5.000,7.741 C5.000,8.940 5.799,9.942 6.875,10.231 L6.875,14.839 L5.000,14.839 L5.000,13.663 L4.660,13.483 C2.556,12.372 1.249,10.172 1.249,7.741 C1.249,4.184 4.053,1.289 7.500,1.289 C10.947,1.289 13.751,4.184 13.751,7.741 C13.751,10.172 12.444,12.372 10.340,13.483 ZM7.500,9.032 C6.811,9.032 6.250,8.453 6.250,7.742 C6.250,7.030 6.810,6.451 7.500,6.451 C8.189,6.451 8.750,7.030 8.750,7.742 C8.750,8.453 8.190,9.032 7.500,9.032 Z"></path>
    </symbol>
    <symbol id="m-support" viewBox="0 0 18 18" width="18px" height="18px">
        <path d="M17.111,0.887 C16.570,0.346 15.824,0.033 15.011,0.003 C14.238,-0.027 13.447,0.189 12.731,0.630 C12.414,0.824 12.313,1.238 12.507,1.552 C12.701,1.869 13.115,1.970 13.429,1.775 C14.403,1.179 15.526,1.205 16.160,1.839 C16.533,2.212 16.705,2.753 16.641,3.361 C16.574,4.022 16.249,4.671 15.727,5.194 C15.205,5.716 14.552,6.040 13.895,6.108 C13.287,6.167 12.746,5.996 12.373,5.626 C12.130,5.384 11.809,5.253 11.470,5.253 C11.127,5.253 10.806,5.387 10.563,5.626 C10.321,5.869 10.190,6.190 10.190,6.533 C10.190,6.877 10.324,7.197 10.567,7.440 C10.809,7.683 11.130,7.813 11.470,7.813 C11.813,7.813 12.134,7.679 12.376,7.440 C12.429,7.388 12.477,7.332 12.518,7.272 C12.873,7.399 13.253,7.466 13.656,7.466 C13.779,7.466 13.906,7.458 14.033,7.447 C14.044,7.447 14.056,7.444 14.067,7.444 L14.182,9.119 C14.209,9.500 14.067,9.873 13.798,10.145 L7.541,16.396 C7.190,16.746 6.616,16.746 6.265,16.396 L1.604,11.735 C1.433,11.563 1.340,11.336 1.340,11.097 C1.340,10.854 1.433,10.630 1.604,10.459 L7.858,4.205 C8.127,3.936 8.500,3.794 8.880,3.820 L14.436,4.190 C14.805,4.216 15.126,3.936 15.152,3.563 C15.179,3.193 14.899,2.872 14.526,2.846 L8.970,2.477 C8.205,2.425 7.451,2.708 6.910,3.253 L0.657,9.507 C0.231,9.933 0.000,10.496 0.000,11.097 C0.000,11.698 0.235,12.261 0.657,12.686 L5.313,17.343 C5.750,17.780 6.328,18.000 6.903,18.000 C7.477,18.000 8.052,17.780 8.492,17.343 L14.746,11.089 C15.291,10.545 15.574,9.791 15.522,9.022 L15.388,7.059 C15.858,6.835 16.294,6.526 16.682,6.141 C17.421,5.402 17.884,4.462 17.981,3.496 C18.082,2.477 17.772,1.552 17.111,0.887 Z"></path>
    </symbol>
    <symbol id="m-options" viewBox="0 0 57.49 57.49" width="22px" height="22px">
        <path d="M28.71,57.49a28.58,28.58,0,0,1-3.31-.19,3,3,0,0,1-2.66-3.17A4.54,4.54,0,0,0,20,49.69a4.78,4.78,0,0,0-5.1,1.15,3,3,0,0,1-4.13.33,28.54,28.54,0,0,1-4.55-4.6,3,3,0,0,1,.33-4.08,4.55,4.55,0,0,0,1.15-5.06,4.45,4.45,0,0,0-4.18-2.8h0A3.28,3.28,0,0,1,.18,31.94a28.74,28.74,0,0,1,0-6.54A3,3,0,0,1,3.3,22.74,4.79,4.79,0,0,0,7.8,20a4.53,4.53,0,0,0-1.15-5.1,3,3,0,0,1-.33-4.12A28.57,28.57,0,0,1,11,6.15a3,3,0,0,1,4.09.34,4.8,4.8,0,0,0,5.07,1.16,4.56,4.56,0,0,0,2.8-4.37A3,3,0,0,1,25.62.17a28.69,28.69,0,0,1,6.47,0,3,3,0,0,1,2.66,3.17,4.55,4.55,0,0,0,2.76,4.44,4.78,4.78,0,0,0,5.1-1.15,3,3,0,0,1,4.12-.33,28.44,28.44,0,0,1,4.56,4.6A3,3,0,0,1,51,15a4.52,4.52,0,0,0,3.11,7.86,3.25,3.25,0,0,1,3.24,2.68,28.69,28.69,0,0,1,0,6.54,3,3,0,0,1-3.21,2.66H53.84a4.52,4.52,0,0,0-3,7.88,3,3,0,0,1,.32,4.13,28.63,28.63,0,0,1-4.65,4.6A3,3,0,0,1,42.42,51a4.81,4.81,0,0,0-5.08-1.16,4.55,4.55,0,0,0-2.8,4.37,3,3,0,0,1-2.68,3.11A28.9,28.9,0,0,1,28.71,57.49ZM18.33,46.37a7.22,7.22,0,0,1,2.8.55,7.55,7.55,0,0,1,4.6,7.38,24.09,24.09,0,0,0,5.8,0,7.6,7.6,0,0,1,4.67-7.27A7.77,7.77,0,0,1,44.64,49a24.81,24.81,0,0,0,4.19-4.12,7.53,7.53,0,0,1,5.05-13.12h0.38A22.41,22.41,0,0,0,54.34,26a0.54,0.54,0,0,0-.27-0.11A7.52,7.52,0,0,1,48.94,12.8a24.61,24.61,0,0,0-4.07-4.14,7.78,7.78,0,0,1-8.51,1.91,7.56,7.56,0,0,1-4.6-7.38,24.87,24.87,0,0,0-5.8,0,7.61,7.61,0,0,1-4.68,7.27,7.76,7.76,0,0,1-8.42-1.92,24.86,24.86,0,0,0-4.18,4.12,7.58,7.58,0,0,1,1.9,8.51,7.79,7.79,0,0,1-7.31,4.6H3.15a27,27,0,0,0,0,5.75,0.61,0.61,0,0,0,.31.12,7.44,7.44,0,0,1,7,4.66,7.56,7.56,0,0,1-1.9,8.41,24.9,24.9,0,0,0,4.07,4.14A7.8,7.8,0,0,1,18.33,46.37Zm36-20.49h0ZM28.79,39.39A10.59,10.59,0,1,1,39.38,28.8,10.6,10.6,0,0,1,28.79,39.39Zm0-18.18a7.59,7.59,0,1,0,7.59,7.59A7.6,7.6,0,0,0,28.79,21.22Z"></path>
    </symbol>
    <symbol id="m-create" viewBox="0 0 18 18" width="18px" height="18px" >
        <path d="M17.366,13.571 L16.454,13.571 C16.383,13.796 16.289,14.012 16.186,14.218 L16.834,14.864 C17.084,15.113 17.084,15.516 16.834,15.764 L15.763,16.833 C15.514,17.082 15.109,17.082 14.860,16.833 L14.212,16.186 C14.005,16.289 13.789,16.378 13.563,16.453 L13.563,17.367 C13.563,17.714 13.281,18.000 12.929,18.000 L11.410,18.000 C11.063,18.000 10.776,17.719 10.776,17.367 L10.776,16.453 C10.550,16.383 10.334,16.289 10.127,16.186 L9.479,16.833 C9.229,17.082 8.825,17.082 8.576,16.833 L7.796,16.055 L0.489,16.055 C0.197,16.055 0.000,15.858 0.000,15.568 L0.000,-0.000 L16.115,-0.000 L16.115,7.891 L16.830,8.603 C17.079,8.851 17.079,9.254 16.830,9.503 L16.181,10.150 C16.285,10.356 16.374,10.572 16.449,10.797 L17.366,10.797 C17.718,10.797 18.005,11.082 18.000,11.424 L18.000,12.938 C18.000,13.285 17.718,13.571 17.366,13.571 ZM0.926,15.080 L7.363,15.080 C7.396,15.005 7.443,14.930 7.504,14.869 L8.148,14.222 C8.045,14.016 7.956,13.801 7.880,13.576 L6.964,13.576 C6.616,13.576 6.329,13.295 6.329,12.943 L6.329,11.429 C6.329,11.082 6.611,10.797 6.964,10.797 L7.880,10.797 C7.951,10.572 8.045,10.356 8.148,10.150 L7.500,9.503 C7.251,9.254 7.251,8.851 7.500,8.603 L8.571,7.534 C8.821,7.286 9.225,7.286 9.474,7.534 L10.123,8.181 C10.329,8.078 10.545,7.989 10.771,7.914 L10.771,7.000 C10.771,6.653 11.053,6.367 11.406,6.367 L12.924,6.367 C13.272,6.367 13.558,6.648 13.558,7.000 L13.558,7.914 C13.784,7.984 14.000,8.078 14.207,8.181 L14.856,7.534 C14.921,7.469 15.001,7.422 15.086,7.389 L15.086,5.024 L0.926,5.024 L0.926,15.080 ZM15.138,0.975 L0.978,0.975 L0.978,4.045 L15.138,4.045 L15.138,0.975 ZM17.018,11.776 L15.862,11.776 C15.782,11.054 15.500,10.398 15.067,9.864 L15.885,9.048 L15.307,8.472 L14.489,9.287 C13.949,8.856 13.291,8.575 12.571,8.495 L12.571,7.342 L11.754,7.342 L11.754,8.495 C11.030,8.575 10.372,8.856 9.836,9.287 L9.018,8.472 L8.440,9.048 L9.258,9.864 C8.825,10.403 8.543,11.059 8.463,11.776 L7.307,11.776 L7.307,12.591 L8.463,12.591 C8.543,13.313 8.825,13.970 9.258,14.504 L8.440,15.319 L9.018,15.896 L9.836,15.080 C10.376,15.511 11.034,15.793 11.754,15.872 L11.754,17.025 L12.571,17.025 L12.571,15.872 C13.295,15.793 13.953,15.511 14.489,15.080 L15.307,15.900 L15.885,15.324 L15.067,14.508 C15.500,13.970 15.782,13.313 15.862,12.596 L17.018,12.596 L17.018,11.776 ZM12.200,14.836 C10.734,14.836 9.511,13.618 9.511,12.155 C9.511,10.693 10.734,9.475 12.200,9.475 C13.671,9.475 14.889,10.693 14.889,12.155 C14.889,13.618 13.666,14.836 12.200,14.836 ZM12.200,10.450 C11.269,10.450 10.489,11.228 10.489,12.155 C10.489,13.084 11.269,13.862 12.200,13.862 C13.131,13.862 13.916,13.084 13.911,12.155 C13.911,11.228 13.131,10.450 12.200,10.450 ZM3.137,2.976 L2.159,2.976 L2.159,2.001 L3.137,2.001 L3.137,2.976 ZM5.581,2.976 L4.603,2.976 L4.603,2.001 L5.581,2.001 L5.581,2.976 ZM8.025,2.976 L7.047,2.976 L7.047,2.001 L8.025,2.001 L8.025,2.976 Z"></path>
    </symbol>
</svg>