<svg xmlns="http://www.w3.org/2000/svg" xmlns:xlink="http://www.w3.org/1999/xlink" preserveAspectRatio="xMidYMid" width="120" height="120" viewBox="0 0 120 120">
  <defs>
    <style>
      .cls-1 {
        fill: #eceff7;
      }

      .cls-1, .cls-2, .cls-3 {
        fill-rule: evenodd;
      }

      .cls-2 {
        fill: #59d556;
      }

      .cls-3 {
        fill: #159e31;
      }
    </style>
  </defs>
  <g>
    <path d="M120.000,59.730 C120.000,56.887 119.179,54.132 117.627,51.761 C116.303,49.742 115.807,47.273 116.230,44.809 C116.694,42.106 116.383,39.333 115.329,36.789 C114.241,34.163 112.429,31.931 110.088,30.336 C108.119,28.994 106.705,26.858 106.108,24.322 C105.489,21.697 104.150,19.298 102.235,17.382 C100.257,15.405 97.773,14.046 95.050,13.453 C92.584,12.916 90.442,11.512 89.019,9.499 C87.436,7.258 85.255,5.517 82.711,4.463 C80.084,3.376 77.225,3.080 74.441,3.607 C72.068,4.056 69.597,3.570 67.483,2.237 C65.164,0.773 62.483,0.000 59.729,0.000 C56.886,0.000 54.131,0.820 51.761,2.373 C49.741,3.696 47.272,4.193 44.809,3.769 C42.106,3.305 39.333,3.617 36.789,4.671 C34.163,5.759 31.931,7.571 30.336,9.911 C28.994,11.880 26.858,13.294 24.322,13.892 C21.697,14.511 19.297,15.849 17.382,17.765 C15.405,19.742 14.046,22.226 13.453,24.950 C12.916,27.415 11.512,29.557 9.498,30.980 C7.258,32.564 5.517,34.744 4.463,37.289 C3.375,39.916 3.079,42.775 3.606,45.559 C4.056,47.932 3.570,50.403 2.236,52.516 C0.773,54.836 -0.000,57.517 -0.000,60.271 C-0.000,63.113 0.821,65.869 2.373,68.238 C3.697,70.259 4.193,72.727 3.770,75.191 C3.306,77.894 3.617,80.667 4.671,83.211 C5.759,85.837 7.571,88.069 9.912,89.664 C11.881,91.006 13.295,93.141 13.892,95.678 C14.511,98.303 15.850,100.703 17.765,102.617 C19.743,104.596 22.227,105.955 24.950,106.547 C27.416,107.084 29.558,108.488 30.981,110.502 C32.564,112.741 34.745,114.482 37.289,115.537 C39.916,116.625 42.776,116.921 45.559,116.393 C47.932,115.944 50.403,116.430 52.517,117.763 C54.837,119.226 57.518,120.000 60.271,120.000 C63.114,120.000 65.869,119.179 68.239,117.627 C70.259,116.303 72.728,115.807 75.191,116.230 C77.895,116.694 80.667,116.383 83.211,115.329 C85.838,114.241 88.069,112.429 89.664,110.088 C91.006,108.119 93.142,106.706 95.678,106.107 C98.303,105.489 100.703,104.150 102.618,102.235 C104.595,100.257 105.954,97.773 106.547,95.050 C107.084,92.584 108.488,90.443 110.502,89.019 C112.742,87.436 114.483,85.254 115.537,82.710 C116.625,80.084 116.921,77.224 116.393,74.440 C115.944,72.068 116.430,69.597 117.764,67.483 C119.227,65.165 120.000,62.483 120.000,59.730 Z" class="cls-1"/>
    <path d="M116.000,59.748 C116.000,57.094 115.234,54.523 113.785,52.311 C112.550,50.425 112.087,48.121 112.482,45.822 C112.915,43.298 112.624,40.711 111.640,38.337 C110.625,35.886 108.933,33.802 106.749,32.314 C104.911,31.061 103.592,29.069 103.034,26.701 C102.456,24.250 101.207,22.011 99.419,20.223 C97.573,18.378 95.255,17.110 92.714,16.557 C90.412,16.056 88.413,14.744 87.084,12.865 C85.607,10.774 83.571,9.149 81.197,8.166 C78.745,7.151 76.076,6.874 73.478,7.367 C71.264,7.786 68.957,7.332 66.984,6.087 C64.819,4.722 62.317,4.000 59.747,4.000 C57.094,4.000 54.522,4.766 52.310,6.215 C50.425,7.450 48.120,7.914 45.821,7.518 C43.299,7.085 40.711,7.376 38.336,8.360 C35.885,9.375 33.802,11.066 32.314,13.251 C31.061,15.088 29.068,16.408 26.701,16.966 C24.251,17.543 22.011,18.793 20.223,20.580 C18.378,22.426 17.110,24.745 16.556,27.286 C16.055,29.587 14.744,31.586 12.865,32.915 C10.774,34.393 9.149,36.428 8.166,38.803 C7.150,41.255 6.874,43.923 7.366,46.521 C7.786,48.736 7.332,51.043 6.087,53.015 C4.722,55.180 4.000,57.683 4.000,60.253 C4.000,62.906 4.766,65.478 6.215,67.689 C7.450,69.575 7.913,71.879 7.518,74.178 C7.085,76.702 7.376,79.290 8.360,81.664 C9.375,84.115 11.066,86.198 13.251,87.686 C15.089,88.939 16.408,90.932 16.966,93.299 C17.544,95.750 18.793,97.989 20.581,99.776 C22.427,101.622 24.745,102.891 27.286,103.444 C29.588,103.945 31.587,105.256 32.915,107.135 C34.393,109.226 36.429,110.850 38.803,111.834 C41.255,112.850 43.924,113.126 46.522,112.634 C48.736,112.214 51.043,112.668 53.016,113.913 C55.181,115.278 57.683,115.999 60.253,115.999 C62.906,115.999 65.478,115.234 67.690,113.785 C69.575,112.550 71.879,112.087 74.179,112.482 C76.702,112.914 79.290,112.624 81.664,111.641 C84.115,110.625 86.198,108.934 87.686,106.749 C88.939,104.911 90.933,103.592 93.300,103.034 C95.749,102.457 97.989,101.207 99.777,99.420 C101.622,97.573 102.890,95.255 103.444,92.713 C103.945,90.412 105.256,88.414 107.135,87.084 C109.226,85.607 110.851,83.571 111.834,81.197 C112.850,78.745 113.126,76.076 112.634,73.478 C112.214,71.263 112.668,68.957 113.913,66.984 C115.278,64.820 116.000,62.317 116.000,59.748 ZM110.139,64.604 C108.290,67.535 107.619,70.982 108.250,74.310 C108.580,76.052 108.394,77.843 107.712,79.489 C107.051,81.084 105.962,82.450 104.560,83.441 C101.768,85.415 99.823,88.371 99.084,91.765 C98.713,93.468 97.862,95.025 96.622,96.264 C95.421,97.465 93.919,98.304 92.276,98.691 C88.821,99.505 85.881,101.476 83.999,104.237 C83.001,105.702 81.603,106.836 79.956,107.518 C78.362,108.179 76.626,108.374 74.934,108.084 C71.518,107.498 68.077,108.197 65.244,110.053 C63.762,111.025 62.035,111.538 60.253,111.538 C58.527,111.538 56.847,111.055 55.396,110.139 C53.183,108.743 50.677,108.019 48.150,108.019 C47.329,108.019 46.506,108.095 45.691,108.250 C43.947,108.579 42.157,108.394 40.510,107.712 C38.915,107.051 37.549,105.962 36.559,104.560 C34.585,101.768 31.629,99.823 28.235,99.084 C26.531,98.713 24.975,97.862 23.735,96.621 C22.535,95.421 21.695,93.918 21.309,92.277 C20.494,88.821 18.525,85.882 15.763,83.999 C14.298,83.001 13.164,81.602 12.481,79.956 C11.821,78.361 11.625,76.625 11.915,74.934 C12.502,71.519 11.803,68.078 9.947,65.245 C8.975,63.762 8.462,62.035 8.462,60.253 C8.462,58.527 8.945,56.848 9.861,55.396 C11.709,52.465 12.380,49.019 11.750,45.691 C11.420,43.948 11.606,42.158 12.288,40.511 C12.948,38.916 14.038,37.550 15.440,36.558 C18.232,34.585 20.177,31.629 20.916,28.235 C21.287,26.532 22.138,24.976 23.378,23.736 C24.578,22.536 26.081,21.696 27.723,21.309 C31.179,20.494 34.118,18.525 36.000,15.764 C36.999,14.298 38.397,13.164 40.043,12.482 C41.638,11.821 43.374,11.626 45.066,11.916 C48.481,12.503 51.922,11.804 54.755,9.948 C56.238,8.976 57.964,8.462 59.747,8.462 C61.473,8.462 63.152,8.946 64.604,9.861 C67.535,11.710 70.982,12.381 74.310,11.750 C76.052,11.420 77.843,11.606 79.490,12.288 C81.085,12.949 82.451,14.039 83.441,15.440 C85.415,18.232 88.371,20.177 91.765,20.916 C93.469,21.287 95.025,22.139 96.265,23.379 C97.465,24.579 98.304,26.081 98.691,27.723 C99.506,31.179 101.475,34.119 104.236,36.001 C105.701,37.000 106.836,38.397 107.519,40.044 C108.179,41.639 108.375,43.375 108.084,45.066 C107.498,48.481 108.197,51.923 110.053,54.756 C111.025,56.239 111.538,57.965 111.538,59.747 C111.538,61.474 111.054,63.153 110.139,64.604 Z" class="cls-2"/>
    <path d="M84.000,73.576 L84.000,86.000 L82.000,86.000 L82.000,74.000 L81.000,74.000 L80.000,74.000 L72.000,74.000 L72.000,85.000 C72.000,85.552 71.552,86.000 71.000,86.000 L68.000,86.000 L67.000,86.000 L66.000,86.000 L66.000,85.000 L66.000,70.000 L66.000,69.000 L63.000,69.000 L55.000,69.000 L52.000,69.000 L52.000,70.000 L52.000,85.000 L52.000,86.000 L51.000,86.000 L50.000,86.000 L47.000,86.000 C46.448,86.000 46.000,85.552 46.000,85.000 L46.000,74.000 L38.000,74.000 L37.000,74.000 L36.000,74.000 L36.000,86.000 L34.000,86.000 L34.000,73.576 C32.237,72.802 31.000,71.045 31.000,69.000 L31.000,56.000 L33.000,56.000 L33.000,69.000 C33.000,70.654 34.346,72.000 36.000,72.000 L36.000,61.000 C36.000,58.243 38.243,56.000 41.000,56.000 L46.000,56.000 C46.552,56.000 47.000,56.448 47.000,57.000 L47.000,61.000 L47.000,62.000 L47.000,63.000 L55.000,63.000 C55.552,63.000 56.000,63.448 56.000,64.000 L56.000,67.000 L62.000,67.000 L62.000,64.000 C62.000,63.448 62.448,63.000 63.000,63.000 L71.000,63.000 L71.000,62.000 L71.000,61.000 L71.000,57.000 C71.000,56.448 71.448,56.000 72.000,56.000 L77.000,56.000 C79.757,56.000 82.000,58.243 82.000,61.000 L82.000,72.000 C83.654,72.000 85.000,70.654 85.000,69.000 L85.000,56.000 L87.000,56.000 L87.000,69.000 C87.000,71.045 85.763,72.802 84.000,73.576 ZM54.000,65.000 L46.000,65.000 C45.448,65.000 45.000,64.552 45.000,64.000 L45.000,62.000 L45.000,61.000 L45.000,58.000 L41.000,58.000 C39.346,58.000 38.000,59.346 38.000,61.000 L38.000,72.000 L47.000,72.000 C47.552,72.000 48.000,72.448 48.000,73.000 L48.000,84.000 L50.000,84.000 L50.000,70.000 C50.000,69.449 49.551,69.000 49.000,69.000 L42.000,69.000 C41.448,69.000 41.000,68.552 41.000,68.000 L41.000,61.000 L43.000,61.000 L43.000,67.000 L49.000,67.000 L51.000,67.000 L54.000,67.000 L54.000,65.000 ZM80.000,61.000 C80.000,59.346 78.654,58.000 77.000,58.000 L73.000,58.000 L73.000,61.000 L73.000,62.000 L73.000,64.000 C73.000,64.552 72.552,65.000 72.000,65.000 L64.000,65.000 L64.000,67.000 L67.000,67.000 L69.000,67.000 L75.000,67.000 L75.000,61.000 L77.000,61.000 L77.000,68.000 C77.000,68.552 76.552,69.000 76.000,69.000 L69.000,69.000 C68.449,69.000 68.000,69.449 68.000,70.000 L68.000,84.000 L70.000,84.000 L70.000,73.000 C70.000,72.448 70.448,72.000 71.000,72.000 L80.000,72.000 L80.000,61.000 ZM75.000,54.000 C71.691,54.000 69.000,51.309 69.000,48.000 C69.000,44.691 71.691,42.000 75.000,42.000 C78.309,42.000 81.000,44.691 81.000,48.000 C81.000,51.309 78.309,54.000 75.000,54.000 ZM75.000,44.000 C72.794,44.000 71.000,45.794 71.000,48.000 C71.000,50.206 72.794,52.000 75.000,52.000 C77.206,52.000 79.000,50.206 79.000,48.000 C79.000,45.794 77.206,44.000 75.000,44.000 ZM69.882,53.529 C70.056,53.854 70.037,54.248 69.832,54.555 L68.000,57.303 L68.000,58.000 C68.000,59.654 66.654,61.000 65.000,61.000 L57.000,61.000 C55.346,61.000 54.000,59.654 54.000,58.000 L54.000,54.000 C54.000,52.346 55.346,51.000 57.000,51.000 L65.000,51.000 C66.304,51.000 67.416,51.836 67.829,53.000 L69.000,53.000 C69.369,53.000 69.708,53.203 69.882,53.529 ZM67.000,55.000 C66.448,55.000 66.000,54.552 66.000,54.000 C66.000,53.449 65.551,53.000 65.000,53.000 L57.000,53.000 C56.449,53.000 56.000,53.449 56.000,54.000 L56.000,58.000 C56.000,58.551 56.449,59.000 57.000,59.000 L65.000,59.000 C65.551,59.000 66.000,58.551 66.000,58.000 L66.000,57.000 C66.000,56.803 66.059,56.609 66.168,56.445 L67.131,55.000 L67.000,55.000 ZM58.000,55.000 L64.000,55.000 L64.000,57.000 L58.000,57.000 L58.000,55.000 ZM62.000,48.000 L62.000,46.000 L64.000,46.000 L64.000,48.000 L62.000,48.000 ZM58.000,48.000 L58.000,46.000 L60.000,46.000 L60.000,48.000 L58.000,48.000 ZM56.000,48.000 L54.000,48.000 L54.000,46.000 L56.000,46.000 L56.000,48.000 ZM62.000,40.000 L54.500,40.000 L51.800,43.600 C51.607,43.856 51.309,44.000 51.000,44.000 C50.895,44.000 50.788,43.983 50.684,43.949 C50.275,43.812 50.000,43.431 50.000,43.000 L50.000,40.000 C48.346,40.000 47.000,38.654 47.000,37.000 L47.000,33.000 C47.000,31.346 48.346,30.000 50.000,30.000 L62.000,30.000 C63.654,30.000 65.000,31.346 65.000,33.000 L65.000,37.000 C65.000,38.654 63.654,40.000 62.000,40.000 ZM63.000,33.000 C63.000,32.449 62.551,32.000 62.000,32.000 L50.000,32.000 C49.449,32.000 49.000,32.449 49.000,33.000 L49.000,37.000 C49.000,37.551 49.449,38.000 50.000,38.000 L51.000,38.000 C51.552,38.000 52.000,38.448 52.000,39.000 L52.000,40.000 L53.200,38.400 C53.389,38.148 53.685,38.000 54.000,38.000 L62.000,38.000 C62.551,38.000 63.000,37.551 63.000,37.000 L63.000,33.000 ZM51.000,34.000 L61.000,34.000 L61.000,36.000 L51.000,36.000 L51.000,34.000 ZM49.000,48.000 C49.000,51.309 46.309,54.000 43.000,54.000 C39.691,54.000 37.000,51.309 37.000,48.000 C37.000,44.691 39.691,42.000 43.000,42.000 C46.309,42.000 49.000,44.691 49.000,48.000 ZM43.000,44.000 C40.794,44.000 39.000,45.794 39.000,48.000 C39.000,50.206 40.794,52.000 43.000,52.000 C45.206,52.000 47.000,50.206 47.000,48.000 C47.000,45.794 45.206,44.000 43.000,44.000 Z" class="cls-3"/>
  </g>
</svg>
