<svg xmlns="http://www.w3.org/2000/svg" xmlns:xlink="http://www.w3.org/1999/xlink" preserveAspectRatio="xMidYMid" width="120" height="120" viewBox="0 0 120 120">
  <defs>
    <style>
      .cls-1 {
        fill: #eceff7;
      }

      .cls-1, .cls-2, .cls-3 {
        fill-rule: evenodd;
      }

      .cls-2 {
        fill: #59d556;
      }

      .cls-3 {
        fill: #159e31;
      }
    </style>
  </defs>
  <g>
    <path d="M120.000,59.730 C120.000,56.887 119.179,54.131 117.627,51.761 C116.303,49.741 115.807,47.272 116.230,44.809 C116.694,42.105 116.383,39.333 115.329,36.789 C114.241,34.163 112.429,31.931 110.088,30.336 C108.119,28.994 106.705,26.858 106.108,24.322 C105.489,21.696 104.150,19.298 102.235,17.383 C100.257,15.405 97.773,14.046 95.050,13.453 C92.584,12.916 90.442,11.512 89.019,9.498 C87.436,7.258 85.255,5.517 82.711,4.464 C80.084,3.376 77.225,3.079 74.441,3.607 C72.068,4.056 69.597,3.570 67.483,2.236 C65.164,0.773 62.483,-0.000 59.729,-0.000 C56.886,-0.000 54.131,0.820 51.761,2.373 C49.741,3.696 47.272,4.193 44.809,3.769 C42.106,3.305 39.333,3.617 36.789,4.670 C34.163,5.759 31.931,7.571 30.336,9.911 C28.994,11.880 26.858,13.294 24.322,13.892 C21.697,14.511 19.297,15.849 17.382,17.765 C15.405,19.742 14.046,22.226 13.453,24.949 C12.916,27.415 11.512,29.557 9.498,30.980 C7.258,32.564 5.517,34.744 4.463,37.288 C3.375,39.916 3.079,42.775 3.606,45.559 C4.056,47.931 3.570,50.403 2.236,52.516 C0.773,54.835 -0.000,57.517 -0.000,60.270 C-0.000,63.113 0.821,65.869 2.373,68.238 C3.697,70.258 4.193,72.727 3.770,75.191 C3.306,77.894 3.617,80.667 4.671,83.211 C5.759,85.837 7.571,88.069 9.912,89.664 C11.881,91.005 13.295,93.141 13.892,95.678 C14.511,98.303 15.850,100.703 17.765,102.618 C19.743,104.595 22.227,105.954 24.950,106.547 C27.416,107.083 29.558,108.488 30.981,110.502 C32.564,112.741 34.745,114.482 37.289,115.536 C39.916,116.624 42.776,116.920 45.559,116.393 C47.932,115.944 50.403,116.430 52.517,117.763 C54.837,119.227 57.518,120.000 60.271,120.000 C63.114,120.000 65.869,119.179 68.239,117.627 C70.259,116.303 72.728,115.807 75.191,116.230 C77.895,116.694 80.667,116.383 83.211,115.329 C85.838,114.241 88.069,112.428 89.664,110.088 C91.006,108.118 93.142,106.705 95.678,106.107 C98.303,105.489 100.703,104.150 102.618,102.235 C104.595,100.257 105.954,97.773 106.547,95.050 C107.084,92.584 108.488,90.443 110.502,89.019 C112.742,87.435 114.483,85.254 115.537,82.710 C116.625,80.084 116.921,77.224 116.393,74.440 C115.944,72.068 116.430,69.597 117.764,67.483 C119.227,65.164 120.000,62.482 120.000,59.730 Z" class="cls-1"/>
    <path d="M116.000,59.747 C116.000,57.094 115.234,54.523 113.785,52.311 C112.550,50.425 112.087,48.121 112.482,45.821 C112.915,43.298 112.624,40.711 111.640,38.336 C110.625,35.885 108.933,33.802 106.749,32.314 C104.911,31.061 103.592,29.068 103.034,26.701 C102.456,24.250 101.207,22.011 99.419,20.223 C97.573,18.377 95.255,17.109 92.714,16.556 C90.412,16.055 88.413,14.744 87.084,12.865 C85.607,10.774 83.571,9.149 81.197,8.166 C78.745,7.151 76.076,6.875 73.478,7.367 C71.264,7.786 68.957,7.332 66.984,6.087 C64.819,4.721 62.317,4.000 59.747,4.000 C57.094,4.000 54.522,4.766 52.310,6.215 C50.425,7.450 48.120,7.913 45.821,7.518 C43.299,7.085 40.711,7.376 38.336,8.359 C35.885,9.374 33.802,11.066 32.314,13.251 C31.061,15.088 29.068,16.408 26.701,16.966 C24.251,17.543 22.011,18.793 20.223,20.580 C18.378,22.426 17.110,24.745 16.556,27.286 C16.055,29.587 14.744,31.586 12.865,32.915 C10.774,34.393 9.149,36.428 8.166,38.803 C7.150,41.255 6.874,43.923 7.366,46.521 C7.786,48.736 7.332,51.042 6.087,53.015 C4.722,55.180 4.000,57.682 4.000,60.253 C4.000,62.906 4.766,65.478 6.215,67.689 C7.450,69.574 7.913,71.879 7.518,74.178 C7.085,76.701 7.376,79.289 8.360,81.664 C9.375,84.115 11.066,86.198 13.251,87.686 C15.089,88.938 16.408,90.932 16.966,93.299 C17.544,95.750 18.793,97.989 20.581,99.776 C22.427,101.622 24.745,102.891 27.286,103.443 C29.588,103.945 31.587,105.256 32.915,107.135 C34.393,109.226 36.429,110.850 38.803,111.834 C41.255,112.850 43.924,113.126 46.522,112.633 C48.736,112.214 51.043,112.668 53.016,113.912 C55.181,115.278 57.683,115.999 60.253,115.999 C62.906,115.999 65.478,115.234 67.690,113.785 C69.575,112.550 71.879,112.086 74.179,112.481 C76.702,112.915 79.290,112.624 81.664,111.640 C84.115,110.625 86.198,108.934 87.686,106.749 C88.939,104.911 90.933,103.592 93.300,103.034 C95.749,102.456 97.989,101.207 99.777,99.419 C101.622,97.573 102.890,95.255 103.444,92.713 C103.945,90.412 105.256,88.413 107.135,87.084 C109.226,85.606 110.851,83.571 111.834,81.197 C112.850,78.745 113.126,76.076 112.634,73.478 C112.214,71.263 112.668,68.957 113.913,66.984 C115.278,64.820 116.000,62.317 116.000,59.747 ZM110.139,64.604 C108.290,67.535 107.619,70.982 108.250,74.310 C108.580,76.051 108.394,77.842 107.712,79.489 C107.051,81.084 105.962,82.450 104.560,83.441 C101.768,85.415 99.823,88.371 99.084,91.765 C98.713,93.469 97.862,95.025 96.622,96.264 C95.421,97.465 93.919,98.304 92.276,98.691 C88.821,99.505 85.881,101.475 83.999,104.236 C83.001,105.701 81.603,106.836 79.956,107.518 C78.362,108.179 76.626,108.374 74.934,108.084 C71.518,107.498 68.077,108.197 65.244,110.053 C63.762,111.024 62.035,111.538 60.253,111.538 C58.527,111.538 56.847,111.054 55.396,110.139 C53.183,108.743 50.677,108.019 48.150,108.019 C47.329,108.019 46.506,108.095 45.691,108.250 C43.947,108.579 42.157,108.394 40.510,107.712 C38.915,107.051 37.549,105.961 36.559,104.560 C34.585,101.768 31.629,99.822 28.235,99.084 C26.531,98.713 24.975,97.861 23.735,96.621 C22.535,95.421 21.695,93.918 21.309,92.276 C20.494,88.821 18.525,85.881 15.763,83.999 C14.298,83.001 13.164,81.602 12.481,79.956 C11.821,78.362 11.625,76.625 11.915,74.934 C12.502,71.518 11.803,68.077 9.947,65.244 C8.975,63.761 8.462,62.035 8.462,60.253 C8.462,58.527 8.945,56.847 9.861,55.396 C11.709,52.465 12.380,49.018 11.750,45.690 C11.420,43.948 11.606,42.157 12.288,40.511 C12.948,38.916 14.038,37.549 15.440,36.558 C18.232,34.584 20.177,31.628 20.916,28.235 C21.287,26.531 22.138,24.975 23.378,23.736 C24.578,22.535 26.081,21.696 27.723,21.309 C31.179,20.495 34.118,18.525 36.000,15.763 C36.999,14.298 38.397,13.163 40.043,12.482 C41.638,11.821 43.374,11.626 45.066,11.917 C48.481,12.502 51.922,11.803 54.755,9.947 C56.238,8.975 57.964,8.462 59.747,8.462 C61.473,8.462 63.152,8.946 64.604,9.861 C67.535,11.710 70.982,12.380 74.310,11.750 C76.052,11.420 77.843,11.606 79.490,12.289 C81.085,12.949 82.451,14.038 83.441,15.440 C85.415,18.232 88.371,20.177 91.765,20.916 C93.469,21.287 95.025,22.138 96.265,23.378 C97.465,24.578 98.304,26.082 98.691,27.723 C99.506,31.179 101.475,34.119 104.236,36.001 C105.701,36.999 106.836,38.397 107.519,40.044 C108.179,41.638 108.375,43.374 108.084,45.066 C107.498,48.481 108.197,51.923 110.053,54.755 C111.025,56.239 111.538,57.964 111.538,59.747 C111.538,61.474 111.054,63.153 110.139,64.604 Z" class="cls-2"/>
    <path d="M82.102,77.299 L80.011,77.299 C79.570,77.299 79.213,76.942 79.213,76.501 C79.213,76.060 79.570,75.704 80.011,75.704 L82.102,75.704 C82.266,75.704 82.404,75.565 82.404,75.401 L82.404,40.380 C82.404,40.216 82.266,40.077 82.102,40.077 L74.783,40.077 L74.783,43.866 C74.783,44.307 74.426,44.663 73.985,44.663 C73.545,44.663 73.187,44.307 73.187,43.866 L73.187,36.596 L44.813,36.596 C44.813,36.596 44.813,39.278 44.813,39.280 L44.813,69.211 L47.472,69.211 L47.472,62.691 C47.472,62.250 47.830,61.893 48.270,61.893 L60.897,61.893 C61.338,61.893 61.695,62.250 61.695,62.691 L61.695,69.211 L67.960,69.211 C68.400,69.211 68.757,69.569 68.757,70.009 C68.757,70.450 68.400,70.807 67.960,70.807 L38.098,70.807 C37.658,70.807 37.300,70.450 37.300,70.009 C37.300,69.569 37.658,69.211 38.098,69.211 L43.217,69.211 L43.217,40.077 L35.898,40.077 C35.734,40.077 35.596,40.216 35.596,40.380 L35.596,75.401 C35.596,75.565 35.734,75.703 35.898,75.703 L67.960,75.703 C68.400,75.703 68.757,76.060 68.757,76.501 C68.757,76.942 68.400,77.299 67.960,77.299 L64.676,77.299 L64.676,83.404 L68.669,83.404 C69.110,83.404 69.467,83.761 69.467,84.202 C69.467,84.643 69.110,85.000 68.669,85.000 L45.799,85.000 C45.358,85.000 45.001,84.643 45.001,84.202 C45.001,83.761 45.358,83.404 45.799,83.404 L53.324,83.404 L53.324,77.299 L35.898,77.299 C34.851,77.299 34.000,76.448 34.000,75.401 L34.000,40.380 C34.000,39.333 34.851,38.482 35.898,38.482 L43.217,38.482 L43.217,35.798 C43.217,35.357 43.574,35.000 44.015,35.000 L73.985,35.000 C74.426,35.000 74.783,35.357 74.783,35.798 L74.783,38.482 L82.102,38.482 C83.149,38.482 84.000,39.333 84.000,40.380 L84.000,75.401 C84.000,76.448 83.149,77.299 82.102,77.299 ZM49.068,69.212 L60.100,69.212 L60.100,63.489 L49.068,63.489 L49.068,69.212 ZM54.920,83.404 L63.080,83.404 L63.080,77.299 L54.920,77.299 L54.920,83.404 ZM64.089,52.319 L68.113,52.319 C68.554,52.319 68.911,52.676 68.911,53.116 C68.911,53.557 68.554,53.914 68.113,53.914 L64.089,53.914 C63.648,53.914 63.291,53.557 63.291,53.116 C63.291,52.676 63.648,52.319 64.089,52.319 ZM64.089,58.701 L67.960,58.701 C68.400,58.701 68.757,59.059 68.757,59.499 C68.757,59.940 68.400,60.297 67.960,60.297 L64.089,60.297 C63.648,60.297 63.291,59.940 63.291,59.499 C63.291,59.059 63.648,58.701 64.089,58.701 ZM64.089,55.510 L67.960,55.510 C68.400,55.510 68.757,55.867 68.757,56.308 C68.757,56.748 68.400,57.106 67.960,57.106 L64.089,57.106 C63.648,57.106 63.291,56.748 63.291,56.308 C63.291,55.867 63.648,55.510 64.089,55.510 ZM48.270,52.319 L60.897,52.319 C61.338,52.319 61.695,52.676 61.695,53.116 C61.695,53.557 61.338,53.914 60.897,53.914 L48.270,53.914 C47.830,53.914 47.472,53.557 47.472,53.116 C47.472,52.676 47.830,52.319 48.270,52.319 ZM48.270,58.701 L60.897,58.701 C61.338,58.701 61.695,59.059 61.695,59.499 C61.695,59.940 61.338,60.297 60.897,60.297 L48.270,60.297 C47.830,60.297 47.472,59.940 47.472,59.499 C47.472,59.059 47.830,58.701 48.270,58.701 ZM48.270,55.510 L60.897,55.510 C61.338,55.510 61.695,55.867 61.695,56.308 C61.695,56.748 61.338,57.106 60.897,57.106 L48.270,57.106 C47.830,57.106 47.472,56.748 47.472,56.308 C47.472,55.867 47.830,55.510 48.270,55.510 ZM48.270,46.467 C47.830,46.467 47.472,46.110 47.472,45.669 L47.472,40.053 C47.472,39.613 47.830,39.255 48.270,39.255 L69.730,39.255 C70.171,39.255 70.528,39.613 70.528,40.053 L70.528,45.669 C70.528,46.110 70.171,46.467 69.730,46.467 L48.270,46.467 ZM68.932,40.851 L49.068,40.851 L49.068,44.872 L68.932,44.872 L68.932,40.851 ZM47.472,48.861 C47.472,48.420 47.830,48.063 48.270,48.063 L69.730,48.063 C70.171,48.063 70.528,48.420 70.528,48.861 C70.528,49.302 70.171,49.659 69.730,49.659 L48.270,49.659 C47.830,49.659 47.472,49.302 47.472,48.861 ZM70.363,53.996 C70.365,53.985 70.366,53.973 70.368,53.961 C70.372,53.945 70.376,53.929 70.380,53.913 C70.383,53.904 70.384,53.896 70.387,53.887 C70.392,53.871 70.398,53.855 70.403,53.839 C70.406,53.832 70.408,53.825 70.411,53.819 C70.411,53.819 70.415,53.807 70.416,53.804 L73.245,46.760 C73.366,46.458 73.659,46.259 73.985,46.259 C74.311,46.259 74.604,46.458 74.726,46.760 L77.554,53.803 C77.554,53.805 77.555,53.807 77.556,53.809 L77.560,53.819 C77.562,53.825 77.564,53.831 77.566,53.837 C77.572,53.854 77.578,53.870 77.583,53.887 C77.586,53.896 77.588,53.904 77.590,53.912 C77.594,53.928 77.599,53.945 77.602,53.961 C77.604,53.973 77.605,53.985 77.607,53.996 C77.609,54.010 77.612,54.024 77.613,54.037 C77.616,54.063 77.617,54.090 77.617,54.116 L77.617,81.368 C77.617,83.371 75.988,85.000 73.985,85.000 C71.983,85.000 70.353,83.371 70.353,81.368 L70.353,54.116 C70.353,54.090 70.355,54.063 70.357,54.037 C70.359,54.024 70.361,54.010 70.363,53.996 ZM73.985,49.199 L72.331,53.318 L75.639,53.318 L73.985,49.199 ZM76.021,54.914 L71.949,54.914 L71.949,77.699 L76.021,77.699 L76.021,54.914 ZM71.949,81.368 C71.949,82.491 72.862,83.404 73.985,83.404 C75.108,83.404 76.021,82.491 76.021,81.368 L76.021,79.295 L71.949,79.295 L71.949,81.368 Z" class="cls-3"/>
  </g>
</svg>
