<svg xmlns="http://www.w3.org/2000/svg" xmlns:xlink="http://www.w3.org/1999/xlink" preserveAspectRatio="xMidYMid" width="120" height="120" viewBox="0 0 120 120">
  <defs>
    <style>
      .cls-1 {
        fill: #eceff7;
      }

      .cls-1, .cls-2, .cls-3 {
        fill-rule: evenodd;
      }

      .cls-2 {
        fill: #59d556;
      }

      .cls-3 {
        fill: #159e31;
      }
    </style>
  </defs>
  <g>
    <path d="M120.000,59.730 C120.000,56.887 119.179,54.132 117.627,51.761 C116.303,49.741 115.807,47.273 116.230,44.809 C116.694,42.105 116.383,39.333 115.329,36.789 C114.241,34.163 112.429,31.931 110.088,30.336 C108.119,28.994 106.705,26.858 106.108,24.322 C105.489,21.697 104.150,19.298 102.235,17.383 C100.257,15.405 97.773,14.046 95.050,13.453 C92.584,12.916 90.442,11.512 89.019,9.498 C87.436,7.258 85.255,5.517 82.711,4.463 C80.084,3.376 77.225,3.080 74.441,3.607 C72.068,4.056 69.597,3.570 67.483,2.236 C65.164,0.773 62.483,0.000 59.729,0.000 C56.886,0.000 54.131,0.820 51.761,2.373 C49.741,3.696 47.272,4.192 44.809,3.769 C42.106,3.305 39.333,3.617 36.789,4.670 C34.163,5.759 31.931,7.571 30.336,9.911 C28.994,11.880 26.858,13.294 24.322,13.892 C21.697,14.511 19.297,15.849 17.382,17.765 C15.405,19.741 14.046,22.226 13.453,24.949 C12.916,27.415 11.512,29.557 9.498,30.980 C7.258,32.564 5.517,34.744 4.463,37.289 C3.375,39.916 3.079,42.775 3.606,45.559 C4.056,47.931 3.570,50.402 2.236,52.516 C0.773,54.835 -0.000,57.517 -0.000,60.270 C-0.000,63.113 0.821,65.869 2.373,68.238 C3.696,70.258 4.193,72.727 3.770,75.191 C3.306,77.894 3.617,80.667 4.671,83.211 C5.759,85.837 7.571,88.069 9.912,89.664 C11.881,91.005 13.295,93.141 13.892,95.678 C14.511,98.303 15.850,100.703 17.765,102.617 C19.743,104.595 22.227,105.954 24.950,106.547 C27.416,107.083 29.557,108.488 30.981,110.502 C32.564,112.741 34.745,114.482 37.289,115.536 C39.916,116.624 42.776,116.920 45.559,116.393 C47.931,115.944 50.403,116.430 52.517,117.763 C54.836,119.226 57.518,120.000 60.271,120.000 C63.114,120.000 65.869,119.179 68.239,117.627 C70.259,116.303 72.728,115.807 75.191,116.230 C77.895,116.694 80.667,116.382 83.211,115.329 C85.838,114.241 88.069,112.428 89.664,110.088 C91.006,108.119 93.142,106.705 95.678,106.107 C98.303,105.489 100.703,104.150 102.618,102.235 C104.595,100.257 105.954,97.773 106.547,95.050 C107.084,92.584 108.488,90.443 110.502,89.019 C112.742,87.435 114.483,85.254 115.537,82.710 C116.625,80.083 116.921,77.224 116.393,74.440 C115.944,72.068 116.430,69.597 117.763,67.483 C119.227,65.164 120.000,62.483 120.000,59.730 Z" class="cls-1"/>
    <path d="M116.000,59.747 C116.000,57.094 115.234,54.523 113.785,52.311 C112.550,50.425 112.086,48.121 112.482,45.822 C112.915,43.298 112.624,40.711 111.640,38.336 C110.625,35.885 108.933,33.802 106.749,32.313 C104.911,31.061 103.592,29.068 103.034,26.701 C102.456,24.250 101.207,22.011 99.419,20.223 C97.573,18.377 95.255,17.109 92.714,16.556 C90.412,16.055 88.413,14.744 87.084,12.865 C85.607,10.774 83.571,9.149 81.197,8.166 C78.745,7.151 76.076,6.874 73.478,7.367 C71.264,7.786 68.957,7.332 66.984,6.087 C64.819,4.721 62.317,4.000 59.747,4.000 C57.094,4.000 54.522,4.766 52.310,6.215 C50.425,7.450 48.120,7.913 45.821,7.518 C43.299,7.085 40.711,7.375 38.336,8.360 C35.885,9.375 33.802,11.066 32.314,13.251 C31.061,15.088 29.068,16.408 26.700,16.966 C24.251,17.543 22.011,18.792 20.223,20.580 C18.378,22.426 17.110,24.745 16.556,27.286 C16.055,29.587 14.744,31.586 12.865,32.915 C10.774,34.393 9.149,36.428 8.166,38.803 C7.150,41.255 6.874,43.923 7.366,46.521 C7.786,48.736 7.332,51.042 6.087,53.015 C4.722,55.180 4.000,57.682 4.000,60.253 C4.000,62.906 4.766,65.478 6.215,67.689 C7.450,69.575 7.913,71.879 7.518,74.178 C7.085,76.701 7.376,79.289 8.360,81.664 C9.375,84.115 11.066,86.198 13.251,87.686 C15.089,88.938 16.408,90.932 16.966,93.299 C17.544,95.750 18.793,97.989 20.581,99.776 C22.427,101.622 24.745,102.891 27.286,103.444 C29.588,103.945 31.587,105.256 32.915,107.135 C34.393,109.226 36.429,110.850 38.803,111.834 C41.255,112.850 43.924,113.126 46.522,112.633 C48.736,112.214 51.043,112.668 53.016,113.912 C55.181,115.278 57.683,115.999 60.253,115.999 C62.906,115.999 65.478,115.234 67.690,113.785 C69.575,112.550 71.879,112.087 74.179,112.481 C76.702,112.915 79.290,112.624 81.664,111.640 C84.115,110.625 86.198,108.934 87.686,106.749 C88.939,104.911 90.933,103.592 93.300,103.033 C95.749,102.456 97.989,101.207 99.777,99.419 C101.622,97.573 102.890,95.255 103.444,92.713 C103.945,90.412 105.256,88.413 107.135,87.084 C109.226,85.606 110.851,83.571 111.834,81.197 C112.850,78.745 113.126,76.076 112.634,73.478 C112.214,71.263 112.668,68.957 113.913,66.984 C115.278,64.820 116.000,62.317 116.000,59.747 ZM110.139,64.604 C108.290,67.535 107.619,70.982 108.250,74.310 C108.580,76.051 108.394,77.843 107.712,79.489 C107.051,81.084 105.962,82.450 104.560,83.441 C101.768,85.415 99.823,88.371 99.084,91.765 C98.713,93.469 97.862,95.025 96.622,96.264 C95.421,97.465 93.919,98.304 92.276,98.691 C88.821,99.505 85.881,101.476 83.999,104.236 C83.001,105.701 81.603,106.836 79.956,107.518 C78.362,108.179 76.626,108.374 74.934,108.084 C71.518,107.498 68.077,108.197 65.244,110.053 C63.762,111.024 62.035,111.538 60.253,111.538 C58.527,111.538 56.847,111.054 55.396,110.139 C53.183,108.743 50.677,108.019 48.150,108.019 C47.329,108.019 46.506,108.095 45.691,108.250 C43.947,108.579 42.157,108.394 40.510,107.712 C38.915,107.051 37.549,105.961 36.558,104.560 C34.585,101.768 31.629,99.823 28.235,99.084 C26.531,98.713 24.975,97.861 23.735,96.621 C22.535,95.421 21.695,93.918 21.309,92.276 C20.494,88.820 18.525,85.881 15.763,83.999 C14.298,83.001 13.164,81.602 12.481,79.956 C11.821,78.361 11.625,76.625 11.915,74.934 C12.502,71.518 11.803,68.077 9.947,65.244 C8.975,63.761 8.462,62.035 8.462,60.253 C8.462,58.526 8.945,56.847 9.861,55.396 C11.709,52.465 12.380,49.019 11.750,45.691 C11.420,43.948 11.606,42.158 12.288,40.510 C12.948,38.916 14.038,37.549 15.440,36.558 C18.232,34.584 20.177,31.628 20.916,28.235 C21.287,26.531 22.138,24.975 23.378,23.735 C24.578,22.535 26.081,21.696 27.723,21.309 C31.179,20.495 34.118,18.525 36.000,15.764 C36.999,14.299 38.397,13.164 40.043,12.482 C41.638,11.821 43.374,11.626 45.066,11.916 C48.481,12.502 51.922,11.803 54.755,9.947 C56.238,8.975 57.964,8.462 59.747,8.462 C61.473,8.462 63.152,8.946 64.604,9.861 C67.535,11.710 70.982,12.380 74.310,11.750 C76.052,11.420 77.843,11.606 79.490,12.288 C81.085,12.949 82.451,14.039 83.441,15.440 C85.415,18.233 88.371,20.177 91.765,20.916 C93.469,21.287 95.025,22.138 96.265,23.379 C97.465,24.578 98.304,26.082 98.691,27.723 C99.505,31.179 101.475,34.119 104.236,36.001 C105.701,36.999 106.836,38.397 107.519,40.044 C108.179,41.638 108.375,43.374 108.084,45.066 C107.498,48.481 108.197,51.923 110.053,54.755 C111.025,56.239 111.538,57.965 111.538,59.747 C111.538,61.474 111.054,63.153 110.139,64.604 Z" class="cls-2"/>
    <path d="M72.564,74.362 L60.596,74.362 C60.155,74.362 59.798,74.004 59.798,73.564 C59.798,73.123 60.155,72.766 60.596,72.766 L72.564,72.766 C73.004,72.766 73.362,73.123 73.362,73.564 C73.362,74.004 73.004,74.362 72.564,74.362 ZM72.564,70.971 L60.596,70.971 C60.155,70.971 59.798,70.613 59.798,70.173 C59.798,69.732 60.155,69.375 60.596,69.375 L72.564,69.375 C73.004,69.375 73.362,69.732 73.362,70.173 C73.362,70.613 73.004,70.971 72.564,70.971 ZM72.564,67.580 L60.596,67.580 C60.155,67.580 59.798,67.222 59.798,66.782 C59.798,66.341 60.155,65.984 60.596,65.984 L72.564,65.984 C73.004,65.984 73.362,66.341 73.362,66.782 C73.362,67.222 73.004,67.580 72.564,67.580 ZM45.436,65.984 L57.404,65.984 C57.845,65.984 58.202,66.341 58.202,66.782 C58.202,67.222 57.845,67.580 57.404,67.580 L45.436,67.580 C44.995,67.580 44.638,67.222 44.638,66.782 C44.638,66.341 44.995,65.984 45.436,65.984 ZM45.436,72.766 L57.404,72.766 C57.845,72.766 58.202,73.123 58.202,73.564 C58.202,74.004 57.845,74.362 57.404,74.362 L45.436,74.362 C44.995,74.362 44.638,74.004 44.638,73.564 C44.638,73.123 44.995,72.766 45.436,72.766 ZM45.436,69.375 L57.404,69.375 C57.845,69.375 58.202,69.732 58.202,70.173 C58.202,70.613 57.845,70.971 57.404,70.971 L45.436,70.971 C44.995,70.971 44.638,70.613 44.638,70.173 C44.638,69.732 44.995,69.375 45.436,69.375 ZM72.564,60.798 L45.436,60.798 C44.995,60.798 44.638,60.441 44.638,60.000 L44.638,46.437 C44.638,45.996 44.995,45.639 45.436,45.639 L72.564,45.639 C73.004,45.639 73.362,45.996 73.362,46.437 L73.362,60.000 C73.362,60.441 73.004,60.798 72.564,60.798 ZM69.184,59.202 L59.000,54.110 L48.816,59.202 L69.184,59.202 ZM46.234,58.709 L57.216,53.218 L46.234,47.728 L46.234,58.709 ZM48.816,47.234 L59.000,52.326 L69.184,47.234 L48.816,47.234 ZM71.766,47.728 L60.784,53.218 L71.766,58.709 L71.766,47.728 ZM72.564,64.189 L45.436,64.189 C44.995,64.189 44.638,63.831 44.638,63.391 C44.638,62.950 44.995,62.593 45.436,62.593 L72.564,62.593 C73.004,62.593 73.362,62.950 73.362,63.391 C73.362,63.831 73.004,64.189 72.564,64.189 ZM80.011,48.830 C80.451,48.830 80.808,49.187 80.808,49.628 L80.808,77.021 L83.202,77.021 C83.643,77.021 84.000,77.378 84.000,77.819 L84.000,84.202 C84.000,84.643 83.643,85.000 83.202,85.000 L76.819,85.000 C76.378,85.000 76.021,84.643 76.021,84.202 L76.021,81.808 L41.979,81.808 L41.979,84.202 C41.979,84.643 41.622,85.000 41.181,85.000 L34.798,85.000 C34.357,85.000 34.000,84.643 34.000,84.202 L34.000,77.819 C34.000,77.378 34.357,77.021 34.798,77.021 L37.191,77.021 L37.191,42.979 L34.798,42.979 C34.357,42.979 34.000,42.621 34.000,42.180 L34.000,35.798 C34.000,35.357 34.357,35.000 34.798,35.000 L41.181,35.000 C41.622,35.000 41.979,35.357 41.979,35.798 L41.979,38.191 L76.021,38.191 L76.021,35.798 C76.021,35.357 76.378,35.000 76.819,35.000 L83.202,35.000 C83.643,35.000 84.000,35.357 84.000,35.798 L84.000,42.180 C84.000,42.621 83.643,42.979 83.202,42.979 L80.808,42.979 L80.808,46.437 C80.808,46.877 80.451,47.234 80.011,47.234 C79.570,47.234 79.213,46.877 79.213,46.437 L79.213,42.979 L76.819,42.979 C76.378,42.979 76.021,42.621 76.021,42.180 L76.021,39.787 L41.979,39.787 L41.979,42.180 C41.979,42.621 41.622,42.979 41.181,42.979 L38.787,42.979 L38.787,77.021 L41.181,77.021 C41.622,77.021 41.979,77.378 41.979,77.819 L41.979,80.213 L76.021,80.213 L76.021,77.819 C76.021,77.378 76.378,77.021 76.819,77.021 L79.213,77.021 L79.213,49.628 C79.213,49.187 79.570,48.830 80.011,48.830 ZM77.617,41.383 L82.404,41.383 L82.404,36.596 L77.617,36.596 L77.617,41.383 ZM40.383,41.383 L40.383,36.596 L35.596,36.596 L35.596,41.383 L40.383,41.383 ZM40.383,78.617 L35.596,78.617 L35.596,83.404 L40.383,83.404 L40.383,78.617 ZM77.617,78.617 L77.617,83.404 L82.404,83.404 L82.404,78.617 L77.617,78.617 Z" class="cls-3"/>
  </g>
</svg>
