<svg xmlns="http://www.w3.org/2000/svg" xmlns:xlink="http://www.w3.org/1999/xlink" preserveAspectRatio="xMidYMid" width="120" height="120" viewBox="0 0 120 120">
  <defs>
    <style>
      .cls-1 {
        fill: #eceff7;
      }

      .cls-1, .cls-2, .cls-3 {
        fill-rule: evenodd;
      }

      .cls-2 {
        fill: #59d556;
      }

      .cls-3 {
        fill: #159e31;
      }
    </style>
  </defs>
  <g>
    <path d="M120.000,59.730 C120.000,56.887 119.179,54.132 117.627,51.761 C116.303,49.742 115.807,47.273 116.230,44.809 C116.694,42.106 116.383,39.333 115.329,36.789 C114.241,34.163 112.429,31.931 110.088,30.336 C108.119,28.994 106.705,26.859 106.108,24.322 C105.489,21.697 104.150,19.298 102.235,17.383 C100.257,15.405 97.773,14.046 95.050,13.453 C92.584,12.916 90.442,11.512 89.019,9.499 C87.436,7.258 85.255,5.517 82.711,4.464 C80.084,3.376 77.225,3.080 74.441,3.607 C72.068,4.056 69.597,3.570 67.483,2.237 C65.164,0.773 62.483,0.000 59.729,0.000 C56.886,0.000 54.131,0.820 51.761,2.373 C49.741,3.696 47.272,4.193 44.809,3.769 C42.106,3.306 39.333,3.617 36.789,4.670 C34.163,5.759 31.931,7.571 30.336,9.911 C28.994,11.880 26.858,13.294 24.322,13.892 C21.697,14.511 19.298,15.849 17.382,17.765 C15.405,19.742 14.046,22.226 13.453,24.950 C12.916,27.415 11.512,29.557 9.498,30.980 C7.258,32.564 5.517,34.744 4.463,37.289 C3.375,39.916 3.079,42.775 3.607,45.559 C4.056,47.932 3.570,50.403 2.236,52.516 C0.773,54.836 -0.000,57.517 -0.000,60.270 C-0.000,63.113 0.821,65.869 2.373,68.238 C3.697,70.259 4.193,72.727 3.770,75.191 C3.306,77.894 3.617,80.667 4.671,83.211 C5.759,85.837 7.571,88.069 9.912,89.664 C11.881,91.005 13.295,93.141 13.892,95.678 C14.511,98.303 15.850,100.703 17.765,102.618 C19.743,104.595 22.227,105.955 24.950,106.547 C27.416,107.083 29.558,108.488 30.981,110.502 C32.564,112.741 34.745,114.482 37.289,115.537 C39.916,116.625 42.776,116.921 45.559,116.393 C47.932,115.944 50.403,116.430 52.517,117.763 C54.837,119.227 57.518,120.000 60.271,120.000 C63.114,120.000 65.869,119.180 68.239,117.627 C70.259,116.304 72.728,115.807 75.191,116.230 C77.895,116.695 80.668,116.383 83.211,115.329 C85.838,114.241 88.069,112.429 89.664,110.088 C91.006,108.119 93.142,106.705 95.678,106.107 C98.303,105.489 100.703,104.150 102.618,102.235 C104.596,100.257 105.954,97.773 106.547,95.050 C107.084,92.584 108.488,90.443 110.502,89.019 C112.742,87.436 114.483,85.254 115.537,82.710 C116.625,80.084 116.921,77.224 116.393,74.440 C115.944,72.068 116.430,69.597 117.764,67.483 C119.227,65.164 120.000,62.483 120.000,59.730 Z" class="cls-1"/>
    <path d="M116.000,59.748 C116.000,57.094 115.234,54.523 113.785,52.311 C112.550,50.425 112.087,48.121 112.482,45.822 C112.915,43.298 112.624,40.711 111.640,38.336 C110.625,35.886 108.933,33.803 106.749,32.314 C104.911,31.061 103.592,29.069 103.034,26.701 C102.456,24.250 101.207,22.011 99.419,20.223 C97.573,18.378 95.255,17.110 92.714,16.557 C90.412,16.056 88.413,14.744 87.085,12.865 C85.607,10.774 83.571,9.149 81.197,8.166 C78.745,7.151 76.076,6.874 73.478,7.367 C71.264,7.786 68.957,7.332 66.984,6.087 C64.820,4.721 62.317,4.000 59.747,4.000 C57.094,4.000 54.522,4.766 52.310,6.214 C50.425,7.450 48.120,7.913 45.821,7.518 C43.299,7.085 40.711,7.376 38.336,8.360 C35.885,9.375 33.803,11.066 32.314,13.251 C31.061,15.088 29.068,16.408 26.701,16.966 C24.251,17.543 22.011,18.793 20.224,20.580 C18.378,22.426 17.110,24.745 16.556,27.286 C16.055,29.587 14.744,31.586 12.865,32.915 C10.774,34.393 9.149,36.428 8.166,38.803 C7.150,41.255 6.874,43.924 7.366,46.521 C7.786,48.736 7.332,51.043 6.087,53.015 C4.722,55.180 4.000,57.683 4.000,60.252 C4.000,62.906 4.766,65.477 6.215,67.689 C7.450,69.575 7.913,71.879 7.518,74.178 C7.085,76.702 7.376,79.290 8.360,81.664 C9.375,84.115 11.066,86.198 13.251,87.686 C15.089,88.939 16.408,90.932 16.966,93.299 C17.544,95.750 18.793,97.989 20.581,99.776 C22.427,101.622 24.745,102.891 27.286,103.444 C29.588,103.945 31.587,105.255 32.915,107.135 C34.393,109.226 36.429,110.850 38.803,111.834 C41.255,112.850 43.924,113.126 46.522,112.634 C48.736,112.214 51.043,112.669 53.016,113.912 C55.181,115.278 57.683,116.000 60.253,116.000 C62.906,116.000 65.478,115.234 67.690,113.785 C69.575,112.550 71.879,112.087 74.179,112.482 C76.702,112.914 79.290,112.624 81.664,111.640 C84.115,110.625 86.198,108.933 87.686,106.749 C88.939,104.911 90.933,103.592 93.300,103.034 C95.749,102.457 97.989,101.207 99.777,99.420 C101.622,97.573 102.891,95.255 103.444,92.713 C103.945,90.412 105.256,88.413 107.135,87.084 C109.226,85.607 110.851,83.571 111.834,81.197 C112.850,78.745 113.126,76.076 112.634,73.478 C112.214,71.263 112.668,68.957 113.913,66.984 C115.278,64.820 116.000,62.317 116.000,59.748 ZM110.139,64.604 C108.290,67.535 107.619,70.982 108.250,74.310 C108.580,76.052 108.394,77.843 107.712,79.490 C107.051,81.084 105.962,82.450 104.560,83.441 C101.768,85.415 99.823,88.371 99.084,91.765 C98.713,93.469 97.862,95.025 96.622,96.264 C95.421,97.465 93.919,98.304 92.276,98.691 C88.821,99.505 85.881,101.476 83.999,104.236 C83.001,105.702 81.603,106.836 79.957,107.518 C78.362,108.179 76.626,108.374 74.934,108.084 C71.518,107.498 68.077,108.197 65.244,110.053 C63.762,111.025 62.035,111.538 60.253,111.538 C58.527,111.538 56.847,111.054 55.396,110.139 C53.183,108.743 50.677,108.019 48.150,108.019 C47.329,108.019 46.506,108.095 45.691,108.250 C43.947,108.580 42.157,108.394 40.510,107.712 C38.915,107.052 37.549,105.961 36.559,104.560 C34.585,101.768 31.629,99.823 28.235,99.084 C26.531,98.713 24.975,97.862 23.735,96.621 C22.535,95.422 21.696,93.918 21.309,92.277 C20.494,88.821 18.525,85.882 15.764,83.999 C14.298,83.001 13.164,81.602 12.481,79.956 C11.821,78.361 11.625,76.625 11.915,74.934 C12.502,71.519 11.803,68.077 9.947,65.245 C8.975,63.762 8.462,62.035 8.462,60.253 C8.462,58.527 8.945,56.848 9.861,55.396 C11.709,52.465 12.380,49.018 11.750,45.690 C11.420,43.949 11.606,42.158 12.288,40.511 C12.948,38.916 14.038,37.550 15.440,36.559 C18.232,34.585 20.177,31.629 20.916,28.235 C21.287,26.531 22.138,24.976 23.378,23.736 C24.578,22.536 26.081,21.696 27.723,21.309 C31.179,20.495 34.118,18.525 36.000,15.764 C36.999,14.299 38.397,13.164 40.043,12.482 C41.638,11.821 43.374,11.625 45.066,11.917 C48.481,12.503 51.922,11.804 54.755,9.948 C56.238,8.976 57.964,8.462 59.747,8.462 C61.473,8.462 63.152,8.946 64.604,9.861 C67.535,11.710 70.982,12.380 74.310,11.750 C76.052,11.420 77.843,11.606 79.490,12.288 C81.085,12.949 82.451,14.039 83.441,15.440 C85.415,18.232 88.371,20.177 91.765,20.916 C93.469,21.287 95.025,22.139 96.265,23.379 C97.465,24.579 98.304,26.082 98.691,27.724 C99.506,31.179 101.475,34.119 104.236,36.001 C105.701,37.000 106.836,38.397 107.519,40.044 C108.179,41.639 108.375,43.375 108.085,45.066 C107.498,48.481 108.197,51.923 110.053,54.756 C111.025,56.239 111.538,57.965 111.538,59.747 C111.538,61.474 111.055,63.153 110.139,64.604 Z" class="cls-2"/>
    <path d="M85.388,37.534 L80.632,39.120 L80.632,41.158 L83.316,41.158 C83.811,41.158 84.210,41.558 84.210,42.053 L84.210,47.422 C84.210,49.888 82.204,51.895 79.737,51.895 L75.263,51.895 L75.263,55.474 L78.842,55.474 C81.309,55.474 83.316,57.481 83.316,59.948 L83.316,67.105 L85.105,67.105 L85.105,68.895 L82.421,68.895 L77.947,68.895 L72.579,68.895 L72.579,73.368 C72.579,73.863 72.179,74.263 71.684,74.263 L67.211,74.263 L61.842,74.263 L61.842,78.737 C61.842,79.232 61.442,79.632 60.947,79.632 L54.684,79.632 L50.211,79.632 L48.421,79.632 L48.421,84.105 C48.421,84.600 48.021,85.000 47.526,85.000 L43.947,85.000 L39.474,85.000 L35.000,85.000 L35.000,83.211 L38.579,83.211 L38.579,72.474 L35.895,72.474 C35.400,72.474 35.000,72.074 35.000,71.579 L35.000,61.737 C35.000,59.270 37.007,57.263 39.474,57.263 L46.632,57.263 C46.727,57.263 46.823,57.280 46.914,57.309 L51.960,58.990 L57.609,56.570 L60.147,51.494 C60.202,51.384 60.280,51.287 60.374,51.208 L65.742,46.734 C65.903,46.600 66.106,46.527 66.316,46.527 L78.842,46.527 L78.842,42.053 L78.842,34.895 C78.842,34.608 78.980,34.338 79.213,34.169 C79.448,34.001 79.746,33.954 80.020,34.047 L85.388,35.837 C85.754,35.959 86.000,36.299 86.000,36.685 C86.000,37.071 85.754,37.411 85.388,37.534 ZM72.579,67.105 L77.053,67.105 L77.053,61.737 L72.579,61.737 L72.579,67.105 ZM55.579,70.684 L55.579,77.842 L60.053,77.842 L60.053,73.368 C60.053,72.874 60.453,72.474 60.947,72.474 L66.316,72.474 L66.316,53.685 L64.291,55.204 L60.797,60.444 C60.790,60.454 60.777,60.458 60.769,60.468 C60.686,60.583 60.583,60.682 60.453,60.748 L53.295,64.327 C53.131,64.408 52.948,64.438 52.768,64.413 L47.526,63.664 L47.526,66.211 L51.105,66.211 C53.572,66.211 55.579,68.218 55.579,70.684 ZM44.842,83.211 L46.632,83.211 L46.632,78.737 C46.632,78.242 47.031,77.842 47.526,77.842 L49.316,77.842 L49.316,72.474 L44.842,72.474 L44.842,83.211 ZM58.474,59.193 L57.931,58.379 L52.353,60.770 C52.152,60.855 51.925,60.867 51.717,60.796 L46.487,59.053 L43.947,59.053 L43.947,65.316 L42.158,65.316 L42.158,59.053 L39.474,59.053 C37.994,59.053 36.789,60.257 36.789,61.737 L36.789,70.684 L38.579,70.684 L38.579,62.632 L40.368,62.632 L40.368,83.211 L43.053,83.211 L43.053,71.579 C43.053,71.084 43.453,70.684 43.947,70.684 L50.211,70.684 C50.705,70.684 51.105,71.084 51.105,71.579 L51.105,77.842 L53.789,77.842 L53.789,70.684 C53.789,69.205 52.585,68.000 51.105,68.000 L46.632,68.000 C46.137,68.000 45.737,67.600 45.737,67.105 L45.737,62.632 C45.737,62.373 45.850,62.126 46.045,61.955 C46.241,61.785 46.501,61.708 46.758,61.745 L52.744,62.600 L58.745,59.600 L58.474,59.193 ZM70.321,48.317 L70.790,49.487 L71.257,48.317 L70.321,48.317 ZM79.737,48.317 L73.185,48.317 L71.621,52.227 C71.484,52.567 71.155,52.790 70.790,52.790 C70.423,52.790 70.095,52.567 69.958,52.227 L68.394,48.317 L66.640,48.317 L61.663,52.462 L59.296,57.198 L60.053,58.335 L62.887,54.083 C62.943,53.998 63.013,53.923 63.095,53.864 L66.674,51.179 C66.944,50.975 67.308,50.944 67.610,51.095 C67.914,51.247 68.105,51.556 68.105,51.895 L68.105,72.474 L70.790,72.474 L70.790,68.000 L70.790,60.842 C70.790,60.348 71.189,59.948 71.684,59.948 L77.947,59.948 C78.442,59.948 78.842,60.348 78.842,60.842 L78.842,67.105 L81.526,67.105 L81.526,59.948 C81.526,58.468 80.322,57.263 78.842,57.263 L74.368,57.263 C73.874,57.263 73.474,56.864 73.474,56.369 L73.474,51.000 C73.474,50.506 73.874,50.106 74.368,50.106 L79.737,50.106 C81.217,50.106 82.421,48.902 82.421,47.422 L82.421,42.948 L80.632,42.948 L80.632,47.422 C80.632,47.916 80.232,48.317 79.737,48.317 ZM80.632,36.137 L80.632,37.233 L82.276,36.685 L80.632,36.137 ZM69.895,45.632 C66.934,45.632 64.526,43.224 64.526,40.264 C64.526,37.303 66.934,34.895 69.895,34.895 C72.855,34.895 75.263,37.303 75.263,40.264 C75.263,43.224 72.855,45.632 69.895,45.632 ZM69.895,36.685 C67.921,36.685 66.316,38.290 66.316,40.264 C66.316,41.320 66.785,42.262 67.515,42.917 C68.357,42.772 69.000,42.041 69.000,41.158 L70.790,41.158 C70.790,42.215 70.321,43.156 69.591,43.812 C69.692,43.820 69.790,43.843 69.895,43.843 C71.868,43.843 73.474,42.238 73.474,40.264 C73.474,38.290 71.868,36.685 69.895,36.685 ZM56.474,38.474 L58.263,38.474 L58.263,40.264 L56.474,40.264 L56.474,38.474 ZM52.895,38.474 L54.684,38.474 L54.684,40.264 L52.895,40.264 L52.895,38.474 ZM49.316,38.474 L51.105,38.474 L51.105,40.264 L49.316,40.264 L49.316,38.474 ZM42.158,56.369 C39.197,56.369 36.789,53.961 36.789,51.000 C36.789,48.040 39.197,45.632 42.158,45.632 C45.119,45.632 47.526,48.040 47.526,51.000 C47.526,53.961 45.119,56.369 42.158,56.369 ZM42.158,47.422 C40.184,47.422 38.579,49.027 38.579,51.000 C38.579,52.974 40.184,54.579 42.158,54.579 C42.263,54.579 42.360,54.557 42.462,54.549 C41.732,53.893 41.263,52.952 41.263,51.895 L43.053,51.895 C43.053,52.777 43.696,53.508 44.538,53.655 C45.268,52.999 45.737,52.057 45.737,51.000 C45.737,49.027 44.132,47.422 42.158,47.422 Z" class="cls-3"/>
  </g>
</svg>
