<svg xmlns="http://www.w3.org/2000/svg" xmlns:xlink="http://www.w3.org/1999/xlink" preserveAspectRatio="xMidYMid" width="120" height="120" viewBox="0 0 120 120">
  <defs>
    <style>
      .cls-1 {
        fill: #eceff7;
      }

      .cls-1, .cls-2, .cls-3 {
        fill-rule: evenodd;
      }

      .cls-2 {
        fill: #59d556;
      }

      .cls-3 {
        fill: #159e31;
      }
    </style>
  </defs>
  <g>
    <path d="M120.000,59.730 C120.000,56.887 119.179,54.132 117.627,51.761 C116.303,49.742 115.807,47.273 116.230,44.809 C116.694,42.106 116.383,39.333 115.329,36.789 C114.241,34.163 112.429,31.931 110.088,30.336 C108.119,28.994 106.705,26.858 106.108,24.322 C105.489,21.697 104.150,19.298 102.235,17.383 C100.257,15.405 97.773,14.046 95.050,13.453 C92.584,12.916 90.442,11.512 89.019,9.499 C87.436,7.258 85.255,5.517 82.711,4.464 C80.084,3.376 77.225,3.080 74.441,3.607 C72.068,4.056 69.597,3.570 67.483,2.237 C65.164,0.773 62.483,-0.000 59.729,-0.000 C56.886,-0.000 54.131,0.820 51.761,2.373 C49.741,3.696 47.272,4.193 44.809,3.769 C42.106,3.305 39.333,3.617 36.789,4.671 C34.163,5.759 31.931,7.571 30.336,9.911 C28.994,11.880 26.858,13.294 24.322,13.892 C21.697,14.511 19.297,15.849 17.382,17.765 C15.405,19.742 14.046,22.226 13.453,24.950 C12.916,27.415 11.512,29.557 9.498,30.980 C7.258,32.564 5.517,34.744 4.463,37.289 C3.375,39.916 3.079,42.775 3.606,45.559 C4.056,47.932 3.570,50.403 2.236,52.516 C0.773,54.836 -0.000,57.517 -0.000,60.271 C-0.000,63.113 0.821,65.869 2.373,68.238 C3.696,70.259 4.193,72.727 3.770,75.191 C3.306,77.894 3.617,80.667 4.671,83.211 C5.759,85.837 7.571,88.069 9.912,89.664 C11.881,91.006 13.295,93.141 13.892,95.678 C14.511,98.303 15.850,100.703 17.765,102.617 C19.743,104.596 22.227,105.955 24.950,106.547 C27.416,107.084 29.557,108.488 30.981,110.502 C32.564,112.741 34.745,114.482 37.289,115.537 C39.916,116.625 42.776,116.921 45.559,116.393 C47.931,115.944 50.403,116.430 52.517,117.763 C54.836,119.227 57.518,120.000 60.271,120.000 C63.114,120.000 65.869,119.179 68.239,117.627 C70.259,116.303 72.728,115.807 75.191,116.230 C77.895,116.695 80.667,116.383 83.211,115.329 C85.838,114.241 88.069,112.429 89.664,110.088 C91.006,108.119 93.142,106.706 95.678,106.107 C98.303,105.489 100.703,104.150 102.618,102.235 C104.595,100.257 105.954,97.773 106.547,95.050 C107.084,92.584 108.488,90.443 110.502,89.019 C112.742,87.436 114.483,85.254 115.537,82.710 C116.625,80.084 116.921,77.224 116.393,74.441 C115.944,72.068 116.430,69.597 117.763,67.483 C119.227,65.165 120.000,62.483 120.000,59.730 Z" class="cls-1"/>
    <path d="M116.000,59.748 C116.000,57.094 115.234,54.523 113.785,52.311 C112.550,50.425 112.086,48.121 112.482,45.822 C112.915,43.298 112.624,40.711 111.640,38.337 C110.625,35.886 108.933,33.802 106.749,32.314 C104.911,31.061 103.592,29.069 103.034,26.701 C102.456,24.250 101.207,22.011 99.419,20.223 C97.573,18.378 95.255,17.110 92.714,16.557 C90.412,16.056 88.413,14.744 87.084,12.865 C85.607,10.774 83.571,9.149 81.197,8.166 C78.745,7.151 76.076,6.874 73.478,7.367 C71.264,7.786 68.957,7.332 66.984,6.087 C64.819,4.722 62.317,4.000 59.747,4.000 C57.094,4.000 54.522,4.766 52.310,6.214 C50.425,7.450 48.120,7.914 45.821,7.518 C43.299,7.085 40.711,7.376 38.336,8.360 C35.885,9.375 33.802,11.066 32.314,13.251 C31.061,15.088 29.068,16.408 26.700,16.966 C24.251,17.543 22.011,18.793 20.223,20.580 C18.378,22.426 17.110,24.745 16.556,27.286 C16.055,29.587 14.744,31.586 12.865,32.915 C10.774,34.393 9.149,36.428 8.166,38.803 C7.150,41.255 6.874,43.923 7.366,46.521 C7.786,48.736 7.332,51.042 6.087,53.015 C4.722,55.180 4.000,57.682 4.000,60.253 C4.000,62.906 4.766,65.478 6.215,67.689 C7.450,69.575 7.913,71.879 7.518,74.178 C7.085,76.702 7.376,79.290 8.360,81.664 C9.375,84.115 11.066,86.198 13.251,87.686 C15.089,88.939 16.408,90.932 16.966,93.300 C17.544,95.750 18.793,97.989 20.581,99.776 C22.427,101.622 24.745,102.891 27.286,103.444 C29.588,103.945 31.587,105.256 32.915,107.135 C34.393,109.226 36.429,110.850 38.803,111.834 C41.255,112.850 43.924,113.126 46.522,112.634 C48.736,112.214 51.043,112.668 53.016,113.913 C55.181,115.278 57.683,115.999 60.253,115.999 C62.906,115.999 65.478,115.234 67.690,113.785 C69.575,112.550 71.879,112.087 74.179,112.482 C76.702,112.914 79.290,112.624 81.664,111.641 C84.115,110.625 86.198,108.934 87.686,106.749 C88.939,104.911 90.933,103.592 93.300,103.033 C95.749,102.457 97.989,101.207 99.777,99.420 C101.622,97.573 102.890,95.255 103.444,92.713 C103.945,90.412 105.256,88.414 107.135,87.084 C109.226,85.607 110.851,83.571 111.834,81.197 C112.850,78.745 113.126,76.076 112.634,73.478 C112.214,71.263 112.668,68.957 113.913,66.984 C115.278,64.820 116.000,62.317 116.000,59.748 ZM110.139,64.604 C108.290,67.535 107.619,70.982 108.250,74.310 C108.580,76.052 108.394,77.843 107.712,79.489 C107.051,81.084 105.962,82.450 104.560,83.441 C101.768,85.415 99.823,88.371 99.084,91.765 C98.713,93.469 97.862,95.025 96.622,96.264 C95.421,97.465 93.919,98.304 92.276,98.691 C88.821,99.505 85.881,101.476 83.999,104.237 C83.001,105.702 81.603,106.836 79.956,107.518 C78.362,108.179 76.626,108.374 74.934,108.084 C71.518,107.498 68.077,108.197 65.244,110.053 C63.762,111.025 62.035,111.538 60.253,111.538 C58.527,111.538 56.847,111.055 55.396,110.139 C53.183,108.743 50.677,108.019 48.150,108.019 C47.329,108.019 46.506,108.095 45.691,108.250 C43.947,108.579 42.157,108.394 40.510,107.712 C38.915,107.051 37.549,105.962 36.558,104.560 C34.585,101.768 31.629,99.823 28.235,99.084 C26.531,98.713 24.975,97.862 23.735,96.621 C22.535,95.421 21.695,93.918 21.309,92.277 C20.494,88.821 18.525,85.882 15.763,83.999 C14.298,83.001 13.164,81.602 12.481,79.956 C11.821,78.361 11.625,76.625 11.915,74.934 C12.502,71.519 11.803,68.078 9.947,65.245 C8.975,63.762 8.462,62.035 8.462,60.253 C8.462,58.527 8.945,56.848 9.861,55.396 C11.709,52.465 12.380,49.019 11.750,45.691 C11.420,43.948 11.606,42.158 12.288,40.511 C12.948,38.916 14.038,37.550 15.440,36.558 C18.232,34.585 20.177,31.629 20.916,28.235 C21.287,26.532 22.138,24.976 23.378,23.736 C24.578,22.535 26.081,21.696 27.723,21.309 C31.179,20.494 34.118,18.525 36.000,15.764 C36.999,14.298 38.397,13.164 40.043,12.482 C41.638,11.821 43.374,11.626 45.066,11.916 C48.481,12.503 51.922,11.804 54.755,9.948 C56.238,8.976 57.964,8.462 59.747,8.462 C61.473,8.462 63.152,8.946 64.604,9.861 C67.535,11.710 70.982,12.381 74.310,11.750 C76.052,11.420 77.843,11.606 79.490,12.288 C81.085,12.949 82.451,14.039 83.441,15.440 C85.415,18.232 88.371,20.177 91.765,20.916 C93.469,21.287 95.025,22.139 96.265,23.379 C97.465,24.579 98.304,26.082 98.691,27.723 C99.505,31.179 101.475,34.119 104.236,36.001 C105.701,37.000 106.836,38.397 107.519,40.044 C108.179,41.639 108.375,43.375 108.084,45.066 C107.498,48.481 108.197,51.923 110.053,54.756 C111.025,56.239 111.538,57.965 111.538,59.747 C111.538,61.474 111.054,63.153 110.139,64.604 Z" class="cls-2"/>
    <path d="M78.164,77.486 C77.812,79.369 76.315,80.852 74.414,81.200 C74.012,83.359 72.106,85.000 69.812,85.000 L41.687,85.000 C39.103,85.000 37.000,82.917 37.000,80.357 L37.000,45.071 C37.000,42.800 38.657,40.912 40.836,40.514 C41.188,38.631 42.685,37.148 44.586,36.800 C44.988,34.642 46.894,33.000 49.188,33.000 L77.312,33.000 C79.897,33.000 82.000,35.083 82.000,37.643 L82.000,72.928 C82.000,75.200 80.342,77.088 78.164,77.486 ZM38.875,45.071 L38.875,80.357 C38.875,81.893 40.137,83.143 41.687,83.143 L69.812,83.143 C71.363,83.143 72.625,81.893 72.625,80.357 L72.625,45.071 C72.625,43.536 71.363,42.286 69.812,42.286 L41.687,42.286 C40.137,42.286 38.875,43.536 38.875,45.071 ZM45.438,38.572 C44.217,38.572 43.186,39.351 42.797,40.428 L69.812,40.428 C72.397,40.428 74.500,42.511 74.500,45.071 L74.500,79.258 C75.588,78.873 76.375,77.852 76.375,76.643 L76.375,41.357 C76.375,39.821 75.113,38.572 73.562,38.572 L45.438,38.572 ZM80.125,37.643 C80.125,36.107 78.863,34.857 77.312,34.857 L49.188,34.857 C47.967,34.857 46.936,35.636 46.547,36.714 L73.562,36.714 C76.147,36.714 78.250,38.797 78.250,41.357 L78.250,75.544 C79.338,75.159 80.125,74.138 80.125,72.928 L80.125,37.643 ZM55.750,78.500 L68.875,78.500 L68.875,80.357 L55.750,80.357 L55.750,78.500 ZM55.750,74.786 L68.875,74.786 L68.875,76.643 L55.750,76.643 L55.750,74.786 ZM55.750,71.072 L68.875,71.072 L68.875,72.928 L55.750,72.928 L55.750,71.072 ZM55.750,65.500 L68.875,65.500 L68.875,67.357 L55.750,67.357 L55.750,65.500 ZM55.750,61.786 L68.875,61.786 L68.875,63.643 L55.750,63.643 L55.750,61.786 ZM55.750,58.071 L68.875,58.071 L68.875,59.928 L55.750,59.928 L55.750,58.071 ZM55.750,52.500 L68.875,52.500 L68.875,54.357 L55.750,54.357 L55.750,52.500 ZM55.750,48.786 L68.875,48.786 L68.875,50.643 L55.750,50.643 L55.750,48.786 ZM55.750,45.071 L68.875,45.071 L68.875,46.929 L55.750,46.929 L55.750,45.071 ZM52.937,81.286 L43.563,81.286 C43.045,81.286 42.625,80.871 42.625,80.357 L42.625,71.072 C42.625,70.558 43.045,70.143 43.563,70.143 L50.125,70.143 L50.125,72.000 L44.500,72.000 L44.500,79.429 L52.000,79.429 L52.000,75.714 L53.875,75.714 L53.875,80.357 C53.875,80.871 53.455,81.286 52.937,81.286 ZM48.913,77.299 C48.730,77.480 48.490,77.571 48.250,77.571 C48.010,77.571 47.770,77.480 47.587,77.299 L45.712,75.442 L47.038,74.129 L48.250,75.330 L52.275,71.344 L53.600,72.657 L48.913,77.299 ZM52.937,68.286 L43.563,68.286 C43.045,68.286 42.625,67.871 42.625,67.357 L42.625,58.071 C42.625,57.558 43.045,57.143 43.563,57.143 L50.125,57.143 L50.125,59.000 L44.500,59.000 L44.500,66.429 L52.000,66.429 L52.000,62.714 L53.875,62.714 L53.875,67.357 C53.875,67.871 53.455,68.286 52.937,68.286 ZM48.913,64.299 C48.730,64.480 48.490,64.571 48.250,64.571 C48.010,64.571 47.770,64.480 47.587,64.299 L45.712,62.442 L47.038,61.129 L48.250,62.330 L52.275,58.344 L53.600,59.656 L48.913,64.299 ZM52.937,55.285 L43.563,55.285 C43.045,55.285 42.625,54.871 42.625,54.357 L42.625,45.071 C42.625,44.558 43.045,44.143 43.563,44.143 L50.125,44.143 L50.125,46.000 L44.500,46.000 L44.500,53.429 L52.000,53.429 L52.000,49.714 L53.875,49.714 L53.875,54.357 C53.875,54.871 53.455,55.285 52.937,55.285 ZM48.250,51.572 C48.010,51.572 47.770,51.481 47.587,51.299 L45.712,49.442 L47.038,48.129 L48.250,49.330 L52.275,45.344 L53.600,46.656 L48.913,51.299 C48.730,51.481 48.490,51.572 48.250,51.572 Z" class="cls-3"/>
  </g>
</svg>
