<svg xmlns="http://www.w3.org/2000/svg" xmlns:xlink="http://www.w3.org/1999/xlink" preserveAspectRatio="xMidYMid" width="17.094" height="17.09" viewBox="0 0 17.094 17.09">
  <defs>
    <style>
      .cls-1 {
        fill: #59d556;
        fill-rule: evenodd;
      }
    </style>
  </defs>
  <path d="M16.997,9.094 L14.790,9.094 L14.790,11.250 C14.790,11.299 14.749,11.338 14.699,11.338 L13.749,11.338 C13.699,11.338 13.658,11.299 13.658,11.250 L13.658,9.094 L11.462,9.094 C11.412,9.094 11.372,9.054 11.372,9.006 L11.372,8.069 C11.372,8.020 11.412,7.980 11.462,7.980 L13.658,7.980 L13.658,5.838 C13.658,5.789 13.699,5.750 13.749,5.750 L14.699,5.750 C14.749,5.750 14.790,5.789 14.790,5.838 L14.790,7.980 L16.997,7.980 C17.047,7.980 17.088,8.020 17.088,8.069 L17.088,9.005 C17.088,9.054 17.047,9.094 16.997,9.094 ZM9.976,0.886 C9.962,0.896 9.945,0.901 9.928,0.901 L8.538,0.901 C9.064,1.324 10.159,2.206 10.159,3.912 C10.159,5.609 9.137,6.394 8.234,7.086 L8.205,7.115 C7.921,7.390 7.600,7.702 7.600,8.174 C7.600,8.654 7.921,8.913 8.179,9.122 L9.015,9.754 C10.005,10.567 10.938,11.332 10.938,12.881 C10.938,14.976 8.872,17.097 4.924,17.097 C1.529,17.097 0.010,15.494 0.010,13.906 C0.010,13.507 0.137,12.131 1.771,11.185 C3.154,10.357 5.048,10.230 6.066,10.163 L6.137,10.158 L6.097,10.108 C5.779,9.713 5.451,9.304 5.451,8.642 C5.451,8.301 5.545,8.083 5.644,7.852 L5.678,7.772 C5.447,7.792 5.184,7.816 4.948,7.816 C2.483,7.816 1.153,6.011 1.153,4.313 C1.153,3.210 1.699,2.093 2.614,1.325 C3.777,0.389 5.069,-0.009 6.936,-0.009 L11.126,-0.009 C11.166,-0.009 11.201,0.016 11.213,0.054 C11.224,0.092 11.208,0.133 11.174,0.154 L9.976,0.886 ZM3.986,11.142 C2.683,11.602 2.022,12.375 2.022,13.439 C2.022,15.068 3.639,16.162 6.045,16.162 C8.118,16.162 9.406,15.239 9.407,13.752 C9.407,12.585 8.597,11.973 6.913,10.806 C6.731,10.783 6.617,10.783 6.389,10.783 C6.375,10.783 5.029,10.801 3.986,11.142 ZM5.268,0.833 C4.663,0.833 4.034,1.122 3.667,1.569 C3.329,1.977 3.165,2.518 3.165,3.221 C3.165,4.606 4.003,7.191 6.023,7.191 C6.568,7.191 7.193,6.940 7.577,6.567 C8.148,6.008 8.148,5.203 8.148,4.938 C8.148,3.261 7.123,0.833 5.268,0.833 Z" class="cls-1"/>
</svg>
