<svg xmlns="http://www.w3.org/2000/svg" xmlns:xlink="http://www.w3.org/1999/xlink" preserveAspectRatio="xMidYMid" width="19.219" height="12.84" viewBox="0 0 19.219 12.84">
  <defs>
    <style>
      .cls-1 {
        fill: #59d556;
        fill-rule: evenodd;
      }
    </style>
  </defs>
  <path d="M18.469,1.102 C17.776,0.320 16.495,0.001 14.050,0.001 L5.172,0.001 C2.671,0.001 1.368,0.340 0.678,1.173 C0.004,1.984 0.004,3.181 0.004,4.836 L0.004,7.990 C0.004,11.197 0.803,12.825 5.172,12.825 L14.050,12.825 C16.170,12.825 17.346,12.544 18.106,11.853 C18.886,11.146 19.218,9.991 19.218,7.990 L19.218,4.836 C19.218,3.090 19.166,1.887 18.469,1.102 ZM12.340,6.848 L8.308,8.846 C8.218,8.891 8.120,8.913 8.021,8.913 C7.910,8.913 7.799,8.885 7.700,8.828 C7.515,8.722 7.401,8.531 7.401,8.325 L7.401,4.342 C7.401,4.137 7.514,3.947 7.699,3.840 C7.885,3.733 8.115,3.726 8.307,3.821 L12.338,5.806 C12.543,5.907 12.672,6.108 12.672,6.327 C12.673,6.546 12.544,6.747 12.340,6.848 Z" class="cls-1"/>
</svg>
