<svg xmlns="http://www.w3.org/2000/svg" xmlns:xlink="http://www.w3.org/1999/xlink" preserveAspectRatio="xMidYMid" width="26" height="40" viewBox="0 0 26 40">
  <defs>
    <style>
      .cls-1 {
        fill: #59d556;
        filter: url(#color-overlay-1);
        fill-rule: evenodd;
      }
    </style>

    <filter id="color-overlay-1" filterUnits="userSpaceOnUse">
      <feFlood flood-color="#fff"/>
      <feComposite operator="in" in2="SourceGraphic"/>
      <feBlend in2="SourceGraphic" result="solidFill"/>
    </filter>
  </defs>
  <path d="M16.461,9.313 C16.820,9.041 17.333,9.111 17.606,9.469 C18.374,10.476 18.780,11.679 18.780,12.947 C18.780,16.121 16.187,18.703 13.000,18.703 C9.813,18.703 7.220,16.121 7.220,12.947 C7.220,9.773 9.813,7.190 13.000,7.190 C13.451,7.190 13.817,7.555 13.817,8.004 C13.817,8.454 13.451,8.818 13.000,8.818 C10.715,8.818 8.855,10.670 8.855,12.947 C8.855,15.223 10.714,17.075 13.000,17.075 C15.286,17.075 17.145,15.223 17.145,12.947 C17.145,12.037 16.854,11.175 16.304,10.453 C16.031,10.095 16.101,9.584 16.461,9.313 ZM13.647,39.683 C13.486,39.891 13.244,40.000 13.000,40.000 C12.825,40.000 12.649,39.945 12.500,39.830 C12.143,39.556 12.077,39.044 12.353,38.689 C12.473,38.534 24.365,23.082 24.365,12.947 C24.365,6.706 19.267,1.628 13.000,1.628 C6.733,1.628 1.635,6.706 1.635,12.947 C1.635,16.255 3.010,22.374 9.560,32.727 C9.800,33.107 9.686,33.609 9.304,33.849 C8.922,34.089 8.417,33.974 8.177,33.594 C4.447,27.698 0.001,19.331 0.001,12.947 C0.001,5.808 5.832,-0.000 13.000,-0.000 C20.168,-0.000 25.999,5.808 25.999,12.946 C25.999,23.638 14.151,39.033 13.647,39.683 Z" class="cls-1"/>
</svg>
