<svg xmlns="http://www.w3.org/2000/svg" xmlns:xlink="http://www.w3.org/1999/xlink" preserveAspectRatio="xMidYMid" width="45" height="45" viewBox="0 0 45 45">
  <defs>
    <style>
      .cls-1 {
        fill: #59d556;
        fill-rule: evenodd;
      }
    </style>
  </defs>
  <path d="M42.818,32.143 C40.243,37.571 35.709,41.670 30.051,43.688 C27.589,44.565 25.033,45.000 22.489,45.000 C18.483,45.000 14.506,43.923 10.966,41.811 C10.532,41.552 10.390,40.990 10.649,40.555 C10.908,40.121 11.470,39.980 11.904,40.239 C17.221,43.411 23.611,44.040 29.437,41.963 C34.634,40.110 38.799,36.344 41.164,31.358 C43.529,26.372 43.811,20.764 41.958,15.566 C40.105,10.368 36.340,6.202 31.354,3.837 C26.369,1.472 20.761,1.190 15.563,3.043 C10.366,4.896 6.201,8.662 3.836,13.648 C1.471,18.634 1.189,24.242 3.042,29.440 C3.212,29.916 2.963,30.440 2.487,30.610 C2.011,30.779 1.487,30.531 1.317,30.055 C-0.699,24.396 -0.392,18.291 2.182,12.863 C4.757,7.436 9.291,3.335 14.949,1.318 C20.607,-0.699 26.712,-0.392 32.139,2.183 C37.566,4.758 41.665,9.292 43.682,14.951 C45.699,20.609 45.392,26.715 42.818,32.143 ZM25.274,12.929 C24.917,12.571 24.917,11.991 25.274,11.634 C25.631,11.277 26.211,11.277 26.569,11.634 L36.789,21.856 C37.146,22.213 37.146,22.793 36.789,23.150 L26.569,33.372 C26.390,33.550 26.156,33.640 25.921,33.640 C25.687,33.640 25.453,33.550 25.274,33.372 C24.917,33.014 24.917,32.434 25.274,32.077 L34.848,22.503 L25.274,12.929 ZM8.858,21.588 L31.653,21.588 C32.158,21.588 32.568,21.998 32.568,22.503 C32.568,23.008 32.158,23.418 31.653,23.418 L8.858,23.418 C8.353,23.418 7.943,23.008 7.943,22.503 C7.943,21.998 8.353,21.588 8.858,21.588 Z" class="cls-1"/>
</svg>
