<svg xmlns="http://www.w3.org/2000/svg" xmlns:xlink="http://www.w3.org/1999/xlink" preserveAspectRatio="xMidYMid" width="44" height="44" viewBox="0 0 44 44">
  <defs>
    <style>
      .cls-1 {
        fill: #4b586d;
        fill-rule: evenodd;
      }
    </style>
  </defs>
  <path d="M36.934,38.155 C36.571,38.491 36.004,38.468 35.668,38.106 C35.333,37.742 35.355,37.176 35.718,36.840 C39.843,33.025 42.209,27.616 42.209,22.000 C42.209,10.857 33.143,1.791 22.000,1.791 C10.857,1.791 1.791,10.857 1.791,22.000 C1.791,33.143 10.857,42.208 22.000,42.208 C22.494,42.208 22.895,42.610 22.895,43.104 C22.895,43.599 22.494,43.999 22.000,43.999 C9.869,43.999 0.000,34.131 0.000,22.000 C0.000,9.869 9.869,-0.000 22.000,-0.000 C34.131,-0.000 44.000,9.869 44.000,22.000 C44.000,28.113 41.424,34.002 36.934,38.155 ZM31.437,13.459 L12.563,13.459 C12.069,13.459 11.668,13.058 11.668,12.563 C11.668,12.069 12.069,11.667 12.563,11.667 L31.437,11.667 C31.931,11.667 32.332,12.069 32.332,12.563 C32.332,13.058 31.931,13.459 31.437,13.459 ZM31.437,22.895 L12.563,22.895 C12.069,22.895 11.668,22.494 11.668,22.000 C11.668,21.505 12.069,21.105 12.563,21.105 L31.437,21.105 C31.931,21.105 32.332,21.505 32.332,22.000 C32.332,22.494 31.931,22.895 31.437,22.895 ZM11.668,31.437 C11.668,30.942 12.069,30.542 12.563,30.542 L31.437,30.542 C31.931,30.542 32.332,30.942 32.332,31.437 C32.332,31.931 31.931,32.332 31.437,32.332 L12.563,32.332 C12.069,32.332 11.668,31.931 11.668,31.437 Z" class="cls-1"/>
</svg>
