<svg xmlns="http://www.w3.org/2000/svg" xmlns:xlink="http://www.w3.org/1999/xlink" preserveAspectRatio="xMidYMid" width="46" height="46" viewBox="0 0 46 46">
  <defs>
    <style>
      .cls-1 {
        fill: #58d556;
        fill-rule: evenodd;
      }
    </style>
  </defs>
  <path d="M-0.000,46.000 L-0.000,13.719 L-0.000,3.228 L11.977,3.228 C12.345,1.389 13.948,-0.000 15.862,-0.000 C18.049,-0.000 19.828,1.810 19.828,4.035 C19.828,6.260 18.049,8.070 15.862,8.070 C15.423,8.070 15.069,7.709 15.069,7.263 C15.069,6.817 15.423,6.456 15.862,6.456 C17.174,6.456 18.241,5.370 18.241,4.035 C18.241,2.700 17.174,1.614 15.862,1.614 C14.829,1.614 13.957,2.290 13.629,3.228 L15.069,3.228 C15.508,3.228 15.862,3.589 15.862,4.035 C15.862,4.481 15.508,4.842 15.069,4.842 L12.690,4.842 L1.586,4.842 L1.586,12.105 L44.414,12.105 L44.414,4.842 L34.023,4.842 C33.655,6.681 32.052,8.070 30.138,8.070 C29.699,8.070 29.345,7.709 29.345,7.263 C29.345,6.817 29.699,6.456 30.138,6.456 C31.450,6.456 32.517,5.370 32.517,4.035 C32.517,2.700 31.450,1.614 30.138,1.614 C29.699,1.614 29.345,1.253 29.345,0.807 C29.345,0.361 29.699,-0.000 30.138,-0.000 C32.053,-0.000 33.655,1.389 34.023,3.228 L46.000,3.228 L46.000,13.719 L46.000,46.000 L-0.000,46.000 ZM44.414,13.719 L1.586,13.719 L1.586,44.386 L44.414,44.386 L44.414,13.719 ZM6.345,25.018 C6.783,25.018 7.138,25.379 7.138,25.825 C7.138,26.270 6.783,26.632 6.345,26.632 C5.907,26.632 5.552,26.270 5.552,25.825 C5.552,25.379 5.907,25.018 6.345,25.018 ZM6.345,30.667 C6.783,30.667 7.138,31.028 7.138,31.474 C7.138,31.919 6.783,32.281 6.345,32.281 C5.907,32.281 5.552,31.919 5.552,31.474 C5.552,31.028 5.907,30.667 6.345,30.667 ZM6.345,37.123 C6.783,37.123 7.138,37.484 7.138,37.930 C7.138,38.376 6.783,38.737 6.345,38.737 C5.907,38.737 5.552,38.376 5.552,37.930 C5.552,37.484 5.907,37.123 6.345,37.123 ZM11.897,25.018 C12.335,25.018 12.690,25.379 12.690,25.825 C12.690,26.270 12.335,26.632 11.897,26.632 C11.459,26.632 11.103,26.270 11.103,25.825 C11.103,25.379 11.459,25.018 11.897,25.018 ZM11.897,30.667 C12.335,30.667 12.690,31.028 12.690,31.474 C12.690,31.919 12.335,32.281 11.897,32.281 C11.459,32.281 11.103,31.919 11.103,31.474 C11.103,31.028 11.459,30.667 11.897,30.667 ZM11.897,37.123 C12.335,37.123 12.690,37.484 12.690,37.930 C12.690,38.376 12.335,38.737 11.897,38.737 C11.459,38.737 11.103,38.376 11.103,37.930 C11.103,37.484 11.459,37.123 11.897,37.123 ZM17.448,18.561 C17.886,18.561 18.241,18.923 18.241,19.368 C18.241,19.814 17.886,20.175 17.448,20.175 C17.010,20.175 16.655,19.814 16.655,19.368 C16.655,18.923 17.010,18.561 17.448,18.561 ZM17.448,25.018 C17.886,25.018 18.241,25.379 18.241,25.825 C18.241,26.270 17.886,26.632 17.448,26.632 C17.010,26.632 16.655,26.270 16.655,25.825 C16.655,25.379 17.010,25.018 17.448,25.018 ZM17.448,30.667 C17.886,30.667 18.241,31.028 18.241,31.474 C18.241,31.919 17.886,32.281 17.448,32.281 C17.010,32.281 16.655,31.919 16.655,31.474 C16.655,31.028 17.010,30.667 17.448,30.667 ZM17.448,37.123 C17.886,37.123 18.241,37.484 18.241,37.930 C18.241,38.376 17.886,38.737 17.448,38.737 C17.010,38.737 16.655,38.376 16.655,37.930 C16.655,37.484 17.010,37.123 17.448,37.123 ZM23.000,18.561 C23.438,18.561 23.793,18.923 23.793,19.368 C23.793,19.814 23.438,20.175 23.000,20.175 C22.562,20.175 22.207,19.814 22.207,19.368 C22.207,18.923 22.562,18.561 23.000,18.561 ZM23.000,25.018 C23.438,25.018 23.793,25.379 23.793,25.825 C23.793,26.270 23.438,26.632 23.000,26.632 C22.562,26.632 22.207,26.270 22.207,25.825 C22.207,25.379 22.562,25.018 23.000,25.018 ZM23.000,30.667 C23.438,30.667 23.793,31.028 23.793,31.474 C23.793,31.919 23.438,32.281 23.000,32.281 C22.562,32.281 22.207,31.919 22.207,31.474 C22.207,31.028 22.562,30.667 23.000,30.667 ZM23.000,37.123 C23.438,37.123 23.793,37.484 23.793,37.930 C23.793,38.376 23.438,38.737 23.000,38.737 C22.562,38.737 22.207,38.376 22.207,37.930 C22.207,37.484 22.562,37.123 23.000,37.123 ZM28.552,18.561 C28.990,18.561 29.345,18.923 29.345,19.368 C29.345,19.814 28.990,20.175 28.552,20.175 C28.114,20.175 27.759,19.814 27.759,19.368 C27.759,18.923 28.114,18.561 28.552,18.561 ZM28.552,25.018 C28.990,25.018 29.345,25.379 29.345,25.825 C29.345,26.270 28.990,26.632 28.552,26.632 C28.114,26.632 27.759,26.270 27.759,25.825 C27.759,25.379 28.114,25.018 28.552,25.018 ZM28.552,30.667 C28.990,30.667 29.345,31.028 29.345,31.474 C29.345,31.919 28.990,32.281 28.552,32.281 C28.114,32.281 27.759,31.919 27.759,31.474 C27.759,31.028 28.114,30.667 28.552,30.667 ZM28.552,37.123 C28.990,37.123 29.345,37.484 29.345,37.930 C29.345,38.376 28.990,38.737 28.552,38.737 C28.114,38.737 27.759,38.376 27.759,37.930 C27.759,37.484 28.114,37.123 28.552,37.123 ZM34.103,18.561 C34.541,18.561 34.897,18.923 34.897,19.368 C34.897,19.814 34.541,20.175 34.103,20.175 C33.665,20.175 33.310,19.814 33.310,19.368 C33.310,18.923 33.665,18.561 34.103,18.561 ZM34.103,25.018 C34.541,25.018 34.897,25.379 34.897,25.825 C34.897,26.270 34.541,26.632 34.103,26.632 C33.665,26.632 33.310,26.270 33.310,25.825 C33.310,25.379 33.665,25.018 34.103,25.018 ZM34.103,30.667 C34.541,30.667 34.897,31.028 34.897,31.474 C34.897,31.919 34.541,32.281 34.103,32.281 C33.665,32.281 33.310,31.919 33.310,31.474 C33.310,31.028 33.665,30.667 34.103,30.667 ZM39.655,18.561 C40.093,18.561 40.448,18.923 40.448,19.368 C40.448,19.814 40.093,20.175 39.655,20.175 C39.217,20.175 38.862,19.814 38.862,19.368 C38.862,18.923 39.217,18.561 39.655,18.561 ZM39.655,25.018 C40.093,25.018 40.448,25.379 40.448,25.825 C40.448,26.270 40.093,26.632 39.655,26.632 C39.217,26.632 38.862,26.270 38.862,25.825 C38.862,25.379 39.217,25.018 39.655,25.018 ZM39.655,30.667 C40.093,30.667 40.448,31.028 40.448,31.474 C40.448,31.919 40.093,32.281 39.655,32.281 C39.217,32.281 38.862,31.919 38.862,31.474 C38.862,31.028 39.217,30.667 39.655,30.667 ZM25.379,8.070 C24.941,8.070 24.586,7.709 24.586,7.263 C24.586,6.817 24.941,6.456 25.379,6.456 C26.691,6.456 27.759,5.370 27.759,4.035 C27.759,2.700 26.691,1.614 25.379,1.614 C24.941,1.614 24.586,1.253 24.586,0.807 C24.586,0.361 24.941,-0.000 25.379,-0.000 C27.566,-0.000 29.345,1.810 29.345,4.035 C29.345,6.260 27.566,8.070 25.379,8.070 ZM20.621,8.070 C20.182,8.070 19.828,7.709 19.828,7.263 C19.828,6.817 20.182,6.456 20.621,6.456 C21.932,6.456 23.000,5.370 23.000,4.035 C23.000,2.700 21.932,1.614 20.621,1.614 C20.182,1.614 19.828,1.253 19.828,0.807 C19.828,0.361 20.182,-0.000 20.621,-0.000 C22.807,-0.000 24.586,1.810 24.586,4.035 C24.586,6.260 22.807,8.070 20.621,8.070 Z" class="cls-1"/>
</svg>
