<svg xmlns="http://www.w3.org/2000/svg" xmlns:xlink="http://www.w3.org/1999/xlink" preserveAspectRatio="xMidYMid" width="34.969" height="35" viewBox="0 0 34.969 35">
  <defs>
    <style>
      .cls-1 {
        fill: #d5213b;
        fill-rule: evenodd;
      }
    </style>
  </defs>
  <path d="M33.992,35.000 L0.986,35.000 C0.442,35.000 0.000,34.558 0.000,34.013 L0.000,0.989 C0.000,0.445 0.442,0.003 0.986,0.003 L26.102,0.003 C26.647,0.003 27.088,0.445 27.088,0.989 C27.088,1.534 26.647,1.976 26.102,1.976 L1.973,1.976 L1.973,33.026 L33.005,33.026 L33.005,8.369 C33.005,7.824 33.447,7.382 33.992,7.382 C34.536,7.382 34.978,7.824 34.978,8.369 L34.978,34.013 C34.978,34.558 34.536,35.000 33.992,35.000 ZM27.743,28.540 L17.608,18.405 L7.473,28.540 L6.460,27.527 L16.595,17.392 L6.460,7.257 L7.473,6.243 L17.608,16.378 L27.743,6.243 L28.757,7.257 L18.622,17.392 L28.757,27.527 L27.743,28.540 Z" class="cls-1"/>
</svg>
