<svg xmlns="http://www.w3.org/2000/svg" xmlns:xlink="http://www.w3.org/1999/xlink" preserveAspectRatio="xMidYMid" width="37" height="28" viewBox="0 0 37 28">
  <defs>
    <style>
      .cls-1 {
        fill: #59d556;
        filter: url(#color-overlay-1);
        fill-rule: evenodd;
      }
    </style>

    <filter id="color-overlay-1" filterUnits="userSpaceOnUse">
      <feFlood flood-color="#fff"/>
      <feComposite operator="in" in2="SourceGraphic"/>
      <feBlend in2="SourceGraphic" result="solidFill"/>
    </filter>
  </defs>
  <path d="M33.300,28.000 L3.700,28.000 C1.665,28.000 0.000,26.342 0.000,24.316 L0.000,3.684 C0.000,1.658 1.665,0.000 3.700,0.000 L33.300,0.000 C35.335,0.000 37.000,1.658 37.000,3.684 L37.000,24.316 C37.000,26.342 35.335,28.000 33.300,28.000 ZM35.520,3.684 C35.520,2.468 34.521,1.474 33.300,1.474 L3.700,1.474 C2.479,1.474 1.480,2.468 1.480,3.684 L1.480,6.705 L17.575,13.890 C18.167,14.147 18.833,14.147 19.425,13.890 L35.520,6.705 L35.520,3.684 ZM30.636,18.237 C30.932,17.942 31.413,17.979 31.672,18.273 L35.520,22.547 L35.520,8.290 L20.017,15.215 C19.536,15.400 19.018,15.510 18.500,15.510 C17.982,15.510 17.464,15.437 16.983,15.215 L1.480,8.290 L1.480,22.879 L9.065,14.995 C9.324,14.700 9.805,14.663 10.101,14.958 C10.397,15.215 10.434,15.695 10.138,15.989 L1.554,24.905 C1.813,25.826 2.664,26.527 3.700,26.527 L33.300,26.527 C34.373,26.527 35.298,25.753 35.520,24.721 L30.599,19.268 C30.303,18.974 30.340,18.495 30.636,18.237 ZM28.823,16.984 C28.601,16.984 28.416,16.873 28.268,16.726 L27.602,15.989 C27.306,15.695 27.343,15.215 27.639,14.958 C27.935,14.663 28.416,14.700 28.675,14.995 L29.341,15.769 C29.637,16.063 29.600,16.542 29.304,16.800 C29.193,16.910 29.008,16.984 28.823,16.984 Z" class="cls-1"/>
</svg>
