<?xml version="1.0" encoding="utf-8"?>
<!-- Generator: Adobe Illustrator 21.0.1, SVG Export Plug-In . SVG Version: 6.00 Build 0)  -->
<svg version="1.1" xmlns="http://www.w3.org/2000/svg" xmlns:xlink="http://www.w3.org/1999/xlink" x="0px" y="0px"
	 viewBox="0 0 182 92" style="enable-background:new 0 0 182 92;" xml:space="preserve">
<style type="text/css">
	.st0{fill:#010101;}
	.st1{fill-rule:evenodd;clip-rule:evenodd;fill:#41BA89;}
	.st2{fill-rule:evenodd;clip-rule:evenodd;fill:#EB2227;}
</style>
<g id="Слой_2">
</g>
<g id="Слой_1">
	<g id="logo_1_">
		<g id="letters_2_">
			<path class="st0" d="M95.5,53c0,0-0.2,1.2-0.3,1.7c-0.3,1.5-0.6,3-0.9,4.5c-0.7,3.5-1.3,7-2.1,10.5c-0.7,3.2-1.3,6.5-1.8,9.8
				c-0.3,2.7-0.8,5.4,0.3,8c0,0.1,0.3,0.6,0.3,0.6c3.4,4.6,9.2,5,13.7,2.4c0.9-0.5,2.6-1.7,3.4-3.2c0.3-0.7,0.5-1.3,0.5-1.3
				s-1.4-0.7-1.9-1.2c-0.5-0.5-0.7-1.2-0.8-1.9c-0.2-1.2-0.1-2.3,0.1-3.5c1-6.4,2.5-12.7,3.7-19c0.4-2.3,0.9-4.4,1.4-6.8
				c0.1-0.6,0.4-2,0.4-2L95.5,53z M106.3,86.7c0,0-1.1,1.2-1.4,1.4c-1,0.9-2.3,1.4-3.6,1.7c-3.4,0.7-6.6,0.3-8.8-2.9
				c-1-2.1-0.5-4.8-0.2-7c0.3-2.7,0.8-5.4,1.4-8.1c0.6-2.9,1.2-5.7,1.8-8.5c0.3-1.6,0.6-3.3,0.9-4.9c0.2-1.1,0.5-2.5,0.7-3.6
				c0,0,11.2-1.1,12-1.1c0,0.1-0.5,2.7-0.7,3.8c-1.1,5.5-2.2,11-3.3,16.4c-0.7,3.6-2.5,8.8,0.2,12C105.6,86.1,106.3,86.7,106.3,86.7
				"/>
			<path class="st0" d="M156,53c0,0-0.2,1.2-0.3,1.7c-0.3,1.5-0.6,3-0.9,4.5c-0.7,3.5-1.3,7-2.1,10.5c-0.7,3.2-1.3,6.5-1.8,9.8
				c-0.3,2.7-0.8,5.4,0.3,8c0,0.1,0.3,0.6,0.3,0.6c3.4,4.6,9.2,5,13.7,2.4c0.9-0.5,2.6-1.7,3.4-3.2c0.3-0.7,0.5-1.3,0.5-1.3
				s-1.4-0.7-1.9-1.2c-0.5-0.5-0.7-1.2-0.8-1.9c-0.2-1.2-0.1-2.3,0.1-3.5c1-6.4,2.5-12.7,3.7-19c0.4-2.3,0.9-4.4,1.4-6.8
				c0.1-0.6,0.4-2,0.4-2L156,53z M166.8,86.7c0,0-1.1,1.2-1.4,1.4c-1,0.9-2.3,1.4-3.6,1.7c-3.4,0.7-6.6,0.3-8.8-2.9
				c-1-2.1-0.5-4.8-0.2-7c0.3-2.7,0.8-5.4,1.4-8.1c0.6-2.9,1.2-5.7,1.8-8.5c0.3-1.6,0.6-3.3,0.9-4.9c0.2-1.1,0.5-2.5,0.7-3.6
				c0,0,11.2-1.1,12-1.1c0,0.1-0.5,2.7-0.7,3.8c-1.1,5.5-2.2,11-3.3,16.4c-0.7,3.6-2.5,8.8,0.2,12C166,86.1,166.8,86.7,166.8,86.7"
				/>
			<path class="st0" d="M50.4,51.4c-1.5,0.1-4.7,0.5-6.4,0.7c-1.8,0.2-3.6,0.4-5.4,0.5c-0.6,0.1-0.8,0-1.4-0.2
				c-1.7-0.6-3.5-0.9-5.2-0.9c-6.3-0.2-12.6,1.9-17.1,6.5c-5.2,5.3-7.1,12.6-6.8,19.8c0.1,3,0.4,6.4,2.1,9c1.8,2.8,4.8,4.2,8,4.7
				c3.6,0.6,7.6,0.5,10.9-1.4c0.5-0.3,1.7-0.9,2-1.5c0,0,0,0,0,0c0.2,0.3,0.4,0.6,0.7,0.8c1.1,1.1,2.6,1.8,4.2,2.2
				c3.5,0.7,7.7,0,10.4-2.5c0.7-0.6,2.4-2.4,2.4-2.4S48,86.2,47.8,86c-0.6-0.4-1.4-1-1.9-1.6c-0.6-0.7-1-1.6-1-2.5
				c0-2.5,0.7-5.1,1.2-7.5c0.8-4.1,1.5-8.2,2.3-12.3c0.5-2.8,1.2-5.7,1.6-8.5C50.2,52.5,50.4,51.4,50.4,51.4z M48.2,53.7
				c-0.5,2.8-1.1,5.6-1.6,8.4c-0.8,4.1-1.5,8.1-2.3,12.2c-0.5,2.4-1.1,5-1.2,7.5c0,0.1,0,0.1,0,0.2c0,0.1,0,0.1,0,0.2
				c0.1,1.1,0.5,2.1,1.1,3.1c0.2,0.3,0.5,0.6,0.8,0.9c0.2,0.2,0.4,0.3,0.7,0.5c0,0,0.2,0.1,0.2,0.2c-0.2,0.2-0.2,0.2-0.3,0.4
				c-2.2,2.7-6.5,3.4-9.7,2.6c-1.5-0.4-2.8-1.4-3.6-2.4c-0.5-0.6-1.1-1.3-1.1-1.3s-1.7,1.4-2.1,1.8c-0.7,0.5-1.5,1-2.2,1.3
				c-1.7,0.7-3.6,0.9-5.4,0.9c-3.2-0.1-6.8-0.8-9-3.3c-2.1-2.3-2.3-5.9-2.5-8.9c-0.3-7.1,1.6-14.2,6.9-19.2
				c4.5-4.3,11.4-6.2,17.5-5.1c1.6,0.3,2.9,1.1,4.5,0.9c1.7-0.2,3.4-0.3,5.1-0.5c0.9-0.1,1.8-0.2,2.6-0.3c0.4,0,1.3-0.1,1.7-0.2
				C48.2,53.6,48.2,53.6,48.2,53.7z"/>
			<path class="st0" d="M31.8,55.1c-3.5-0.3-5.7,1.9-6.9,5c-1.3,3.2-1.9,6.7-2.5,10.1c-0.8,4-1.3,8.1-1,12.2c0.2,2.5,1,5.9,4.3,5.5
				c4.2-0.5,5.9-5.3,6.5-8.8c1.2-6.9,2.8-13.7,3.7-20.6C36.1,56.4,33.6,55.3,31.8,55.1z M34,58.2c-0.1,0.5-0.2,1-0.3,1.5
				c-0.6,3.6-1.3,7.1-1.9,10.7c-0.5,2.7-1,5.5-1.5,8.2c-0.4,2.4-1.9,8-5.4,7.5c-2.4-0.3-1.9-5.6-1.9-7.1c0.1-3.5,0.7-7,1.5-10.5
				c0.6-2.7,1.1-5.5,2.2-8c0.6-1.3,1.4-2.7,2.7-3.2c0.7-0.3,1.7-0.3,2.5-0.2c0.3,0.1,0.7,0.2,1,0.3c0.3,0.1,0.9,0.6,1.1,0.7
				C34,58.1,34,58.1,34,58.2z"/>
			<path class="st0" d="M150.5,53.6c-1.1-1.1-2.7-1.8-4.2-2c-3.1-0.5-6.3,0.5-8.5,2.8c-0.1,0.1-0.3,0.3-0.4,0.5
				c0.1,0.2,0.1,0.4,0.2,0.6c0.8,3.3,0.2,6.9-0.4,10.2c-0.6,3.4-1.6,6.8-2.9,10c-0.7,1.6-1.4,3.2-2.3,4.7c-0.4,0.7-0.8,1.3-1.3,2
				c-0.1,0.1-0.3,0.4-0.5,0.5c0-0.7,0.1-1.7,0.1-2.3c0-0.8,0.1-1.6,0.1-2.5c0.1-1.8,0.1-3.6,0.1-5.4c0-3.4-0.1-6.8-0.4-10.1
				c-0.3-2.9-0.8-5.9-2.8-8.2c-2-2.3-4.7-3-7.6-2.8c-1.2,0.1-2.4,0.1-3.6,0.5c-1.1,0.4-2.7,1.1-3.5,2.1c-0.2,0.2-0.5,0.6-0.5,0.6
				c0.3,0.5,0.7,1.3,1,1.9c0.6,1.3,1.1,2.5,1.3,3.8c0.6,3.1,0.9,6.2,1.2,9.3c0.5,4.9,0.7,9.9,0.8,14.9c0,0.9,0.1,1.8,0.1,2.8
				c0,0.8,0,3.5,0,3.5s1.7,0.4,2.7,0.6c3,0.5,6.2,0.5,9.1-0.5c6.1-2.1,10.6-7.5,14.3-12.5c2.4-3.2,4.5-6.7,6.1-10.4
				c1.5-3.5,3-7.3,2.9-11.2C151.7,55.7,151.5,54.5,150.5,53.6z M149.1,62.3c-1.9,6.6-5.5,12.6-9.9,17.9c-3.7,4.5-8.5,9.4-14.6,9.9
				c-1.6,0.1-3.2,0-4.8-0.2c-0.5-0.1-1.3-0.4-1.3-0.4s-0.1-2.4-0.1-3.1c-0.1-2.9-0.2-5.8-0.3-8.7c-0.2-4.4-0.6-8.9-1.1-13.3
				c-0.3-2.5-0.5-5-1.5-7.3c-0.2-0.4-1.1-2-1.1-2c0.4-0.4,1.9-1,2.2-1.1c0.6-0.2,1.2-0.3,1.8-0.4c3.2-0.4,6.3,0,8.3,2.8
				c1.7,2.4,1.8,5.9,1.9,8.8c0.2,3.1,0.2,6.2,0.2,9.4c0,1.5-0.1,3-0.1,4.5c-0.1,1.6-0.2,3.4-0.3,5.1c0,0.8,0.6,1.5,1.4,1.4
				c0.7,0,1.9-1.4,2.4-2.1c2.1-2.7,3.5-5.9,4.6-9c1.2-3.3,2-6.8,2.6-10.4c0.4-2.7,0.7-5.8,0.2-8.6c1.9-1.8,5.3-2.6,8-1.6
				c1.7,0.7,2.5,1.6,2.5,3.5C149.9,59,149.6,60.6,149.1,62.3z"/>
			<path class="st0" d="M90.3,53.6c-1.1-1.1-2.7-1.8-4.2-2c-3.1-0.5-6.3,0.5-8.5,2.8c-0.1,0.1-0.3,0.3-0.4,0.5
				c0.1,0.2,0.1,0.4,0.2,0.6c0.8,3.3,0.2,6.9-0.4,10.2c-0.6,3.4-1.6,6.8-2.9,10c-0.7,1.6-1.4,3.2-2.3,4.7c-0.4,0.7-0.8,1.3-1.3,2
				c-0.1,0.1-0.3,0.4-0.5,0.5c0-0.7,0.1-1.7,0.1-2.3c0-0.8,0.1-1.6,0.1-2.5c0.1-1.8,0.1-3.6,0.1-5.4c0-3.4-0.1-6.8-0.4-10.1
				c-0.3-2.9-0.8-5.9-2.8-8.2c-2-2.3-4.7-3-7.6-2.8c-1.2,0.1-2.4,0.1-3.6,0.5c-1.1,0.4-2.7,1.1-3.5,2.1c-0.2,0.2-0.5,0.6-0.5,0.6
				c0.3,0.5,0.7,1.3,1,1.9c0.6,1.3,1.1,2.5,1.3,3.8c0.6,3.1,0.9,6.2,1.2,9.3c0.5,4.9,0.7,9.9,0.8,14.9c0,0.9,0.1,1.8,0.1,2.8
				c0,0.8,0,3.5,0,3.5s1.7,0.4,2.7,0.6c3,0.5,6.2,0.5,9.1-0.5c6.1-2.1,10.6-7.5,14.3-12.5c2.4-3.2,4.5-6.7,6.1-10.4
				c1.5-3.5,3-7.3,2.9-11.2C91.5,55.7,91.3,54.5,90.3,53.6z M88.9,62.3C87,68.8,83.4,74.8,79,80.1c-3.7,4.5-8.5,9.4-14.6,9.9
				c-1.6,0.1-3.2,0-4.8-0.2c-0.5-0.1-1.3-0.4-1.3-0.4s-0.1-2.4-0.1-3.1c-0.1-2.9-0.2-5.8-0.3-8.7c-0.2-4.4-0.6-8.9-1.1-13.3
				c-0.3-2.5-0.5-5-1.5-7.3c-0.2-0.4-1.1-2-1.1-2c0.4-0.4,1.9-1,2.2-1.1c0.6-0.2,1.2-0.3,1.8-0.4c3.2-0.4,6.3,0,8.3,2.8
				c1.7,2.4,1.8,5.9,1.9,8.8c0.2,3.1,0.2,6.2,0.2,9.4c0,1.5-0.1,3-0.1,4.5c-0.1,1.6-0.2,3.4-0.3,5.1c0,0.8,0.6,1.5,1.4,1.4
				c0.7,0,1.9-1.4,2.4-2.1c2.1-2.7,3.5-5.9,4.6-9c1.2-3.3,2-6.8,2.6-10.4c0.4-2.7,0.7-5.8,0.2-8.6c1.9-1.8,5.3-2.6,8-1.6
				c1.7,0.7,2.5,1.6,2.5,3.5C89.7,59,89.4,60.6,88.9,62.3z"/>
			<path class="st0" d="M174,42.8c-0.3-4.2-4.8-5.6-8.4-5.5c-4,0.1-8.1,2.1-8.4,6.5c0,0.1,0,0.1,0,0.2c0.1,2.1,0.7,3.5,2.5,4.6
				c2,1.2,4.4,1.5,6.6,1.3C170.3,49.5,174.3,47.3,174,42.8z M166.3,48c-1.6,0.1-3.3,0-4.8-0.6c-1.7-0.6-2.5-1.6-2.6-3.5
				c0.1-3.3,3.4-4.7,6.3-4.8c2.6-0.1,6.6,0.4,6.9,3.6C172.4,46.2,169.3,47.7,166.3,48z"/>
		</g>
		<g>
			<path class="st1" d="M107.2,47.4c-1.5-7.8,1.2-12.5,4.9-15.6c3.3-2.7,7.4-4.7,9.3-8C122.1,41.7,114.9,41.8,107.2,47.4"/>
			<path class="st2" d="M100.9,47.4c0.8-14.1-2-22.1-6.6-27.5C87,11.5,75.5,9.5,69.7,2.4c-0.5,11.6,1.6,21.1,4.8,27.9
				C80.8,43.5,92.3,48,100.9,47.4z"/>
			<g>
				<path d="M120.7,23.9c0-0.6-0.2-2.3-0.2-2.3l-0.1-0.8l-0.5,0.6c0,0-1.1,1.3-1.5,1.8c-0.5,0.6-1.1,1.3-1.7,1.9
					c-1.1,1.1-2.4,2-3.6,2.9c-1.6,1.2-3.3,2.4-4.7,3.9c-1.6,1.7-2.6,3.6-3.2,5.7c-0.7,2.5-0.7,5.2,0,8.7c0,0.2,0.2,0.7,0.2,0.7
					l0.1,0.5l0.4-0.3c0,0,0.4-0.3,0.6-0.5c1.2-0.8,2.5-1.6,3.7-2.3c1.6-0.9,3.3-1.9,4.8-3c2.7-2,4.4-5,5.1-8.9
					C120.7,29.9,120.8,27,120.7,23.9z M118.9,28c-0.1,1.4-0.2,2.6-0.4,3.7c-0.6,3.7-2,6.3-4.2,8.2c-1.5,1.2-3.2,2.2-4.8,3.1
					c-0.9,0.5-1.9,1.1-2.9,1.7c-0.6-4.4,0.2-8,2.3-10.7c1.5-1.9,3.4-3.3,5.3-4.7c0.7-0.6,1.5-1.1,2.3-1.7c0.7-0.6,1.3-1.1,1.8-1.6
					c0.2-0.2,0.4-0.4,0.6-0.7c0,0.1,0,0.3,0,0.4C119,26.5,119,27.2,118.9,28z"/>
				<path d="M82.5,8.8c-0.5-0.3-1.1-0.6-1.6-0.9c-2.3-1.2-5-2.7-7.1-4.7c-0.2-0.2-0.4-0.4-0.7-0.6c-0.3-0.3-0.7-0.6-0.9-0.8
					c-0.3-0.3-1-1.1-1-1.1L70.5,0l0,0.9c0,0-0.1,3.3-0.1,3.8c0,3.4,0.1,6.7,0.5,9.7c0.9,7.4,3.6,17.7,11.4,25
					c5,4.7,11.5,7.4,17.9,7.6c0.1,0,0.3,0,0.4,0c0.5,0,1.1,0,1.6-0.1c0.1,0,0.5-0.1,0.5-0.1l0.3,0l0-0.3c0,0,0-0.3,0-0.5
					c0.4-7.8,0.2-19.1-6.5-27.3C92.8,14.1,87.6,11.4,82.5,8.8z M101.4,45.3c-5.5,0.2-11.2-1.7-15.9-5.3C77.9,34,74.7,25.1,73.3,18.6
					c-0.5-2.6-0.9-5.5-1.1-8.4c-0.1-1.5-0.1-3.1-0.1-4.7c0-0.4,0-0.9,0-1.3l0,0c2.1,2,4.6,3.5,6.5,4.6c1.1,0.6,2.3,1.2,3.4,1.8
					c4.1,2.1,8.3,4.3,11.6,7.7c5.1,5.2,7.7,12.8,7.8,23.2C101.5,42.6,101.5,43.9,101.4,45.3z"/>
			</g>
		</g>
	</g>
</g>
</svg>
