<svg xmlns="http://www.w3.org/2000/svg" xmlns:xlink="http://www.w3.org/1999/xlink" preserveAspectRatio="xMidYMid" width="20" height="20" viewBox="0 0 20 20">
  <defs>
    <style>
      .cls-1 {
        fill: #d5213b;
        fill-rule: evenodd;
      }
    </style>
  </defs>
  <path d="M10.000,0.000 C4.455,0.000 0.000,4.455 0.000,10.000 C0.000,15.546 4.455,20.000 10.000,20.000 C15.545,20.000 20.000,15.546 20.000,10.000 C20.000,4.455 15.545,0.000 10.000,0.000 ZM11.455,10.182 L14.864,13.591 C14.955,13.682 15.000,13.818 15.000,13.909 C15.000,14.000 14.955,14.136 14.864,14.227 L14.227,14.863 C14.136,14.954 14.000,15.000 13.909,15.000 C13.773,15.000 13.682,14.954 13.591,14.863 L10.182,11.454 C10.091,11.364 9.955,11.364 9.864,11.454 L6.455,14.863 C6.364,14.954 6.227,15.000 6.136,15.000 C6.000,15.000 5.909,14.954 5.818,14.863 L5.182,14.227 C5.091,14.136 5.045,14.000 5.045,13.909 C5.045,13.818 5.091,13.682 5.182,13.591 L8.591,10.182 C8.682,10.091 8.682,9.954 8.591,9.864 L5.182,6.455 C5.091,6.364 5.045,6.227 5.045,6.137 C5.045,6.046 5.091,5.909 5.182,5.818 L5.818,5.182 C5.909,5.091 6.045,5.045 6.136,5.045 C6.227,5.045 6.364,5.091 6.455,5.182 L9.864,8.591 C9.955,8.682 10.091,8.682 10.182,8.591 L13.591,5.182 C13.682,5.091 13.818,5.045 13.909,5.045 C14.046,5.045 14.136,5.091 14.227,5.182 L14.864,5.818 C14.955,5.909 15.000,6.046 15.000,6.137 C15.000,6.227 14.955,6.364 14.864,6.455 L11.455,9.864 C11.364,9.909 11.364,10.091 11.455,10.182 Z" class="cls-1"/>
</svg>
