<svg height="57" width="54" xmlns="http://www.w3.org/2000/svg" viewBox="0 0 77.27 71.34"><defs><style>.cls-1{fill:#1ba137;}.cls-2{fill:#5ad557;}.cls-3{fill:none;stroke:#169e32;stroke-linejoin:bevel;stroke-dasharray:8 4;}.cls-4{fill:#65d861;}</style></defs><title>Ресурс 1</title><g id="Слой_2" data-name="Слой 2"><g id="Слой_1-2" data-name="Слой 1"><g id="Page-1"><g id="service_crm" data-name="service crm"><path id="Shape" class="cls-1" d="M11,29a10.06,10.06,0,0,1,4.24.11,2.22,2.22,0,0,1,1,3.65c-.16.19-.35.33,0,.52a2.34,2.34,0,0,1,1.08,2.88A2.81,2.81,0,0,1,14.66,38c-1.22,0-2.44,0-3.66,0V29Zm2,6.35c0,1.09,0,1.09.87,1.09,1.05,0,1.62-.36,1.63-1.06s-.57-1.09-1.61-1.09c-.89,0-.89,0-.89,1.06Zm.77-4.83h-.31c-.41,0-.52.28-.46.59.11.51-.38,1.21.35,1.5a1.19,1.19,0,0,0,1.32-.39,1,1,0,0,0,.12-1.07,1.1,1.1,0,0,0-1-.63Zm33.08,7.58c-1,0-2.06,0-3.09,0-.57,0-.69-.24-.6-.74a6.41,6.41,0,0,1,2.61-4.1c.55-.42,1.12-.83,1.65-1.27A1.38,1.38,0,0,0,48,30.37c-.28-.59-.83-.63-1.4-.64a4.61,4.61,0,0,0-2.08.46c-.41.18-.59.08-.74-.34-.43-1.22-.43-1.27.84-1.64a7.36,7.36,0,0,1,3.48-.29A2.72,2.72,0,0,1,50,32.14a6.79,6.79,0,0,1-1.83,1.81,8.9,8.9,0,0,0-1.7,1.49c-.13.17-.38.36-.24.6s.38.13.58.13c1,0,2.06,0,3.09,0,.55,0,.78.21.73.75,0,.09,0,.17,0,.25,0,.92,0,.92-.9.92H46.87Zm10.06-7.16c0,.78,0,1.55,0,2.33,0,.45.14.64.61.65a1,1,0,0,1,.85,1.56c-.15.3-.44.24-.67.21-.66-.08-.88.21-.8.83a1.36,1.36,0,0,1,0,.19c0,1.39-.41,1.69-1.82,1.38-.3-.07-.35-.26-.35-.5,0-.42,0-.84,0-1.26s-.14-.64-.61-.63c-1,0-1.93,0-2.89,0-.33,0-.81.2-1-.22A1.46,1.46,0,0,1,50.45,34l1.79-2.27L55,28.23a1.77,1.77,0,0,1,1.67-.37c.27.13.24.37.24.6,0,.82,0,1.64,0,2.46Zm-2.19.66-.13,0c-.34.45-.7.89-1,1.35-.2.28-.66.58-.51.87s.69.11,1.05.13.61,0,.61-.44V31.57Zm-18.83-.1c.7-.21,1.07.33,1.47.87.77,1.05.87,1.1,1.51,0s1.43-.93,2.33-.89c.41,0,.25.23.11.41-.57.78-1.13,1.57-1.74,2.32a.75.75,0,0,0,0,1.1c.58.72,1.12,1.47,1.67,2.21.09.13.27.26.18.44s-.31.08-.47.1A2,2,0,0,1,38.82,37c-.57-.9-.54-1.13-1.32,0a.61.61,0,0,0-.08.1,1.79,1.79,0,0,1-2.14,1c-.16,0-.36.06-.44-.14s.09-.27.17-.38c.58-.78,1.14-1.56,1.74-2.32a.63.63,0,0,0,0-.93c-.55-.69-1.05-1.41-1.57-2.13-.13-.18-.4-.35-.27-.58s.39-.08.59-.1ZM22.48,35c0-.33,0-.67,0-1,.05-.64,0-1.1-.87-1.06-.54,0-.36-.51-.39-.83s0-.69.46-.65c.66.06.89-.24.79-.85s.27-.83.8-1c1.27-.33,1.11-.37,1.12.83,0,1,0,1,1,1,.3,0,.74-.16.88.13s-.08.77-.23,1.13-.5.25-.78.25c-.84,0-.84,0-.84.85,0,.65,0,1.3,0,2s.36,1,1,.75.68,0,1,.77c.22.56-.27.56-.57.68a3.68,3.68,0,0,1-1.87.15,1.63,1.63,0,0,1-1.49-1.73c0-.46,0-.92,0-1.39Zm4.66-.27c0-.84,0-1.68,0-2.52,0-.27-.11-.67.3-.72s1-.25,1.3.16.44.25.68.05a2.14,2.14,0,0,1,1.68-.37c.47,0,.71.26.47.76a5.19,5.19,0,0,0-.25.58c-.12.36-.28.47-.7.37-1-.25-1.57.22-1.57,1.25s0,2.06,0,3.09c0,.49-.18.7-.67.66h-.13c-1.12,0-1.12,0-1.12-1.09V34.76Zm-6.66,0c0,.86,0,1.72,0,2.58,0,.5-.15.72-.68.72-1.24,0-1.24,0-1.24-1.22V32.31c0-.81,0-.84.87-.84h.13c.91,0,.92,0,.92.9v2.39Zm13.63,0c0,.86,0,1.72,0,2.58,0,.5-.15.72-.68.72-1.24,0-1.24,0-1.24-1.22V32.31c0-.81,0-.84.87-.84h.13c.91,0,.92,0,.92.9v2.39Zm-.94-6.43a1.15,1.15,0,0,1,1.16,1.09,1.16,1.16,0,0,1-1.15,1.18,1.13,1.13,0,1,1,0-2.26ZM19.52,30.6a1.13,1.13,0,1,1,1.18-1.15,1.16,1.16,0,0,1-1.18,1.15Zm44.06-.16v-.06c.09-.32-.23-.86.37-.91s.41.51.44.84.3.39.58.4.57,0,.55.42-.29.35-.55.37h-.32c-1.07,0-1.07,0-1.07-1.06Z"/><path id="Shape-2" data-name="Shape" class="cls-2" d="M0,32.52c.12-.42.26-.85.36-1.27a12.79,12.79,0,0,1,7.57-9,1.48,1.48,0,0,0,1-1.79,18.93,18.93,0,0,1,1.27-9.78A16.83,16.83,0,0,1,23.36.38c.48-.09.94-.25,1.41-.38h4.48c1.46.43,3,.74,4.39,1.31a17.29,17.29,0,0,1,9.2,8.59,15.77,15.77,0,0,1,9.45-1.58A15.27,15.27,0,0,1,64.7,20.07c.16.78.28,1.31,1.31,1.42,6,.66,9.76,4.19,11,10,.07.33.19.66.29,1V36.4A40.35,40.35,0,0,1,75.45,41c-1.83,3.41-4.91,5.11-8.62,5.82H10.44c-.32-.1-.64-.24-1-.31-4.89-1.13-7.85-4.19-9.08-9C.28,37,.13,36.57,0,36.1V32.52ZM38.79,45.7v0c8.8,0,17.6,0,26.4,0A10.67,10.67,0,0,0,76.13,35C76.37,28.14,72.3,23.11,66,22.6a2.15,2.15,0,0,1-2.3-2.09,13.9,13.9,0,0,0-19.47-10c-1.43.66-2,.36-2.81-1-3.47-6-8.74-8.86-15.63-8.39S13.88,4.89,11.16,11.34a17.13,17.13,0,0,0-1.07,9.22,2.14,2.14,0,0,1-1.52,2.62A11.9,11.9,0,0,0,1.44,37.06c1.2,5.61,5.28,8.63,11.7,8.64H38.79Zm26.09-18a4.74,4.74,0,0,1,1.8,1.23,3.46,3.46,0,1,1-4.35-.84c.25-.14.52-.26.79-.39h1.76Zm1.86,3.4A2.74,2.74,0,1,0,64,33.85a2.79,2.79,0,0,0,2.73-2.74Z"/><rect id="Rectangle" class="cls-3" x="14" y="53.84" width="50" height="17" rx="2" ry="2"/><path id="CRM" class="cls-4" d="M32.87,63.91a3.4,3.4,0,0,1-1.08,2.26,3.55,3.55,0,0,1-2.42.8,3.26,3.26,0,0,1-2.62-1.17,4.72,4.72,0,0,1-1-3.14v-.89a5.27,5.27,0,0,1,.46-2.27,3.44,3.44,0,0,1,1.3-1.5,3.63,3.63,0,0,1,2-.52,3.34,3.34,0,0,1,2.36.82,3.44,3.44,0,0,1,1,2.28H31.65A2.64,2.64,0,0,0,31,59a2.09,2.09,0,0,0-1.48-.5,2.18,2.18,0,0,0-1.83.86A4,4,0,0,0,27,61.8v.9a4.07,4.07,0,0,0,.63,2.39,2,2,0,0,0,1.76.89,2.35,2.35,0,0,0,1.56-.46,2.55,2.55,0,0,0,.72-1.6Zm5.05-.81H35.75v3.74H34.53V57.6h3.06a3.62,3.62,0,0,1,2.4.71,2.56,2.56,0,0,1,.84,2.07,2.49,2.49,0,0,1-.47,1.5,2.78,2.78,0,0,1-1.3,1l2.17,3.92v.08H39.93Zm-2.17-1h1.87a2.11,2.11,0,0,0,1.44-.47,1.59,1.59,0,0,0,.54-1.26,1.67,1.67,0,0,0-.51-1.31,2.17,2.17,0,0,0-1.48-.46H35.75Zm8.36-4.51,3,7.54,3-7.54h1.58v9.24H50.52v-3.6l.11-3.88-3,7.48h-.93l-3-7.46.12,3.87v3.6H42.54V57.6Z"/></g></g></g></g></svg>