<svg xmlns="http://www.w3.org/2000/svg" xmlns:xlink="http://www.w3.org/1999/xlink" preserveAspectRatio="xMidYMid" width="59" height="59" viewBox="0 0 59 59">
  <defs>
    <style>
      .cls-1 {
        fill: #159e31;
        fill-rule: evenodd;
      }
    </style>
  </defs>
  <path d="M48.842,36.803 L48.330,36.803 C47.810,36.803 47.388,36.382 47.388,35.861 C47.388,35.341 47.810,34.919 48.330,34.919 L48.842,34.919 C53.405,34.919 57.117,31.208 57.117,26.645 C57.117,22.771 54.484,19.458 50.715,18.585 C50.291,18.487 49.990,18.112 49.986,17.676 C49.907,8.968 42.757,1.883 34.048,1.883 C28.247,1.883 22.898,5.040 20.088,10.123 C19.854,10.548 19.335,10.724 18.890,10.532 C18.105,10.192 17.271,10.019 16.410,10.019 C13.283,10.019 10.619,12.355 10.213,15.452 C10.161,15.852 9.859,16.175 9.463,16.253 C5.071,17.124 1.883,21.011 1.883,25.496 C1.883,30.692 6.111,34.919 11.307,34.919 L14.436,34.919 C14.956,34.919 15.378,35.341 15.378,35.861 L15.378,48.644 C15.378,49.163 14.956,49.585 14.436,49.585 L11.501,49.585 C11.075,51.382 9.457,52.724 7.532,52.724 C5.282,52.724 3.452,50.893 3.452,48.644 C3.452,46.394 5.282,44.564 7.532,44.564 C9.457,44.564 11.075,45.905 11.501,47.702 L13.495,47.702 L13.495,36.803 L11.307,36.803 C5.072,36.803 0.000,31.731 0.000,25.496 C0.000,20.335 3.520,15.833 8.460,14.552 C9.257,10.851 12.564,8.136 16.410,8.136 C17.246,8.136 18.064,8.262 18.850,8.510 C22.084,3.241 27.834,0.000 34.048,0.000 C38.780,0.000 43.236,1.835 46.596,5.167 C49.783,8.327 51.632,12.485 51.848,16.943 C53.766,17.538 55.489,18.705 56.758,20.281 C58.204,22.075 59.000,24.336 59.000,26.645 C59.000,32.246 54.443,36.803 48.842,36.803 ZM7.532,46.447 C6.321,46.447 5.335,47.432 5.335,48.644 C5.335,49.855 6.321,50.840 7.532,50.840 C8.743,50.840 9.729,49.855 9.729,48.644 C9.729,47.432 8.743,46.447 7.532,46.447 ZM18.202,34.919 L24.479,34.919 C24.999,34.919 25.420,35.341 25.420,35.861 L25.420,50.951 C27.217,51.377 28.558,52.995 28.558,54.920 C28.558,57.170 26.728,59.000 24.479,59.000 C22.229,59.000 20.399,57.170 20.399,54.920 C20.399,52.995 21.740,51.377 23.537,50.951 L23.537,36.803 L18.202,36.803 C17.682,36.803 17.261,36.382 17.261,35.861 C17.261,35.341 17.682,34.919 18.202,34.919 ZM22.282,54.920 C22.282,56.132 23.267,57.117 24.479,57.117 C25.690,57.117 26.675,56.132 26.675,54.920 C26.675,53.709 25.690,52.724 24.479,52.724 C23.267,52.724 22.282,53.709 22.282,54.920 ZM33.580,50.951 L33.580,36.803 L28.245,36.803 C27.725,36.803 27.303,36.382 27.303,35.861 C27.303,35.341 27.725,34.919 28.245,34.919 L34.521,34.919 C35.041,34.919 35.463,35.341 35.463,35.861 L35.463,50.951 C37.260,51.377 38.601,52.995 38.601,54.920 C38.601,57.170 36.771,59.000 34.521,59.000 C32.272,59.000 30.441,57.170 30.441,54.920 C30.441,52.995 31.783,51.377 33.580,50.951 ZM34.521,57.117 C35.733,57.117 36.718,56.132 36.718,54.920 C36.718,53.709 35.733,52.724 34.521,52.724 C33.310,52.724 32.324,53.709 32.324,54.920 C32.324,56.132 33.310,57.117 34.521,57.117 ZM42.465,10.891 C40.372,8.357 37.304,6.904 34.048,6.904 C33.528,6.904 33.106,6.483 33.106,5.963 C33.106,5.443 33.528,5.021 34.048,5.021 C37.868,5.021 41.465,6.723 43.916,9.692 C44.247,10.092 44.191,10.686 43.790,11.017 C43.615,11.162 43.402,11.233 43.191,11.233 C42.920,11.233 42.651,11.116 42.465,10.891 ZM45.906,18.654 C45.390,18.654 44.969,18.239 44.965,17.722 C44.953,16.400 44.703,15.107 44.224,13.879 C44.034,13.395 44.274,12.849 44.758,12.660 C45.242,12.470 45.788,12.710 45.978,13.194 C46.541,14.636 46.834,16.153 46.848,17.704 C46.852,18.225 46.435,18.650 45.915,18.654 L45.906,18.654 ZM37.346,35.861 C37.346,35.341 37.767,34.919 38.287,34.919 L44.564,34.919 C45.084,34.919 45.505,35.341 45.505,35.861 L45.505,47.702 L47.499,47.702 C47.925,45.905 49.543,44.564 51.468,44.564 C53.718,44.564 55.548,46.394 55.548,48.644 C55.548,50.893 53.718,52.724 51.468,52.724 C49.543,52.724 47.925,51.382 47.499,49.585 L44.564,49.585 C44.044,49.585 43.622,49.163 43.622,48.644 L43.622,36.803 L38.287,36.803 C37.767,36.803 37.346,36.382 37.346,35.861 ZM51.468,50.840 C52.679,50.840 53.665,49.855 53.665,48.644 C53.665,47.432 52.679,46.447 51.468,46.447 C50.257,46.447 49.271,47.432 49.271,48.644 C49.271,49.855 50.257,50.840 51.468,50.840 Z" class="cls-1"/>
</svg>
