<svg xmlns="http://www.w3.org/2000/svg" xmlns:xlink="http://www.w3.org/1999/xlink" preserveAspectRatio="xMidYMid" width="64" height="32" viewBox="0 0 64 32">
  <defs>
    <style>
      .cls-1 {
        fill: #59d556;
        fill-rule: evenodd;
      }
    </style>
  </defs>
  <path d="M4.241,11.520 L4.241,9.600 L16.440,9.600 L16.440,11.520 L4.241,11.520 ZM18.332,32.000 L18.332,22.400 L6.002,22.400 L6.002,20.480 L18.332,20.480 L18.332,16.960 L3.131,16.960 L3.131,15.040 L18.332,15.040 L18.332,6.080 L-0.000,6.080 L-0.000,4.160 L18.332,4.160 L18.332,0.000 L64.000,0.000 L64.000,32.000 L18.332,32.000 ZM62.043,1.920 L22.443,1.920 L41.166,14.641 L55.445,4.953 L56.558,6.532 L41.166,16.976 L20.289,2.793 L20.289,30.080 L62.043,30.080 L62.043,1.920 ZM60.041,4.157 L58.433,5.252 L57.317,3.675 L58.925,2.580 L60.041,4.157 ZM1.957,11.520 L-0.000,11.520 L-0.000,9.600 L1.957,9.600 L1.957,11.520 ZM1.957,27.840 L-0.000,27.840 L-0.000,25.920 L1.957,25.920 L1.957,27.840 ZM16.440,27.840 L4.241,27.840 L4.241,25.920 L16.440,25.920 L16.440,27.840 Z" class="cls-1"/>
</svg>
