<svg xmlns="http://www.w3.org/2000/svg" xmlns:xlink="http://www.w3.org/1999/xlink" preserveAspectRatio="xMidYMid" width="121" height="121" viewBox="0 0 121 121">
  <defs>
    <style>
      .cls-1 {
        fill: #fff;
      }

      .cls-1, .cls-2, .cls-3 {
        fill-rule: evenodd;
      }

      .cls-2 {
        fill: #59d556;
      }

      .cls-3 {
        fill: #159e31;
      }
    </style>
  </defs>
  <g>
    <path d="M121.000,60.227 C121.000,57.361 120.173,54.582 118.607,52.193 C117.273,50.156 116.772,47.667 117.199,45.182 C117.667,42.456 117.352,39.661 116.290,37.096 C115.193,34.448 113.366,32.198 111.005,30.589 C109.020,29.236 107.595,27.083 106.992,24.525 C106.368,21.878 105.018,19.458 103.087,17.527 C101.092,15.533 98.588,14.163 95.842,13.566 C93.356,13.024 91.196,11.608 89.761,9.578 C88.165,7.319 85.965,5.563 83.400,4.501 C80.751,3.404 77.868,3.106 75.061,3.638 C72.669,4.090 70.177,3.599 68.045,2.255 C65.707,0.779 63.003,0.000 60.227,0.000 C57.360,0.000 54.582,0.827 52.192,2.392 C50.156,3.727 47.666,4.228 45.182,3.801 C42.457,3.333 39.661,3.647 37.095,4.710 C34.447,5.807 32.197,7.634 30.589,9.994 C29.236,11.979 27.082,13.405 24.525,14.008 C21.878,14.632 19.458,15.982 17.527,17.913 C15.533,19.906 14.163,22.412 13.565,25.158 C13.024,27.643 11.608,29.803 9.577,31.239 C7.318,32.835 5.563,35.034 4.500,37.600 C3.403,40.248 3.105,43.132 3.637,45.938 C4.090,48.331 3.600,50.823 2.255,52.953 C0.780,55.293 -0.000,57.996 -0.000,60.773 C-0.000,63.639 0.827,66.418 2.393,68.807 C3.727,70.844 4.228,73.334 3.801,75.818 C3.333,78.544 3.647,81.340 4.710,83.905 C5.807,86.553 7.634,88.803 9.994,90.411 C11.980,91.764 13.405,93.918 14.008,96.476 C14.632,99.123 15.982,101.542 17.913,103.472 C19.907,105.467 22.412,106.837 25.158,107.435 C27.644,107.976 29.804,109.392 31.239,111.423 C32.835,113.681 35.035,115.436 37.600,116.499 C40.249,117.597 43.132,117.895 45.939,117.363 C48.331,116.910 50.823,117.401 52.954,118.745 C55.293,120.220 57.997,120.999 60.773,120.999 C63.640,120.999 66.418,120.173 68.808,118.607 C70.844,117.273 73.334,116.772 75.818,117.199 C78.544,117.667 81.340,117.353 83.905,116.290 C86.553,115.193 88.803,113.366 90.411,111.005 C91.764,109.020 93.918,107.595 96.475,106.992 C99.122,106.368 101.542,105.018 103.473,103.087 C105.467,101.093 106.837,98.588 107.435,95.842 C107.976,93.356 109.392,91.196 111.423,89.761 C113.682,88.164 115.437,85.965 116.500,83.400 C117.597,80.751 117.895,77.868 117.363,75.061 C116.910,72.668 117.401,70.177 118.745,68.046 C120.220,65.707 121.000,63.003 121.000,60.227 Z" class="cls-1"/>
    <path d="M116.000,60.748 C116.000,58.094 115.234,55.522 113.785,53.311 C112.550,51.425 112.086,49.121 112.482,46.821 C112.915,44.298 112.624,41.711 111.640,39.336 C110.625,36.885 108.933,34.803 106.749,33.314 C104.911,32.061 103.592,30.068 103.034,27.701 C102.456,25.250 101.207,23.011 99.419,21.223 C97.573,19.378 95.255,18.109 92.714,17.557 C90.412,17.055 88.413,15.744 87.084,13.865 C85.607,11.774 83.571,10.149 81.197,9.166 C78.745,8.151 76.076,7.874 73.478,8.367 C71.264,8.786 68.957,8.332 66.984,7.087 C64.819,5.721 62.317,5.000 59.747,5.000 C57.094,5.000 54.522,5.766 52.310,7.214 C50.425,8.450 48.120,8.913 45.821,8.518 C43.299,8.085 40.711,8.376 38.336,9.360 C35.885,10.375 33.802,12.066 32.314,14.251 C31.061,16.088 29.068,17.408 26.700,17.966 C24.251,18.544 22.011,19.793 20.223,21.580 C18.378,23.426 17.110,25.745 16.556,28.286 C16.055,30.587 14.744,32.586 12.865,33.915 C10.774,35.393 9.149,37.428 8.166,39.803 C7.150,42.255 6.874,44.924 7.366,47.521 C7.786,49.736 7.332,52.043 6.087,54.015 C4.722,56.180 4.000,58.682 4.000,61.253 C4.000,63.906 4.766,66.477 6.215,68.689 C7.450,70.575 7.913,72.879 7.518,75.178 C7.085,77.702 7.376,80.290 8.360,82.664 C9.375,85.115 11.066,87.198 13.251,88.686 C15.089,89.939 16.408,91.932 16.966,94.300 C17.544,96.750 18.793,98.989 20.581,100.776 C22.427,102.622 24.745,103.891 27.286,104.444 C29.588,104.945 31.587,106.255 32.915,108.135 C34.393,110.226 36.429,111.850 38.803,112.834 C41.255,113.850 43.924,114.126 46.522,113.634 C48.736,113.214 51.043,113.669 53.016,114.912 C55.181,116.278 57.683,116.999 60.253,116.999 C62.906,116.999 65.478,116.234 67.690,114.785 C69.575,113.550 71.879,113.087 74.179,113.482 C76.702,113.915 79.290,113.624 81.664,112.640 C84.115,111.625 86.198,109.933 87.686,107.749 C88.939,105.911 90.933,104.592 93.300,104.034 C95.749,103.457 97.989,102.207 99.777,100.419 C101.622,98.573 102.890,96.255 103.444,93.713 C103.945,91.412 105.256,89.413 107.135,88.084 C109.226,86.607 110.851,84.571 111.834,82.196 C112.850,79.745 113.126,77.076 112.634,74.478 C112.214,72.263 112.668,69.957 113.913,67.984 C115.278,65.820 116.000,63.317 116.000,60.748 ZM110.139,65.604 C108.290,68.535 107.619,71.982 108.250,75.310 C108.580,77.051 108.394,78.843 107.712,80.489 C107.051,82.084 105.962,83.450 104.560,84.441 C101.768,86.415 99.823,89.371 99.084,92.765 C98.713,94.469 97.862,96.025 96.622,97.264 C95.421,98.465 93.919,99.304 92.276,99.691 C88.821,100.505 85.881,102.476 83.999,105.236 C83.001,106.702 81.603,107.836 79.956,108.518 C78.362,109.179 76.626,109.374 74.934,109.084 C71.518,108.498 68.077,109.197 65.244,111.053 C63.762,112.025 62.035,112.538 60.253,112.538 C58.527,112.538 56.847,112.054 55.396,111.139 C53.183,109.743 50.677,109.019 48.150,109.019 C47.329,109.019 46.506,109.095 45.691,109.250 C43.947,109.580 42.157,109.394 40.510,108.712 C38.915,108.051 37.549,106.961 36.558,105.560 C34.585,102.768 31.629,100.822 28.235,100.084 C26.531,99.713 24.975,98.862 23.735,97.621 C22.535,96.421 21.695,94.918 21.309,93.277 C20.494,89.821 18.525,86.882 15.763,84.999 C14.298,84.001 13.164,82.602 12.481,80.956 C11.821,79.361 11.625,77.625 11.915,75.934 C12.502,72.519 11.803,69.077 9.947,66.244 C8.975,64.762 8.462,63.035 8.462,61.253 C8.462,59.527 8.945,57.847 9.861,56.396 C11.709,53.465 12.380,50.018 11.750,46.691 C11.420,44.948 11.606,43.158 12.288,41.511 C12.948,39.916 14.038,38.550 15.440,37.558 C18.232,35.585 20.177,32.629 20.916,29.235 C21.287,27.531 22.138,25.976 23.378,24.736 C24.578,23.535 26.081,22.696 27.723,22.309 C31.179,21.495 34.118,19.525 36.000,16.764 C36.999,15.299 38.397,14.164 40.043,13.482 C41.638,12.821 43.374,12.625 45.066,12.916 C48.481,13.503 51.922,12.803 54.755,10.947 C56.238,9.976 57.964,9.462 59.747,9.462 C61.473,9.462 63.152,9.946 64.604,10.861 C67.535,12.710 70.982,13.380 74.310,12.750 C76.052,12.420 77.843,12.606 79.490,13.289 C81.085,13.949 82.451,15.039 83.441,16.440 C85.415,19.232 88.371,21.177 91.765,21.916 C93.469,22.287 95.025,23.139 96.265,24.379 C97.465,25.579 98.304,27.081 98.691,28.724 C99.505,32.179 101.475,35.119 104.236,37.001 C105.701,38.000 106.836,39.397 107.519,41.044 C108.179,42.638 108.375,44.375 108.084,46.066 C107.498,49.481 108.197,52.923 110.053,55.756 C111.025,57.239 111.538,58.965 111.538,60.747 C111.538,62.474 111.054,64.153 110.139,65.604 Z" class="cls-2"/>
    <path d="M67.129,82.161 L67.129,84.871 C67.129,89.353 63.482,93.000 59.000,93.000 C54.518,93.000 50.871,89.353 50.871,84.871 L50.871,82.161 L31.000,82.161 L31.000,37.000 L87.000,37.000 L87.000,82.161 L67.129,82.161 ZM52.677,84.871 C52.677,88.358 55.514,91.194 59.000,91.194 C62.486,91.194 65.323,88.358 65.323,84.871 L65.323,83.968 L52.677,83.968 L52.677,84.871 ZM52.677,82.161 L65.323,82.161 L65.323,80.355 L52.677,80.355 L52.677,82.161 ZM64.045,63.194 L59.000,58.148 L53.955,63.194 L64.045,63.194 ZM57.194,65.000 L57.194,78.548 L60.806,78.548 L60.806,65.000 L57.194,65.000 ZM62.613,65.000 L62.613,78.548 L65.323,78.548 L65.323,65.000 L62.613,65.000 ZM52.677,78.548 L55.387,78.548 L55.387,65.000 L52.677,65.000 L52.677,78.548 ZM59.000,55.594 L67.129,63.723 L67.129,69.516 L81.581,69.516 L81.581,49.645 L36.419,49.645 L36.419,69.516 L50.871,69.516 L50.871,63.723 L59.000,55.594 ZM85.194,38.807 L32.806,38.807 L32.806,44.226 L85.194,44.226 L85.194,38.807 ZM85.194,46.032 L32.806,46.032 L32.806,80.355 L50.871,80.355 L50.871,71.323 L34.613,71.323 L34.613,47.839 L83.387,47.839 L83.387,71.323 L67.129,71.323 L67.129,80.355 L85.194,80.355 L85.194,46.032 ZM83.387,74.936 L68.936,74.936 L68.936,73.129 L83.387,73.129 L83.387,74.936 ZM83.387,78.548 L68.936,78.548 L68.936,76.742 L83.387,76.742 L83.387,78.548 ZM49.065,74.936 L34.613,74.936 L34.613,73.129 L49.065,73.129 L49.065,74.936 ZM49.065,78.548 L34.613,78.548 L34.613,76.742 L49.065,76.742 L49.065,78.548 ZM36.419,42.419 L34.613,42.419 L34.613,40.613 L36.419,40.613 L36.419,42.419 ZM40.032,42.419 L38.226,42.419 L38.226,40.613 L40.032,40.613 L40.032,42.419 ZM43.645,42.419 L41.839,42.419 L41.839,40.613 L43.645,40.613 L43.645,42.419 ZM47.595,58.561 L48.498,56.997 L50.844,58.352 L49.941,59.916 L47.595,58.561 ZM49.065,65.000 L46.355,65.000 L46.355,63.194 L49.065,63.194 L49.065,65.000 ZM54.814,55.041 L53.250,55.944 L51.895,53.598 L53.460,52.695 L54.814,55.041 ZM59.903,54.161 L58.097,54.161 L58.097,51.452 L59.903,51.452 L59.903,54.161 ZM66.100,53.597 L64.746,55.944 L63.181,55.040 L64.536,52.694 L66.100,53.597 ZM70.407,58.557 L68.060,59.911 L67.157,58.347 L69.504,56.992 L70.407,58.557 ZM71.645,65.000 L68.936,65.000 L68.936,63.194 L71.645,63.194 L71.645,65.000 Z" class="cls-3"/>
  </g>
</svg>
