<svg xmlns="http://www.w3.org/2000/svg" xmlns:xlink="http://www.w3.org/1999/xlink" preserveAspectRatio="xMidYMid" width="121" height="121" viewBox="0 0 121 121">
  <defs>
    <style>
      .cls-1 {
        fill: #fff;
      }

      .cls-1, .cls-2, .cls-3 {
        fill-rule: evenodd;
      }

      .cls-2 {
        fill: #59d556;
      }

      .cls-3 {
        fill: #159e31;
      }
    </style>
  </defs>
  <g>
    <path d="M121.000,60.227 C121.000,57.361 120.173,54.582 118.607,52.193 C117.273,50.156 116.772,47.667 117.199,45.182 C117.667,42.456 117.352,39.661 116.290,37.096 C115.193,34.448 113.366,32.198 111.005,30.589 C109.020,29.236 107.594,27.083 106.992,24.525 C106.368,21.878 105.018,19.458 103.087,17.527 C101.092,15.533 98.588,14.163 95.842,13.566 C93.356,13.024 91.196,11.608 89.761,9.578 C88.165,7.319 85.965,5.563 83.400,4.501 C80.751,3.404 77.868,3.106 75.061,3.638 C72.669,4.090 70.177,3.599 68.045,2.255 C65.707,0.779 63.003,0.000 60.227,0.000 C57.360,0.000 54.582,0.827 52.192,2.392 C50.156,3.727 47.666,4.228 45.182,3.801 C42.457,3.333 39.661,3.647 37.095,4.710 C34.447,5.807 32.197,7.634 30.589,9.994 C29.236,11.979 27.082,13.405 24.525,14.008 C21.878,14.632 19.458,15.982 17.527,17.913 C15.533,19.906 14.163,22.412 13.565,25.158 C13.024,27.643 11.608,29.803 9.577,31.239 C7.318,32.835 5.563,35.034 4.500,37.600 C3.403,40.248 3.105,43.132 3.637,45.938 C4.090,48.331 3.600,50.823 2.255,52.953 C0.780,55.293 -0.000,57.996 -0.000,60.773 C-0.000,63.639 0.827,66.418 2.393,68.807 C3.727,70.844 4.228,73.334 3.801,75.818 C3.333,78.544 3.647,81.340 4.710,83.905 C5.807,86.553 7.634,88.803 9.994,90.411 C11.980,91.764 13.406,93.918 14.008,96.476 C14.632,99.123 15.982,101.542 17.913,103.472 C19.908,105.467 22.412,106.837 25.158,107.435 C27.644,107.976 29.804,109.392 31.239,111.423 C32.835,113.681 35.035,115.436 37.600,116.499 C40.249,117.597 43.132,117.895 45.939,117.363 C48.331,116.910 50.823,117.401 52.954,118.745 C55.293,120.220 57.997,120.999 60.773,120.999 C63.640,120.999 66.418,120.173 68.808,118.607 C70.845,117.273 73.334,116.772 75.818,117.199 C78.544,117.667 81.340,117.353 83.905,116.290 C86.553,115.193 88.803,113.366 90.411,111.005 C91.764,109.020 93.918,107.595 96.475,106.992 C99.122,106.368 101.542,105.018 103.473,103.087 C105.467,101.093 106.837,98.588 107.435,95.842 C107.976,93.356 109.392,91.196 111.423,89.761 C113.682,88.164 115.437,85.965 116.500,83.400 C117.597,80.751 117.895,77.868 117.363,75.061 C116.910,72.668 117.400,70.177 118.745,68.046 C120.220,65.707 121.000,63.003 121.000,60.227 Z" class="cls-1"/>
    <path d="M116.000,60.748 C116.000,58.094 115.234,55.522 113.785,53.311 C112.550,51.425 112.087,49.121 112.482,46.821 C112.915,44.298 112.624,41.711 111.640,39.336 C110.625,36.885 108.933,34.803 106.749,33.314 C104.911,32.061 103.592,30.068 103.034,27.701 C102.456,25.250 101.207,23.011 99.419,21.223 C97.573,19.378 95.255,18.109 92.714,17.557 C90.412,17.055 88.413,15.744 87.084,13.865 C85.607,11.774 83.571,10.149 81.197,9.166 C78.745,8.151 76.076,7.874 73.478,8.367 C71.264,8.786 68.957,8.332 66.984,7.087 C64.819,5.721 62.317,5.000 59.747,5.000 C57.094,5.000 54.522,5.766 52.310,7.214 C50.425,8.450 48.120,8.913 45.821,8.518 C43.299,8.085 40.711,8.376 38.336,9.360 C35.885,10.375 33.802,12.066 32.314,14.251 C31.061,16.088 29.068,17.408 26.700,17.966 C24.251,18.544 22.011,19.793 20.224,21.580 C18.378,23.426 17.110,25.745 16.556,28.286 C16.055,30.587 14.744,32.586 12.865,33.915 C10.774,35.393 9.149,37.428 8.166,39.803 C7.150,42.255 6.874,44.924 7.366,47.521 C7.786,49.736 7.332,52.043 6.087,54.015 C4.722,56.180 4.000,58.682 4.000,61.253 C4.000,63.906 4.766,66.477 6.215,68.689 C7.450,70.575 7.913,72.879 7.518,75.178 C7.085,77.702 7.376,80.290 8.360,82.664 C9.375,85.115 11.066,87.198 13.251,88.686 C15.089,89.939 16.408,91.932 16.966,94.300 C17.544,96.750 18.793,98.989 20.581,100.776 C22.427,102.622 24.745,103.891 27.286,104.444 C29.588,104.945 31.587,106.255 32.915,108.135 C34.393,110.226 36.429,111.850 38.803,112.834 C41.255,113.850 43.924,114.126 46.522,113.634 C48.736,113.214 51.043,113.669 53.016,114.912 C55.181,116.278 57.683,116.999 60.253,116.999 C62.906,116.999 65.478,116.234 67.690,114.785 C69.575,113.550 71.879,113.087 74.179,113.482 C76.702,113.915 79.290,113.624 81.664,112.640 C84.115,111.625 86.198,109.933 87.686,107.749 C88.939,105.911 90.933,104.592 93.300,104.034 C95.749,103.457 97.989,102.207 99.777,100.419 C101.622,98.573 102.890,96.255 103.444,93.713 C103.945,91.412 105.256,89.413 107.135,88.084 C109.226,86.607 110.851,84.571 111.834,82.196 C112.850,79.745 113.126,77.076 112.634,74.478 C112.214,72.263 112.668,69.957 113.913,67.984 C115.278,65.820 116.000,63.317 116.000,60.748 ZM110.139,65.604 C108.290,68.535 107.619,71.982 108.250,75.310 C108.580,77.051 108.394,78.843 107.712,80.489 C107.051,82.084 105.962,83.450 104.560,84.441 C101.768,86.415 99.823,89.371 99.084,92.765 C98.713,94.469 97.862,96.025 96.622,97.264 C95.421,98.465 93.919,99.304 92.276,99.691 C88.821,100.505 85.881,102.476 83.999,105.236 C83.001,106.702 81.603,107.836 79.956,108.518 C78.362,109.179 76.626,109.374 74.934,109.084 C71.518,108.498 68.077,109.197 65.244,111.053 C63.762,112.025 62.035,112.538 60.253,112.538 C58.527,112.538 56.847,112.054 55.396,111.139 C53.183,109.743 50.677,109.019 48.150,109.019 C47.329,109.019 46.506,109.095 45.691,109.250 C43.947,109.580 42.157,109.394 40.510,108.712 C38.915,108.051 37.549,106.961 36.558,105.560 C34.585,102.768 31.629,100.822 28.235,100.084 C26.531,99.713 24.975,98.862 23.735,97.621 C22.535,96.421 21.696,94.918 21.309,93.277 C20.494,89.821 18.525,86.882 15.763,84.999 C14.298,84.001 13.164,82.602 12.481,80.956 C11.821,79.361 11.625,77.625 11.915,75.934 C12.502,72.519 11.803,69.077 9.947,66.244 C8.975,64.762 8.462,63.035 8.462,61.253 C8.462,59.527 8.945,57.847 9.861,56.396 C11.709,53.465 12.380,50.018 11.750,46.691 C11.420,44.948 11.606,43.158 12.288,41.511 C12.948,39.916 14.038,38.550 15.440,37.558 C18.232,35.585 20.177,32.629 20.916,29.235 C21.287,27.531 22.138,25.976 23.378,24.736 C24.578,23.535 26.081,22.696 27.723,22.309 C31.179,21.495 34.118,19.525 36.000,16.764 C36.999,15.299 38.397,14.164 40.043,13.482 C41.638,12.821 43.374,12.625 45.066,12.916 C48.481,13.503 51.922,12.803 54.755,10.947 C56.238,9.976 57.964,9.462 59.747,9.462 C61.473,9.462 63.152,9.946 64.604,10.861 C67.535,12.710 70.982,13.380 74.310,12.750 C76.052,12.420 77.843,12.606 79.490,13.289 C81.085,13.949 82.451,15.039 83.441,16.440 C85.415,19.232 88.371,21.177 91.765,21.916 C93.469,22.287 95.025,23.139 96.265,24.379 C97.465,25.579 98.304,27.081 98.691,28.724 C99.506,32.179 101.475,35.119 104.236,37.001 C105.701,38.000 106.836,39.397 107.519,41.044 C108.179,42.638 108.375,44.375 108.084,46.066 C107.498,49.481 108.197,52.923 110.053,55.756 C111.025,57.239 111.538,58.965 111.538,60.747 C111.538,62.474 111.055,64.153 110.139,65.604 Z" class="cls-2"/>
    <path d="M86.037,85.000 L31.963,85.000 C31.431,85.000 31.001,84.569 31.001,84.038 C31.001,83.507 31.431,83.076 31.963,83.076 L38.503,83.076 L38.503,81.105 C38.503,76.591 39.707,73.107 42.081,70.750 C45.108,67.746 48.909,67.742 49.068,67.739 L53.881,67.739 L53.881,64.823 C53.881,64.772 53.886,64.723 53.894,64.674 C50.808,63.399 48.857,61.272 47.669,59.428 C45.818,56.554 45.400,53.788 45.383,53.671 C45.377,53.626 45.373,53.580 45.373,53.534 L45.373,53.333 C44.688,53.168 44.092,52.818 43.620,52.296 C42.257,50.788 42.337,48.408 42.434,47.456 C42.508,46.730 42.836,46.122 43.383,45.696 C43.789,45.379 44.268,45.203 44.726,45.108 C44.696,45.015 44.680,44.917 44.680,44.814 L44.680,38.516 C44.667,38.223 44.613,36.105 45.514,33.836 C46.414,31.573 48.450,28.737 53.041,28.080 C56.384,27.602 58.924,27.666 60.964,27.718 C63.891,27.791 65.505,27.833 67.029,26.286 C67.350,25.962 67.854,25.906 68.238,26.155 C68.620,26.403 68.777,26.886 68.611,27.311 C68.500,27.613 68.212,28.660 69.304,29.142 C71.996,30.329 73.305,32.444 73.305,35.609 L73.305,45.119 C73.746,45.216 74.204,45.391 74.594,45.696 C75.141,46.122 75.469,46.730 75.543,47.456 C75.588,47.897 75.629,48.643 75.525,49.467 C76.130,50.411 76.449,51.503 76.449,52.628 C76.449,55.759 73.983,58.326 70.890,58.488 C70.720,58.798 70.534,59.112 70.331,59.429 C69.143,61.272 67.192,63.399 64.106,64.674 C64.114,64.723 64.119,64.772 64.119,64.823 L64.119,67.739 L68.939,67.739 C69.086,67.740 72.891,67.745 75.919,70.750 C78.293,73.107 79.497,76.591 79.497,81.105 L79.497,83.076 L86.037,83.076 C86.569,83.076 86.999,83.507 86.999,84.038 C86.999,84.569 86.569,85.000 86.037,85.000 ZM45.373,46.952 C45.067,46.985 44.758,47.062 44.564,47.215 C44.472,47.287 44.374,47.395 44.348,47.651 C44.234,48.772 44.357,50.242 45.048,51.006 C45.147,51.115 45.255,51.204 45.373,51.278 L45.373,46.952 ZM73.629,47.651 C73.603,47.395 73.505,47.287 73.414,47.215 C73.224,47.066 72.925,46.989 72.627,46.954 L72.627,51.264 C72.736,51.193 72.837,51.108 72.929,51.006 C73.620,50.242 73.743,48.772 73.629,47.651 ZM74.525,52.628 C74.525,52.463 74.512,52.299 74.492,52.138 C74.449,52.191 74.404,52.244 74.357,52.296 C73.891,52.812 73.303,53.161 72.627,53.328 L72.627,53.534 C72.627,53.580 72.624,53.626 72.617,53.672 C72.607,53.744 72.440,54.842 71.871,56.354 C73.414,55.818 74.525,54.350 74.525,52.628 ZM55.805,68.719 C55.818,68.782 55.825,68.848 55.825,68.915 C55.825,70.666 57.249,72.090 59.000,72.090 C60.751,72.090 62.175,70.666 62.175,68.915 C62.175,68.848 62.182,68.782 62.195,68.719 C62.195,68.713 62.195,68.707 62.195,68.701 L62.195,65.306 C61.274,65.542 60.274,65.706 59.183,65.777 C59.163,65.778 59.142,65.779 59.121,65.779 L58.879,65.779 C58.858,65.779 58.837,65.778 58.817,65.777 C57.726,65.706 56.726,65.542 55.805,65.306 L55.805,68.701 C55.805,68.707 55.805,68.713 55.805,68.719 ZM54.383,71.078 L54.137,72.487 L55.450,73.289 C55.534,73.340 55.610,73.405 55.675,73.480 L56.358,74.268 L57.677,73.839 C56.218,73.446 55.016,72.422 54.383,71.078 ZM60.384,73.821 L61.755,74.268 L62.438,73.480 C62.503,73.405 62.579,73.341 62.664,73.289 L63.976,72.487 L63.699,70.896 C63.100,72.310 61.880,73.399 60.384,73.821 ZM60.354,83.076 L59.061,78.173 L57.768,83.076 L60.354,83.076 ZM52.575,73.787 C52.238,73.581 52.061,73.190 52.129,72.801 L52.677,69.663 L49.061,69.663 C48.705,69.663 40.427,69.795 40.427,81.105 L40.427,83.076 L55.802,83.076 C55.805,83.007 55.814,82.938 55.832,82.869 L57.680,75.861 L56.348,76.296 C56.250,76.327 56.149,76.343 56.049,76.343 C55.775,76.343 55.508,76.225 55.322,76.011 L54.319,74.853 L52.575,73.787 ZM71.380,41.523 L71.380,35.609 C71.380,33.192 70.527,31.784 68.527,30.902 C67.485,30.443 66.940,29.690 66.712,28.899 C65.059,29.746 63.224,29.700 60.915,29.641 C58.947,29.591 56.497,29.529 53.314,29.985 C46.299,30.988 46.587,38.137 46.603,38.441 C46.604,38.457 46.604,38.476 46.604,38.493 L46.604,41.566 L47.723,40.514 L47.723,38.277 C47.723,37.989 47.852,37.715 48.076,37.532 C48.327,37.327 50.769,35.525 59.015,35.525 C67.262,35.525 69.703,37.327 69.955,37.532 C70.178,37.715 70.308,37.989 70.308,38.277 L70.308,40.514 L71.380,41.523 ZM66.560,41.430 C67.312,41.430 68.000,41.480 68.614,41.554 C68.466,41.381 68.383,41.160 68.383,40.930 L68.383,38.829 C67.494,38.400 64.865,37.448 59.015,37.448 C53.165,37.448 50.536,38.400 49.647,38.829 L49.647,40.930 C49.647,41.156 49.567,41.372 49.425,41.544 C50.016,41.475 50.674,41.430 51.390,41.430 C53.049,41.430 54.707,41.670 56.320,42.141 C56.624,42.231 56.865,42.464 56.964,42.766 C56.984,42.827 57.220,43.569 57.294,44.548 C58.136,44.364 59.308,44.260 60.655,44.562 C60.728,43.576 60.966,42.828 60.986,42.766 C61.085,42.464 61.326,42.231 61.630,42.141 C63.243,41.670 64.901,41.430 66.560,41.430 ZM62.983,46.808 C63.370,47.369 64.047,47.668 65.052,47.721 C65.812,47.761 66.360,47.779 66.828,47.779 C69.291,47.779 70.174,47.592 70.399,43.864 C69.655,43.653 68.296,43.354 66.560,43.354 C65.262,43.354 63.963,43.519 62.692,43.845 C62.524,44.649 62.410,45.978 62.983,46.808 ZM55.258,43.845 C53.987,43.519 52.688,43.354 51.390,43.354 C49.640,43.354 48.290,43.651 47.551,43.862 C47.776,47.592 48.658,47.779 51.122,47.779 C51.590,47.779 52.138,47.761 52.897,47.721 C53.903,47.668 54.580,47.369 54.967,46.808 C55.540,45.978 55.426,44.651 55.258,43.845 ZM68.641,58.496 L63.157,58.496 C63.065,58.496 62.976,58.482 62.892,58.459 C62.634,58.793 62.229,59.010 61.773,59.010 L60.711,59.010 C59.929,59.010 59.296,58.376 59.296,57.595 C59.296,56.814 59.929,56.180 60.711,56.180 L61.773,56.180 C62.184,56.180 62.553,56.356 62.812,56.637 C62.919,56.595 63.035,56.572 63.157,56.572 L69.697,56.572 C70.400,55.017 70.651,53.743 70.702,53.455 L70.702,48.672 C69.848,49.413 68.602,49.703 66.828,49.703 C66.321,49.699 65.746,49.685 64.951,49.643 C63.443,49.563 62.303,49.048 61.557,48.113 L61.557,49.991 C61.557,50.024 61.555,50.057 61.552,50.090 C61.500,51.317 60.488,52.300 59.248,52.300 L58.752,52.300 C57.478,52.300 56.442,51.264 56.442,49.991 C56.442,49.460 56.873,49.029 57.405,49.029 C57.936,49.029 58.367,49.460 58.367,49.991 C58.367,50.203 58.539,50.376 58.752,50.376 L59.248,50.376 C59.460,50.376 59.633,50.203 59.633,49.991 L59.633,46.335 C58.501,46.198 57.605,46.419 57.140,46.580 C57.023,47.034 56.838,47.482 56.557,47.892 C55.819,48.968 54.622,49.557 52.999,49.643 C52.205,49.685 51.626,49.703 51.122,49.703 C49.381,49.703 48.151,49.423 47.297,48.712 L47.297,53.455 C47.367,53.849 47.820,56.136 49.325,58.446 C51.482,61.755 54.707,63.575 58.911,63.855 L59.089,63.855 C63.271,63.576 66.485,61.773 68.641,58.496 ZM77.573,81.105 C77.573,77.123 76.560,74.098 74.563,72.115 C72.117,69.687 69.023,69.663 68.947,69.663 C68.947,69.663 68.946,69.663 68.946,69.663 L68.946,69.663 L65.437,69.663 L65.985,72.801 C66.053,73.190 65.876,73.581 65.539,73.787 L63.795,74.853 L62.792,76.011 C62.606,76.226 62.339,76.343 62.064,76.343 C61.965,76.343 61.864,76.328 61.766,76.296 L60.442,75.864 L62.290,82.869 C62.308,82.938 62.318,83.007 62.320,83.076 L77.573,83.076 L77.573,81.105 ZM55.855,58.890 C55.751,58.890 55.646,58.873 55.542,58.838 C54.011,58.312 53.221,57.616 53.136,57.539 C52.743,57.181 52.715,56.572 53.073,56.180 C53.430,55.789 54.034,55.760 54.427,56.112 C54.449,56.131 55.033,56.628 56.168,57.018 C56.670,57.191 56.938,57.738 56.765,58.241 C56.628,58.639 56.254,58.890 55.855,58.890 ZM52.170,46.685 C51.536,46.685 51.022,46.171 51.022,45.537 C51.022,44.903 51.536,44.388 52.170,44.388 C52.804,44.388 53.318,44.903 53.318,45.537 C53.318,46.171 52.804,46.685 52.170,46.685 ZM66.978,45.537 C66.978,46.171 66.464,46.685 65.830,46.685 C65.196,46.685 64.682,46.171 64.682,45.537 C64.682,44.903 65.196,44.388 65.830,44.388 C66.464,44.388 66.978,44.903 66.978,45.537 Z" class="cls-3"/>
  </g>
</svg>
