<svg xmlns="http://www.w3.org/2000/svg" xmlns:xlink="http://www.w3.org/1999/xlink" preserveAspectRatio="xMidYMid" width="121" height="121" viewBox="0 0 121 121">
  <defs>
    <style>
      .cls-1 {
        fill: #fff;
      }

      .cls-1, .cls-2, .cls-3 {
        fill-rule: evenodd;
      }

      .cls-2 {
        fill: #59d556;
      }

      .cls-3 {
        fill: #159e31;
      }
    </style>
  </defs>
  <g>
    <path d="M121.000,60.227 C121.000,57.361 120.173,54.582 118.607,52.193 C117.273,50.155 116.772,47.667 117.199,45.182 C117.667,42.456 117.352,39.661 116.290,37.095 C115.193,34.448 113.366,32.197 111.005,30.589 C109.020,29.236 107.595,27.083 106.992,24.525 C106.368,21.877 105.018,19.458 103.087,17.527 C101.092,15.533 98.588,14.163 95.842,13.566 C93.356,13.024 91.196,11.608 89.761,9.578 C88.165,7.319 85.965,5.563 83.400,4.501 C80.751,3.404 77.868,3.106 75.061,3.637 C72.669,4.090 70.177,3.599 68.045,2.255 C65.707,0.779 63.003,0.000 60.227,0.000 C57.360,0.000 54.582,0.827 52.192,2.392 C50.156,3.727 47.666,4.228 45.182,3.801 C42.457,3.333 39.661,3.647 37.095,4.710 C34.447,5.807 32.197,7.634 30.589,9.994 C29.236,11.979 27.082,13.405 24.525,14.008 C21.878,14.632 19.458,15.982 17.527,17.913 C15.533,19.906 14.163,22.412 13.565,25.158 C13.024,27.643 11.608,29.803 9.577,31.239 C7.318,32.835 5.563,35.034 4.500,37.600 C3.403,40.249 3.105,43.132 3.637,45.938 C4.090,48.331 3.600,50.823 2.255,52.953 C0.780,55.293 -0.000,57.996 -0.000,60.773 C-0.000,63.639 0.827,66.418 2.393,68.807 C3.727,70.844 4.228,73.334 3.801,75.817 C3.333,78.544 3.647,81.340 4.710,83.905 C5.807,86.553 7.634,88.803 9.994,90.411 C11.980,91.764 13.405,93.918 14.008,96.475 C14.632,99.123 15.982,101.542 17.913,103.472 C19.907,105.467 22.412,106.837 25.158,107.434 C27.644,107.976 29.804,109.392 31.239,111.422 C32.835,113.681 35.035,115.436 37.600,116.499 C40.249,117.597 43.132,117.895 45.939,117.363 C48.331,116.910 50.823,117.401 52.954,118.745 C55.293,120.220 57.997,121.000 60.773,121.000 C63.640,121.000 66.418,120.173 68.808,118.607 C70.844,117.273 73.334,116.772 75.818,117.199 C78.544,117.666 81.340,117.353 83.905,116.290 C86.553,115.193 88.803,113.366 90.411,111.005 C91.764,109.020 93.918,107.595 96.475,106.992 C99.122,106.368 101.542,105.018 103.473,103.087 C105.467,101.093 106.837,98.588 107.435,95.842 C107.976,93.356 109.392,91.197 111.423,89.761 C113.682,88.164 115.437,85.965 116.500,83.400 C117.597,80.751 117.895,77.868 117.363,75.061 C116.910,72.668 117.401,70.177 118.745,68.045 C120.220,65.707 121.000,63.003 121.000,60.227 Z" class="cls-1"/>
    <path d="M117.000,60.748 C117.000,58.094 116.234,55.523 114.785,53.311 C113.550,51.425 113.086,49.121 113.482,46.822 C113.915,44.298 113.624,41.711 112.640,39.336 C111.625,36.886 109.933,34.802 107.749,33.314 C105.911,32.061 104.592,30.068 104.034,27.701 C103.456,25.250 102.207,23.011 100.419,21.223 C98.573,19.378 96.255,18.110 93.714,17.557 C91.412,17.055 89.413,15.744 88.084,13.865 C86.607,11.774 84.571,10.149 82.197,9.166 C79.745,8.151 77.076,7.875 74.478,8.367 C72.264,8.786 69.957,8.332 67.984,7.087 C65.819,5.722 63.317,5.000 60.747,5.000 C58.094,5.000 55.522,5.766 53.310,7.215 C51.425,8.450 49.120,8.913 46.821,8.518 C44.299,8.085 41.711,8.375 39.336,9.359 C36.885,10.375 34.802,12.066 33.314,14.251 C32.061,16.089 30.068,17.408 27.700,17.966 C25.251,18.543 23.011,19.793 21.223,21.580 C19.378,23.426 18.110,25.745 17.556,28.286 C17.055,30.587 15.744,32.586 13.865,33.915 C11.774,35.393 10.149,37.428 9.166,39.803 C8.150,42.255 7.874,44.923 8.366,47.521 C8.786,49.736 8.332,52.043 7.087,54.015 C5.722,56.180 5.000,58.682 5.000,61.252 C5.000,63.906 5.766,66.478 7.215,68.689 C8.450,70.574 8.913,72.879 8.518,75.178 C8.085,77.702 8.376,80.290 9.360,82.664 C10.375,85.115 12.066,87.198 14.251,88.686 C16.089,89.938 17.408,91.932 17.966,94.299 C18.544,96.750 19.793,98.989 21.581,100.776 C23.427,102.622 25.745,103.891 28.286,104.444 C30.588,104.945 32.587,106.256 33.915,108.135 C35.393,110.226 37.429,111.850 39.803,112.834 C42.255,113.850 44.924,114.126 47.522,113.634 C49.736,113.214 52.043,113.668 54.016,114.912 C56.181,116.278 58.683,116.999 61.253,116.999 C63.906,116.999 66.478,116.234 68.690,114.785 C70.575,113.550 72.879,113.086 75.179,113.482 C77.702,113.915 80.290,113.624 82.664,112.640 C85.115,111.625 87.198,109.934 88.686,107.749 C89.939,105.911 91.933,104.592 94.300,104.034 C96.749,103.456 98.989,102.207 100.777,100.419 C102.622,98.573 103.890,96.255 104.444,93.713 C104.945,91.412 106.256,89.413 108.135,88.085 C110.226,86.607 111.851,84.571 112.834,82.197 C113.850,79.745 114.126,77.076 113.634,74.478 C113.214,72.263 113.668,69.957 114.913,67.984 C116.278,65.820 117.000,63.317 117.000,60.748 ZM111.139,65.604 C109.290,68.535 108.619,71.982 109.250,75.310 C109.580,77.052 109.394,78.843 108.712,80.489 C108.051,82.084 106.962,83.450 105.560,84.441 C102.768,86.415 100.823,89.371 100.084,92.765 C99.713,94.469 98.862,96.025 97.622,97.264 C96.421,98.465 94.919,99.304 93.276,99.691 C89.821,100.505 86.881,102.476 84.999,105.236 C84.001,106.702 82.603,107.836 80.956,108.518 C79.362,109.179 77.626,109.374 75.934,109.084 C72.518,108.498 69.077,109.197 66.244,111.053 C64.762,112.024 63.035,112.538 61.253,112.538 C59.527,112.538 57.847,112.054 56.396,111.139 C54.183,109.743 51.677,109.019 49.150,109.019 C48.329,109.019 47.506,109.095 46.691,109.250 C44.947,109.579 43.157,109.394 41.510,108.712 C39.915,108.051 38.549,106.962 37.558,105.560 C35.585,102.768 32.629,100.823 29.235,100.084 C27.531,99.713 25.975,98.862 24.735,97.621 C23.535,96.421 22.695,94.918 22.309,93.277 C21.494,89.821 19.525,86.882 16.763,84.999 C15.298,84.001 14.164,82.603 13.481,80.956 C12.821,79.361 12.625,77.625 12.915,75.934 C13.502,72.519 12.803,69.077 10.947,66.245 C9.975,64.761 9.462,63.035 9.462,61.253 C9.462,59.527 9.945,57.847 10.861,56.396 C12.709,53.465 13.380,50.019 12.750,46.691 C12.420,44.948 12.606,43.158 13.288,41.511 C13.948,39.916 15.038,38.550 16.440,37.559 C19.232,35.585 21.177,32.629 21.916,29.235 C22.287,27.531 23.138,25.976 24.378,24.736 C25.578,23.535 27.081,22.696 28.723,22.309 C32.179,21.495 35.118,19.525 37.000,16.764 C37.999,15.298 39.397,14.164 41.043,13.482 C42.638,12.821 44.374,12.626 46.066,12.917 C49.481,13.502 52.922,12.803 55.755,10.947 C57.238,9.976 58.964,9.462 60.747,9.462 C62.473,9.462 64.152,9.946 65.604,10.861 C68.535,12.710 71.982,13.381 75.310,12.750 C77.052,12.420 78.843,12.606 80.490,13.289 C82.085,13.949 83.451,15.039 84.441,16.440 C86.415,19.233 89.371,21.177 92.765,21.916 C94.469,22.287 96.025,23.139 97.265,24.379 C98.465,25.578 99.304,27.082 99.691,28.723 C100.506,32.179 102.475,35.119 105.236,37.001 C106.701,37.999 107.836,39.397 108.519,41.044 C109.179,42.638 109.375,44.375 109.084,46.066 C108.498,49.481 109.197,52.923 111.053,55.755 C112.025,57.239 112.538,58.965 112.538,60.747 C112.538,62.474 112.054,64.153 111.139,65.604 Z" class="cls-2"/>
    <path d="M73.323,78.742 L73.323,84.726 C73.323,87.083 71.405,89.000 69.048,89.000 C66.692,89.000 64.774,87.083 64.774,84.726 L64.774,78.742 L57.295,78.742 C58.754,80.024 59.645,81.886 59.645,83.871 L59.645,89.000 L54.516,89.000 L54.516,83.871 C54.516,82.928 53.749,82.161 52.806,82.161 C51.864,82.161 51.097,82.928 51.097,83.871 L51.097,89.000 L45.968,89.000 L45.968,83.871 C45.968,81.886 46.858,80.024 48.318,78.742 L34.000,78.742 L34.000,36.000 L87.000,36.000 L87.000,78.742 L73.323,78.742 ZM66.484,84.726 C66.484,86.140 67.634,87.290 69.048,87.290 C70.462,87.290 71.613,86.140 71.613,84.726 L71.613,71.903 L69.903,71.903 L69.903,74.468 L68.194,74.468 L68.194,71.903 L66.484,71.903 L66.484,84.726 ZM70.685,54.525 L70.057,51.387 L68.040,51.387 L67.411,54.525 L68.194,55.308 L68.194,70.194 L69.903,70.194 L69.903,55.308 L70.685,54.525 ZM66.484,70.194 L66.484,56.015 L65.555,55.088 L66.638,49.677 L71.459,49.677 L72.540,55.088 L71.613,56.015 L71.613,70.194 L75.032,70.194 L75.032,71.903 L73.323,71.903 L73.323,73.613 L81.871,73.613 L81.871,47.968 L39.129,47.968 L39.129,73.613 L49.387,73.613 L49.387,60.722 C47.294,59.508 45.968,57.243 45.968,54.806 L45.968,49.677 L51.097,49.677 L51.097,54.806 C51.097,55.749 51.864,56.516 52.806,56.516 C53.749,56.516 54.516,55.749 54.516,54.806 L54.516,49.677 L59.645,49.677 L59.645,54.806 C59.645,57.243 58.319,59.508 56.226,60.722 L56.226,73.613 L64.774,73.613 L64.774,71.903 L63.064,71.903 L63.064,70.194 L66.484,70.194 ZM64.774,77.032 L64.774,75.323 L56.226,75.323 L56.226,77.032 L64.774,77.032 ZM47.677,83.871 L47.677,87.290 L49.387,87.290 L49.387,83.871 C49.387,81.985 50.921,80.452 52.806,80.452 C54.692,80.452 56.226,81.985 56.226,83.871 L56.226,87.290 L57.935,87.290 L57.935,83.871 C57.935,81.906 56.785,80.090 55.003,79.243 L54.516,79.011 L54.516,59.667 L55.003,59.434 C56.785,58.587 57.935,56.771 57.935,54.806 L57.935,51.387 L56.226,51.387 L56.226,54.806 C56.226,56.692 54.692,58.226 52.806,58.226 C50.921,58.226 49.387,56.692 49.387,54.806 L49.387,51.387 L47.677,51.387 L47.677,54.806 C47.677,56.771 48.828,58.587 50.610,59.435 L51.097,59.667 L51.097,79.010 L50.610,79.243 C48.828,80.090 47.677,81.906 47.677,83.871 ZM85.290,37.710 L35.710,37.710 L35.710,42.839 L85.290,42.839 L85.290,37.710 ZM85.290,44.548 L35.710,44.548 L35.710,77.032 L49.387,77.032 L49.387,75.323 L37.419,75.323 L37.419,46.258 L83.581,46.258 L83.581,75.323 L73.323,75.323 L73.323,77.032 L85.290,77.032 L85.290,44.548 ZM39.129,41.129 L37.419,41.129 L37.419,39.419 L39.129,39.419 L39.129,41.129 ZM42.548,41.129 L40.839,41.129 L40.839,39.419 L42.548,39.419 L42.548,41.129 ZM45.968,41.129 L44.258,41.129 L44.258,39.419 L45.968,39.419 L45.968,41.129 ZM75.032,64.210 L73.323,64.210 L73.323,62.500 L75.032,62.500 L75.032,64.210 ZM78.452,64.210 L76.742,64.210 L76.742,62.500 L78.452,62.500 L78.452,64.210 ZM42.548,62.500 L44.258,62.500 L44.258,64.210 L42.548,64.210 L42.548,62.500 ZM47.677,64.210 L45.968,64.210 L45.968,62.500 L47.677,62.500 L47.677,64.210 ZM69.903,77.887 L68.194,77.887 L68.194,76.177 L69.903,76.177 L69.903,77.887 Z" class="cls-3"/>
  </g>
</svg>
