<svg xmlns="http://www.w3.org/2000/svg" xmlns:xlink="http://www.w3.org/1999/xlink" preserveAspectRatio="xMidYMid" width="121" height="121" viewBox="0 0 121 121">
  <defs>
    <style>
      .cls-1 {
        fill: #fff;
      }

      .cls-1, .cls-2, .cls-3 {
        fill-rule: evenodd;
      }

      .cls-2 {
        fill: #59d556;
      }

      .cls-3 {
        fill: #159e31;
      }
    </style>
  </defs>
  <g>
    <path d="M121.000,60.227 C121.000,57.361 120.173,54.582 118.607,52.193 C117.273,50.155 116.772,47.667 117.199,45.182 C117.667,42.456 117.352,39.661 116.290,37.095 C115.193,34.448 113.366,32.197 111.005,30.589 C109.020,29.236 107.594,27.083 106.992,24.525 C106.368,21.877 105.018,19.458 103.087,17.527 C101.092,15.533 98.588,14.163 95.842,13.566 C93.356,13.024 91.196,11.608 89.761,9.578 C88.165,7.319 85.965,5.563 83.400,4.501 C80.751,3.404 77.868,3.106 75.061,3.637 C72.669,4.090 70.177,3.599 68.045,2.255 C65.707,0.779 63.003,0.000 60.227,0.000 C57.360,0.000 54.582,0.827 52.192,2.392 C50.156,3.727 47.666,4.228 45.182,3.801 C42.457,3.333 39.661,3.647 37.095,4.710 C34.447,5.807 32.197,7.634 30.589,9.994 C29.236,11.979 27.082,13.405 24.525,14.008 C21.878,14.632 19.458,15.982 17.527,17.913 C15.533,19.906 14.163,22.412 13.565,25.158 C13.024,27.643 11.608,29.803 9.577,31.239 C7.318,32.835 5.563,35.034 4.500,37.600 C3.403,40.249 3.105,43.132 3.637,45.938 C4.090,48.331 3.600,50.823 2.255,52.953 C0.780,55.293 -0.000,57.996 -0.000,60.773 C-0.000,63.639 0.827,66.418 2.393,68.807 C3.727,70.844 4.228,73.334 3.801,75.817 C3.333,78.544 3.647,81.340 4.710,83.905 C5.807,86.553 7.634,88.803 9.994,90.411 C11.980,91.764 13.406,93.918 14.008,96.475 C14.632,99.123 15.982,101.542 17.913,103.472 C19.908,105.467 22.412,106.837 25.158,107.434 C27.644,107.976 29.804,109.392 31.239,111.422 C32.835,113.681 35.035,115.436 37.600,116.499 C40.249,117.597 43.132,117.895 45.939,117.363 C48.331,116.910 50.823,117.401 52.954,118.745 C55.293,120.220 57.997,121.000 60.773,121.000 C63.640,121.000 66.418,120.173 68.808,118.607 C70.845,117.273 73.334,116.772 75.818,117.199 C78.544,117.666 81.340,117.353 83.905,116.290 C86.553,115.193 88.803,113.366 90.411,111.005 C91.764,109.020 93.918,107.595 96.475,106.992 C99.122,106.368 101.542,105.018 103.473,103.087 C105.467,101.093 106.837,98.588 107.435,95.842 C107.976,93.356 109.392,91.197 111.423,89.761 C113.682,88.164 115.437,85.965 116.500,83.400 C117.597,80.751 117.895,77.868 117.363,75.061 C116.910,72.668 117.400,70.177 118.745,68.045 C120.220,65.707 121.000,63.003 121.000,60.227 Z" class="cls-1"/>
    <path d="M116.000,60.748 C116.000,58.094 115.234,55.523 113.785,53.311 C112.550,51.425 112.087,49.121 112.482,46.822 C112.915,44.298 112.624,41.711 111.640,39.336 C110.625,36.886 108.933,34.802 106.749,33.314 C104.911,32.061 103.592,30.068 103.034,27.701 C102.456,25.250 101.207,23.011 99.419,21.223 C97.573,19.378 95.255,18.110 92.714,17.557 C90.412,17.055 88.413,15.744 87.084,13.865 C85.607,11.774 83.571,10.149 81.197,9.166 C78.745,8.151 76.076,7.875 73.478,8.367 C71.264,8.786 68.957,8.332 66.984,7.087 C64.819,5.722 62.317,5.000 59.747,5.000 C57.094,5.000 54.522,5.766 52.310,7.215 C50.425,8.450 48.120,8.913 45.821,8.518 C43.299,8.085 40.711,8.375 38.336,9.359 C35.885,10.375 33.802,12.066 32.314,14.251 C31.061,16.089 29.068,17.408 26.700,17.966 C24.251,18.543 22.011,19.793 20.224,21.580 C18.378,23.426 17.110,25.745 16.556,28.286 C16.055,30.587 14.744,32.586 12.865,33.915 C10.774,35.393 9.149,37.428 8.166,39.803 C7.150,42.255 6.874,44.923 7.366,47.521 C7.786,49.736 7.332,52.043 6.087,54.015 C4.722,56.180 4.000,58.682 4.000,61.252 C4.000,63.906 4.766,66.478 6.215,68.689 C7.450,70.574 7.913,72.879 7.518,75.178 C7.085,77.702 7.376,80.290 8.360,82.664 C9.375,85.115 11.066,87.198 13.251,88.686 C15.089,89.938 16.408,91.932 16.966,94.299 C17.544,96.750 18.793,98.989 20.581,100.776 C22.427,102.622 24.745,103.891 27.286,104.444 C29.588,104.945 31.587,106.256 32.915,108.135 C34.393,110.226 36.429,111.850 38.803,112.834 C41.255,113.850 43.924,114.126 46.522,113.634 C48.736,113.214 51.043,113.668 53.016,114.912 C55.181,116.278 57.683,116.999 60.253,116.999 C62.906,116.999 65.478,116.234 67.690,114.785 C69.575,113.550 71.879,113.086 74.179,113.482 C76.702,113.915 79.290,113.624 81.664,112.640 C84.115,111.625 86.198,109.934 87.686,107.749 C88.939,105.911 90.933,104.592 93.300,104.034 C95.749,103.456 97.989,102.207 99.777,100.419 C101.622,98.573 102.890,96.255 103.444,93.713 C103.945,91.412 105.256,89.413 107.135,88.085 C109.226,86.607 110.851,84.571 111.834,82.197 C112.850,79.745 113.126,77.076 112.634,74.478 C112.214,72.263 112.668,69.957 113.913,67.984 C115.278,65.820 116.000,63.317 116.000,60.748 ZM110.139,65.604 C108.290,68.535 107.619,71.982 108.250,75.310 C108.580,77.052 108.394,78.843 107.712,80.489 C107.051,82.084 105.962,83.450 104.560,84.441 C101.768,86.415 99.823,89.371 99.084,92.765 C98.713,94.469 97.862,96.025 96.622,97.264 C95.421,98.465 93.919,99.304 92.276,99.691 C88.821,100.505 85.881,102.476 83.999,105.236 C83.001,106.702 81.603,107.836 79.956,108.518 C78.362,109.179 76.626,109.374 74.934,109.084 C71.518,108.498 68.077,109.197 65.244,111.053 C63.762,112.024 62.035,112.538 60.253,112.538 C58.527,112.538 56.847,112.054 55.396,111.139 C53.183,109.743 50.677,109.019 48.150,109.019 C47.329,109.019 46.506,109.095 45.691,109.250 C43.947,109.579 42.157,109.394 40.510,108.712 C38.915,108.051 37.549,106.962 36.558,105.560 C34.585,102.768 31.629,100.823 28.235,100.084 C26.531,99.713 24.975,98.862 23.735,97.621 C22.535,96.421 21.696,94.918 21.309,93.277 C20.494,89.821 18.525,86.882 15.763,84.999 C14.298,84.001 13.164,82.603 12.481,80.956 C11.821,79.361 11.625,77.625 11.915,75.934 C12.502,72.519 11.803,69.077 9.947,66.245 C8.975,64.761 8.462,63.035 8.462,61.253 C8.462,59.527 8.945,57.847 9.861,56.396 C11.709,53.465 12.380,50.019 11.750,46.691 C11.420,44.948 11.606,43.158 12.288,41.511 C12.948,39.916 14.038,38.550 15.440,37.559 C18.232,35.585 20.177,32.629 20.916,29.235 C21.287,27.531 22.138,25.976 23.378,24.736 C24.578,23.535 26.081,22.696 27.723,22.309 C31.179,21.495 34.118,19.525 36.000,16.764 C36.999,15.298 38.397,14.164 40.043,13.482 C41.638,12.821 43.374,12.626 45.066,12.917 C48.481,13.502 51.922,12.803 54.755,10.947 C56.238,9.976 57.964,9.462 59.747,9.462 C61.473,9.462 63.152,9.946 64.604,10.861 C67.535,12.710 70.982,13.381 74.310,12.750 C76.052,12.420 77.843,12.606 79.490,13.289 C81.085,13.949 82.451,15.039 83.441,16.440 C85.415,19.233 88.371,21.177 91.765,21.916 C93.469,22.287 95.025,23.139 96.265,24.379 C97.465,25.578 98.304,27.082 98.691,28.723 C99.506,32.179 101.475,35.119 104.236,37.001 C105.701,37.999 106.836,39.397 107.519,41.044 C108.179,42.638 108.375,44.375 108.084,46.066 C107.498,49.481 108.197,52.923 110.053,55.755 C111.025,57.239 111.538,58.965 111.538,60.747 C111.538,62.474 111.055,64.153 110.139,65.604 Z" class="cls-2"/>
    <path d="M85.290,85.000 L69.032,85.000 L63.613,85.000 L54.581,85.000 L44.645,85.000 L44.645,83.192 L48.258,83.192 L48.258,79.577 L36.516,79.577 C34.026,79.577 32.000,77.550 32.000,75.058 L32.000,42.519 C32.000,40.027 34.026,38.000 36.516,38.000 L83.484,38.000 C85.974,38.000 88.000,40.027 88.000,42.519 L88.000,47.942 L88.000,49.750 L88.000,82.288 C88.000,83.783 86.784,85.000 85.290,85.000 ZM53.677,82.288 C53.677,82.787 54.083,83.192 54.581,83.192 L63.613,83.192 L69.032,83.192 C69.530,83.192 69.936,82.787 69.936,82.288 L69.936,81.385 L53.677,81.385 L53.677,82.288 ZM53.677,79.577 L69.936,79.577 L69.936,57.885 L53.677,57.885 L53.677,79.577 ZM53.677,56.077 L69.936,56.077 L69.936,55.173 C69.936,54.674 69.530,54.269 69.032,54.269 L54.581,54.269 C54.083,54.269 53.677,54.674 53.677,55.173 L53.677,56.077 ZM54.581,52.461 L60.903,52.461 L60.903,47.942 C60.903,46.447 62.119,45.231 63.613,45.231 L82.581,45.231 L82.581,43.423 L37.419,43.423 L37.419,57.885 L51.871,57.885 L51.871,55.173 C51.871,53.678 53.087,52.461 54.581,52.461 ZM51.871,63.308 L48.258,63.308 L48.258,68.731 L51.871,68.731 L51.871,63.308 ZM50.065,83.192 L52.037,83.192 C51.936,82.909 51.871,82.607 51.871,82.288 L51.871,79.577 L50.065,79.577 L50.065,83.192 ZM33.807,75.058 C33.807,76.553 35.022,77.769 36.516,77.769 L51.871,77.769 L51.871,74.154 L33.807,74.154 L33.807,75.058 ZM86.194,42.519 C86.194,41.024 84.978,39.808 83.484,39.808 L36.516,39.808 C35.022,39.808 33.807,41.024 33.807,42.519 L33.807,72.346 L51.871,72.346 L51.871,70.539 L46.452,70.539 L46.452,61.500 L51.871,61.500 L51.871,59.692 L35.613,59.692 L35.613,41.615 L84.387,41.615 L84.387,45.231 L85.290,45.231 C85.608,45.231 85.910,45.296 86.194,45.397 L86.194,42.519 ZM86.194,47.942 C86.194,47.443 85.788,47.038 85.290,47.038 L63.613,47.038 C63.115,47.038 62.710,47.443 62.710,47.942 L62.710,48.846 L86.194,48.846 L86.194,47.942 ZM86.194,50.654 L62.710,50.654 L62.710,52.461 L69.032,52.461 C70.526,52.461 71.742,53.678 71.742,55.173 L71.742,74.154 L84.387,74.154 L84.387,75.962 L71.742,75.962 L71.742,77.769 L86.194,77.769 L86.194,50.654 ZM86.194,79.577 L71.742,79.577 L71.742,82.288 C71.742,82.607 71.677,82.909 71.576,83.192 L85.290,83.192 C85.788,83.192 86.194,82.787 86.194,82.288 L86.194,79.577 ZM73.548,63.308 L84.387,63.308 L84.387,72.346 L73.548,72.346 L73.548,63.308 ZM75.355,70.539 L82.581,70.539 L82.581,65.115 L75.355,65.115 L75.355,70.539 ZM73.548,52.461 L84.387,52.461 L84.387,61.500 L73.548,61.500 L73.548,52.461 ZM75.355,59.692 L82.581,59.692 L82.581,54.269 L75.355,54.269 L75.355,59.692 ZM44.645,63.308 L35.613,63.308 L35.613,61.500 L44.645,61.500 L44.645,63.308 ZM44.645,66.923 L35.613,66.923 L35.613,65.115 L44.645,65.115 L44.645,66.923 ZM44.645,70.539 L35.613,70.539 L35.613,68.731 L44.645,68.731 L44.645,70.539 ZM55.484,75.962 L68.129,75.962 L68.129,77.769 L55.484,77.769 L55.484,75.962 ZM55.484,72.346 L68.129,72.346 L68.129,74.154 L55.484,74.154 L55.484,72.346 ZM55.484,59.692 L68.129,59.692 L68.129,70.539 L55.484,70.539 L55.484,59.692 ZM57.290,68.731 L66.323,68.731 L66.323,61.500 L57.290,61.500 L57.290,68.731 Z" class="cls-3"/>
  </g>
</svg>
