<svg xmlns="http://www.w3.org/2000/svg" xmlns:xlink="http://www.w3.org/1999/xlink" preserveAspectRatio="xMidYMid" width="121" height="121" viewBox="0 0 121 121">
  <defs>
    <style>
      .cls-1 {
        fill: #fff;
      }

      .cls-1, .cls-2, .cls-3 {
        fill-rule: evenodd;
      }

      .cls-2 {
        fill: #59d556;
      }

      .cls-3 {
        fill: #159e31;
      }
    </style>
  </defs>
  <g>
    <path d="M121.000,60.227 C121.000,57.361 120.173,54.582 118.607,52.193 C117.273,50.155 116.772,47.667 117.199,45.182 C117.667,42.456 117.352,39.661 116.290,37.095 C115.193,34.448 113.366,32.197 111.005,30.589 C109.020,29.236 107.594,27.083 106.992,24.525 C106.368,21.877 105.018,19.458 103.087,17.527 C101.092,15.533 98.588,14.163 95.842,13.566 C93.356,13.024 91.196,11.608 89.761,9.578 C88.165,7.319 85.965,5.563 83.400,4.501 C80.751,3.404 77.868,3.106 75.061,3.637 C72.669,4.090 70.177,3.599 68.045,2.255 C65.707,0.779 63.003,0.000 60.227,0.000 C57.360,0.000 54.582,0.827 52.192,2.392 C50.156,3.727 47.666,4.228 45.182,3.801 C42.457,3.333 39.661,3.647 37.095,4.710 C34.447,5.807 32.197,7.634 30.589,9.994 C29.236,11.979 27.082,13.405 24.525,14.008 C21.878,14.632 19.458,15.982 17.527,17.913 C15.533,19.906 14.163,22.412 13.565,25.158 C13.024,27.643 11.608,29.803 9.577,31.239 C7.318,32.835 5.563,35.034 4.500,37.600 C3.403,40.249 3.105,43.132 3.636,45.938 C4.090,48.331 3.599,50.823 2.255,52.953 C0.780,55.293 -0.000,57.996 -0.000,60.773 C-0.000,63.639 0.827,66.418 2.393,68.807 C3.727,70.844 4.228,73.334 3.801,75.817 C3.333,78.544 3.647,81.340 4.710,83.905 C5.807,86.553 7.634,88.803 9.995,90.411 C11.980,91.764 13.405,93.918 14.008,96.475 C14.632,99.123 15.982,101.542 17.913,103.472 C19.908,105.467 22.412,106.837 25.158,107.434 C27.644,107.976 29.804,109.392 31.239,111.422 C32.835,113.681 35.035,115.436 37.600,116.499 C40.249,117.597 43.132,117.895 45.939,117.363 C48.331,116.910 50.823,117.401 52.954,118.745 C55.293,120.220 57.997,121.000 60.773,121.000 C63.640,121.000 66.418,120.173 68.808,118.607 C70.844,117.273 73.334,116.772 75.818,117.199 C78.544,117.666 81.340,117.353 83.905,116.290 C86.553,115.193 88.803,113.366 90.411,111.005 C91.764,109.020 93.918,107.595 96.475,106.992 C99.122,106.368 101.542,105.018 103.473,103.087 C105.467,101.093 106.837,98.588 107.435,95.842 C107.976,93.356 109.392,91.197 111.423,89.761 C113.682,88.164 115.437,85.965 116.500,83.400 C117.597,80.751 117.895,77.868 117.363,75.061 C116.910,72.668 117.400,70.177 118.745,68.045 C120.220,65.707 121.000,63.003 121.000,60.227 Z" class="cls-1"/>
    <path d="M116.000,60.748 C116.000,58.094 115.234,55.523 113.785,53.311 C112.550,51.425 112.087,49.121 112.482,46.822 C112.915,44.298 112.624,41.711 111.640,39.336 C110.625,36.886 108.933,34.802 106.749,33.314 C104.911,32.061 103.592,30.068 103.034,27.701 C102.456,25.250 101.207,23.011 99.419,21.223 C97.573,19.378 95.255,18.110 92.714,17.557 C90.412,17.055 88.413,15.744 87.084,13.865 C85.607,11.774 83.571,10.149 81.197,9.166 C78.745,8.151 76.076,7.875 73.478,8.367 C71.264,8.786 68.957,8.332 66.984,7.087 C64.820,5.722 62.317,5.000 59.747,5.000 C57.094,5.000 54.522,5.766 52.310,7.215 C50.425,8.450 48.120,8.913 45.821,8.518 C43.299,8.085 40.711,8.375 38.336,9.359 C35.885,10.375 33.803,12.066 32.314,14.251 C31.061,16.089 29.068,17.408 26.701,17.966 C24.251,18.543 22.011,19.793 20.224,21.580 C18.378,23.426 17.110,25.745 16.556,28.286 C16.055,30.587 14.744,32.586 12.865,33.915 C10.774,35.393 9.149,37.428 8.166,39.803 C7.150,42.255 6.874,44.923 7.366,47.521 C7.786,49.736 7.332,52.043 6.087,54.015 C4.722,56.180 4.000,58.682 4.000,61.252 C4.000,63.906 4.766,66.478 6.215,68.689 C7.450,70.574 7.913,72.879 7.518,75.178 C7.085,77.702 7.376,80.290 8.360,82.664 C9.375,85.115 11.066,87.198 13.251,88.686 C15.089,89.938 16.408,91.932 16.966,94.299 C17.544,96.750 18.793,98.989 20.581,100.776 C22.427,102.622 24.745,103.891 27.286,104.444 C29.588,104.945 31.587,106.256 32.915,108.135 C34.393,110.226 36.429,111.850 38.803,112.834 C41.255,113.850 43.924,114.126 46.522,113.634 C48.736,113.214 51.043,113.668 53.016,114.912 C55.181,116.278 57.683,116.999 60.253,116.999 C62.906,116.999 65.478,116.234 67.690,114.785 C69.575,113.550 71.879,113.086 74.179,113.482 C76.702,113.915 79.290,113.624 81.664,112.640 C84.115,111.625 86.198,109.934 87.686,107.749 C88.939,105.911 90.933,104.592 93.300,104.034 C95.749,103.456 97.989,102.207 99.777,100.419 C101.622,98.573 102.891,96.255 103.444,93.713 C103.945,91.412 105.256,89.413 107.135,88.085 C109.226,86.607 110.851,84.571 111.834,82.197 C112.850,79.745 113.126,77.076 112.634,74.478 C112.214,72.263 112.668,69.957 113.913,67.984 C115.278,65.820 116.000,63.317 116.000,60.748 ZM110.139,65.604 C108.290,68.535 107.619,71.982 108.250,75.310 C108.580,77.052 108.394,78.843 107.712,80.489 C107.051,82.084 105.962,83.450 104.560,84.441 C101.768,86.415 99.823,89.371 99.084,92.765 C98.713,94.469 97.862,96.025 96.622,97.264 C95.421,98.465 93.919,99.304 92.276,99.691 C88.821,100.505 85.881,102.476 83.999,105.236 C83.001,106.702 81.603,107.836 79.957,108.518 C78.362,109.179 76.626,109.374 74.934,109.084 C71.518,108.498 68.077,109.197 65.244,111.053 C63.762,112.024 62.035,112.538 60.253,112.538 C58.527,112.538 56.847,112.054 55.396,111.139 C53.183,109.743 50.677,109.019 48.150,109.019 C47.329,109.019 46.506,109.095 45.691,109.250 C43.947,109.579 42.157,109.394 40.510,108.712 C38.915,108.051 37.549,106.962 36.559,105.560 C34.585,102.768 31.629,100.823 28.235,100.084 C26.531,99.713 24.975,98.862 23.735,97.621 C22.535,96.421 21.696,94.918 21.309,93.277 C20.494,89.821 18.525,86.882 15.764,84.999 C14.298,84.001 13.164,82.603 12.481,80.956 C11.821,79.361 11.625,77.625 11.915,75.934 C12.502,72.519 11.803,69.077 9.947,66.245 C8.975,64.761 8.462,63.035 8.462,61.253 C8.462,59.527 8.945,57.847 9.861,56.396 C11.709,53.465 12.380,50.019 11.750,46.691 C11.420,44.948 11.606,43.158 12.288,41.511 C12.948,39.916 14.038,38.550 15.440,37.559 C18.232,35.585 20.177,32.629 20.916,29.235 C21.287,27.531 22.138,25.976 23.378,24.736 C24.578,23.535 26.081,22.696 27.723,22.309 C31.179,21.495 34.118,19.525 36.000,16.764 C36.999,15.298 38.397,14.164 40.043,13.482 C41.638,12.821 43.374,12.626 45.066,12.917 C48.481,13.502 51.922,12.803 54.755,10.947 C56.238,9.976 57.964,9.462 59.747,9.462 C61.473,9.462 63.152,9.946 64.604,10.861 C67.535,12.710 70.982,13.381 74.310,12.750 C76.052,12.420 77.843,12.606 79.490,13.289 C81.085,13.949 82.451,15.039 83.441,16.440 C85.415,19.233 88.371,21.177 91.765,21.916 C93.469,22.287 95.025,23.139 96.265,24.379 C97.465,25.578 98.304,27.082 98.691,28.723 C99.506,32.179 101.475,35.119 104.237,37.001 C105.701,37.999 106.836,39.397 107.519,41.044 C108.179,42.638 108.375,44.375 108.084,46.066 C107.498,49.481 108.197,52.923 110.053,55.755 C111.025,57.239 111.538,58.965 111.538,60.747 C111.538,62.474 111.055,64.153 110.139,65.604 Z" class="cls-2"/>
    <path d="M82.039,81.290 L81.215,83.350 C81.051,83.760 80.968,84.191 80.968,84.633 L80.968,88.000 L79.290,88.000 L79.290,84.633 C79.290,83.977 79.414,83.335 79.657,82.726 L80.720,80.069 C80.885,79.660 80.968,79.228 80.968,78.786 L80.968,69.968 C80.968,69.274 80.403,68.710 79.710,68.710 C79.016,68.710 78.452,69.274 78.452,69.968 L78.452,70.387 L76.774,70.387 L76.774,68.290 C76.774,67.597 76.210,67.032 75.516,67.032 C74.823,67.032 74.258,67.597 74.258,68.290 L74.258,70.387 L72.581,70.387 L72.581,68.290 C72.581,67.597 72.016,67.032 71.323,67.032 C70.629,67.032 70.065,67.597 70.065,68.290 L70.065,70.387 L68.387,70.387 L68.387,54.032 C68.387,53.339 67.823,52.774 67.129,52.774 C66.435,52.774 65.871,53.339 65.871,54.032 L65.871,73.742 L64.194,73.742 L64.194,68.710 L63.609,68.710 C63.060,68.710 62.530,68.871 62.072,69.175 C61.300,69.690 60.839,70.551 60.839,71.480 L60.839,79.512 C60.839,80.421 61.208,81.311 61.851,81.956 C62.821,82.926 63.355,84.215 63.355,85.585 L63.355,88.000 L61.677,88.000 L61.677,85.585 C61.677,84.676 61.308,83.786 60.664,83.141 C60.132,82.608 59.736,81.977 59.483,81.290 L34.000,81.290 L34.000,36.000 L86.000,36.000 L86.000,81.290 L82.039,81.290 ZM67.129,51.097 C68.748,51.097 70.065,52.413 70.065,54.032 L70.065,54.451 L71.742,54.451 L71.742,49.419 L62.516,49.419 L62.516,54.451 L64.194,54.451 L64.194,54.032 C64.194,52.413 65.510,51.097 67.129,51.097 ZM84.323,37.677 L35.677,37.677 L35.677,42.710 L84.323,42.710 L84.323,37.677 ZM84.323,44.387 L35.677,44.387 L35.677,79.613 L59.166,79.613 C59.165,79.579 59.161,79.546 59.161,79.512 L59.161,72.903 L55.806,72.903 L55.806,76.258 L43.226,76.258 L43.226,72.903 L37.355,72.903 L37.355,71.226 L43.226,71.226 L43.226,67.871 L55.806,67.871 L55.806,71.226 L59.177,71.226 C59.257,69.834 59.973,68.559 61.142,67.780 C61.875,67.291 62.728,67.032 63.609,67.032 L64.194,67.032 L64.194,62.839 L55.806,62.839 L55.806,66.194 L43.226,66.194 L43.226,62.839 L37.355,62.839 L37.355,61.161 L43.226,61.161 L43.226,57.806 L55.806,57.806 L55.806,61.161 L64.194,61.161 L64.194,56.129 L60.839,56.129 L60.839,52.774 L37.355,52.774 L37.355,51.097 L60.839,51.097 L60.839,47.742 L73.419,47.742 L73.419,51.097 L82.645,51.097 L82.645,52.774 L73.419,52.774 L73.419,56.129 L70.065,56.129 L70.065,61.161 L82.645,61.161 L82.645,62.839 L70.065,62.839 L70.065,65.638 C70.446,65.457 70.873,65.355 71.323,65.355 C72.144,65.355 72.886,65.693 73.419,66.238 C73.953,65.693 74.695,65.355 75.516,65.355 C76.820,65.355 77.928,66.209 78.310,67.388 C78.726,67.161 79.203,67.032 79.710,67.032 C81.328,67.032 82.645,68.349 82.645,69.968 L82.645,78.786 C82.645,79.065 82.611,79.340 82.566,79.613 L84.323,79.613 L84.323,44.387 ZM54.129,74.581 L54.129,69.549 L44.903,69.549 L44.903,74.581 L54.129,74.581 ZM54.129,64.516 L54.129,59.484 L44.903,59.484 L44.903,64.516 L54.129,64.516 ZM39.032,41.032 L37.355,41.032 L37.355,39.355 L39.032,39.355 L39.032,41.032 ZM42.387,41.032 L40.710,41.032 L40.710,39.355 L42.387,39.355 L42.387,41.032 ZM45.742,41.032 L44.065,41.032 L44.065,39.355 L45.742,39.355 L45.742,41.032 Z" class="cls-3"/>
  </g>
</svg>
