<svg xmlns="http://www.w3.org/2000/svg" xmlns:xlink="http://www.w3.org/1999/xlink" preserveAspectRatio="xMidYMid" width="24" height="24" viewBox="0 0 24 24">
  <defs>
    <style>
      .cls-1 {
        fill: #fff;
        fill-rule: evenodd;
      }
    </style>
  </defs>
  <path d="M22.343,9.680 L17.094,14.931 C15.988,16.038 14.534,16.592 13.080,16.592 C11.627,16.592 10.173,16.038 9.067,14.931 C8.726,14.591 8.726,14.037 9.067,13.696 C9.408,13.355 9.961,13.355 10.302,13.696 C11.834,15.228 14.327,15.228 15.860,13.696 L21.107,8.445 C21.846,7.706 22.253,6.719 22.253,5.665 C22.253,4.611 21.846,3.624 21.107,2.885 C20.369,2.147 19.382,1.740 18.329,1.740 C17.276,1.740 16.289,2.147 15.550,2.885 L11.537,6.900 C11.196,7.241 10.643,7.241 10.302,6.900 C9.961,6.559 9.961,6.006 10.302,5.664 L14.316,1.649 C16.529,-0.563 20.130,-0.564 22.343,1.649 C23.411,2.718 24.000,4.145 24.000,5.665 C24.000,7.185 23.411,8.612 22.343,9.680 ZM14.624,9.371 C14.965,9.712 14.965,10.265 14.624,10.606 C14.283,10.947 13.730,10.947 13.389,10.606 C12.651,9.868 11.664,9.461 10.611,9.461 C9.557,9.461 8.570,9.868 7.832,10.606 L2.892,15.548 C1.360,17.081 1.360,19.575 2.892,21.108 C3.630,21.847 4.618,22.254 5.671,22.254 C6.724,22.254 7.711,21.847 8.449,21.108 L11.846,17.711 C12.187,17.370 12.739,17.370 13.080,17.711 C13.421,18.052 13.421,18.605 13.080,18.946 L9.684,22.343 C8.616,23.413 7.190,24.002 5.670,24.002 C4.151,24.002 2.725,23.413 1.657,22.343 C0.589,21.275 0.000,19.849 0.000,18.329 C0.000,16.808 0.589,15.382 1.657,14.314 L6.597,9.371 C8.811,7.157 12.411,7.158 14.624,9.371 Z" class="cls-1"/>
</svg>
