<svg xmlns="http://www.w3.org/2000/svg" xmlns:xlink="http://www.w3.org/1999/xlink" preserveAspectRatio="xMidYMid" width="35" height="35" viewBox="0 0 35 35">
  <defs>
    <style>
      .cls-1 {
        fill: #59d556;
        filter: url(#color-overlay-1);
        fill-rule: evenodd;
      }
    </style>

    <filter id="color-overlay-1" filterUnits="userSpaceOnUse">
      <feFlood flood-color="#fff"/>
      <feComposite operator="in" in2="SourceGraphic"/>
      <feBlend in2="SourceGraphic" result="solidFill"/>
    </filter>
  </defs>
  <path d="M29.866,5.127 C26.561,1.822 22.169,-0.000 17.496,-0.000 C12.823,-0.000 8.431,1.822 5.127,5.127 C1.822,8.433 0.000,12.826 0.000,17.500 C0.000,22.174 1.822,26.567 5.127,29.872 C8.431,33.178 12.823,35.000 17.496,35.000 C20.211,35.000 22.688,34.496 24.653,33.552 C26.518,32.652 27.872,31.363 28.469,29.930 C29.182,28.209 28.779,26.416 27.368,25.004 L27.317,24.954 C27.339,24.925 27.368,24.903 27.389,24.882 C28.398,23.823 28.398,22.433 27.375,21.410 L24.884,18.919 C24.394,18.415 23.804,18.141 23.177,18.141 C22.551,18.141 21.953,18.407 21.449,18.911 L20.153,20.208 C20.088,20.172 20.031,20.143 19.966,20.114 C19.808,20.035 19.664,19.963 19.541,19.884 C18.224,19.049 17.028,17.954 15.884,16.550 C15.380,15.916 15.034,15.376 14.775,14.842 C15.099,14.540 15.401,14.230 15.696,13.928 C15.819,13.798 15.948,13.676 16.078,13.547 C17.136,12.488 17.136,11.119 16.078,10.061 L14.847,8.829 C14.703,8.685 14.566,8.549 14.429,8.404 C14.156,8.123 13.875,7.835 13.572,7.554 C13.083,7.072 12.500,6.820 11.880,6.820 C11.261,6.820 10.671,7.072 10.167,7.554 C10.159,7.562 10.159,7.562 10.152,7.569 L8.604,9.118 C7.985,9.736 7.625,10.500 7.553,11.379 C7.445,12.747 7.841,14.014 8.151,14.842 C8.892,16.845 10.001,18.702 11.650,20.690 C13.652,23.081 16.064,24.975 18.821,26.308 C19.880,26.812 21.298,27.402 22.897,27.510 C22.997,27.517 23.098,27.517 23.199,27.517 C24.315,27.517 25.258,27.114 25.993,26.315 C26.000,26.308 26.014,26.293 26.021,26.286 C26.043,26.257 26.072,26.228 26.101,26.200 L26.144,26.243 C27.065,27.165 27.317,28.216 26.871,29.289 C26.043,31.255 22.825,33.272 17.496,33.272 C8.799,33.272 1.728,26.200 1.728,17.500 C1.728,8.800 8.799,1.728 17.496,1.728 C26.194,1.728 33.265,8.800 33.265,17.500 C33.265,18.933 33.070,20.345 32.696,21.706 C32.566,22.167 32.840,22.642 33.301,22.772 C33.762,22.901 34.237,22.628 34.366,22.167 C34.784,20.654 35.000,19.084 35.000,17.500 C34.993,12.826 33.171,8.433 29.866,5.127 ZM24.711,25.141 C24.301,25.580 23.840,25.774 23.199,25.774 C23.134,25.774 23.069,25.774 23.005,25.767 C21.709,25.681 20.485,25.170 19.570,24.731 C17.043,23.506 14.825,21.771 12.982,19.567 C11.463,17.737 10.447,16.045 9.771,14.230 C9.367,13.136 9.216,12.300 9.274,11.508 C9.317,11.040 9.490,10.658 9.828,10.327 L11.376,8.786 C11.499,8.671 11.686,8.534 11.887,8.534 C12.089,8.534 12.262,8.664 12.370,8.779 C12.377,8.786 12.384,8.793 12.391,8.800 C12.665,9.052 12.924,9.319 13.198,9.600 C13.342,9.744 13.486,9.895 13.630,10.039 L14.861,11.270 C15.243,11.652 15.243,11.933 14.861,12.315 C14.732,12.445 14.602,12.574 14.472,12.704 C14.091,13.086 13.738,13.453 13.349,13.798 C13.335,13.806 13.328,13.820 13.313,13.835 C12.773,14.374 12.960,14.936 13.018,15.123 C13.025,15.145 13.032,15.160 13.040,15.181 C13.371,15.981 13.832,16.730 14.537,17.622 L14.544,17.630 C15.812,19.192 17.144,20.402 18.620,21.338 C18.814,21.461 19.009,21.561 19.196,21.655 C19.354,21.734 19.498,21.807 19.620,21.886 C19.642,21.900 19.671,21.915 19.700,21.929 C19.887,22.023 20.074,22.065 20.261,22.065 C20.578,22.065 20.873,21.936 21.125,21.677 L22.673,20.128 C22.796,20.006 22.976,19.862 23.177,19.862 C23.365,19.862 23.537,19.999 23.645,20.114 C23.653,20.121 23.653,20.121 23.660,20.128 L26.151,22.620 C26.504,22.973 26.504,23.297 26.137,23.679 L26.129,23.686 C25.964,23.866 25.784,24.039 25.589,24.227 C25.301,24.507 24.999,24.802 24.711,25.141 Z" class="cls-1"/>
</svg>
