<svg xmlns="http://www.w3.org/2000/svg" xmlns:xlink="http://www.w3.org/1999/xlink" preserveAspectRatio="xMidYMid" width="10.657" height="19.25" viewBox="0 0 10.657 19.25">
  <defs>
    <style>
      .cls-1 {
        fill: #59d556;
        fill-rule: evenodd;
      }
    </style>
  </defs>
  <path d="M10.259,0.012 L7.698,0.007 C4.822,0.007 2.963,1.867 2.963,4.745 L2.963,6.929 L0.389,6.929 C0.166,6.929 -0.014,7.105 -0.014,7.322 L-0.014,10.486 C-0.014,10.703 0.166,10.879 0.389,10.879 L2.963,10.879 L2.963,18.865 C2.963,19.081 3.143,19.257 3.366,19.257 L6.724,19.257 C6.947,19.257 7.127,19.081 7.127,18.865 L7.127,10.879 L10.137,10.879 C10.359,10.879 10.539,10.703 10.539,10.486 L10.540,7.322 C10.540,7.218 10.498,7.118 10.422,7.044 C10.347,6.971 10.244,6.929 10.138,6.929 L7.127,6.929 L7.127,5.077 C7.127,4.187 7.344,3.735 8.533,3.735 L10.258,3.735 C10.480,3.735 10.661,3.559 10.661,3.343 L10.661,0.404 C10.661,0.187 10.481,0.012 10.259,0.012 Z" class="cls-1"/>
</svg>
