<svg xmlns="http://www.w3.org/2000/svg" xmlns:xlink="http://www.w3.org/1999/xlink" preserveAspectRatio="xMidYMid" width="19.218" height="19.25" viewBox="0 0 19.218 19.25">
  <defs>
    <style>
      .cls-1 {
        fill: #59d556;
        fill-rule: evenodd;
      }
    </style>
  </defs>
  <path d="M2.462,-0.008 L16.759,-0.008 C18.117,-0.008 19.228,0.998 19.228,2.463 L19.228,16.775 C19.228,18.239 18.117,19.246 16.759,19.246 L2.462,19.246 C1.103,19.246 -0.008,18.239 -0.008,16.775 L-0.008,2.463 C-0.008,0.998 1.103,-0.008 2.462,-0.008 L2.462,-0.008 ZM14.005,2.131 C13.529,2.131 13.139,2.521 13.139,2.998 L13.139,5.073 C13.139,5.550 13.529,5.940 14.005,5.940 L16.179,5.940 C16.655,5.940 17.045,5.550 17.045,5.073 L17.045,2.998 C17.045,2.521 16.655,2.131 16.179,2.131 L14.005,2.131 L14.005,2.131 ZM17.054,8.134 L15.361,8.134 C15.521,8.658 15.608,9.213 15.608,9.786 C15.608,12.989 12.931,15.585 9.629,15.585 C6.327,15.585 3.650,12.989 3.650,9.786 C3.650,9.212 3.736,8.658 3.897,8.134 L2.130,8.134 L2.130,16.267 C2.130,16.688 2.474,17.033 2.895,17.033 L16.290,17.033 C16.710,17.033 17.055,16.688 17.055,16.267 L17.055,8.134 L17.054,8.134 ZM9.629,5.830 C7.495,5.830 5.765,7.508 5.765,9.577 C5.765,11.647 7.495,13.324 9.629,13.324 C11.762,13.324 13.492,11.647 13.492,9.577 C13.492,7.508 11.762,5.830 9.629,5.830 Z" class="cls-1"/>
</svg>
