<svg xmlns="http://www.w3.org/2000/svg" xmlns:xlink="http://www.w3.org/1999/xlink" preserveAspectRatio="xMidYMid" width="120" height="120" viewBox="0 0 120 120">
  <defs>
    <style>
      .cls-1 {
        fill: #fff;
      }

      .cls-1, .cls-2, .cls-3 {
        fill-rule: evenodd;
      }

      .cls-2 {
        fill: #159e31;
      }

      .cls-3 {
        fill: #59d556;
      }
    </style>
  </defs>
  <g>
    <path d="M120.000,59.730 C120.000,56.887 119.179,54.132 117.627,51.761 C116.303,49.742 115.807,47.273 116.230,44.809 C116.694,42.105 116.383,39.333 115.329,36.789 C114.241,34.163 112.429,31.931 110.088,30.336 C108.119,28.994 106.705,26.858 106.108,24.322 C105.489,21.697 104.150,19.298 102.235,17.382 C100.257,15.405 97.773,14.046 95.050,13.453 C92.584,12.916 90.442,11.512 89.019,9.498 C87.436,7.259 85.255,5.517 82.711,4.464 C80.084,3.376 77.225,3.079 74.441,3.607 C72.068,4.056 69.597,3.570 67.483,2.236 C65.164,0.773 62.483,-0.000 59.729,-0.000 C56.886,-0.000 54.131,0.820 51.761,2.373 C49.741,3.696 47.272,4.193 44.809,3.769 C42.106,3.305 39.333,3.617 36.789,4.670 C34.163,5.759 31.931,7.571 30.336,9.911 C28.994,11.880 26.858,13.294 24.322,13.892 C21.697,14.511 19.297,15.849 17.382,17.765 C15.405,19.742 14.046,22.227 13.453,24.949 C12.916,27.415 11.512,29.557 9.498,30.980 C7.258,32.564 5.517,34.744 4.463,37.289 C3.375,39.916 3.079,42.775 3.606,45.559 C4.056,47.932 3.570,50.403 2.236,52.516 C0.773,54.835 -0.000,57.517 -0.000,60.271 C-0.000,63.113 0.821,65.869 2.373,68.238 C3.697,70.259 4.193,72.727 3.770,75.191 C3.306,77.894 3.617,80.667 4.671,83.211 C5.759,85.837 7.571,88.069 9.912,89.664 C11.881,91.005 13.295,93.141 13.892,95.678 C14.511,98.303 15.850,100.703 17.765,102.617 C19.743,104.595 22.227,105.954 24.950,106.547 C27.416,107.083 29.558,108.488 30.981,110.502 C32.564,112.741 34.745,114.482 37.289,115.537 C39.916,116.625 42.776,116.921 45.559,116.393 C47.932,115.943 50.403,116.430 52.517,117.763 C54.836,119.227 57.518,120.000 60.271,120.000 C63.114,120.000 65.869,119.180 68.239,117.627 C70.259,116.303 72.728,115.807 75.191,116.230 C77.895,116.694 80.667,116.383 83.211,115.329 C85.838,114.241 88.069,112.429 89.664,110.088 C91.006,108.119 93.142,106.705 95.678,106.107 C98.303,105.489 100.703,104.150 102.618,102.235 C104.595,100.257 105.954,97.773 106.547,95.050 C107.084,92.584 108.488,90.443 110.502,89.019 C112.742,87.435 114.483,85.254 115.537,82.710 C116.625,80.084 116.921,77.224 116.393,74.440 C115.944,72.068 116.430,69.597 117.764,67.483 C119.227,65.164 120.000,62.483 120.000,59.730 Z" class="cls-1"/>
    <path d="M86.340,71.269 C86.158,71.402 85.943,71.469 85.729,71.469 C85.518,71.469 85.308,71.405 85.128,71.276 C84.815,71.054 77.458,65.735 77.458,59.094 C77.458,54.545 81.168,50.844 85.729,50.844 C90.290,50.844 94.000,54.545 94.000,59.094 C94.000,65.601 86.652,71.041 86.340,71.269 ZM85.729,52.906 C82.308,52.906 79.525,55.682 79.525,59.094 C79.525,63.665 84.053,67.768 85.722,69.126 C87.390,67.745 91.932,63.571 91.932,59.094 C91.932,55.682 89.149,52.906 85.729,52.906 ZM85.729,63.219 C83.448,63.219 81.593,61.369 81.593,59.094 C81.593,56.819 83.448,54.969 85.729,54.969 C86.300,54.969 86.763,55.431 86.763,56.000 C86.763,56.570 86.300,57.031 85.729,57.031 C84.589,57.031 83.661,57.957 83.661,59.094 C83.661,60.231 84.589,61.157 85.729,61.157 C86.869,61.157 87.797,60.231 87.797,59.094 C87.797,58.524 88.260,58.063 88.830,58.063 C89.402,58.063 89.864,58.524 89.864,59.094 C89.864,61.369 88.009,63.219 85.729,63.219 ZM84.717,48.641 C84.554,48.736 84.376,48.780 84.200,48.780 C83.844,48.780 83.496,48.595 83.305,48.265 C83.204,48.092 83.099,47.921 82.995,47.750 L79.053,47.750 C79.417,48.648 79.748,49.579 80.042,50.542 C80.209,51.086 79.901,51.662 79.355,51.828 C79.254,51.859 79.153,51.874 79.053,51.874 C78.610,51.874 78.200,51.587 78.064,51.143 C77.702,49.958 77.282,48.826 76.809,47.750 L69.118,47.750 C69.792,51.610 70.162,55.890 70.213,60.125 L75.390,60.125 C75.961,60.125 76.424,60.587 76.424,61.157 C76.424,61.726 75.961,62.188 75.390,62.188 L70.213,62.188 C70.166,66.049 69.855,69.948 69.289,73.532 L77.231,73.532 C77.786,72.138 78.249,70.677 78.606,69.169 C78.737,68.614 79.294,68.272 79.849,68.402 C80.405,68.533 80.749,69.089 80.618,69.643 C80.300,70.987 79.910,72.285 79.453,73.532 L83.596,73.532 C83.658,73.417 83.720,73.304 83.781,73.189 C84.048,72.685 84.673,72.493 85.178,72.759 C85.683,73.026 85.876,73.649 85.609,74.153 C80.755,83.311 71.292,89.000 60.915,89.000 C53.459,89.000 46.449,86.104 41.176,80.845 C35.904,75.586 33.000,68.593 33.000,61.157 C33.000,55.981 34.456,50.916 37.151,46.550 C37.197,46.268 37.357,46.025 37.583,45.870 C38.153,45.003 38.773,44.166 39.442,43.363 C39.807,42.926 40.459,42.866 40.898,43.230 C41.337,43.594 41.397,44.244 41.032,44.682 C40.758,45.011 40.494,45.346 40.237,45.688 L44.134,45.688 C44.290,45.651 44.454,45.649 44.615,45.688 L53.106,45.688 C54.000,41.496 55.295,37.894 56.982,35.674 C56.299,35.778 55.620,35.907 54.949,36.065 C54.394,36.196 53.836,35.853 53.705,35.299 C53.574,34.744 53.918,34.188 54.474,34.058 C56.572,33.563 58.740,33.313 60.915,33.313 C65.902,33.313 70.797,34.641 75.070,37.153 C78.756,39.319 81.901,42.314 84.248,45.870 C84.471,46.024 84.630,46.264 84.678,46.541 C84.820,46.770 84.959,46.999 85.094,47.232 C85.380,47.726 85.211,48.356 84.717,48.641 ZM82.334,75.594 L78.614,75.594 C77.255,78.622 75.469,81.283 73.321,83.452 C73.071,83.703 72.819,83.946 72.563,84.181 C76.456,82.223 79.833,79.289 82.334,75.594 ZM71.850,82.002 C73.594,80.241 75.108,78.057 76.317,75.594 L68.928,75.594 C68.069,80.054 66.789,83.870 65.113,86.277 C67.525,85.505 69.807,84.065 71.850,82.002 ZM49.222,84.145 C48.144,83.147 47.129,82.005 46.190,80.724 C45.041,79.156 44.048,77.434 43.219,75.594 L39.511,75.594 C41.963,79.199 45.306,82.155 49.222,84.145 ZM38.246,73.532 L42.375,73.532 C41.087,70.033 40.360,66.183 40.253,62.188 L35.090,62.188 C35.253,66.284 36.377,70.140 38.246,73.532 ZM38.838,47.750 C36.567,51.474 35.266,55.740 35.089,60.125 L40.252,60.125 C40.370,55.771 41.237,51.543 42.783,47.750 L38.838,47.750 ZM53.829,56.061 C53.795,56.630 53.306,57.064 52.735,57.029 C52.165,56.995 51.731,56.507 51.765,55.938 C51.932,53.157 52.247,50.370 52.706,47.750 L45.028,47.750 C43.375,51.492 42.447,55.736 42.321,60.125 L44.373,60.125 C44.944,60.125 45.407,60.587 45.407,61.157 C45.407,61.726 44.944,62.188 44.373,62.188 L42.321,62.188 C42.438,66.284 43.248,70.140 44.593,73.532 L45.407,73.532 C45.978,73.532 46.441,73.993 46.441,74.562 C46.441,75.100 46.028,75.541 45.502,75.589 C48.099,80.895 52.085,84.795 56.730,86.280 C56.071,85.339 55.411,84.095 54.780,82.457 C54.576,81.925 54.842,81.329 55.375,81.125 C55.908,80.921 56.506,81.186 56.711,81.718 C57.987,85.035 59.520,86.937 60.915,86.937 C62.582,86.937 64.399,84.274 65.776,79.812 C66.177,78.512 66.530,77.098 66.834,75.594 L62.983,75.594 C62.412,75.594 61.949,75.132 61.949,74.562 C61.949,73.993 62.412,73.531 62.983,73.531 L67.210,73.531 C67.777,70.066 68.099,66.208 68.146,62.187 L62.983,62.187 C62.412,62.187 61.949,61.726 61.949,61.157 C61.949,60.587 62.412,60.125 62.983,60.125 L68.146,60.125 C68.094,55.701 67.710,51.474 67.032,47.750 L54.802,47.750 C54.338,50.307 54.006,53.118 53.829,56.061 ZM60.915,35.375 C59.492,35.375 57.877,37.441 56.595,40.901 C56.074,42.308 55.612,43.921 55.218,45.688 L66.614,45.688 C66.363,44.565 66.084,43.499 65.776,42.500 C64.399,38.039 62.582,35.375 60.915,35.375 ZM65.114,36.037 C66.659,38.257 67.867,41.673 68.720,45.688 L75.802,45.688 C73.172,40.825 69.387,37.404 65.114,36.037 ZM74.020,38.930 C73.558,38.658 73.087,38.402 72.610,38.161 C74.770,40.150 76.648,42.694 78.127,45.688 L81.592,45.688 C79.543,42.969 76.969,40.663 74.020,38.930 ZM54.289,79.519 C54.107,79.653 53.892,79.719 53.678,79.719 C53.467,79.719 53.257,79.654 53.077,79.527 C52.764,79.303 45.407,73.985 45.407,67.343 C45.407,62.795 49.117,59.094 53.678,59.094 C58.239,59.094 61.949,62.795 61.949,67.343 C61.949,73.850 54.601,79.291 54.289,79.519 ZM53.678,61.157 C50.257,61.157 47.475,63.932 47.475,67.343 C47.475,71.915 52.002,76.018 53.671,77.376 C55.339,75.995 59.881,71.821 59.881,67.343 C59.881,63.932 57.098,61.157 53.678,61.157 ZM53.678,71.469 C51.398,71.469 49.542,69.618 49.542,67.343 C49.542,65.069 51.398,63.219 53.678,63.219 C54.249,63.219 54.712,63.680 54.712,64.250 C54.712,64.820 54.249,65.281 53.678,65.281 C52.538,65.281 51.610,66.207 51.610,67.343 C51.610,68.481 52.538,69.406 53.678,69.406 C54.818,69.406 55.746,68.481 55.746,67.343 C55.746,66.774 56.209,66.313 56.780,66.313 C57.351,66.313 57.814,66.774 57.814,67.343 C57.814,69.618 55.958,71.469 53.678,71.469 ZM44.984,43.426 C44.802,43.559 44.587,43.625 44.373,43.625 C44.162,43.625 43.952,43.561 43.772,43.433 C43.459,43.210 36.102,37.892 36.102,31.250 C36.102,26.701 39.812,23.000 44.373,23.000 C48.934,23.000 52.644,26.701 52.644,31.250 C52.644,37.757 45.296,43.197 44.984,43.426 ZM44.373,25.062 C40.952,25.062 38.169,27.838 38.169,31.250 C38.169,35.821 42.697,39.925 44.366,41.282 C46.034,39.901 50.576,35.728 50.576,31.250 C50.576,27.838 47.793,25.062 44.373,25.062 ZM40.237,31.250 C40.237,28.975 42.092,27.125 44.373,27.125 C44.944,27.125 45.407,27.587 45.407,28.156 C45.407,28.726 44.944,29.188 44.373,29.188 C43.233,29.188 42.305,30.113 42.305,31.250 C42.305,32.387 43.233,33.313 44.373,33.313 C45.513,33.313 46.441,32.387 46.441,31.250 C46.441,30.681 46.904,30.219 47.475,30.219 C48.045,30.219 48.508,30.681 48.508,31.250 C48.508,33.525 46.653,35.375 44.373,35.375 C42.092,35.375 40.237,33.525 40.237,31.250 Z" class="cls-2"/>
    <path d="M116.000,59.748 C116.000,57.094 115.234,54.523 113.785,52.311 C112.550,50.425 112.087,48.121 112.482,45.822 C112.915,43.298 112.624,40.711 111.640,38.336 C110.625,35.885 108.933,33.802 106.749,32.314 C104.911,31.061 103.592,29.068 103.034,26.701 C102.456,24.250 101.207,22.011 99.419,20.223 C97.573,18.378 95.255,17.109 92.714,16.556 C90.412,16.055 88.413,14.744 87.084,12.865 C85.607,10.774 83.571,9.149 81.197,8.166 C78.745,7.151 76.076,6.874 73.478,7.367 C71.264,7.786 68.957,7.332 66.984,6.088 C64.820,4.722 62.317,4.000 59.747,4.000 C57.094,4.000 54.522,4.766 52.310,6.215 C50.425,7.450 48.120,7.913 45.821,7.518 C43.299,7.085 40.711,7.376 38.336,8.360 C35.885,9.375 33.803,11.066 32.314,13.251 C31.061,15.088 29.068,16.408 26.701,16.966 C24.251,17.543 22.011,18.793 20.224,20.580 C18.378,22.426 17.110,24.745 16.556,27.286 C16.055,29.587 14.744,31.586 12.865,32.915 C10.774,34.393 9.149,36.428 8.166,38.803 C7.150,41.254 6.874,43.924 7.366,46.521 C7.786,48.736 7.332,51.043 6.087,53.015 C4.722,55.180 4.000,57.683 4.000,60.252 C4.000,62.906 4.766,65.477 6.215,67.689 C7.450,69.575 7.913,71.879 7.518,74.178 C7.085,76.701 7.376,79.290 8.360,81.664 C9.375,84.115 11.066,86.198 13.251,87.686 C15.089,88.938 16.408,90.932 16.966,93.299 C17.544,95.750 18.793,97.989 20.581,99.776 C22.427,101.623 24.745,102.891 27.286,103.443 C29.588,103.945 31.587,105.256 32.915,107.135 C34.393,109.226 36.429,110.850 38.803,111.834 C41.255,112.850 43.924,113.126 46.522,112.634 C48.736,112.214 51.043,112.668 53.016,113.912 C55.181,115.278 57.683,115.999 60.253,115.999 C62.906,115.999 65.478,115.234 67.690,113.785 C69.575,112.550 71.879,112.087 74.179,112.481 C76.702,112.914 79.290,112.624 81.664,111.640 C84.115,110.625 86.198,108.934 87.686,106.749 C88.939,104.911 90.933,103.592 93.300,103.034 C95.749,102.457 97.989,101.207 99.777,99.419 C101.622,97.573 102.891,95.255 103.444,92.713 C103.945,90.412 105.256,88.413 107.135,87.084 C109.226,85.607 110.851,83.571 111.834,81.196 C112.850,78.745 113.126,76.076 112.634,73.478 C112.214,71.263 112.668,68.957 113.913,66.984 C115.278,64.820 116.000,62.317 116.000,59.748 ZM110.139,64.604 C108.290,67.535 107.619,70.982 108.250,74.310 C108.580,76.052 108.394,77.843 107.712,79.489 C107.051,81.084 105.962,82.450 104.560,83.441 C101.768,85.415 99.823,88.371 99.084,91.765 C98.713,93.469 97.862,95.025 96.622,96.264 C95.421,97.465 93.919,98.304 92.276,98.691 C88.821,99.505 85.881,101.476 83.999,104.236 C83.001,105.702 81.603,106.836 79.957,107.518 C78.362,108.179 76.626,108.374 74.934,108.084 C71.518,107.498 68.077,108.197 65.244,110.053 C63.762,111.024 62.035,111.538 60.253,111.538 C58.527,111.538 56.847,111.054 55.396,110.139 C53.183,108.743 50.677,108.019 48.150,108.019 C47.329,108.019 46.506,108.095 45.691,108.250 C43.947,108.579 42.157,108.394 40.510,107.712 C38.915,107.052 37.549,105.962 36.559,104.560 C34.585,101.768 31.629,99.823 28.235,99.084 C26.531,98.713 24.975,97.862 23.735,96.621 C22.535,95.421 21.696,93.918 21.309,92.277 C20.494,88.821 18.525,85.882 15.763,83.999 C14.298,83.001 13.164,81.602 12.481,79.956 C11.821,78.361 11.625,76.625 11.915,74.934 C12.502,71.519 11.803,68.077 9.947,65.245 C8.975,63.761 8.462,62.035 8.462,60.253 C8.462,58.527 8.945,56.848 9.861,55.396 C11.709,52.465 12.380,49.019 11.750,45.691 C11.420,43.948 11.606,42.158 12.288,40.511 C12.948,38.916 14.038,37.550 15.440,36.559 C18.232,34.584 20.177,31.628 20.916,28.235 C21.287,26.532 22.138,24.976 23.378,23.736 C24.578,22.535 26.081,21.696 27.723,21.309 C31.179,20.495 34.118,18.525 36.000,15.763 C36.999,14.299 38.397,13.163 40.043,12.482 C41.638,11.821 43.374,11.625 45.066,11.916 C48.481,12.502 51.922,11.803 54.755,9.947 C56.238,8.975 57.964,8.462 59.747,8.462 C61.473,8.462 63.152,8.946 64.604,9.861 C67.535,11.710 70.982,12.381 74.310,11.750 C76.052,11.420 77.843,11.606 79.490,12.289 C81.085,12.949 82.451,14.039 83.441,15.440 C85.415,18.232 88.371,20.177 91.765,20.916 C93.469,21.287 95.025,22.139 96.265,23.379 C97.465,24.578 98.304,26.082 98.691,27.724 C99.506,31.179 101.475,34.119 104.236,36.001 C105.701,36.999 106.836,38.397 107.519,40.044 C108.179,41.638 108.375,43.375 108.084,45.066 C107.498,48.481 108.197,51.923 110.053,54.756 C111.025,56.239 111.538,57.965 111.538,59.747 C111.538,61.474 111.055,63.153 110.139,64.604 Z" class="cls-3"/>
  </g>
</svg>
