<?xml version="1.0" encoding="UTF-8" standalone="no"?>
<svg width="120px" height="120px" viewBox="0 0 120 120" version="1.1" xmlns="http://www.w3.org/2000/svg" xmlns:xlink="http://www.w3.org/1999/xlink">
    <!-- Generator: Sketch 40.1 (33804) - http://www.bohemiancoding.com/sketch -->
    <title>avivi_it2</title>
    <desc>Created with Sketch.</desc>
    <defs>
        <path d="M54.9817309,84.778629 C50.4334471,83.8367789 46.1893646,81.7357869 42.8575628,78.7766754 C34.3040198,71.1799167 31.6605102,59.245868 36.179159,48.627201 C37.2888194,46.019538 39.0928315,43.3731419 41.3280549,41.0740265 L43.2986672,39.0470864 L43.4376566,50.9106891 C43.5706923,62.2662773 43.6006734,62.8383103 44.1378303,64.2692833 C45.2124494,67.1320498 46.3645142,68.954729 48.3478028,70.9298713 C53.4709541,76.0319851 60.9856311,77.305323 67.3737513,74.1537572 C73.3781537,71.1914981 77.1635422,64.750397 76.7236544,58.2442498 C76.4281766,53.8740251 74.9584783,50.6693828 71.7853547,47.4764151 C69.385996,45.0620502 66.5630757,43.4849847 63.489714,42.8419388 C60.3627891,42.1876868 60.5128293,42.0920822 60.5128293,44.7388097 L60.5128293,47.0238017 L62.2270852,47.3396647 C68.8660093,48.562934 73.2568004,55.0821562 71.8729864,61.6613976 C71.4310174,63.7627159 70.4452078,65.6182806 68.8627269,67.3275509 C66.4578182,69.9251391 63.0743325,71.1667433 60.1199685,71.1610406 C55.2348774,71.1516182 51.1557403,68.3756576 49.1786927,64.2705853 C49.1786927,64.2705853 48.6607873,63.0972242 48.4943509,62.3721353 C47.515572,58.1080405 48.1412018,49.1318296 48.1412018,49.1318296 L48.0654052,36.0070865 L48.8402106,35.6064185 C49.2663555,35.3860514 49.6750559,35.2057506 49.7484348,35.2057506 C49.8218163,35.2057506 49.9149643,41.2339421 49.9554344,48.6017319 C49.9554344,48.6017319 49.0145473,58.2599056 50.1772667,61.9610612 C50.3450258,62.4950677 50.6635033,63.40842 50.6635033,63.40842 C51.6827653,65.4849731 53.3163502,67.3115663 55.4388975,68.316969 C57.0501196,69.0801672 57.8613414,69.4255531 60.245052,69.4255531 C61.8024805,69.4255531 63.1821889,68.9339477 64.7697693,68.2037904 C66.6412539,67.3430591 68.7880951,65.0609922 69.5814375,62.9773878 C71.7672242,57.2367063 68.7236754,51.0604756 62.8602971,49.3382778 C60.4639851,48.6344284 60.5128293,48.5956642 60.5128293,51.2013547 L60.5128293,53.4774005 L61.6631157,53.7850551 C65.809344,54.8940016 67.0744916,60.4514493 63.8195839,63.3070299 C62.6695875,64.3159375 61.6333442,64.7619085 59.8206441,64.7619085 C57.8836991,64.7619085 56.0244378,63.5895388 55.0686067,61.7913633 C54.4944433,60.7112097 54.4459719,59.6866384 54.4459719,59.217383 C54.4459719,54.8828525 54.3520809,47.0873052 54.3520809,47.0873052 L54.2745318,33.7151597 L54.8698,33.567312 C55.1971978,33.4859939 56.5204515,33.284785 57.8103667,33.1201762 C62.1850438,32.5619171 68.65712,33.9935683 73.0051656,36.4813301 C78.9330594,39.8730114 83.4184559,45.6994271 85.2860058,52.4338341 C85.9283969,54.7503061 86,55.4238586 86,59.1502582 C86,62.8600209 85.926779,63.5558586 85.2979833,65.8216769 C82.7579318,74.9745827 76.2966423,81.517633 67.0578547,84.292615 C65.1134882,84.8766306 64.2026339,84.987992 60.7716888,85.0611664 C58.0029349,85.1202175 56.2084093,85.0326479 54.9817309,84.778629 L54.9817309,84.778629 Z" id="path-1"></path>
        <mask id="mask-2" maskContentUnits="userSpaceOnUse" maskUnits="objectBoundingBox" x="-1" y="-1" width="54" height="54.0788447">
            <rect x="33" y="32" width="54" height="54.0788447" fill="white"></rect>
            <use xlink:href="#path-1" fill="black"></use>
        </mask>
    </defs>
    <g id="Page-1" stroke="none" stroke-width="1" fill="none" fill-rule="evenodd">
        <g id="avivi_it2">
            <path d="M120,59.73 C120,56.887 119.179,54.132 117.627,51.761 C116.303,49.742 115.807,47.273 116.23,44.809 C116.694,42.105 116.383,39.333 115.329,36.789 C114.241,34.163 112.429,31.931 110.088,30.336 C108.119,28.994 106.705,26.858 106.108,24.322 C105.489,21.697 104.15,19.298 102.235,17.382 C100.257,15.405 97.773,14.046 95.05,13.453 C92.584,12.916 90.442,11.512 89.019,9.498 C87.436,7.259 85.255,5.517 82.711,4.464 C80.084,3.376 77.225,3.079 74.441,3.607 C72.068,4.056 69.597,3.57 67.483,2.236 C65.164,0.773 62.483,0 59.729,0 C56.886,0 54.131,0.82 51.761,2.373 C49.741,3.696 47.272,4.193 44.809,3.769 C42.106,3.305 39.333,3.617 36.789,4.67 C34.163,5.759 31.931,7.571 30.336,9.911 C28.994,11.88 26.858,13.294 24.322,13.892 C21.697,14.511 19.297,15.849 17.382,17.765 C15.405,19.742 14.046,22.227 13.453,24.949 C12.916,27.415 11.512,29.557 9.498,30.98 C7.258,32.564 5.517,34.744 4.463,37.289 C3.375,39.916 3.079,42.775 3.606,45.559 C4.056,47.932 3.57,50.403 2.236,52.516 C0.773,54.835 0,57.517 0,60.271 C0,63.113 0.821,65.869 2.373,68.238 C3.697,70.259 4.193,72.727 3.77,75.191 C3.306,77.894 3.617,80.667 4.671,83.211 C5.759,85.837 7.571,88.069 9.912,89.664 C11.881,91.005 13.295,93.141 13.892,95.678 C14.511,98.303 15.85,100.703 17.765,102.617 C19.743,104.595 22.227,105.954 24.95,106.547 C27.416,107.083 29.558,108.488 30.981,110.502 C32.564,112.741 34.745,114.482 37.289,115.537 C39.916,116.625 42.776,116.921 45.559,116.393 C47.932,115.943 50.403,116.43 52.517,117.763 C54.837,119.227 57.518,120 60.271,120 C63.114,120 65.869,119.18 68.239,117.627 C70.259,116.303 72.728,115.807 75.191,116.23 C77.895,116.694 80.667,116.383 83.211,115.329 C85.838,114.241 88.069,112.429 89.664,110.088 C91.006,108.119 93.142,106.705 95.678,106.107 C98.303,105.489 100.703,104.15 102.618,102.235 C104.595,100.257 105.954,97.773 106.547,95.05 C107.084,92.584 108.488,90.443 110.502,89.019 C112.742,87.435 114.483,85.254 115.537,82.71 C116.625,80.084 116.921,77.224 116.393,74.44 C115.944,72.068 116.43,69.597 117.764,67.483 C119.227,65.164 120,62.483 120,59.73 L120,59.73 Z" id="Shape" fill="#FFFFFF"></path>
            <path d="M116,59.748 C116,57.094 115.234,54.523 113.785,52.311 C112.55,50.425 112.087,48.121 112.482,45.822 C112.915,43.298 112.624,40.711 111.64,38.336 C110.625,35.885 108.933,33.802 106.749,32.314 C104.911,31.061 103.592,29.068 103.034,26.701 C102.456,24.25 101.207,22.011 99.419,20.223 C97.573,18.378 95.255,17.109 92.714,16.556 C90.412,16.055 88.413,14.744 87.084,12.865 C85.607,10.774 83.571,9.149 81.197,8.166 C78.745,7.151 76.076,6.874 73.478,7.367 C71.264,7.786 68.957,7.332 66.984,6.088 C64.819,4.722 62.317,4 59.747,4 C57.094,4 54.522,4.766 52.31,6.215 C50.425,7.45 48.12,7.913 45.821,7.518 C43.299,7.085 40.711,7.376 38.336,8.36 C35.885,9.375 33.802,11.066 32.314,13.251 C31.061,15.088 29.068,16.408 26.7,16.966 C24.251,17.543 22.011,18.793 20.224,20.58 C18.378,22.426 17.11,24.745 16.556,27.286 C16.055,29.587 14.744,31.586 12.865,32.915 C10.774,34.393 9.149,36.428 8.166,38.803 C7.15,41.254 6.874,43.924 7.366,46.521 C7.786,48.736 7.332,51.043 6.087,53.015 C4.722,55.18 4,57.683 4,60.252 C4,62.906 4.766,65.477 6.215,67.689 C7.45,69.575 7.913,71.879 7.518,74.178 C7.085,76.701 7.376,79.29 8.36,81.664 C9.375,84.115 11.066,86.198 13.251,87.686 C15.089,88.938 16.408,90.932 16.966,93.299 C17.544,95.75 18.793,97.989 20.581,99.776 C22.427,101.623 24.745,102.891 27.286,103.443 C29.588,103.945 31.587,105.256 32.915,107.135 C34.393,109.226 36.429,110.85 38.803,111.834 C41.255,112.85 43.924,113.126 46.522,112.634 C48.736,112.214 51.043,112.668 53.016,113.912 C55.181,115.278 57.683,115.999 60.253,115.999 C62.906,115.999 65.478,115.234 67.69,113.785 C69.575,112.55 71.879,112.087 74.179,112.481 C76.702,112.914 79.29,112.624 81.664,111.64 C84.115,110.625 86.198,108.934 87.686,106.749 C88.939,104.911 90.933,103.592 93.3,103.034 C95.749,102.457 97.989,101.207 99.777,99.419 C101.622,97.573 102.89,95.255 103.444,92.713 C103.945,90.412 105.256,88.413 107.135,87.084 C109.226,85.607 110.851,83.571 111.834,81.196 C112.85,78.745 113.126,76.076 112.634,73.478 C112.214,71.263 112.668,68.957 113.913,66.984 C115.278,64.82 116,62.317 116,59.748 L116,59.748 Z M110.139,64.604 C108.29,67.535 107.619,70.982 108.25,74.31 C108.58,76.052 108.394,77.843 107.712,79.489 C107.051,81.084 105.962,82.45 104.56,83.441 C101.768,85.415 99.823,88.371 99.084,91.765 C98.713,93.469 97.862,95.025 96.622,96.264 C95.421,97.465 93.919,98.304 92.276,98.691 C88.821,99.505 85.881,101.476 83.999,104.236 C83.001,105.702 81.603,106.836 79.956,107.518 C78.362,108.179 76.626,108.374 74.934,108.084 C71.518,107.498 68.077,108.197 65.244,110.053 C63.762,111.024 62.035,111.538 60.253,111.538 C58.527,111.538 56.847,111.054 55.396,110.139 C53.183,108.743 50.677,108.019 48.15,108.019 C47.329,108.019 46.506,108.095 45.691,108.25 C43.947,108.579 42.157,108.394 40.51,107.712 C38.915,107.052 37.549,105.962 36.558,104.56 C34.585,101.768 31.629,99.823 28.235,99.084 C26.531,98.713 24.975,97.862 23.735,96.621 C22.535,95.421 21.696,93.918 21.309,92.277 C20.494,88.821 18.525,85.882 15.763,83.999 C14.298,83.001 13.164,81.602 12.481,79.956 C11.821,78.361 11.625,76.625 11.915,74.934 C12.502,71.519 11.803,68.077 9.947,65.245 C8.975,63.761 8.462,62.035 8.462,60.253 C8.462,58.527 8.945,56.848 9.861,55.396 C11.709,52.465 12.38,49.019 11.75,45.691 C11.42,43.948 11.606,42.158 12.288,40.511 C12.948,38.916 14.038,37.55 15.44,36.559 C18.232,34.584 20.177,31.628 20.916,28.235 C21.287,26.532 22.138,24.976 23.378,23.736 C24.578,22.535 26.081,21.696 27.723,21.309 C31.179,20.495 34.118,18.525 36,15.763 C36.999,14.299 38.397,13.163 40.043,12.482 C41.638,11.821 43.374,11.625 45.066,11.916 C48.481,12.502 51.922,11.803 54.755,9.947 C56.238,8.975 57.964,8.462 59.747,8.462 C61.473,8.462 63.152,8.946 64.604,9.861 C67.535,11.71 70.982,12.381 74.31,11.75 C76.052,11.42 77.843,11.606 79.49,12.289 C81.085,12.949 82.451,14.039 83.441,15.44 C85.415,18.232 88.371,20.177 91.765,20.916 C93.469,21.287 95.025,22.139 96.265,23.379 C97.465,24.578 98.304,26.082 98.691,27.724 C99.506,31.179 101.475,34.119 104.236,36.001 C105.701,36.999 106.836,38.397 107.519,40.044 C108.179,41.638 108.375,43.375 108.084,45.066 C107.498,48.481 108.197,51.923 110.053,54.756 C111.025,56.239 111.538,57.965 111.538,59.747 C111.538,61.474 111.054,63.153 110.139,64.604 L110.139,64.604 Z" id="Shape" fill="#59D556"></path>
            <use id="path821" stroke="#169E32" mask="url(#mask-2)" stroke-width="2" xlink:href="#path-1"></use>
        </g>
    </g>
</svg>