<svg xmlns="http://www.w3.org/2000/svg" xmlns:xlink="http://www.w3.org/1999/xlink" preserveAspectRatio="xMidYMid" width="120" height="120" viewBox="0 0 120 120">
  <defs>
    <style>
      .cls-1 {
        fill: #fff;
      }

      .cls-1, .cls-2, .cls-3 {
        fill-rule: evenodd;
      }

      .cls-2 {
        fill: #59d556;
      }

      .cls-3 {
        fill: #159e31;
      }
    </style>
  </defs>
  <g>
    <path d="M120.000,59.730 C120.000,56.887 119.179,54.132 117.627,51.761 C116.303,49.742 115.807,47.273 116.230,44.809 C116.694,42.105 116.383,39.333 115.329,36.789 C114.241,34.163 112.429,31.931 110.088,30.336 C108.119,28.994 106.705,26.858 106.108,24.322 C105.489,21.697 104.150,19.298 102.235,17.382 C100.257,15.405 97.773,14.046 95.050,13.453 C92.584,12.916 90.442,11.512 89.019,9.498 C87.436,7.259 85.255,5.517 82.711,4.464 C80.084,3.376 77.225,3.079 74.441,3.607 C72.068,4.056 69.597,3.570 67.483,2.236 C65.164,0.773 62.483,-0.000 59.729,-0.000 C56.886,-0.000 54.131,0.820 51.761,2.373 C49.741,3.696 47.272,4.193 44.809,3.769 C42.106,3.305 39.333,3.617 36.789,4.670 C34.163,5.759 31.931,7.571 30.336,9.911 C28.994,11.880 26.858,13.294 24.322,13.892 C21.697,14.511 19.297,15.849 17.382,17.765 C15.405,19.742 14.046,22.227 13.453,24.949 C12.916,27.415 11.512,29.557 9.498,30.980 C7.258,32.564 5.517,34.744 4.463,37.289 C3.375,39.916 3.079,42.775 3.606,45.559 C4.056,47.932 3.570,50.403 2.236,52.516 C0.773,54.835 -0.000,57.517 -0.000,60.271 C-0.000,63.113 0.821,65.869 2.373,68.238 C3.697,70.259 4.193,72.727 3.770,75.191 C3.306,77.894 3.617,80.667 4.671,83.211 C5.759,85.837 7.571,88.069 9.912,89.664 C11.881,91.005 13.295,93.141 13.892,95.678 C14.511,98.303 15.850,100.703 17.765,102.617 C19.743,104.595 22.227,105.954 24.950,106.547 C27.416,107.083 29.558,108.488 30.981,110.502 C32.564,112.741 34.745,114.482 37.289,115.537 C39.916,116.625 42.776,116.921 45.559,116.393 C47.932,115.943 50.403,116.430 52.517,117.763 C54.837,119.227 57.518,120.000 60.271,120.000 C63.114,120.000 65.869,119.180 68.239,117.627 C70.259,116.303 72.728,115.807 75.191,116.230 C77.895,116.694 80.667,116.383 83.211,115.329 C85.838,114.241 88.069,112.429 89.664,110.088 C91.006,108.119 93.142,106.705 95.678,106.107 C98.303,105.489 100.703,104.150 102.618,102.235 C104.595,100.257 105.954,97.773 106.547,95.050 C107.084,92.584 108.488,90.443 110.502,89.019 C112.742,87.435 114.483,85.254 115.537,82.710 C116.625,80.084 116.921,77.224 116.393,74.440 C115.944,72.068 116.430,69.597 117.764,67.483 C119.227,65.164 120.000,62.483 120.000,59.730 Z" class="cls-1"/>
    <path d="M116.000,59.748 C116.000,57.094 115.234,54.523 113.785,52.311 C112.550,50.425 112.087,48.121 112.482,45.822 C112.915,43.298 112.624,40.711 111.640,38.336 C110.625,35.885 108.933,33.802 106.749,32.314 C104.911,31.061 103.592,29.068 103.034,26.701 C102.456,24.250 101.207,22.011 99.419,20.223 C97.573,18.378 95.255,17.109 92.714,16.556 C90.412,16.055 88.413,14.744 87.084,12.865 C85.607,10.774 83.571,9.149 81.197,8.166 C78.745,7.151 76.076,6.874 73.478,7.367 C71.264,7.786 68.957,7.332 66.984,6.088 C64.819,4.722 62.317,4.000 59.747,4.000 C57.094,4.000 54.522,4.766 52.310,6.215 C50.425,7.450 48.120,7.913 45.821,7.518 C43.299,7.085 40.711,7.376 38.336,8.360 C35.885,9.375 33.802,11.066 32.314,13.251 C31.061,15.088 29.068,16.408 26.700,16.966 C24.251,17.543 22.011,18.793 20.224,20.580 C18.378,22.426 17.110,24.745 16.556,27.286 C16.055,29.587 14.744,31.586 12.865,32.915 C10.774,34.393 9.149,36.428 8.166,38.803 C7.150,41.254 6.874,43.924 7.366,46.521 C7.786,48.736 7.332,51.043 6.087,53.015 C4.722,55.180 4.000,57.683 4.000,60.252 C4.000,62.906 4.766,65.477 6.215,67.689 C7.450,69.575 7.913,71.879 7.518,74.178 C7.085,76.701 7.376,79.290 8.360,81.664 C9.375,84.115 11.066,86.198 13.251,87.686 C15.089,88.938 16.408,90.932 16.966,93.299 C17.544,95.750 18.793,97.989 20.581,99.776 C22.427,101.623 24.745,102.891 27.286,103.443 C29.588,103.945 31.587,105.256 32.915,107.135 C34.393,109.226 36.429,110.850 38.803,111.834 C41.255,112.850 43.924,113.126 46.522,112.634 C48.736,112.214 51.043,112.668 53.016,113.912 C55.181,115.278 57.683,115.999 60.253,115.999 C62.906,115.999 65.478,115.234 67.690,113.785 C69.575,112.550 71.879,112.087 74.179,112.481 C76.702,112.914 79.290,112.624 81.664,111.640 C84.115,110.625 86.198,108.934 87.686,106.749 C88.939,104.911 90.933,103.592 93.300,103.034 C95.749,102.457 97.989,101.207 99.777,99.419 C101.622,97.573 102.890,95.255 103.444,92.713 C103.945,90.412 105.256,88.413 107.135,87.084 C109.226,85.607 110.851,83.571 111.834,81.196 C112.850,78.745 113.126,76.076 112.634,73.478 C112.214,71.263 112.668,68.957 113.913,66.984 C115.278,64.820 116.000,62.317 116.000,59.748 ZM110.139,64.604 C108.290,67.535 107.619,70.982 108.250,74.310 C108.580,76.052 108.394,77.843 107.712,79.489 C107.051,81.084 105.962,82.450 104.560,83.441 C101.768,85.415 99.823,88.371 99.084,91.765 C98.713,93.469 97.862,95.025 96.622,96.264 C95.421,97.465 93.919,98.304 92.276,98.691 C88.821,99.505 85.881,101.476 83.999,104.236 C83.001,105.702 81.603,106.836 79.956,107.518 C78.362,108.179 76.626,108.374 74.934,108.084 C71.518,107.498 68.077,108.197 65.244,110.053 C63.762,111.024 62.035,111.538 60.253,111.538 C58.527,111.538 56.847,111.054 55.396,110.139 C53.183,108.743 50.677,108.019 48.150,108.019 C47.329,108.019 46.506,108.095 45.691,108.250 C43.947,108.579 42.157,108.394 40.510,107.712 C38.915,107.052 37.549,105.962 36.558,104.560 C34.585,101.768 31.629,99.823 28.235,99.084 C26.531,98.713 24.975,97.862 23.735,96.621 C22.535,95.421 21.696,93.918 21.309,92.277 C20.494,88.821 18.525,85.882 15.763,83.999 C14.298,83.001 13.164,81.602 12.481,79.956 C11.821,78.361 11.625,76.625 11.915,74.934 C12.502,71.519 11.803,68.077 9.947,65.245 C8.975,63.761 8.462,62.035 8.462,60.253 C8.462,58.527 8.945,56.848 9.861,55.396 C11.709,52.465 12.380,49.019 11.750,45.691 C11.420,43.948 11.606,42.158 12.288,40.511 C12.948,38.916 14.038,37.550 15.440,36.559 C18.232,34.584 20.177,31.628 20.916,28.235 C21.287,26.532 22.138,24.976 23.378,23.736 C24.578,22.535 26.081,21.696 27.723,21.309 C31.179,20.495 34.118,18.525 36.000,15.763 C36.999,14.299 38.397,13.163 40.043,12.482 C41.638,11.821 43.374,11.625 45.066,11.916 C48.481,12.502 51.922,11.803 54.755,9.947 C56.238,8.975 57.964,8.462 59.747,8.462 C61.473,8.462 63.152,8.946 64.604,9.861 C67.535,11.710 70.982,12.381 74.310,11.750 C76.052,11.420 77.843,11.606 79.490,12.289 C81.085,12.949 82.451,14.039 83.441,15.440 C85.415,18.232 88.371,20.177 91.765,20.916 C93.469,21.287 95.025,22.139 96.265,23.379 C97.465,24.578 98.304,26.082 98.691,27.724 C99.506,31.179 101.475,34.119 104.236,36.001 C105.701,36.999 106.836,38.397 107.519,40.044 C108.179,41.638 108.375,43.375 108.084,45.066 C107.498,48.481 108.197,51.923 110.053,54.756 C111.025,56.239 111.538,57.965 111.538,59.747 C111.538,61.474 111.054,63.153 110.139,64.604 Z" class="cls-2"/>
    <path d="M90.032,41.773 C89.969,41.773 89.905,41.766 89.841,41.754 L75.310,38.856 C75.246,38.843 75.184,38.825 75.127,38.800 L67.501,47.248 C67.317,47.452 67.055,47.568 66.781,47.568 C66.770,47.568 66.758,47.568 66.747,47.567 C66.460,47.557 66.193,47.421 66.017,47.195 L64.843,45.690 C64.827,46.513 64.467,47.252 63.900,47.772 L64.158,50.371 C64.162,50.399 64.165,50.426 64.166,50.453 L64.711,55.929 C64.732,56.016 64.740,56.106 64.737,56.195 L67.545,84.458 C67.574,84.746 67.471,85.032 67.266,85.236 L60.766,91.717 C60.577,91.906 60.329,92.000 60.081,92.000 C59.833,92.000 59.585,91.906 59.396,91.717 L52.896,85.236 C52.692,85.032 52.590,84.749 52.617,84.462 L56.101,47.772 C55.533,47.253 55.173,46.513 55.158,45.690 L53.984,47.195 C53.808,47.421 53.540,47.557 53.254,47.567 C53.242,47.568 53.230,47.568 53.219,47.568 C52.945,47.568 52.683,47.452 52.499,47.248 L44.873,38.800 C44.815,38.825 44.754,38.843 44.690,38.856 L30.159,41.754 C30.095,41.767 30.031,41.773 29.968,41.773 C29.516,41.773 29.112,41.455 29.019,40.996 C28.915,40.473 29.255,39.964 29.779,39.859 L43.549,37.113 C43.513,36.913 43.538,36.702 43.634,36.511 L45.594,32.603 C45.957,31.877 46.614,31.334 47.396,31.111 C48.167,30.893 48.999,31.002 49.685,31.412 L60.000,36.818 L70.314,31.412 C71.001,31.002 71.833,30.893 72.604,31.111 C73.385,31.334 74.042,31.877 74.406,32.603 L76.366,36.511 C76.462,36.702 76.487,36.913 76.451,37.113 L90.221,39.859 C90.745,39.964 91.085,40.473 90.981,40.996 C90.888,41.455 90.484,41.773 90.032,41.773 ZM63.894,67.305 L56.859,60.291 L56.677,62.207 L64.125,69.634 L63.894,67.305 ZM60.654,46.602 L61.938,46.602 C62.250,46.602 62.528,46.453 62.705,46.223 C62.688,46.209 62.672,46.195 62.656,46.179 L58.224,41.760 L57.162,43.121 L60.654,46.602 ZM57.109,45.800 C57.178,46.202 57.496,46.518 57.899,46.587 L57.109,45.800 ZM57.934,48.971 L62.527,53.552 L62.268,50.944 L59.851,48.534 L58.063,48.534 C58.033,48.534 58.004,48.533 57.976,48.532 L57.934,48.971 ZM57.697,51.467 L57.514,53.389 C57.537,53.408 57.560,53.429 57.582,53.451 L63.060,58.912 L62.829,56.584 L57.697,51.467 ZM57.278,55.879 L57.091,57.839 C57.164,57.881 57.233,57.931 57.294,57.993 L63.592,64.273 L63.361,61.944 C63.359,61.943 63.358,61.941 63.356,61.940 L57.278,55.879 ZM64.418,72.583 C64.325,72.538 64.237,72.476 64.159,72.399 L56.440,64.702 L56.257,66.621 C56.267,66.630 56.277,66.638 56.287,66.647 L64.658,74.994 L64.418,72.583 ZM54.589,84.192 L60.081,89.668 L61.092,88.660 L54.764,82.349 L54.589,84.192 ZM55.001,79.854 L62.462,87.294 L63.514,86.245 L55.183,77.938 L55.001,79.854 ZM55.420,75.442 L64.884,84.879 L65.572,84.193 L65.491,83.380 C65.470,83.363 65.449,83.344 65.428,83.324 L55.602,73.526 L55.420,75.442 ZM56.021,69.114 L55.839,71.030 C55.839,71.031 55.840,71.032 55.841,71.033 L65.190,80.355 L64.959,78.027 L56.021,69.114 ZM48.758,33.108 C48.738,33.098 48.719,33.087 48.701,33.076 C48.467,32.933 48.192,32.894 47.927,32.969 C47.663,33.045 47.450,33.221 47.327,33.467 L45.662,36.786 L53.165,45.098 L58.525,38.227 L48.758,33.108 ZM59.422,40.223 L62.907,43.697 C62.908,43.560 62.937,43.432 62.989,43.314 L60.000,39.482 L59.422,40.223 ZM72.673,33.467 C72.550,33.221 72.337,33.045 72.073,32.969 C71.808,32.894 71.534,32.933 71.299,33.076 C71.281,33.087 71.262,33.098 71.242,33.108 L61.475,38.227 L66.835,45.098 L74.338,36.786 L72.673,33.467 ZM36.750,56.261 L48.375,56.261 C49.978,56.261 51.281,57.561 51.281,59.159 L51.281,70.750 C51.281,72.348 49.978,73.648 48.375,73.648 L36.750,73.648 C35.148,73.648 33.844,72.348 33.844,70.750 L33.844,59.159 C33.844,57.561 35.148,56.261 36.750,56.261 ZM35.782,70.750 C35.782,71.282 36.216,71.716 36.750,71.716 L48.375,71.716 C48.909,71.716 49.344,71.283 49.344,70.750 L49.344,64.417 L42.903,66.825 C42.793,66.866 42.678,66.886 42.563,66.886 C42.448,66.886 42.333,66.866 42.223,66.825 L35.782,64.417 L35.782,70.750 ZM35.782,62.353 L42.563,64.889 L49.344,62.353 L49.344,59.159 C49.344,58.626 48.909,58.193 48.375,58.193 L36.750,58.193 C36.216,58.193 35.782,58.626 35.782,59.159 L35.782,62.353 ZM42.563,62.057 C42.818,62.057 43.068,62.159 43.248,62.339 C43.429,62.519 43.532,62.768 43.532,63.023 C43.532,63.276 43.429,63.526 43.248,63.706 C43.068,63.886 42.818,63.989 42.563,63.989 C42.307,63.989 42.058,63.886 41.878,63.706 C41.697,63.526 41.594,63.278 41.594,63.023 C41.594,62.768 41.697,62.519 41.878,62.339 C42.058,62.159 42.307,62.057 42.563,62.057 ZM69.687,58.193 L73.562,58.193 L73.562,53.364 C73.562,52.298 74.431,51.431 75.500,51.431 L77.437,51.431 C78.505,51.431 79.375,52.298 79.375,53.364 L79.375,55.295 C80.977,55.295 82.281,56.595 82.281,58.193 L85.187,58.193 C85.722,58.193 86.156,58.626 86.156,59.159 L86.156,70.750 C86.156,72.348 84.852,73.648 83.250,73.648 L71.625,73.648 C70.022,73.648 68.719,72.348 68.719,70.750 L68.719,59.159 C68.719,58.626 69.152,58.193 69.687,58.193 ZM77.437,53.364 L75.500,53.364 L75.500,58.193 L77.437,58.193 L77.437,53.364 ZM79.375,57.227 L79.375,58.193 L80.343,58.193 C80.343,57.660 79.909,57.227 79.375,57.227 ZM70.656,70.750 C70.656,71.282 71.091,71.716 71.625,71.716 L83.250,71.716 C83.784,71.716 84.218,71.282 84.218,70.750 L84.218,60.125 L82.281,60.125 L82.281,63.989 C82.281,64.522 81.847,64.955 81.312,64.955 C80.777,64.955 80.343,64.522 80.343,63.989 L80.343,60.125 L70.656,60.125 L70.656,70.750 Z" class="cls-3"/>
  </g>
</svg>
