<?xml version="1.0" encoding="UTF-8" standalone="no"?>
<svg width="50px" height="50px" viewBox="0 0 50 50" version="1.1" xmlns="http://www.w3.org/2000/svg" xmlns:xlink="http://www.w3.org/1999/xlink">
    <!-- Generator: Sketch 40.1 (33804) - http://www.bohemiancoding.com/sketch -->
    <title>Group</title>
    <desc>Created with Sketch.</desc>
    <defs></defs>
    <g id="Page-1" stroke="none" stroke-width="1" fill="none" fill-rule="evenodd">
        <g id="Group" transform="translate(0.000000, -1.000000)">
            <path d="M47,46.161 L47,44.548 L48.387,44.548 L48.387,9.064 L47,9.064 L47,7.451 L50,7.451 L50,46.161 L47,46.161 L47,46.161 Z M37,9.064 L36,9.064 L36,7.451 L37,7.451 L37,9.064 L37,9.064 Z M27.733,50 L33.558,50 C32.745,50.618 31.743,51 30.645,51 C29.547,51 28.545,50.618 27.733,50 L27.733,50 Z M0,46.161 L0,7.451 L26,7.451 L26,47.441 C25.887,47.031 25.806,46.607 25.806,46.161 L0,46.161 L0,46.161 Z M25.806,9.064 L1.613,9.064 L1.613,13.903 L25.806,13.903 L25.806,9.064 L25.806,9.064 Z M25.806,24.655 L23.79,21.968 L19.742,21.968 L14.581,28.419 L25.806,28.419 L25.806,24.655 L25.806,24.655 Z M25.806,30.032 L6.452,30.032 L6.452,28.419 L12.515,28.419 L18.968,20.354 L24.597,20.354 L25.806,21.968 L25.806,18.742 L4.839,18.742 L4.839,31.645 L25.806,31.645 L25.806,30.032 L25.806,30.032 Z M25.806,33.258 L3.226,33.258 L3.226,17.129 L25.806,17.129 L25.806,15.516 L1.613,15.516 L1.613,44.548 L25.806,44.548 L25.806,33.258 L25.806,33.258 Z M4.839,12.29 L3.226,12.29 L3.226,10.677 L4.839,10.677 L4.839,12.29 L4.839,12.29 Z M8.064,12.29 L6.452,12.29 L6.452,10.677 L8.064,10.677 L8.064,12.29 L8.064,12.29 Z M11.29,12.29 L9.677,12.29 L9.677,10.677 L11.29,10.677 L11.29,12.29 L11.29,12.29 Z M37,15.516 L36,15.516 L36,13.903 L37,13.903 L37,15.516 L37,15.516 Z M37,18.742 L36,18.742 L36,17.129 L37,17.129 L37,18.742 L37,18.742 Z M37,30.032 L36,30.032 L36,28.419 L37,28.419 L37,30.032 L37,30.032 Z M37,33.258 L36,33.258 L36,31.645 L37,31.645 L37,33.258 L37,33.258 Z M37,46.161 L36,46.161 L36,44.548 L37,44.548 L37,46.161 L37,46.161 Z" id="Shape" fill="#159E31"></path>
            <path d="M47,44.548 L47,46.161 L46.774,46.161 L46.774,51 L37.097,51 L37.097,46.161 L37,46.161 L37,44.548 L37.097,44.548 L37.097,33.258 L37,33.258 L37,31.645 L37.097,31.645 L37.097,30.032 L37,30.032 L37,28.419 L37.097,28.419 L37.097,18.742 L37,18.742 L37,17.129 L37.097,17.129 L37.097,15.516 L37,15.516 L37,13.903 L37.097,13.903 L37.097,9.064 L37,9.064 L37,7.451 L37.097,7.451 L37.097,0.999 L46.774,0.999 L46.774,7.451 L47,7.451 L47,9.064 L46.774,9.064 L46.774,44.548 L47,44.548 L47,44.548 Z M45.161,46.161 L41.935,46.161 L41.935,44.548 L45.161,44.548 L45.161,41.322 L41.935,41.322 L41.935,39.709 L45.161,39.709 L45.161,36.484 L41.935,36.484 L41.935,34.871 L45.161,34.871 L45.161,31.645 L41.935,31.645 L41.935,30.032 L45.161,30.032 L45.161,26.806 L41.935,26.806 L41.935,25.194 L45.161,25.194 L45.161,21.968 L41.935,21.968 L41.935,20.354 L45.161,20.354 L45.161,17.129 L41.935,17.129 L41.935,15.516 L45.161,15.516 L45.161,12.29 L41.935,12.29 L41.935,10.677 L45.161,10.677 L45.161,7.451 L41.935,7.451 L41.935,5.839 L45.161,5.839 L45.161,2.613 L38.71,2.613 L38.71,49.387 L45.161,49.387 L45.161,46.161 L45.161,46.161 Z M36,9.064 L35.484,9.064 L35.484,13.903 L36,13.903 L36,15.516 L35.484,15.516 L35.484,17.129 L36,17.129 L36,18.742 L35.484,18.742 L35.484,28.419 L36,28.419 L36,30.032 L35.484,30.032 L35.484,31.645 L36,31.645 L36,33.258 L35.484,33.258 L35.484,44.548 L36,44.548 L36,46.161 L35.484,46.161 C35.484,48.83 33.314,51 30.645,51 C27.977,51 25.806,48.83 25.806,46.161 L26.198,7.451 L30.645,1.225 L35.093,7.451 L36,7.451 L36,9.064 L36,9.064 Z M27.419,39.709 L29.839,39.709 L29.839,9.064 L27.419,9.064 L27.419,39.709 L27.419,39.709 Z M30.645,4.001 L28.18,7.451 L33.111,7.451 L30.645,4.001 L30.645,4.001 Z M33.871,9.064 L31.452,9.064 L31.452,39.709 L33.871,39.709 L33.871,9.064 L33.871,9.064 Z M33.871,41.322 L27.419,41.322 L27.419,42.935 L33.871,42.935 L33.871,41.322 L33.871,41.322 Z M33.871,44.548 L27.419,44.548 L27.419,46.161 C27.419,47.94 28.866,49.387 30.645,49.387 C32.424,49.387 33.871,47.94 33.871,46.161 L33.871,44.548 L33.871,44.548 Z M16.129,41.322 L24.194,41.322 L24.194,42.935 L16.129,42.935 L16.129,41.322 L16.129,41.322 Z M16.129,38.096 L24.194,38.096 L24.194,39.709 L16.129,39.709 L16.129,38.096 L16.129,38.096 Z M16.129,34.871 L24.194,34.871 L24.194,36.484 L16.129,36.484 L16.129,34.871 L16.129,34.871 Z M3.226,34.871 L14.516,34.871 L14.516,42.935 L3.226,42.935 L3.226,34.871 L3.226,34.871 Z M4.839,41.322 L12.903,41.322 L12.903,36.484 L4.839,36.484 L4.839,41.322 L4.839,41.322 Z" id="Shape" fill="#59D556"></path>
        </g>
    </g>
</svg>