<?xml version="1.0" encoding="UTF-8" standalone="no"?>
<svg width="54px" height="54px" viewBox="0 0 54 54" version="1.1" xmlns="http://www.w3.org/2000/svg" xmlns:xlink="http://www.w3.org/1999/xlink">
    <!-- Generator: Sketch 40.1 (33804) - http://www.bohemiancoding.com/sketch -->
    <title>Group</title>
    <desc>Created with Sketch.</desc>
    <defs></defs>
    <g id="Page-1" stroke="none" stroke-width="1" fill="none" fill-rule="evenodd">
        <g id="Group">
            <path d="M51.48,54 L51.12,54 L27.9,54 L26.1,54 L2.88,54 L2.52,54 C1.08,54 0,52.92 0,51.48 L0,51.12 L0,37.8 L0,12.6 L0,10.8 L0,2.61 C0,1.17 1.17,0 2.61,0 L51.48,0 C52.83,0 54,1.17 54,2.61 L54,10.8 L54,12.6 L54,37.8 L54,51.12 L54,51.48 C54,52.92 52.92,54 51.48,54 L51.48,54 Z M27.9,52.2 L51.12,52.2 C51.75,52.2 52.2,51.75 52.2,51.12 L52.2,39.6 L27.9,39.6 L27.9,52.2 L27.9,52.2 Z M1.8,51.12 C1.8,51.75 2.25,52.2 2.88,52.2 L26.1,52.2 L26.1,39.6 L1.8,39.6 L1.8,51.12 L1.8,51.12 Z M1.8,37.8 L26.1,37.8 L27.9,37.8 L52.2,37.8 L52.2,12.6 L1.8,12.6 L1.8,37.8 L1.8,37.8 Z M52.2,2.61 C52.2,2.16 51.84,1.8 51.39,1.8 L2.61,1.8 C2.16,1.8 1.8,2.16 1.8,2.61 L1.8,10.8 L52.2,10.8 L52.2,2.61 L52.2,2.61 Z M6.3,2.7 C8.28,2.7 9.9,4.32 9.9,6.3 C9.9,8.28 8.28,9.9 6.3,9.9 C4.32,9.9 2.7,8.28 2.7,6.3 C2.7,4.32 4.32,2.7 6.3,2.7 L6.3,2.7 Z M6.3,8.1 C7.29,8.1 8.1,7.29 8.1,6.3 C8.1,5.31 7.29,4.5 6.3,4.5 C5.31,4.5 4.5,5.31 4.5,6.3 C4.5,7.29 5.31,8.1 6.3,8.1 L6.3,8.1 Z M14.4,2.7 C16.38,2.7 18,4.32 18,6.3 C18,8.28 16.38,9.9 14.4,9.9 C12.42,9.9 10.8,8.28 10.8,6.3 C10.8,4.32 12.42,2.7 14.4,2.7 L14.4,2.7 Z M14.4,8.1 C15.39,8.1 16.2,7.29 16.2,6.3 C16.2,5.31 15.39,4.5 14.4,4.5 C13.41,4.5 12.6,5.31 12.6,6.3 C12.6,7.29 13.41,8.1 14.4,8.1 L14.4,8.1 Z M22.5,2.7 C24.48,2.7 26.1,4.32 26.1,6.3 C26.1,8.28 24.48,9.9 22.5,9.9 C20.52,9.9 18.9,8.28 18.9,6.3 C18.9,4.32 20.52,2.7 22.5,2.7 L22.5,2.7 Z M22.5,8.1 C23.49,8.1 24.3,7.29 24.3,6.3 C24.3,5.31 23.49,4.5 22.5,4.5 C21.51,4.5 20.7,5.31 20.7,6.3 C20.7,7.29 21.51,8.1 22.5,8.1 L22.5,8.1 Z M49.5,35.1 L47.7,35.1 C47.16,35.1 46.8,34.74 46.8,34.2 C46.8,33.66 47.16,33.3 47.7,33.3 L49.5,33.3 C50.04,33.3 50.4,33.66 50.4,34.2 C50.4,34.74 50.04,35.1 49.5,35.1 L49.5,35.1 Z M41.4,31.5 L40.5,31.5 C39.96,31.5 39.6,31.14 39.6,30.6 C39.6,30.06 39.96,29.7 40.5,29.7 L41.4,29.7 C41.94,29.7 42.3,30.06 42.3,30.6 C42.3,31.14 41.94,31.5 41.4,31.5 L41.4,31.5 Z M16.238,26.1 L16.2,25.2 C16.2,19.26 21.06,14.4 27,14.4 L27.9,14.4 L27.9,14.438 L27.9,16.245 L27.9,26.1 L18.045,26.1 L16.238,26.1 L16.238,26.1 Z M26.1,16.245 C21.865,16.671 18.471,20.065 18.045,24.301 L26.1,24.301 L26.1,16.245 L26.1,16.245 Z M13.5,17.1 L9,17.1 C8.46,17.1 8.1,16.74 8.1,16.2 C8.1,15.66 8.46,15.3 9,15.3 L13.5,15.3 C14.04,15.3 14.4,15.66 14.4,16.2 C14.4,16.74 14.04,17.1 13.5,17.1 L13.5,17.1 Z M9,19.8 C9,20.34 8.64,20.7 8.1,20.7 L4.5,20.7 C3.96,20.7 3.6,20.34 3.6,19.8 C3.6,19.26 3.96,18.9 4.5,18.9 L8.1,18.9 C8.64,18.9 9,19.26 9,19.8 L9,19.8 Z" id="Shape" fill="#159E31"></path>
            <path d="M49.5,31.5 L45,31.5 C44.46,31.5 44.1,31.14 44.1,30.6 C44.1,30.06 44.46,29.7 45,29.7 L49.5,29.7 C50.04,29.7 50.4,30.06 50.4,30.6 C50.4,31.14 50.04,31.5 49.5,31.5 L49.5,31.5 Z M45,34.2 C45,34.74 44.64,35.1 44.1,35.1 L40.5,35.1 C39.96,35.1 39.6,34.74 39.6,34.2 C39.6,33.66 39.96,33.3 40.5,33.3 L44.1,33.3 C44.64,33.3 45,33.66 45,34.2 L45,34.2 Z M27,36 C21.363,36 16.699,31.623 16.238,26.1 L16.2,26.1 L16.2,26 L27.9,26 L27.9,26.1 L18.045,26.1 C18.501,30.632 22.354,34.2 27,34.2 C31.95,34.2 36,30.15 36,25.2 C36,20.588 32.483,16.763 28,16.26 L28,14.451 C33.475,14.961 37.8,19.597 37.8,25.2 C37.8,31.14 32.94,36 27,36 L27,36 Z M13.5,20.7 L11.7,20.7 C11.16,20.7 10.8,20.34 10.8,19.8 C10.8,19.26 11.16,18.9 11.7,18.9 L13.5,18.9 C14.04,18.9 14.4,19.26 14.4,19.8 C14.4,20.34 14.04,20.7 13.5,20.7 L13.5,20.7 Z M14.13,42.57 L18.63,47.07 C18.99,47.43 18.99,47.97 18.63,48.33 C18.45,48.51 18.27,48.601 18,48.601 C17.73,48.601 17.55,48.51 17.37,48.33 L13.5,44.46 L9.63,48.33 C9.45,48.51 9.27,48.601 9,48.601 C8.73,48.601 8.55,48.51 8.37,48.33 C8.01,47.97 8.01,47.43 8.37,47.07 L12.87,42.57 C13.23,42.21 13.77,42.21 14.13,42.57 L14.13,42.57 Z M5.4,17.1 L4.5,17.1 C3.96,17.1 3.6,16.74 3.6,16.2 C3.6,15.66 3.96,15.3 4.5,15.3 L5.4,15.3 C5.94,15.3 6.3,15.66 6.3,16.2 C6.3,16.74 5.94,17.1 5.4,17.1 L5.4,17.1 Z M36.63,42.57 L40.5,46.44 L44.37,42.57 C44.73,42.21 45.27,42.21 45.63,42.57 C45.99,42.93 45.99,43.47 45.63,43.83 L41.13,48.331 C40.95,48.51 40.77,48.601 40.5,48.601 C40.23,48.601 40.05,48.51 39.87,48.331 L35.37,43.83 C35.01,43.47 35.01,42.93 35.37,42.57 C35.73,42.21 36.27,42.21 36.63,42.57 L36.63,42.57 Z" id="Shape" fill="#59D556"></path>
        </g>
    </g>
</svg>