<?xml version="1.0" encoding="UTF-8" standalone="no"?>
<svg width="48px" height="48px" viewBox="0 0 48 48" version="1.1" xmlns="http://www.w3.org/2000/svg" xmlns:xlink="http://www.w3.org/1999/xlink">
    <!-- Generator: Sketch 40.1 (33804) - http://www.bohemiancoding.com/sketch -->
    <title>Group</title>
    <desc>Created with Sketch.</desc>
    <defs></defs>
    <g id="Page-1" stroke="none" stroke-width="1" fill="none" fill-rule="evenodd">
        <g id="Group">
            <path d="M4,4 L8,4 L8,5.6 L4,5.6 L4,4 L4,4 Z M46.4,24.8 L46.4,1.6 L1.6,1.6 L1.6,12.8 L7.2,12.8 L7.2,14.4 L4.8,14.4 L4.8,24 L7.2,24 L7.2,25.6 L0.8,25.6 C0.32,25.6 0,25.28 0,24.8 L0,0.8 C0,0.32 0.32,0 0.8,0 L47.2,0 C47.68,0 48,0.32 48,0.8 L48,24.8 L46.4,24.8 L46.4,24.8 Z M1.6,24 L3.2,24 L3.2,14.4 L1.6,14.4 L1.6,24 L1.6,24 Z M15.2,5.6 L11.2,5.6 L11.2,4 L15.2,4 L15.2,5.6 L15.2,5.6 Z M22.4,5.6 L18.4,5.6 L18.4,4 L22.4,4 L22.4,5.6 L22.4,5.6 Z M29.6,4 L29.6,5.6 L25.6,5.6 L25.6,4 L29.6,4 L29.6,4 Z M29.6,14.4 L26.4,14.4 L26.4,24 L29.6,24 L29.6,25.6 L21.6,25.6 L21.6,24 L24.8,24 L24.8,14.4 L21.6,14.4 L21.6,12.8 L29.6,12.8 L29.6,14.4 L29.6,14.4 Z" id="Shape" fill="#159E31"></path>
            <path d="M47.2,40 L44.96,40 C44.88,40.08 44.88,40.24 44.8,40.32 L46.32,41.839 C46.48,42 46.56,42.16 46.56,42.4 C46.56,42.64 46.48,42.799 46.32,42.96 L42.96,46.32 C42.64,46.64 42.16,46.64 41.84,46.32 L40.32,44.8 C40.24,44.88 40.08,44.88 40,44.96 L40,47.2 C40,47.68 39.68,48 39.2,48 L34.4,48 C33.92,48 33.6,47.68 33.6,47.2 L33.6,44.88 C33.52,44.8 33.44,44.8 33.28,44.72 L31.76,46.24 C31.44,46.56 30.96,46.56 30.64,46.24 L27.28,42.88 C27.12,42.72 27.04,42.56 27.04,42.319 C27.04,42.08 27.12,41.92 27.28,41.76 L28.8,40.24 C28.72,40.16 28.72,40 28.64,39.92 L26.4,39.92 C25.92,39.92 25.6,39.6 25.6,39.12 L25.6,34.32 C25.6,33.84 25.92,33.52 26.4,33.52 L28.72,33.52 C28.8,33.44 28.8,33.36 28.88,33.2 L27.36,31.68 C27.2,31.52 27.12,31.36 27.12,31.12 C27.12,30.88 27.2,30.719 27.36,30.56 L30.72,27.199 C31.04,26.88 31.52,26.88 31.84,27.199 L33.36,28.72 C33.44,28.64 33.6,28.64 33.68,28.56 L33.68,26.4 C33.68,25.92 34,25.6 34.48,25.6 L39.28,25.6 C39.76,25.6 40.08,25.92 40.08,26.4 L40.08,28.72 C40.16,28.799 40.24,28.799 40.4,28.88 L41.92,27.36 C42.24,27.04 42.72,27.04 43.04,27.36 L46.4,30.719 C46.56,30.88 46.64,31.04 46.64,31.28 C46.64,31.52 46.56,31.68 46.4,31.84 L44.8,33.28 C44.88,33.36 44.88,33.52 44.96,33.6 L47.2,33.6 C47.68,33.6 48,33.92 48,34.4 L48,39.2 C48,39.68 47.68,40 47.2,40 L47.2,40 Z M46.4,35.2 L44.4,35.2 C44,35.2 43.68,34.96 43.6,34.56 C43.52,34.4 43.28,33.76 43.2,33.6 C43.12,33.44 43.04,33.28 43.04,33.12 C43.04,32.88 43.12,32.72 43.28,32.56 L44.64,31.199 L42.4,28.96 L41.04,30.32 C40.88,30.48 40.72,30.56 40.48,30.56 C40.16,30.56 38.8,30 38.64,29.76 C38.48,29.6 38.4,29.44 38.4,29.2 L38.4,27.199 L35.2,27.199 L35.2,29.2 C35.2,29.6 34.96,29.92 34.56,30 C34.4,30.08 33.76,30.32 33.6,30.4 C33.44,30.48 33.36,30.56 33.12,30.56 C32.88,30.56 32.72,30.48 32.56,30.32 L31.2,28.96 L28.96,31.199 L30.32,32.56 C30.48,32.72 30.56,32.88 30.56,33.12 C30.56,33.44 30,34.8 29.76,34.96 C29.6,35.12 29.44,35.2 29.2,35.2 L27.2,35.2 L27.2,38.4 L29.2,38.4 C29.6,38.4 29.92,38.64 30,39.04 C30.08,39.2 30.32,39.84 30.4,40 C30.48,40.16 30.56,40.32 30.56,40.48 C30.56,40.72 30.48,40.879 30.32,41.04 L28.96,42.4 L31.2,44.64 L32.56,43.28 C32.72,43.12 32.88,43.04 33.12,43.04 C33.44,43.04 34.8,43.6 34.96,43.84 C35.12,44 35.2,44.16 35.2,44.4 L35.2,46.399 L38.4,46.399 L38.4,44.4 C38.4,44 38.64,43.68 39.04,43.6 C39.2,43.52 39.84,43.28 40,43.2 C40.16,43.12 40.24,43.04 40.48,43.04 C40.72,43.04 40.88,43.12 41.04,43.28 L42.4,44.64 L44.64,42.4 L43.28,41.04 C43.12,40.879 43.04,40.72 43.04,40.48 C43.04,40.32 43.12,40.16 43.2,40 C43.28,39.84 43.6,39.2 43.6,39.04 C43.68,38.72 44,38.4 44.4,38.4 L46.4,38.4 L46.4,35.2 L46.4,35.2 Z M36.8,40 C35.04,40 33.6,38.56 33.6,36.8 C33.6,35.04 35.04,33.6 36.8,33.6 C38.56,33.6 40,35.04 40,36.8 C40,38.56 38.56,40 36.8,40 L36.8,40 Z M36.8,35.2 C35.92,35.2 35.2,35.92 35.2,36.8 C35.2,37.68 35.92,38.4 36.8,38.4 C37.68,38.4 38.4,37.68 38.4,36.8 C38.4,35.92 37.68,35.2 36.8,35.2 L36.8,35.2 Z M41.6,24 C41.36,24 41.2,23.92 41.04,23.76 L38.64,21.36 L39.76,20.24 L40.8,21.28 L40.8,5.6 L42.4,5.6 L42.4,21.28 L43.44,20.24 L44.56,21.36 L42.16,23.76 C42,23.92 41.84,24 41.6,24 L41.6,24 Z M34.4,7.52 L34.4,23.2 L32.8,23.2 L32.8,7.52 L31.76,8.56 L30.64,7.44 L33.04,5.04 C33.36,4.72 33.84,4.72 34.16,5.04 L36.56,7.44 L35.44,8.56 L34.4,7.52 L34.4,7.52 Z M21.6,38.4 L20,38.4 L20,48 L18.4,48 L18.4,38.4 L10.4,38.4 L10.4,40 L13.6,40 L13.6,41.6 L10.4,41.6 L10.4,44 L13.6,44 L13.6,45.6 L10.4,45.6 L10.4,48 L8.8,48 L8.8,38.4 L7.2,38.4 C6.72,38.4 6.4,38.08 6.4,37.6 L6.4,33.6 C6.4,33.12 6.72,32.8 7.2,32.8 L11.2,32.8 L11.2,20 L9.6,20 C9.12,20 8.8,19.68 8.8,19.2 L8.8,11.2 C8.8,10.719 9.12,10.4 9.6,10.4 L19.2,10.4 C19.68,10.4 20,10.719 20,11.2 L20,19.2 C20,19.68 19.68,20 19.2,20 L17.6,20 L17.6,32.8 L21.6,32.8 C22.08,32.8 22.4,33.12 22.4,33.6 L22.4,37.6 C22.4,38.08 22.08,38.4 21.6,38.4 L21.6,38.4 Z M18.4,18.4 L18.4,12 L10.4,12 L10.4,18.4 L12,18.4 L14.4,18.4 L14.4,20 L12.8,20 L12.8,32.8 L16,32.8 L16,19.2 C16,18.72 16.32,18.4 16.8,18.4 L18.4,18.4 L18.4,18.4 Z M20.8,34.4 L16.8,34.4 L12,34.4 L8,34.4 L8,36.8 L9.6,36.8 L19.2,36.8 L20.8,36.8 L20.8,34.4 L20.8,34.4 Z" id="Shape" fill="#59D556"></path>
        </g>
    </g>
</svg>