<?xml version="1.0" encoding="UTF-8" standalone="no"?>
<svg width="57px" height="57px" viewBox="0 0 57 57" version="1.1" xmlns="http://www.w3.org/2000/svg" xmlns:xlink="http://www.w3.org/1999/xlink">
    <!-- Generator: Sketch 40.1 (33804) - http://www.bohemiancoding.com/sketch -->
    <title>Group</title>
    <desc>Created with Sketch.</desc>
    <defs></defs>
    <g id="Page-1" stroke="none" stroke-width="1" fill="none" fill-rule="evenodd">
        <g id="Group">
            <path d="M52.547,57 L4.453,57 C1.998,57 0,55.002 0,52.547 L0,50.765 C0,50.274 0.399,49.875 0.891,49.875 L3.562,49.875 L3.562,16.922 L3.586,16.922 C3.02,16.176 2.672,15.257 2.672,14.25 L2.672,11.578 L2.672,0.891 C2.672,0.399 3.071,0 3.562,0 L53.438,0 C53.929,0 54.328,0.399 54.328,0.891 L54.328,11.578 L54.328,14.25 C54.328,15.257 53.98,16.176 53.414,16.922 L53.438,16.922 L53.438,49.875 L56.109,49.875 C56.601,49.875 57,50.274 57,50.765 L57,52.547 C57,55.002 55.002,57 52.547,57 L52.547,57 Z M9.797,1.781 L4.453,1.781 L4.453,10.687 L9.797,10.687 L9.797,1.781 L9.797,1.781 Z M9.797,12.469 L4.453,12.469 L4.453,14.25 C4.453,15.723 5.652,16.922 7.125,16.922 C8.598,16.922 9.797,15.723 9.797,14.25 L9.797,12.469 L9.797,12.469 Z M16.922,1.781 L11.578,1.781 L11.578,10.687 L16.922,10.687 L16.922,1.781 L16.922,1.781 Z M16.922,12.469 L11.578,12.469 L11.578,14.25 C11.578,15.723 12.777,16.922 14.25,16.922 C15.723,16.922 16.922,15.723 16.922,14.25 L16.922,12.469 L16.922,12.469 Z M24.047,1.781 L18.703,1.781 L18.703,10.687 L24.047,10.687 L24.047,1.781 L24.047,1.781 Z M24.047,12.469 L18.703,12.469 L18.703,14.25 C18.703,15.723 19.902,16.922 21.375,16.922 C22.848,16.922 24.047,15.723 24.047,14.25 L24.047,12.469 L24.047,12.469 Z M31.172,1.781 L25.828,1.781 L25.828,10.687 L31.172,10.687 L31.172,1.781 L31.172,1.781 Z M31.172,12.469 L25.828,12.469 L25.828,14.25 C25.828,15.723 27.027,16.922 28.5,16.922 C29.973,16.922 31.172,15.723 31.172,14.25 L31.172,12.469 L31.172,12.469 Z M38.297,1.781 L32.953,1.781 L32.953,10.687 L38.297,10.687 L38.297,1.781 L38.297,1.781 Z M38.297,12.469 L32.953,12.469 L32.953,14.25 C32.953,15.723 34.152,16.922 35.625,16.922 C37.098,16.922 38.297,15.723 38.297,14.25 L38.297,12.469 L38.297,12.469 Z M45.422,1.781 L40.078,1.781 L40.078,10.687 L45.422,10.687 L45.422,1.781 L45.422,1.781 Z M45.422,12.469 L40.078,12.469 L40.078,14.25 C40.078,15.723 41.277,16.922 42.75,16.922 C44.223,16.922 45.422,15.723 45.422,14.25 L45.422,12.469 L45.422,12.469 Z M46.312,16.894 C45.5,17.985 44.212,18.703 42.75,18.703 C41.288,18.703 40,17.985 39.188,16.894 C38.375,17.985 37.087,18.703 35.625,18.703 C34.163,18.703 32.875,17.985 32.062,16.894 C31.25,17.985 29.962,18.703 28.5,18.703 C27.038,18.703 25.75,17.985 24.938,16.894 C24.125,17.985 22.837,18.703 21.375,18.703 C19.914,18.703 18.625,17.985 17.812,16.894 C17,17.985 15.712,18.703 14.25,18.703 C12.788,18.703 11.5,17.985 10.688,16.894 C9.875,17.985 8.587,18.703 7.125,18.703 C6.491,18.703 5.891,18.566 5.344,18.326 L5.344,49.875 L7.125,49.875 L7.125,28.5 L7.125,26.719 L7.125,20.484 C7.125,19.993 7.524,19.593 8.016,19.593 L48.984,19.593 C49.476,19.593 49.875,19.993 49.875,20.484 L49.875,49.875 L51.656,49.875 L51.656,18.326 C51.109,18.566 50.509,18.703 49.875,18.703 C48.413,18.703 47.125,17.985 46.312,16.894 L46.312,16.894 Z M48.094,26.719 L48.094,21.375 L8.906,21.375 L8.906,26.719 L48.094,26.719 L48.094,26.719 Z M8.906,28.5 L8.906,49.875 L48.094,49.875 L48.094,28.5 L8.906,28.5 L8.906,28.5 Z M52.547,1.781 L47.203,1.781 L47.203,10.687 L52.547,10.687 L52.547,1.781 L52.547,1.781 Z M52.547,12.469 L47.203,12.469 L47.203,14.25 C47.203,15.723 48.402,16.922 49.875,16.922 C51.348,16.922 52.547,15.723 52.547,14.25 L52.547,12.469 L52.547,12.469 Z M55.219,51.656 L52.547,51.656 L48.984,51.656 L8.016,51.656 L4.453,51.656 L1.781,51.656 L1.781,52.547 C1.781,54.02 2.98,55.218 4.453,55.218 L52.547,55.218 C54.02,55.218 55.219,54.02 55.219,52.547 L55.219,51.656 L55.219,51.656 Z M35.625,34.734 C34.152,34.734 32.953,35.933 32.953,37.406 C32.953,38.879 34.152,40.078 35.625,40.078 L35.625,41.859 C33.17,41.859 31.172,39.862 31.172,37.406 C31.172,34.95 33.17,32.953 35.625,32.953 C38.08,32.953 40.078,34.95 40.078,37.406 L38.297,37.406 C38.297,35.933 37.098,34.734 35.625,34.734 L35.625,34.734 Z M12.469,24.938 L10.688,24.938 L10.688,23.156 L12.469,23.156 L12.469,24.938 L12.469,24.938 Z M16.031,24.938 L14.25,24.938 L14.25,23.156 L16.031,23.156 L16.031,24.938 L16.031,24.938 Z M19.594,24.938 L17.812,24.938 L17.812,23.156 L19.594,23.156 L19.594,24.938 L19.594,24.938 Z M39.188,24.938 L21.375,24.938 L21.375,23.156 L39.188,23.156 L39.188,24.938 L39.188,24.938 Z" id="Shape" fill="#159E31"></path>
            <path d="M46,17.229 C45.187,18.118 44.047,18.703 42.75,18.703 C41.288,18.703 40,17.985 39.188,16.894 C39.133,16.968 39.059,17.025 39,17.095 L39,0 L46,0 L46,17.229 L46,17.229 Z M45.422,1.781 L40.078,1.781 L40.078,10.687 L45.422,10.687 L45.422,1.781 L45.422,1.781 Z M45.422,12.469 L40.078,12.469 L40.078,14.25 C40.078,15.723 41.277,16.922 42.75,16.922 C44.223,16.922 45.422,15.723 45.422,14.25 L45.422,12.469 L45.422,12.469 Z M45.466,42.332 C45.527,42.626 45.436,42.929 45.224,43.141 L43.964,44.401 L46.667,47.104 L45.408,48.364 L42.705,45.661 L41.445,46.92 C41.277,47.089 41.05,47.181 40.815,47.181 C40.756,47.181 40.696,47.174 40.637,47.162 C40.343,47.103 40.099,46.898 39.988,46.621 L37.469,40.323 C37.337,39.992 37.414,39.614 37.666,39.362 C37.918,39.109 38.297,39.033 38.627,39.164 L44.925,41.684 C45.203,41.795 45.407,42.039 45.466,42.332 L45.466,42.332 Z M39.896,41.591 L41.142,44.706 L43.01,42.837 L39.896,41.591 L39.896,41.591 Z M28.5,18.703 C27.071,18.703 25.815,18.011 25,16.961 L25,0 L32,0 L32,16.961 C31.185,18.011 29.929,18.703 28.5,18.703 L28.5,18.703 Z M31.172,1.781 L25.828,1.781 L25.828,10.687 L31.172,10.687 L31.172,1.781 L31.172,1.781 Z M31.172,12.469 L25.828,12.469 L25.828,14.25 C25.828,15.723 27.027,16.922 28.5,16.922 C29.973,16.922 31.172,15.723 31.172,14.25 L31.172,12.469 L31.172,12.469 Z M24.047,40.969 L12.469,40.969 C11.977,40.969 11.578,40.57 11.578,40.078 L11.578,32.062 C11.578,31.571 11.977,31.172 12.469,31.172 L24.047,31.172 C24.538,31.172 24.938,31.571 24.938,32.062 L24.938,40.078 C24.938,40.57 24.538,40.969 24.047,40.969 L24.047,40.969 Z M23.156,32.953 L19.594,32.953 L19.594,34.734 L17.812,34.734 L17.812,32.953 L13.359,32.953 L13.359,39.187 L23.156,39.187 L23.156,32.953 L23.156,32.953 Z M14.25,18.703 C12.953,18.703 11.813,18.118 11,17.229 L11,0 L18,0 L18,17.095 C17.941,17.025 17.867,16.968 17.812,16.894 C17,17.985 15.712,18.703 14.25,18.703 L14.25,18.703 Z M16.922,1.781 L11.578,1.781 L11.578,10.687 L16.922,10.687 L16.922,1.781 L16.922,1.781 Z M16.922,12.469 L11.578,12.469 L11.578,14.25 C11.578,15.723 12.777,16.922 14.25,16.922 C15.723,16.922 16.922,15.723 16.922,14.25 L16.922,12.469 L16.922,12.469 Z M26.719,33.844 C26.719,33.608 26.812,33.381 26.98,33.214 L29.652,30.542 L30.911,31.802 L28.5,34.213 L28.5,43.641 C28.5,44.132 28.101,44.531 27.609,44.531 L27.297,44.531 C27.491,44.937 27.609,45.388 27.609,45.867 C27.609,47.586 26.211,48.984 24.492,48.984 C22.773,48.984 21.375,47.586 21.375,45.867 C21.375,45.388 21.493,44.937 21.688,44.531 L19.281,44.531 C19.475,44.937 19.594,45.388 19.594,45.867 C19.594,47.586 18.195,48.984 16.477,48.984 C14.758,48.984 13.359,47.586 13.359,45.867 C13.359,45.388 13.478,44.937 13.672,44.531 L11.578,44.531 L11.578,42.75 L26.719,42.75 L26.719,33.844 L26.719,33.844 Z M16.477,44.531 C15.74,44.531 15.141,45.13 15.141,45.867 C15.141,46.604 15.74,47.203 16.477,47.203 C17.213,47.203 17.812,46.604 17.812,45.867 C17.812,45.13 17.213,44.531 16.477,44.531 L16.477,44.531 Z M24.492,44.531 C23.756,44.531 23.156,45.13 23.156,45.867 C23.156,46.604 23.756,47.203 24.492,47.203 C25.229,47.203 25.828,46.604 25.828,45.867 C25.828,45.13 25.229,44.531 24.492,44.531 L24.492,44.531 Z" id="Shape" fill="#63D760"></path>
        </g>
    </g>
</svg>