<?xml version="1.0" encoding="UTF-8" standalone="no"?>
<svg width="55px" height="49px" viewBox="0 0 55 49" version="1.1" xmlns="http://www.w3.org/2000/svg" xmlns:xlink="http://www.w3.org/1999/xlink">
    <!-- Generator: Sketch 40.1 (33804) - http://www.bohemiancoding.com/sketch -->
    <title>Group</title>
    <desc>Created with Sketch.</desc>
    <defs></defs>
    <g id="Page-1" stroke="none" stroke-width="1" fill="none" fill-rule="evenodd">
        <g id="Group">
            <path d="M50.749,7.783 L49.026,7.783 C48.581,7.783 48.219,7.415 48.219,6.961 C48.219,6.507 48.581,6.14 49.026,6.14 L50.749,6.14 C51.194,6.14 51.556,6.507 51.556,6.961 C51.556,7.415 51.194,7.783 50.749,7.783 L50.749,7.783 Z M45.582,7.783 L28.307,7.783 L28.307,9.647 L28.307,11.291 L28.307,14.032 L28.307,15.676 L28.307,24.269 L28.307,26.594 L28.307,27.185 L28.307,28.83 L28.307,30.693 L28.307,32.337 L28.307,40.339 L28.307,41.983 L28.307,44.724 L28.307,46.368 L28.307,48.177 C28.307,48.631 27.946,48.999 27.5,48.999 C27.054,48.999 26.693,48.631 26.693,48.177 L26.693,46.368 L4.251,46.368 C1.907,46.368 0,44.426 0,42.038 L0,6.961 C0,4.574 1.907,2.632 4.251,2.632 L26.693,2.632 L26.693,0.823 C26.693,0.369 27.054,0.001 27.5,0.001 C27.946,0.001 28.307,0.369 28.307,0.823 L28.307,2.632 L28.307,4.276 L28.307,6.14 L45.582,6.14 C46.028,6.14 46.389,6.507 46.389,6.961 C46.389,7.415 46.028,7.783 45.582,7.783 L45.582,7.783 Z M26.693,7.783 L12.862,7.783 C12.416,7.783 12.055,7.415 12.055,6.961 C12.055,6.507 12.416,6.14 12.862,6.14 L26.693,6.14 L26.693,4.276 L4.251,4.276 C2.797,4.276 1.615,5.481 1.615,6.961 L1.615,9.647 L26.693,9.647 L26.693,7.783 L26.693,7.783 Z M26.693,26.254 C26.693,26.254 26.693,26.254 26.693,26.253 L26.693,11.291 L1.615,11.291 L1.615,42.038 C1.615,43.519 2.797,44.724 4.251,44.724 L26.693,44.724 L26.693,26.254 L26.693,26.254 Z M3.444,41.161 C3.444,40.707 3.806,40.339 4.251,40.339 L5.974,40.339 C6.419,40.339 6.781,40.707 6.781,41.161 C6.781,41.615 6.419,41.983 5.974,41.983 L4.251,41.983 C3.806,41.983 3.444,41.615 3.444,41.161 L3.444,41.161 Z M5.166,32.392 C5.166,31.938 5.528,31.57 5.974,31.57 L6.835,31.57 C7.28,31.57 7.642,31.938 7.642,32.392 C7.642,32.846 7.28,33.214 6.835,33.214 L5.974,33.214 C5.528,33.214 5.166,32.846 5.166,32.392 L5.166,32.392 Z M9.418,14.032 L12.862,14.032 C13.308,14.032 13.669,14.4 13.669,14.854 C13.669,15.308 13.308,15.676 12.862,15.676 L9.418,15.676 C8.972,15.676 8.611,15.308 8.611,14.854 C8.611,14.4 8.972,14.032 9.418,14.032 L9.418,14.032 Z M9.418,40.339 L12.001,40.339 C12.447,40.339 12.808,40.707 12.808,41.161 C12.808,41.615 12.447,41.983 12.001,41.983 L9.418,41.983 C8.972,41.983 8.611,41.615 8.611,41.161 C8.611,40.707 8.972,40.339 9.418,40.339 L9.418,40.339 Z M15.445,40.339 L18.889,40.339 C19.335,40.339 19.697,40.707 19.697,41.161 C19.697,41.615 19.335,41.983 18.889,41.983 L15.445,41.983 C14.999,41.983 14.638,41.615 14.638,41.161 C14.638,40.707 14.999,40.339 15.445,40.339 L15.445,40.339 Z M16.36,23.623 C16.36,23.169 16.722,22.801 17.167,22.801 L19.75,22.801 C20.196,22.801 20.558,23.169 20.558,23.623 C20.558,24.077 20.196,24.445 19.75,24.445 L17.167,24.445 C16.722,24.445 16.36,24.077 16.36,23.623 L16.36,23.623 Z M21.473,31.57 C21.686,31.57 21.893,31.658 22.043,31.811 C22.194,31.964 22.28,32.176 22.28,32.392 C22.28,32.608 22.194,32.821 22.043,32.973 C21.893,33.126 21.685,33.214 21.473,33.214 C21.261,33.214 21.052,33.126 20.902,32.973 C20.751,32.821 20.665,32.608 20.665,32.392 C20.665,32.176 20.751,31.964 20.902,31.811 C21.052,31.658 21.259,31.57 21.473,31.57 L21.473,31.57 Z M22.334,40.339 L24.056,40.339 C24.502,40.339 24.863,40.707 24.863,41.161 C24.863,41.615 24.502,41.983 24.056,41.983 L22.334,41.983 C21.888,41.983 21.526,41.615 21.526,41.161 C21.526,40.707 21.888,40.339 22.334,40.339 L22.334,40.339 Z M23.195,24.445 C22.983,24.445 22.774,24.358 22.624,24.204 C22.474,24.052 22.387,23.839 22.387,23.623 C22.387,23.407 22.474,23.194 22.624,23.042 C22.774,22.889 22.983,22.801 23.195,22.801 C23.407,22.801 23.616,22.889 23.765,23.042 C23.916,23.194 24.002,23.407 24.002,23.623 C24.002,23.839 23.916,24.052 23.765,24.204 C23.616,24.358 23.407,24.445 23.195,24.445 L23.195,24.445 Z M23.195,15.676 L16.306,15.676 C15.86,15.676 15.499,15.308 15.499,14.854 C15.499,14.4 15.86,14.032 16.306,14.032 L23.195,14.032 C23.641,14.032 24.002,14.4 24.002,14.854 C24.002,15.308 23.641,15.676 23.195,15.676 L23.195,15.676 Z M10.279,31.57 L18.028,31.57 C18.474,31.57 18.836,31.938 18.836,32.392 C18.836,32.846 18.474,33.214 18.028,33.214 L10.279,33.214 C9.833,33.214 9.472,32.846 9.472,32.392 C9.472,31.938 9.833,31.57 10.279,31.57 L10.279,31.57 Z M13.723,24.445 L10.279,24.445 C9.833,24.445 9.472,24.077 9.472,23.623 C9.472,23.169 9.833,22.801 10.279,22.801 L13.723,22.801 C14.169,22.801 14.53,23.169 14.53,23.623 C14.53,24.077 14.169,24.445 13.723,24.445 L13.723,24.445 Z M6.835,24.445 L5.974,24.445 C5.528,24.445 5.166,24.077 5.166,23.623 C5.166,23.169 5.528,22.801 5.974,22.801 L6.835,22.801 C7.28,22.801 7.642,23.169 7.642,23.623 C7.642,24.077 7.28,24.445 6.835,24.445 L6.835,24.445 Z M5.974,15.676 L4.251,15.676 C3.806,15.676 3.444,15.308 3.444,14.854 C3.444,14.4 3.806,14.032 4.251,14.032 L5.974,14.032 C6.419,14.032 6.781,14.4 6.781,14.854 C6.781,15.308 6.419,15.676 5.974,15.676 L5.974,15.676 Z M4.251,6.14 C4.463,6.14 4.672,6.227 4.822,6.38 C4.973,6.533 5.059,6.746 5.059,6.961 C5.059,7.177 4.973,7.39 4.822,7.542 C4.672,7.696 4.463,7.783 4.251,7.783 C4.039,7.783 3.831,7.696 3.681,7.542 C3.53,7.39 3.444,7.177 3.444,6.961 C3.444,6.746 3.53,6.533 3.681,6.38 C3.831,6.227 4.039,6.14 4.251,6.14 L4.251,6.14 Z M6.835,6.14 C7.047,6.14 7.256,6.227 7.405,6.38 C7.556,6.533 7.642,6.746 7.642,6.961 C7.642,7.177 7.556,7.39 7.405,7.542 C7.256,7.696 7.047,7.783 6.835,7.783 C6.623,7.783 6.414,7.696 6.264,7.542 C6.114,7.39 6.027,7.177 6.027,6.961 C6.027,6.746 6.114,6.533 6.264,6.38 C6.414,6.227 6.623,6.14 6.835,6.14 L6.835,6.14 Z M9.418,6.14 C9.63,6.14 9.839,6.227 9.988,6.38 C10.139,6.533 10.225,6.746 10.225,6.961 C10.225,7.177 10.139,7.39 9.988,7.542 C9.839,7.696 9.63,7.783 9.418,7.783 C9.206,7.783 8.997,7.696 8.847,7.542 C8.697,7.39 8.611,7.178 8.611,6.961 C8.611,6.746 8.697,6.533 8.847,6.38 C8.997,6.227 9.206,6.14 9.418,6.14 L9.418,6.14 Z" id="Shape" fill="#159E31"></path>
            <path d="M50.749,46.368 L28.307,46.368 L28.307,44.724 L50.749,44.724 C52.203,44.724 53.386,43.519 53.386,42.038 L53.386,11.291 L28.307,11.291 L28.307,9.647 L53.386,9.647 L53.386,6.961 C53.386,5.481 52.203,4.276 50.749,4.276 L28.307,4.276 L28.307,2.632 L50.749,2.632 C53.093,2.632 55,4.574 55,6.961 L55,42.038 C55,44.426 53.093,46.368 50.749,46.368 L50.749,46.368 Z M21.473,37.599 L18.889,37.599 C18.444,37.599 18.082,37.231 18.082,36.776 C18.082,36.323 18.444,35.955 18.889,35.955 L21.473,35.955 C21.918,35.955 22.28,36.323 22.28,36.776 C22.28,37.231 21.918,37.599 21.473,37.599 L21.473,37.599 Z M18.028,20.061 L9.418,20.061 C8.972,20.061 8.611,19.692 8.611,19.238 C8.611,18.785 8.972,18.416 9.418,18.416 L18.028,18.416 C18.474,18.416 18.836,18.785 18.836,19.238 C18.836,19.692 18.474,20.061 18.028,20.061 L18.028,20.061 Z M6.835,37.599 L5.974,37.599 C5.528,37.599 5.166,37.231 5.166,36.776 C5.166,36.323 5.528,35.955 5.974,35.955 L6.835,35.955 C7.28,35.955 7.642,36.323 7.642,36.776 C7.642,37.231 7.28,37.599 6.835,37.599 L6.835,37.599 Z M5.974,28.83 L4.251,28.83 C3.806,28.83 3.444,28.461 3.444,28.008 C3.444,27.553 3.806,27.185 4.251,27.185 L5.974,27.185 C6.419,27.185 6.781,27.553 6.781,28.008 C6.781,28.461 6.419,28.83 5.974,28.83 L5.974,28.83 Z M5.974,20.061 L4.251,20.061 C3.806,20.061 3.444,19.692 3.444,19.238 C3.444,18.785 3.806,18.416 4.251,18.416 L5.974,18.416 C6.419,18.416 6.781,18.785 6.781,19.238 C6.781,19.692 6.419,20.061 5.974,20.061 L5.974,20.061 Z M9.418,27.185 L16.306,27.185 C16.752,27.185 17.114,27.553 17.114,28.008 C17.114,28.461 16.752,28.83 16.306,28.83 L9.418,28.83 C8.972,28.83 8.611,28.461 8.611,28.008 C8.611,27.553 8.972,27.185 9.418,27.185 L9.418,27.185 Z M10.279,35.955 L15.445,35.955 C15.891,35.955 16.252,36.323 16.252,36.776 C16.252,37.231 15.891,37.599 15.445,37.599 L10.279,37.599 C9.833,37.599 9.472,37.231 9.472,36.776 C9.472,36.323 9.833,35.955 10.279,35.955 L10.279,35.955 Z M47.304,30.693 C48.699,30.693 49.834,31.849 49.834,33.269 L49.834,39.408 C49.834,40.828 48.699,41.983 47.304,41.983 L38.694,41.983 C37.299,41.983 36.164,40.828 36.164,39.408 L36.164,33.269 C36.164,31.849 37.299,30.693 38.694,30.693 L47.304,30.693 L47.304,30.693 Z M37.779,33.269 L37.779,39.408 C37.779,39.921 38.189,40.339 38.694,40.339 L47.304,40.339 C47.809,40.339 48.219,39.921 48.219,39.408 L48.219,33.269 C48.219,32.755 47.809,32.337 47.304,32.337 L38.694,32.337 C38.189,32.337 37.779,32.755 37.779,33.269 L37.779,33.269 Z M40.416,34.201 L45.582,34.201 C46.028,34.201 46.389,34.569 46.389,35.023 C46.389,35.477 46.028,35.845 45.582,35.845 L40.416,35.845 C39.97,35.845 39.609,35.477 39.609,35.023 C39.609,34.569 39.97,34.201 40.416,34.201 L40.416,34.201 Z M40.416,36.832 L42.999,36.832 C43.445,36.832 43.806,37.2 43.806,37.654 C43.806,38.108 43.445,38.476 42.999,38.476 L40.416,38.476 C39.97,38.476 39.609,38.108 39.609,37.654 C39.609,37.2 39.97,36.832 40.416,36.832 L40.416,36.832 Z M41.223,19.238 C41.223,20.659 40.088,21.814 38.694,21.814 C37.299,21.814 36.164,20.659 36.164,19.238 C36.164,17.818 37.299,16.662 38.694,16.662 C40.088,16.662 41.223,17.818 41.223,19.238 L41.223,19.238 Z M37.779,19.238 C37.779,19.752 38.189,20.17 38.694,20.17 C39.198,20.17 39.609,19.752 39.609,19.238 C39.609,18.724 39.198,18.307 38.694,18.307 C38.189,18.307 37.779,18.724 37.779,19.238 L37.779,19.238 Z M49.834,16.608 L49.834,26.254 C49.834,27.674 48.699,28.83 47.304,28.83 L28.307,28.83 L28.307,27.185 L47.304,27.185 C47.809,27.185 48.219,26.767 48.219,26.254 L48.219,16.838 L39.265,25.958 C38.949,26.279 38.438,26.279 38.123,25.958 L33.527,21.278 L28.307,26.594 L28.307,24.269 L32.957,19.534 C33.272,19.213 33.783,19.213 34.098,19.534 L38.694,24.215 L47.078,15.676 L28.307,15.676 L28.307,14.032 L47.304,14.032 C48.699,14.032 49.834,15.187 49.834,16.608 L49.834,16.608 Z M34.335,33.269 L34.335,39.408 C34.335,40.828 33.2,41.983 31.805,41.983 L28.307,41.983 L28.307,40.339 L31.805,40.339 C32.31,40.339 32.72,39.921 32.72,39.408 L32.72,33.269 C32.72,32.755 32.31,32.337 31.805,32.337 L28.307,32.337 L28.307,30.693 L31.805,30.693 C33.2,30.693 34.335,31.849 34.335,33.269 L34.335,33.269 Z" id="Shape" fill="#59D556"></path>
        </g>
    </g>
</svg>