<svg xmlns="http://www.w3.org/2000/svg" xmlns:xlink="http://www.w3.org/1999/xlink" preserveAspectRatio="xMidYMid" width="59" height="64" viewBox="0 0 59 64">
  <defs>
    <style>
      .cls-1 {
        fill: #159e31;
        fill-rule: evenodd;
      }
    </style>
  </defs>
  <path d="M55.066,64.000 L32.452,64.000 C32.451,64.000 32.450,64.000 32.449,64.000 C32.447,64.000 32.446,64.000 32.445,64.000 L26.555,64.000 C26.554,64.000 26.552,64.000 26.551,64.000 C26.550,64.000 26.548,64.000 26.547,64.000 L3.933,64.000 C1.764,64.000 0.000,62.373 0.000,60.373 L0.000,57.893 C0.000,55.742 0.668,53.562 1.880,51.756 C3.206,49.781 5.055,48.410 7.227,47.791 C7.248,47.785 7.270,47.780 7.291,47.776 L15.136,46.107 L17.247,42.851 C17.258,42.834 17.269,42.818 17.281,42.802 C17.601,42.368 18.088,42.082 18.618,42.016 C19.147,41.951 19.687,42.111 20.100,42.454 C20.106,42.459 20.112,42.465 20.119,42.470 L29.500,50.682 L38.881,42.470 C38.887,42.465 38.894,42.459 38.900,42.454 C39.313,42.111 39.853,41.951 40.382,42.016 C40.912,42.082 41.399,42.368 41.719,42.802 C41.731,42.818 41.742,42.834 41.753,42.851 L43.864,46.107 L51.709,47.776 C51.730,47.780 51.752,47.785 51.773,47.791 C53.945,48.410 55.794,49.781 57.120,51.756 C58.332,53.562 59.000,55.742 59.000,57.893 L59.000,60.373 C59.000,62.373 57.235,64.000 55.066,64.000 ZM31.251,62.000 L30.659,58.994 C30.601,58.998 30.543,59.000 30.483,59.000 L28.517,59.000 C28.458,59.000 28.399,58.998 28.341,58.994 L27.749,62.000 L31.251,62.000 ZM7.727,49.726 C3.945,50.821 1.967,54.659 1.967,57.893 L1.967,60.373 C1.967,61.271 2.849,62.000 3.933,62.000 L25.744,62.000 L26.495,58.182 C26.201,57.900 25.963,57.558 25.802,57.175 L24.295,58.707 C24.110,58.895 23.860,59.000 23.600,59.000 C23.574,59.000 23.549,58.999 23.523,58.997 C23.236,58.974 22.974,58.825 22.805,58.588 L15.312,48.112 L7.727,49.726 ZM18.856,44.003 L16.929,46.973 L23.718,56.466 L25.854,54.294 C25.855,54.294 25.855,54.294 25.855,54.293 L28.056,52.056 L18.856,44.003 ZM27.533,55.415 L27.533,56.001 C27.533,56.552 27.974,57.001 28.517,57.001 L30.483,57.001 C31.026,57.001 31.467,56.552 31.467,56.001 L31.467,56.001 L31.467,55.415 L29.500,53.415 L27.533,55.415 ZM40.144,44.003 L30.945,52.056 L33.145,54.294 C33.145,54.294 33.145,54.294 33.146,54.294 L35.282,56.466 L42.071,46.974 L40.144,44.003 ZM57.033,57.893 C57.033,54.659 55.055,50.821 51.273,49.726 L43.688,48.112 L36.195,58.588 C36.026,58.825 35.764,58.974 35.477,58.997 C35.451,58.999 35.426,59.000 35.400,59.000 C35.140,59.000 34.890,58.896 34.705,58.707 L33.198,57.175 C33.037,57.558 32.799,57.900 32.505,58.182 L33.256,62.000 L55.067,62.000 C56.151,62.000 57.033,61.271 57.033,60.373 L57.033,57.893 ZM44.273,25.980 C44.273,30.459 42.716,34.993 40.000,38.420 C37.148,42.019 33.422,44.002 29.510,44.002 C25.596,44.002 21.866,42.018 19.006,38.416 C16.281,34.986 14.719,30.450 14.719,25.972 L14.719,23.808 C14.478,22.743 12.783,15.100 12.783,11.004 C12.783,5.706 15.850,2.005 20.242,2.005 C20.310,2.005 20.377,2.012 20.441,2.026 C24.723,-1.079 30.199,0.036 35.499,1.118 C38.660,1.764 41.645,2.374 44.111,2.015 C44.114,2.015 44.118,2.015 44.121,2.014 C44.144,2.011 44.166,2.009 44.189,2.008 C44.199,2.007 44.209,2.006 44.220,2.006 C44.241,2.005 44.262,2.006 44.284,2.007 C44.295,2.007 44.307,2.007 44.318,2.008 C44.337,2.009 44.356,2.012 44.375,2.014 C44.388,2.016 44.402,2.017 44.415,2.019 C44.432,2.022 44.448,2.027 44.464,2.030 C44.479,2.034 44.494,2.037 44.509,2.041 C44.525,2.045 44.540,2.050 44.555,2.056 C44.570,2.060 44.584,2.065 44.599,2.070 C44.615,2.077 44.631,2.084 44.647,2.091 C44.659,2.097 44.672,2.102 44.684,2.108 C44.702,2.117 44.719,2.128 44.737,2.137 C44.746,2.143 44.756,2.148 44.766,2.154 C44.785,2.166 44.802,2.179 44.820,2.192 C44.828,2.197 44.836,2.202 44.843,2.208 C44.861,2.222 44.878,2.236 44.895,2.252 C44.902,2.258 44.909,2.263 44.916,2.270 C44.931,2.284 44.945,2.299 44.960,2.314 C44.968,2.323 44.976,2.331 44.984,2.340 C44.995,2.353 45.006,2.367 45.017,2.381 C45.026,2.393 45.036,2.405 45.045,2.418 C45.053,2.429 45.061,2.441 45.069,2.453 C45.079,2.470 45.090,2.486 45.099,2.503 C45.105,2.513 45.110,2.523 45.116,2.534 C45.126,2.553 45.136,2.573 45.145,2.593 C45.147,2.596 45.148,2.599 45.150,2.602 C46.090,4.774 47.161,12.647 44.273,21.971 L44.273,25.980 ZM16.686,25.972 C16.686,30.001 18.089,34.079 20.536,37.160 C23.015,40.283 26.202,42.002 29.510,42.002 C32.816,42.002 35.998,40.284 38.469,37.165 C40.908,34.088 42.306,30.011 42.307,25.980 L42.307,22.020 L40.533,17.729 C39.833,17.384 37.890,16.503 34.929,15.767 C31.553,14.928 26.141,14.117 19.347,14.929 C18.672,16.461 16.686,21.271 16.686,24.833 L16.686,25.972 ZM43.576,4.082 C43.230,4.108 42.879,4.122 42.524,4.122 C40.218,4.122 37.722,3.612 35.112,3.079 C30.136,2.063 24.992,1.012 21.381,3.801 C21.125,4.000 20.803,4.049 20.515,3.965 C20.428,3.991 20.337,4.005 20.242,4.005 C17.508,4.005 14.750,6.169 14.750,11.004 C14.750,13.111 15.253,16.338 15.743,18.981 C16.609,16.092 17.722,13.729 17.798,13.569 C17.799,13.567 17.800,13.566 17.801,13.564 C17.810,13.544 17.821,13.526 17.831,13.507 C17.837,13.497 17.843,13.486 17.849,13.475 C17.857,13.462 17.866,13.449 17.875,13.436 C17.885,13.422 17.895,13.407 17.905,13.393 C17.906,13.391 17.908,13.390 17.910,13.388 C17.960,13.321 18.019,13.264 18.082,13.214 C18.181,13.136 18.294,13.078 18.419,13.042 C18.430,13.039 18.442,13.035 18.453,13.032 C18.467,13.029 18.482,13.026 18.496,13.024 C18.514,13.020 18.532,13.016 18.551,13.014 C18.553,13.013 18.555,13.013 18.558,13.012 C32.727,11.159 41.413,15.925 41.775,16.128 C41.969,16.237 42.121,16.409 42.206,16.616 L43.105,18.791 C44.754,11.897 44.180,6.301 43.576,4.082 Z" class="cls-1"/>
</svg>
