<svg xmlns="http://www.w3.org/2000/svg" xmlns:xlink="http://www.w3.org/1999/xlink" preserveAspectRatio="xMidYMid" width="60" height="60" viewBox="0 0 60 60">
  <defs>
    <style>
      .cls-1 {
        fill: #159e31;
        fill-rule: evenodd;
      }
    </style>
  </defs>
  <path d="M37.000,60.000 L23.000,60.000 L0.000,60.000 L0.000,16.713 L10.446,-0.000 L23.000,-0.000 L37.000,-0.000 L49.554,-0.000 L60.000,16.713 L60.000,60.000 L37.000,60.000 ZM25.000,58.000 L35.000,58.000 L35.000,55.414 L34.000,56.414 L30.000,52.414 L26.000,56.414 L25.000,55.414 L25.000,58.000 ZM23.000,2.000 L11.554,2.000 L2.804,16.000 L23.000,16.000 L23.000,2.000 ZM35.000,2.000 L30.000,2.000 L25.000,2.000 L25.000,16.000 L30.000,16.000 L35.000,16.000 L35.000,2.000 ZM35.000,18.000 L34.000,18.000 C34.000,18.552 33.552,19.000 33.000,19.000 C32.448,19.000 32.000,18.552 32.000,18.000 L28.000,18.000 C28.000,18.552 27.552,19.000 27.000,19.000 C26.448,19.000 26.000,18.552 26.000,18.000 L25.000,18.000 L25.000,21.586 L26.000,20.586 L30.000,24.586 L34.000,20.586 L35.000,21.586 L35.000,18.000 ZM48.446,2.000 L37.000,2.000 L37.000,16.000 L57.196,16.000 L48.446,2.000 ZM58.000,18.000 L37.000,18.000 L37.000,26.414 L34.000,23.414 L30.000,27.414 L26.000,23.414 L23.000,26.414 L23.000,18.000 L2.000,18.000 L2.000,58.000 L23.000,58.000 L23.000,50.586 L26.000,53.586 L30.000,49.586 L34.000,53.586 L37.000,50.586 L37.000,58.000 L58.000,58.000 L58.000,18.000 ZM20.000,30.000 L40.000,30.000 L40.000,48.000 L20.000,48.000 L20.000,30.000 ZM22.000,46.000 L38.000,46.000 L38.000,32.000 L22.000,32.000 L22.000,46.000 ZM35.000,44.000 L34.000,44.000 C33.448,44.000 33.000,43.553 33.000,43.000 C33.000,42.447 33.448,42.000 34.000,42.000 L35.000,42.000 C35.552,42.000 36.000,42.447 36.000,43.000 C36.000,43.553 35.552,44.000 35.000,44.000 ZM35.000,40.000 L33.000,40.000 C32.448,40.000 32.000,39.553 32.000,39.000 C32.000,38.447 32.448,38.000 33.000,38.000 L35.000,38.000 C35.552,38.000 36.000,38.447 36.000,39.000 C36.000,39.553 35.552,40.000 35.000,40.000 ZM35.000,36.000 L29.000,36.000 C28.448,36.000 28.000,35.553 28.000,35.000 C28.000,34.447 28.448,34.000 29.000,34.000 L35.000,34.000 C35.552,34.000 36.000,34.447 36.000,35.000 C36.000,35.553 35.552,36.000 35.000,36.000 ZM27.000,40.000 L25.000,40.000 C24.448,40.000 24.000,39.553 24.000,39.000 C24.000,38.447 24.448,38.000 25.000,38.000 L27.000,38.000 C27.552,38.000 28.000,38.447 28.000,39.000 C28.000,39.553 27.552,40.000 27.000,40.000 ZM26.000,36.000 L25.000,36.000 C24.448,36.000 24.000,35.553 24.000,35.000 C24.000,34.447 24.448,34.000 25.000,34.000 L26.000,34.000 C26.552,34.000 27.000,34.447 27.000,35.000 C27.000,35.553 26.552,36.000 26.000,36.000 ZM29.290,39.710 C29.110,39.520 29.000,39.270 29.000,39.000 C29.000,38.729 29.110,38.479 29.290,38.290 C29.660,37.920 30.330,37.920 30.710,38.290 C30.890,38.479 31.000,38.740 31.000,39.000 C31.000,39.260 30.890,39.520 30.710,39.710 C30.520,39.890 30.260,40.000 30.000,40.000 C29.740,40.000 29.480,39.890 29.290,39.710 ZM25.000,42.000 L31.000,42.000 C31.552,42.000 32.000,42.447 32.000,43.000 C32.000,43.553 31.552,44.000 31.000,44.000 L25.000,44.000 C24.448,44.000 24.000,43.553 24.000,43.000 C24.000,42.447 24.448,42.000 25.000,42.000 ZM30.000,22.000 C29.448,22.000 29.000,21.552 29.000,21.000 C29.000,20.448 29.448,20.000 30.000,20.000 C30.552,20.000 31.000,20.448 31.000,21.000 C31.000,21.552 30.552,22.000 30.000,22.000 ZM33.000,5.000 C33.552,5.000 34.000,5.448 34.000,6.000 C34.000,6.553 33.552,7.000 33.000,7.000 C32.448,7.000 32.000,6.553 32.000,6.000 C32.000,5.448 32.448,5.000 33.000,5.000 ZM33.000,11.000 C33.552,11.000 34.000,11.448 34.000,12.000 C34.000,12.552 33.552,13.000 33.000,13.000 C32.448,13.000 32.000,12.552 32.000,12.000 C32.000,11.448 32.448,11.000 33.000,11.000 ZM30.000,10.000 C29.448,10.000 29.000,9.552 29.000,9.000 C29.000,8.448 29.448,8.000 30.000,8.000 C30.552,8.000 31.000,8.448 31.000,9.000 C31.000,9.552 30.552,10.000 30.000,10.000 ZM27.000,13.000 C26.448,13.000 26.000,12.552 26.000,12.000 C26.000,11.448 26.448,11.000 27.000,11.000 C27.552,11.000 28.000,11.448 28.000,12.000 C28.000,12.552 27.552,13.000 27.000,13.000 ZM27.000,7.000 C26.448,7.000 26.000,6.553 26.000,6.000 C26.000,5.448 26.448,5.000 27.000,5.000 C27.552,5.000 28.000,5.448 28.000,6.000 C28.000,6.553 27.552,7.000 27.000,7.000 ZM31.000,3.000 C31.000,3.552 30.552,4.000 30.000,4.000 C29.448,4.000 29.000,3.552 29.000,3.000 C29.000,2.448 29.448,2.000 30.000,2.000 C30.552,2.000 31.000,2.448 31.000,3.000 ZM29.000,15.000 C29.000,14.448 29.448,14.000 30.000,14.000 C30.552,14.000 31.000,14.448 31.000,15.000 C31.000,15.552 30.552,16.000 30.000,16.000 C29.448,16.000 29.000,15.552 29.000,15.000 Z" class="cls-1"/>
</svg>
