<svg xmlns="http://www.w3.org/2000/svg" xmlns:xlink="http://www.w3.org/1999/xlink" preserveAspectRatio="xMidYMid" width="60" height="60" viewBox="0 0 60 60">
  <defs>
    <style>
      .cls-1 {
        fill: #159e31;
        fill-rule: evenodd;
      }
    </style>
  </defs>
  <path d="M59.000,60.000 L1.000,60.000 C0.400,60.000 0.000,59.600 0.000,59.000 L0.000,1.000 C0.000,0.400 0.400,-0.000 1.000,-0.000 L59.000,-0.000 C59.600,-0.000 60.000,0.400 60.000,1.000 L60.000,59.000 C60.000,59.600 59.600,60.000 59.000,60.000 ZM58.000,2.000 L2.000,2.000 L2.000,10.000 L58.000,10.000 L58.000,2.000 ZM58.000,12.000 L2.000,12.000 L2.000,58.000 L58.000,58.000 L58.000,12.000 ZM6.000,15.000 L18.000,15.000 C18.600,15.000 19.000,15.400 19.000,16.000 L19.000,26.000 C19.000,26.600 18.600,27.000 18.000,27.000 L6.000,27.000 C5.400,27.000 5.000,26.600 5.000,26.000 L5.000,16.000 C5.000,15.400 5.400,15.000 6.000,15.000 ZM7.000,25.000 L17.000,25.000 L17.000,22.000 L7.000,22.000 L7.000,25.000 ZM7.000,20.000 L17.000,20.000 L17.000,17.000 L7.000,17.000 L7.000,20.000 ZM6.000,30.000 L36.000,30.000 C36.600,30.000 37.000,30.400 37.000,31.000 L37.000,54.000 C37.000,54.600 36.600,55.000 36.000,55.000 L6.000,55.000 C5.400,55.000 5.000,54.600 5.000,54.000 L5.000,31.000 C5.000,30.400 5.400,30.000 6.000,30.000 ZM7.000,53.000 L35.000,53.000 L35.000,32.000 L7.000,32.000 L7.000,53.000 ZM25.000,48.000 L29.000,48.000 L29.000,50.000 L25.000,50.000 L25.000,48.000 ZM19.000,48.000 L23.000,48.000 L23.000,50.000 L19.000,50.000 L19.000,48.000 ZM13.000,48.000 L17.000,48.000 L17.000,50.000 L13.000,50.000 L13.000,48.000 ZM55.000,33.000 L40.000,33.000 L40.000,31.000 L55.000,31.000 L55.000,33.000 ZM55.000,38.000 L40.000,38.000 L40.000,36.000 L55.000,36.000 L55.000,38.000 ZM55.000,43.000 L40.000,43.000 L40.000,41.000 L55.000,41.000 L55.000,43.000 ZM55.000,48.000 L40.000,48.000 L40.000,46.000 L55.000,46.000 L55.000,48.000 ZM55.000,53.000 L40.000,53.000 L40.000,51.000 L55.000,51.000 L55.000,53.000 ZM54.000,27.000 L23.000,27.000 C22.400,27.000 22.000,26.600 22.000,26.000 L22.000,16.000 C22.000,15.400 22.400,15.000 23.000,15.000 L54.000,15.000 C54.600,15.000 55.000,15.400 55.000,16.000 L55.000,26.000 C55.000,26.600 54.600,27.000 54.000,27.000 ZM53.000,17.000 L24.000,17.000 L24.000,25.000 L53.000,25.000 L53.000,17.000 ZM10.000,7.000 L5.000,7.000 L5.000,5.000 L10.000,5.000 L10.000,7.000 ZM18.000,7.000 L13.000,7.000 L13.000,5.000 L18.000,5.000 L18.000,7.000 Z" class="cls-1"/>
</svg>
