<svg xmlns="http://www.w3.org/2000/svg" xmlns:xlink="http://www.w3.org/1999/xlink" preserveAspectRatio="xMidYMid" width="50" height="50" viewBox="0 0 50 50">
  <defs>
    <style>
      .cls-1 {
        fill: #159e31;
        fill-rule: evenodd;
      }
    </style>
  </defs>
  <path d="M47.959,50.000 L2.041,50.000 C0.915,50.000 -0.000,49.084 -0.000,47.959 L-0.000,2.041 C-0.000,0.916 0.915,0.000 2.041,0.000 L47.959,0.000 C49.084,0.000 50.000,0.916 50.000,2.041 L50.000,47.959 C50.000,49.084 49.084,50.000 47.959,50.000 ZM47.959,2.041 L2.041,2.041 L2.041,7.143 L47.959,7.143 L47.959,2.041 ZM47.959,9.184 L2.041,9.184 L2.041,47.959 L47.959,47.959 L47.959,9.184 ZM5.102,37.755 L3.061,37.755 L3.061,35.714 L5.102,35.714 L5.102,37.755 ZM8.163,37.755 L6.122,37.755 L6.122,35.714 L8.163,35.714 L8.163,37.755 ZM43.367,45.918 L6.633,45.918 L6.633,43.877 L43.367,43.877 L43.367,45.918 ZM41.837,15.306 L43.878,15.306 L43.878,17.347 L41.837,17.347 L41.837,15.306 ZM46.939,17.347 L44.898,17.347 L44.898,15.306 L46.939,15.306 L46.939,17.347 ZM38.776,15.306 L40.816,15.306 L40.816,17.347 L38.776,17.347 L38.776,15.306 ZM11.225,37.755 L9.184,37.755 L9.184,35.714 L11.225,35.714 L11.225,37.755 ZM37.755,22.449 C38.880,22.449 39.796,23.364 39.796,24.490 L39.796,28.571 C39.796,29.697 38.880,30.612 37.755,30.612 L36.001,30.612 C35.898,30.891 35.788,31.161 35.669,31.422 L36.907,32.668 C37.290,33.051 37.503,33.563 37.503,34.107 C37.503,34.651 37.290,35.163 36.905,35.548 L34.018,38.436 C33.632,38.821 33.121,39.033 32.577,39.033 C32.033,39.033 31.521,38.821 31.136,38.436 L29.892,37.199 C29.631,37.318 29.361,37.429 29.082,37.531 L29.082,39.286 C29.082,40.411 28.166,41.326 27.041,41.326 L22.959,41.326 C21.834,41.326 20.918,40.411 20.918,39.286 L20.918,37.531 C20.640,37.429 20.369,37.318 20.108,37.200 L18.862,38.438 C18.479,38.821 17.968,39.033 17.423,39.033 C16.879,39.033 16.368,38.821 15.982,38.436 L13.095,35.548 C12.710,35.163 12.497,34.651 12.497,34.107 C12.497,33.563 12.710,33.051 13.095,32.666 L14.331,31.423 C14.212,31.161 14.102,30.891 13.999,30.612 L12.245,30.612 C11.120,30.612 10.204,29.697 10.204,28.571 L10.204,24.490 C10.204,23.364 11.120,22.449 12.245,22.449 L13.999,22.449 C14.102,22.170 14.212,21.900 14.331,21.639 L13.093,20.393 C12.710,20.010 12.497,19.498 12.497,18.954 C12.497,18.410 12.710,17.898 13.095,17.513 L15.982,14.625 C16.368,14.240 16.879,14.028 17.423,14.028 C17.967,14.028 18.479,14.240 18.864,14.625 L20.108,15.862 C20.369,15.743 20.639,15.632 20.918,15.530 L20.918,13.776 C20.918,12.650 21.834,11.735 22.959,11.735 L27.041,11.735 C28.166,11.735 29.081,12.650 29.081,13.776 L29.081,15.530 C29.360,15.632 29.631,15.743 29.892,15.862 L31.138,14.623 C31.521,14.240 32.032,14.028 32.576,14.028 C33.120,14.028 33.632,14.240 34.017,14.625 L36.905,17.513 C37.290,17.898 37.502,18.410 37.502,18.954 C37.502,19.498 37.290,20.010 36.905,20.395 L35.669,21.639 C35.788,21.900 35.898,22.170 36.001,22.449 L37.755,22.449 ZM33.705,20.719 L35.460,18.954 L32.574,16.069 L30.811,17.826 C30.490,18.145 29.998,18.214 29.601,17.997 C29.056,17.698 28.439,17.444 27.768,17.243 C27.336,17.113 27.041,16.716 27.041,16.266 L27.041,13.776 L22.959,13.776 L22.959,16.265 C22.959,16.716 22.664,17.113 22.232,17.243 C21.561,17.444 20.944,17.698 20.399,17.997 C20.002,18.214 19.510,18.145 19.189,17.825 L17.423,16.071 L14.538,18.956 L16.295,20.719 C16.614,21.040 16.684,21.533 16.466,21.929 C16.167,22.475 15.914,23.091 15.712,23.762 C15.583,24.194 15.186,24.490 14.735,24.490 L12.245,24.490 L12.245,28.571 L14.735,28.571 C15.185,28.571 15.583,28.867 15.712,29.299 C15.913,29.970 16.167,30.586 16.466,31.132 C16.684,31.529 16.614,32.021 16.295,32.342 L14.540,34.107 L17.426,36.993 L19.189,35.235 C19.385,35.040 19.645,34.939 19.908,34.939 C20.076,34.939 20.245,34.980 20.399,35.064 C20.944,35.363 21.561,35.617 22.232,35.819 C22.664,35.948 22.959,36.345 22.959,36.796 L22.959,39.286 L27.041,39.286 L27.041,36.796 C27.041,36.345 27.336,35.948 27.768,35.819 C28.439,35.617 29.056,35.364 29.601,35.065 C29.998,34.847 30.490,34.917 30.811,35.236 L32.577,36.991 L35.462,34.105 L33.705,32.342 C33.386,32.021 33.316,31.529 33.534,31.132 C33.833,30.586 34.087,29.970 34.288,29.299 C34.417,28.867 34.815,28.571 35.265,28.571 L37.755,28.571 L37.755,24.490 L35.265,24.490 C34.815,24.490 34.417,24.194 34.288,23.763 C34.087,23.092 33.833,22.475 33.534,21.929 C33.316,21.533 33.386,21.040 33.705,20.719 ZM25.000,31.633 C22.187,31.633 19.898,29.344 19.898,26.531 C19.898,23.717 22.187,21.429 25.000,21.429 C27.813,21.429 30.102,23.717 30.102,26.531 C30.102,29.344 27.813,31.633 25.000,31.633 ZM25.000,23.469 C23.312,23.469 21.939,24.843 21.939,26.531 C21.939,28.219 23.312,29.592 25.000,29.592 C26.688,29.592 28.061,28.219 28.061,26.531 C28.061,24.843 26.688,23.469 25.000,23.469 ZM7.653,5.612 L4.082,5.612 L4.082,3.571 L7.653,3.571 L7.653,5.612 ZM12.755,5.612 L9.184,5.612 L9.184,3.571 L12.755,3.571 L12.755,5.612 ZM45.918,5.612 L42.347,5.612 L42.347,3.571 L45.918,3.571 L45.918,5.612 Z" class="cls-1"/>
</svg>
