<svg xmlns="http://www.w3.org/2000/svg" xmlns:xlink="http://www.w3.org/1999/xlink" preserveAspectRatio="xMidYMid" width="50" height="50" viewBox="0 0 50 50">
  <defs>
    <style>
      .cls-1 {
        fill: #159e31;
        fill-rule: evenodd;
      }
    </style>
  </defs>
  <path d="M47.959,50.000 L2.041,50.000 C0.915,50.000 -0.000,49.084 -0.000,47.959 L-0.000,2.041 C-0.000,0.916 0.915,0.000 2.041,0.000 L47.959,0.000 C49.084,0.000 50.000,0.916 50.000,2.041 L50.000,47.959 C50.000,49.084 49.084,50.000 47.959,50.000 ZM47.959,2.041 L2.041,2.041 L2.041,7.143 L47.959,7.143 L47.959,2.041 ZM47.959,9.184 L2.041,9.184 L2.041,47.959 L47.959,47.959 L47.959,9.184 ZM5.102,37.755 L3.061,37.755 L3.061,35.714 L5.102,35.714 L5.102,37.755 ZM8.163,37.755 L6.122,37.755 L6.122,35.714 L8.163,35.714 L8.163,37.755 ZM43.367,45.918 L6.633,45.918 L6.633,43.877 L43.367,43.877 L43.367,45.918 ZM41.001,30.612 C40.898,30.891 40.788,31.162 40.669,31.422 L41.907,32.668 C42.290,33.051 42.503,33.563 42.503,34.107 C42.503,34.651 42.290,35.163 41.905,35.548 L39.018,38.436 C38.632,38.821 38.121,39.033 37.577,39.033 C37.033,39.033 36.521,38.821 36.136,38.436 L34.892,37.199 C34.631,37.318 34.361,37.429 34.082,37.531 L34.082,39.286 C34.082,40.411 33.166,41.326 32.041,41.326 L27.959,41.326 C26.834,41.326 25.918,40.411 25.918,39.286 L25.918,37.531 C25.639,37.429 25.369,37.318 25.108,37.199 L23.862,38.438 C23.479,38.821 22.968,39.033 22.423,39.033 C21.879,39.033 21.368,38.821 20.982,38.436 L18.095,35.548 C17.710,35.163 17.497,34.651 17.497,34.107 C17.497,33.563 17.710,33.051 18.095,32.666 L19.331,31.423 C19.212,31.162 19.102,30.891 18.999,30.612 L17.245,30.612 C16.120,30.612 15.204,29.697 15.204,28.571 L15.204,24.490 C15.204,23.364 16.120,22.449 17.245,22.449 L18.999,22.449 C19.102,22.170 19.212,21.900 19.331,21.639 L18.093,20.393 C17.710,20.010 17.497,19.498 17.497,18.954 C17.497,18.410 17.710,17.898 18.095,17.513 L20.982,14.626 C21.368,14.241 21.879,14.028 22.423,14.028 C22.967,14.028 23.479,14.240 23.864,14.626 L25.108,15.862 C25.369,15.743 25.639,15.632 25.918,15.530 L25.918,13.776 C25.918,12.650 26.834,11.735 27.959,11.735 L32.041,11.735 C33.166,11.735 34.082,12.650 34.082,13.776 L34.082,15.530 C34.360,15.632 34.631,15.743 34.892,15.862 L36.138,14.623 C36.521,14.240 37.032,14.028 37.576,14.028 C38.121,14.028 38.632,14.240 39.017,14.626 L41.905,17.513 C42.290,17.898 42.502,18.410 42.502,18.954 C42.502,19.498 42.290,20.010 41.905,20.395 L40.669,21.639 C40.788,21.900 40.898,22.170 41.001,22.449 L42.755,22.449 C43.880,22.449 44.796,23.364 44.796,24.490 L44.796,28.571 C44.796,29.697 43.880,30.612 42.755,30.612 L41.001,30.612 ZM42.755,24.490 L40.265,24.490 C39.815,24.490 39.417,24.194 39.288,23.763 C39.087,23.092 38.833,22.475 38.534,21.929 C38.316,21.533 38.386,21.040 38.705,20.719 L40.460,18.954 L37.574,16.069 L35.811,17.826 C35.490,18.145 34.998,18.214 34.601,17.997 C34.056,17.698 33.439,17.444 32.768,17.243 C32.337,17.113 32.041,16.716 32.041,16.266 L32.041,13.776 L27.959,13.776 L27.959,16.265 C27.959,16.716 27.664,17.113 27.232,17.243 C26.561,17.444 25.944,17.698 25.399,17.997 C25.002,18.214 24.510,18.145 24.189,17.826 L22.423,16.071 L19.538,18.956 L21.295,20.719 C21.614,21.040 21.684,21.533 21.466,21.929 C21.167,22.475 20.914,23.091 20.712,23.762 C20.583,24.194 20.185,24.490 19.735,24.490 L17.245,24.490 L17.245,28.571 L19.735,28.571 C20.185,28.571 20.583,28.867 20.712,29.299 C20.913,29.970 21.167,30.586 21.466,31.132 C21.684,31.529 21.614,32.021 21.295,32.342 L19.540,34.107 L22.426,36.993 L24.189,35.235 C24.385,35.041 24.645,34.939 24.908,34.939 C25.076,34.939 25.245,34.980 25.399,35.064 C25.944,35.363 26.561,35.617 27.232,35.819 C27.664,35.948 27.959,36.345 27.959,36.796 L27.959,39.286 L32.041,39.286 L32.041,36.796 C32.041,36.345 32.336,35.948 32.768,35.819 C33.439,35.617 34.056,35.363 34.601,35.065 C34.998,34.847 35.490,34.917 35.811,35.236 L37.577,36.991 L40.462,34.105 L38.705,32.342 C38.386,32.021 38.316,31.529 38.534,31.132 C38.833,30.586 39.087,29.970 39.288,29.299 C39.417,28.867 39.815,28.571 40.265,28.571 L42.755,28.571 L42.755,24.490 ZM32.000,31.000 L32.000,30.000 L35.000,30.000 L35.000,31.000 L32.000,31.000 ZM31.000,29.000 L32.000,29.000 L32.000,30.000 L31.000,30.000 L31.000,29.000 ZM30.000,24.000 L31.000,24.000 L31.000,29.000 L30.000,29.000 L30.000,24.000 ZM32.000,23.000 L32.000,24.000 L31.000,24.000 L31.000,23.000 L32.000,23.000 ZM35.000,22.000 L35.000,23.000 L32.000,23.000 L32.000,22.000 L35.000,22.000 ZM36.000,24.000 L35.000,24.000 L35.000,23.000 L36.000,23.000 L36.000,24.000 ZM35.000,29.000 L36.000,29.000 L36.000,30.000 L35.000,30.000 L35.000,29.000 ZM26.000,24.000 L24.000,24.000 L24.000,23.000 L26.000,23.000 L26.000,22.000 L27.000,22.000 L27.000,31.000 L26.000,31.000 L26.000,24.000 ZM12.184,35.714 L14.224,35.714 L14.224,37.755 L12.184,37.755 L12.184,35.714 ZM9.184,35.714 L11.225,35.714 L11.225,37.755 L9.184,37.755 L9.184,35.714 ZM7.653,5.612 L4.082,5.612 L4.082,3.571 L7.653,3.571 L7.653,5.612 ZM12.755,5.612 L9.184,5.612 L9.184,3.571 L12.755,3.571 L12.755,5.612 ZM45.918,5.612 L42.347,5.612 L42.347,3.571 L45.918,3.571 L45.918,5.612 Z" class="cls-1"/>
</svg>
