<svg xmlns="http://www.w3.org/2000/svg" xmlns:xlink="http://www.w3.org/1999/xlink" preserveAspectRatio="xMidYMid" width="54" height="54" viewBox="0 0 54 54">
  <defs>
    <style>
      .cls-1 {
        fill: #159e31;
        fill-rule: evenodd;
      }
    </style>
  </defs>
  <path d="M45.567,26.463 C45.897,26.136 46.433,26.136 46.763,26.463 L50.596,30.264 C50.926,30.592 50.926,31.122 50.596,31.450 L46.876,35.140 C46.710,35.303 46.494,35.385 46.278,35.385 C46.061,35.385 45.845,35.303 45.680,35.140 C45.350,34.812 45.350,34.281 45.680,33.954 L48.802,30.857 L45.567,27.649 C45.237,27.322 45.237,26.790 45.567,26.463 ZM48.194,4.919 C48.661,4.919 49.040,5.295 49.040,5.758 C49.040,6.221 48.661,6.596 48.194,6.596 L45.263,6.596 C44.796,6.596 44.418,6.221 44.418,5.758 C44.418,5.295 44.796,4.919 45.263,4.919 L48.194,4.919 ZM5.186,4.640 C5.186,3.314 6.273,2.236 7.610,2.236 C8.946,2.236 10.033,3.314 10.033,4.640 C10.033,5.965 8.946,7.044 7.610,7.044 C6.273,7.044 5.186,5.965 5.186,4.640 ZM8.342,4.640 C8.342,4.239 8.014,3.913 7.610,3.913 C7.206,3.913 6.877,4.239 6.877,4.640 C6.877,5.041 7.206,5.367 7.610,5.367 C8.014,5.367 8.342,5.041 8.342,4.640 ZM12.175,4.640 C12.175,3.314 13.263,2.236 14.599,2.236 C15.936,2.236 17.023,3.314 17.023,4.640 C17.023,5.965 15.936,7.044 14.599,7.044 C13.263,7.044 12.175,5.965 12.175,4.640 ZM15.332,4.640 C15.332,4.239 15.003,3.913 14.599,3.913 C14.195,3.913 13.866,4.239 13.866,4.640 C13.866,5.041 14.195,5.367 14.599,5.367 C15.003,5.367 15.332,5.041 15.332,4.640 ZM19.165,4.640 C19.165,3.314 20.252,2.236 21.589,2.236 C22.925,2.236 24.012,3.314 24.012,4.640 C24.012,5.965 22.925,7.044 21.589,7.044 C20.252,7.044 19.165,5.965 19.165,4.640 ZM22.321,4.640 C22.321,4.239 21.993,3.913 21.589,3.913 C21.185,3.913 20.856,4.239 20.856,4.640 C20.856,5.041 21.185,5.367 21.589,5.367 C21.993,5.367 22.321,5.041 22.321,4.640 ZM29.537,5.758 C29.537,5.295 29.915,4.919 30.382,4.919 L41.655,4.919 C42.123,4.919 42.501,5.295 42.501,5.758 C42.501,6.221 42.123,6.596 41.655,6.596 L30.382,6.596 C29.915,6.596 29.537,6.221 29.537,5.758 ZM8.320,35.140 C8.155,35.303 7.939,35.385 7.722,35.385 C7.506,35.385 7.290,35.303 7.124,35.140 L3.404,31.450 C3.074,31.123 3.074,30.592 3.404,30.264 L7.237,26.463 C7.567,26.136 8.103,26.136 8.433,26.463 C8.763,26.790 8.763,27.321 8.433,27.649 L5.198,30.857 L8.320,33.954 C8.650,34.281 8.650,34.812 8.320,35.140 ZM49.772,54.000 L19.559,54.000 C19.092,54.000 18.714,53.624 18.714,53.162 C18.714,52.698 19.092,52.323 19.559,52.323 L49.772,52.323 C51.171,52.323 52.309,51.195 52.309,49.807 L52.309,9.279 L43.008,9.279 C42.541,9.279 42.163,8.904 42.163,8.441 C42.163,7.978 42.541,7.602 43.008,7.602 L52.309,7.602 L52.309,4.193 C52.309,2.805 51.171,1.677 49.772,1.677 L4.228,1.677 C2.829,1.677 1.691,2.805 1.691,4.193 L1.691,7.602 L38.499,7.602 C38.966,7.602 39.345,7.978 39.345,8.441 C39.345,8.904 38.966,9.279 38.499,9.279 L1.691,9.279 L1.691,49.807 C1.691,51.195 2.829,52.323 4.228,52.323 L15.050,52.323 C15.517,52.323 15.896,52.698 15.896,53.162 C15.896,53.625 15.517,54.000 15.050,54.000 L4.228,54.000 C1.896,54.000 0.000,52.119 0.000,49.807 L0.000,4.193 C0.000,1.881 1.896,0.000 4.228,0.000 L49.772,0.000 C52.104,0.000 54.000,1.881 54.000,4.193 L54.000,49.807 C54.000,52.119 52.104,54.000 49.772,54.000 ZM14.746,30.742 L10.601,26.631 C10.270,26.304 10.270,25.773 10.601,25.445 L17.297,18.804 C17.466,18.637 17.701,18.549 17.938,18.560 C17.952,18.559 17.967,18.559 17.981,18.559 L36.019,18.559 C36.034,18.559 36.048,18.559 36.062,18.560 C36.298,18.548 36.535,18.637 36.704,18.804 L43.400,25.445 C43.730,25.773 43.730,26.303 43.400,26.631 L39.254,30.742 C39.096,30.899 38.881,30.988 38.656,30.988 C38.432,30.988 38.217,30.899 38.059,30.742 L36.864,29.558 L36.864,42.205 C36.864,42.668 36.486,43.043 36.019,43.043 L17.981,43.043 C17.514,43.043 17.136,42.668 17.136,42.205 L17.136,29.558 L15.942,30.742 C15.783,30.899 15.568,30.988 15.344,30.988 C15.119,30.988 14.904,30.899 14.746,30.742 ZM22.153,20.236 L23.314,22.225 L25.109,20.236 L22.153,20.236 ZM28.891,20.236 L30.685,22.225 L31.847,20.236 L28.891,20.236 ZM27.845,41.366 L35.173,41.366 L35.173,27.533 C35.173,27.194 35.379,26.888 35.695,26.758 C36.011,26.629 36.375,26.701 36.617,26.940 L38.656,28.963 L41.606,26.038 L35.818,20.298 C35.777,20.288 35.735,20.275 35.695,20.258 C35.678,20.251 35.662,20.244 35.646,20.236 L33.801,20.236 L31.565,24.066 C31.429,24.298 31.189,24.452 30.920,24.480 C30.891,24.483 30.862,24.484 30.833,24.484 C30.594,24.484 30.364,24.384 30.203,24.205 L27.845,21.592 L27.845,41.366 ZM17.383,26.940 C17.625,26.701 17.989,26.629 18.305,26.758 C18.621,26.888 18.827,27.194 18.827,27.533 L18.827,41.366 L26.155,41.366 L26.155,41.366 L26.155,21.592 L23.797,24.205 C23.636,24.384 23.406,24.484 23.167,24.484 C23.138,24.484 23.109,24.483 23.081,24.480 C22.811,24.453 22.571,24.299 22.435,24.066 L20.199,20.236 L18.354,20.236 C18.338,20.244 18.322,20.251 18.305,20.258 C18.265,20.275 18.224,20.288 18.182,20.298 L12.394,26.038 L15.344,28.963 L17.383,26.940 ZM21.138,26.609 L24.069,26.609 C24.536,26.609 24.914,26.984 24.914,27.447 C24.914,27.910 24.536,28.286 24.069,28.286 L21.138,28.286 C20.671,28.286 20.292,27.910 20.292,27.447 C20.292,26.984 20.671,26.609 21.138,26.609 ZM33.708,27.447 C33.708,27.910 33.329,28.286 32.862,28.286 L29.931,28.286 C29.464,28.286 29.086,27.910 29.086,27.447 C29.086,26.984 29.464,26.609 29.931,26.609 L32.862,26.609 C33.329,26.609 33.708,26.984 33.708,27.447 Z" class="cls-1"/>
</svg>
