<svg xmlns="http://www.w3.org/2000/svg" xmlns:xlink="http://www.w3.org/1999/xlink" preserveAspectRatio="xMidYMid" width="54" height="55" viewBox="0 0 54 55">
  <defs>
    <style>
      .cls-1 {
        fill: #159e31;
        fill-rule: evenodd;
      }
    </style>
  </defs>
  <path d="M27.917,38.580 C28.392,38.580 28.777,38.966 28.777,39.442 C28.777,39.917 28.392,40.303 27.917,40.303 L26.083,40.303 C25.608,40.303 25.223,39.917 25.223,39.442 C25.223,38.966 25.608,38.580 26.083,38.580 L27.917,38.580 ZM36.573,31.634 C36.573,33.375 35.159,34.791 33.420,34.791 C31.682,34.791 30.267,33.375 30.267,31.634 C30.267,29.892 31.682,28.476 33.420,28.476 C35.159,28.476 36.573,29.892 36.573,31.634 ZM31.987,31.634 C31.987,32.425 32.630,33.069 33.420,33.069 C34.211,33.069 34.853,32.425 34.853,31.634 C34.853,30.842 34.211,30.198 33.420,30.198 C32.630,30.198 31.987,30.842 31.987,31.634 ZM26.484,31.634 C26.484,33.375 25.070,34.791 23.331,34.791 C21.593,34.791 20.178,33.375 20.178,31.634 C20.178,29.892 21.593,28.476 23.331,28.476 C25.070,28.476 26.484,29.892 26.484,31.634 ZM21.898,31.634 C21.898,32.425 22.541,33.069 23.331,33.069 C24.121,33.069 24.764,32.425 24.764,31.634 C24.764,30.842 24.121,30.198 23.331,30.198 C22.541,30.198 21.898,30.842 21.898,31.634 ZM35.714,12.860 L41.675,12.860 C41.952,12.860 42.211,12.993 42.373,13.218 C42.534,13.442 42.578,13.731 42.491,13.994 L37.905,27.773 C37.788,28.124 37.459,28.361 37.089,28.361 L19.204,28.361 C18.827,28.361 18.494,28.115 18.382,27.755 L12.608,9.071 L7.280,9.071 C6.805,9.071 6.420,8.686 6.420,8.210 C6.420,7.734 6.805,7.349 7.280,7.349 L13.242,7.349 C13.619,7.349 13.952,7.595 14.063,7.955 L15.579,12.860 L21.038,12.860 C21.039,12.860 21.041,12.860 21.042,12.860 L35.708,12.860 C35.710,12.860 35.712,12.860 35.714,12.860 ZM40.482,14.583 L36.416,14.583 L35.833,17.453 L39.527,17.453 L40.482,14.583 ZM36.469,26.639 L37.425,23.768 L34.550,23.768 L33.968,26.639 L36.469,26.639 ZM33.728,19.175 L29.236,19.175 L29.236,22.046 L33.145,22.046 L33.728,19.175 ZM29.236,26.639 L32.213,26.639 L32.796,23.768 L29.236,23.768 L29.236,26.639 ZM24.539,26.639 L27.516,26.639 L27.516,23.768 L23.956,23.768 L24.539,26.639 ZM19.838,26.639 L22.784,26.639 L22.201,23.768 L18.951,23.768 L19.838,26.639 ZM20.336,14.582 L16.112,14.582 L16.999,17.453 L20.918,17.453 L20.336,14.582 ZM21.268,19.175 L17.531,19.175 L18.418,22.046 L21.851,22.046 L21.268,19.175 ZM27.516,14.583 L22.091,14.583 L22.674,17.453 L27.516,17.453 L27.516,14.583 ZM27.516,19.175 L23.023,19.175 L23.606,22.046 L27.516,22.046 L27.516,22.046 L27.516,19.175 ZM29.236,14.582 L29.236,17.453 L34.078,17.453 L34.661,14.582 L29.236,14.582 ZM34.900,22.046 L37.998,22.046 L38.954,19.175 L35.483,19.175 L34.900,22.046 ZM26.541,3.445 L30.210,3.445 C30.685,3.445 31.070,3.830 31.070,4.306 L31.070,6.430 L32.503,6.430 C32.868,6.430 33.193,6.660 33.314,7.005 C33.435,7.349 33.327,7.733 33.042,7.962 L28.915,11.292 C28.758,11.419 28.567,11.482 28.376,11.482 C28.185,11.482 27.994,11.419 27.836,11.292 L23.709,7.962 C23.425,7.733 23.316,7.349 23.437,7.005 C23.559,6.660 23.884,6.430 24.248,6.430 L25.681,6.430 L25.681,4.306 C25.681,3.830 26.066,3.445 26.541,3.445 ZM28.376,9.515 L30.078,8.142 C29.666,8.078 29.350,7.722 29.350,7.291 L29.350,5.167 L27.401,5.167 L27.401,7.291 C27.401,7.722 27.086,8.078 26.674,8.142 L28.376,9.515 ZM53.140,11.253 C53.615,11.253 54.000,11.638 54.000,12.114 L54.000,38.752 C54.000,41.127 52.072,43.058 49.701,43.058 L32.445,43.058 L33.721,53.278 L40.299,53.278 C40.774,53.278 41.159,53.663 41.159,54.139 C41.159,54.614 40.774,55.000 40.299,55.000 L13.701,55.000 C13.226,55.000 12.841,54.614 12.841,54.139 C12.841,53.663 13.226,53.278 13.701,53.278 L20.279,53.278 L21.555,43.058 L14.847,43.058 C14.372,43.058 13.987,42.673 13.987,42.197 C13.987,41.722 14.372,41.336 14.847,41.336 L49.701,41.336 C51.123,41.336 52.280,40.177 52.280,38.752 L52.280,37.547 L1.720,37.547 L1.720,38.752 C1.720,40.177 2.877,41.336 4.299,41.336 L10.720,41.336 C11.195,41.336 11.580,41.722 11.580,42.197 C11.580,42.673 11.195,43.058 10.720,43.058 L4.299,43.058 C1.929,43.058 -0.000,41.127 -0.000,38.752 L-0.000,4.306 C-0.000,1.932 1.929,0.000 4.299,0.000 L49.701,0.000 C52.071,0.000 54.000,1.932 54.000,4.306 L54.000,7.751 C54.000,8.226 53.615,8.612 53.140,8.612 C52.665,8.612 52.280,8.226 52.280,7.751 L52.280,4.306 C52.280,2.881 51.123,1.722 49.701,1.722 L4.299,1.722 C2.877,1.722 1.720,2.881 1.720,4.306 L1.720,35.825 L52.280,35.825 L52.280,12.114 C52.280,11.638 52.665,11.253 53.140,11.253 ZM30.712,43.058 L23.288,43.058 L22.012,53.278 L31.988,53.278 L30.712,43.058 Z" class="cls-1"/>
</svg>
