<svg xmlns="http://www.w3.org/2000/svg" xmlns:xlink="http://www.w3.org/1999/xlink" preserveAspectRatio="xMidYMid" width="53" height="57" viewBox="0 0 53 57">
  <defs>
    <style>
      .cls-1 {
        fill: #159e31;
        fill-rule: evenodd;
      }
    </style>
  </defs>
  <path d="M37.028,12.906 C37.524,12.906 37.925,13.307 37.925,13.802 L37.925,29.098 C37.925,29.593 37.524,29.994 37.028,29.994 L15.972,29.994 C15.476,29.994 15.075,29.593 15.075,29.098 L15.075,13.802 C15.075,13.307 15.476,12.906 15.972,12.906 L37.028,12.906 ZM25.363,14.698 L22.372,14.698 L22.372,19.597 L25.363,19.597 L25.363,14.698 ZM33.140,28.201 L36.131,28.201 L36.131,14.698 L33.140,14.698 L33.140,28.201 ZM16.869,28.201 L31.345,28.201 L31.345,14.698 L27.158,14.698 L27.158,20.494 C27.158,20.989 26.756,21.390 26.261,21.390 L21.475,21.390 C20.979,21.390 20.578,20.989 20.578,20.494 L20.578,14.698 L16.869,14.698 L16.869,28.201 ZM30.269,23.840 C30.269,24.335 29.867,24.736 29.371,24.736 L19.082,24.736 C18.587,24.736 18.185,24.335 18.185,23.840 C18.185,23.344 18.587,22.943 19.082,22.943 L29.371,22.943 C29.867,22.943 30.269,23.344 30.269,23.840 ZM19.082,25.572 L29.371,25.572 C29.867,25.572 30.269,25.973 30.269,26.468 C30.269,26.964 29.867,27.365 29.371,27.365 L19.082,27.365 C18.587,27.365 18.185,26.964 18.185,26.468 C18.185,25.973 18.587,25.572 19.082,25.572 ZM11.799,26.135 C11.323,26.272 10.826,25.997 10.689,25.522 C10.265,24.049 10.050,22.518 10.050,20.972 C10.050,11.912 17.429,4.541 26.500,4.541 C35.571,4.541 42.950,11.912 42.950,20.972 C42.950,30.031 35.571,37.402 26.500,37.402 C20.465,37.402 14.923,34.110 12.038,28.809 C11.802,28.374 11.962,27.830 12.398,27.593 C12.833,27.357 13.378,27.518 13.615,27.953 C16.186,32.676 21.123,35.610 26.500,35.610 C34.581,35.610 41.156,29.043 41.156,20.972 C41.156,12.900 34.581,6.333 26.500,6.333 C18.419,6.333 11.844,12.900 11.844,20.972 C11.844,22.351 12.036,23.715 12.414,25.026 C12.551,25.502 12.275,25.999 11.799,26.135 ZM46.719,45.528 L35.832,45.528 C35.787,45.528 35.744,45.524 35.701,45.518 C32.127,50.590 29.431,53.833 27.635,56.139 C27.340,56.517 26.745,57.000 26.261,57.000 L6.999,57.000 C3.536,57.000 0.718,54.186 0.718,50.726 L0.718,50.009 C0.718,46.550 3.536,43.736 6.999,43.736 L16.060,43.736 C13.754,40.368 11.421,36.679 9.536,33.101 L6.281,33.101 C2.818,33.101 0.000,30.286 0.000,26.827 L0.000,25.393 C0.000,22.170 2.447,19.507 5.583,19.159 C6.506,8.441 15.534,-0.000 26.500,-0.000 C30.451,-0.000 34.300,1.102 37.632,3.187 C40.873,5.215 43.500,8.083 45.230,11.484 C45.454,11.925 45.278,12.464 44.836,12.689 C44.394,12.913 43.854,12.737 43.630,12.296 C40.334,5.817 33.770,1.792 26.500,1.792 C15.912,1.792 7.298,10.396 7.298,20.972 C7.298,30.467 22.991,50.359 26.500,54.688 C30.009,50.359 45.702,30.467 45.702,20.972 C45.702,19.106 45.435,17.262 44.907,15.491 C44.766,15.017 45.036,14.518 45.511,14.377 C45.986,14.236 46.485,14.506 46.627,14.980 C47.204,16.917 47.496,18.933 47.496,20.972 C47.496,23.826 46.249,27.458 44.373,31.308 L46.719,31.308 C50.182,31.308 53.000,34.122 53.000,37.582 L53.000,39.255 C53.000,42.714 50.182,45.528 46.719,45.528 ZM5.504,20.981 C3.399,21.350 1.795,23.187 1.795,25.393 L1.795,26.827 C1.795,29.298 3.807,31.308 6.281,31.308 L6.281,31.308 L8.627,31.308 C6.753,27.462 5.506,23.834 5.504,20.981 ZM17.306,45.528 L6.999,45.528 C4.525,45.528 2.512,47.538 2.512,50.009 L2.512,50.726 C2.512,53.197 4.525,55.207 6.999,55.207 L24.608,55.207 C23.074,53.304 20.286,49.757 17.306,45.528 ZM51.205,37.582 C51.205,35.111 49.193,33.101 46.719,33.101 L43.463,33.101 C41.579,36.679 39.246,40.368 36.939,43.736 L46.719,43.736 C49.193,43.736 51.205,41.726 51.205,39.255 L51.205,37.582 Z" class="cls-1"/>
</svg>
